M48
;Layer_Color=9474304
;FILE_FORMAT=2:5
INCH,LZ
;TYPE=PLATED
T1F00S00C0.00787
T2F00S00C0.01575
T4F00S00C0.03346
T5F00S00C0.03740
T6F00S00C0.03937
;TYPE=NON_PLATED
T7F00S00C0.04685
T8F00S00C0.05906
T9F00S00C0.12598
%
T01
X0035236Y0049134
X0045433Y0050075
X0048183Y004989
X0057228Y0048796
X007035Y0048566
X0081365Y0048558
X0085808Y0048013
X0091686Y0051001
X0097441Y0047244
X0096457Y0041338
X0092622Y00326
X0087476Y003157
X0082571Y002824
X0103347Y002559
X0109523Y0038048
X0114012Y0037236
X0127767Y0044583
X0127559Y0050394
X013811Y0055945
X0134023Y0062295
X0141662Y0064592
X0144068Y0071151
X0145747Y0083384
X0143256Y0084563
X0139653Y008584
X0148622Y00845
X0155234Y0084737
X0154909Y0092527
X0152289Y0095009
X0149669Y0097492
X0154771Y0097629
X0155352Y0105626
X0141352Y0109142
X0133071Y0112172
Y0118635
X0138583
X0143791Y0119227
X0134331Y0125098
X013273Y0131562
X0138583Y0131696
X0141732Y0137795
X0142138Y0148031
X0129921Y0138169
X0116142
X0112143Y0137753
X0113189Y013189
X0112205Y0125
X0105315Y0122162
X0106299Y0132874
X0107283Y0112205
X0111221Y0113189
X0112205Y0107283
X0116979Y0106299
X0130089Y0102957
X0130122Y0095578
X0129921Y0089455
X0122244Y0078891
X0112205Y0081693
X0107584Y0090232
X0093711Y0091338
X0095197Y009389
X0091349Y0093996
X0087498Y0094103
X0088583Y0091338
X0077756Y0090551
X0084252Y0099212
X0090551Y0103346
X009941Y0100127
X0063678Y0099084
X0058812Y0126643
X0081056
X0085039Y0154998
X0063453Y0154202
X0116705Y0155092
X0116873Y0149701
X0149806Y009239
X0150122Y0048
X0104427Y0053728
X0082192Y006297
X0078975Y0068073
X0082378Y007361
X005748Y0062992
X0051969Y0065354
X0045669
X0039322Y00653
X0029528Y0108268
X0114173Y0015748
X017126Y0022047
X0171548Y00442
X0178718Y0040387
X0191732Y0048851
Y0054998
X0191732Y0060984
X0192422Y00672
X0195491Y0073528
X0203937Y0070079
Y0063779
X0207874Y0063779
X0207906Y0067519
X0204725Y0059055
X0205455Y0054274
X0206935Y0049901
X0214173Y0047775
X0214437Y0042663
X0212598Y0025984
X0215748Y0013858
X024561Y0024075
X024807Y0032441
X0251078Y0029544
X0253065Y003153
X026811Y0033464
X0268701Y0038386
X0268595Y004339
X027002Y0045749
X0267734Y0052756
X0262812Y0065995
X0266392Y0075588
X0267717Y007874
X0268645Y0087844
X0256318Y0088296
X0252963Y0083973
X0250113Y0086099
X0246015Y0082235
X0247377Y0078038
X0246319Y0075289
X0247736Y006939
Y0066043
X0245906Y0052603
X0240158Y0047401
X0231565Y0074803
Y0079527
X0231566Y0083098
X0230835Y0085755
X022907Y0101847
X0226059Y0102277
X0225573Y0099331
X0244992Y009859
X0245007Y0095834
X0250662Y0099332
X0250922Y0105001
X0257881Y0105364
X0257072Y0110087
X026006Y0109687
X0262795Y0108169
X0262248Y0113489
X0266884Y0114626
X0269646Y0115007
X0273228Y0114173
X0273122Y0104
X0271213Y0101929
X0271013Y0105994
X0268322Y01071
X028252Y0109744
X028252Y01125
X0284166Y0105511
X0286899Y0105866
X0286965Y0094588
X0294291Y0094488
X0305507Y0094134
X0310108Y009367
X031095Y0105353
X0305674Y0101938
X029975Y0110018
X0299794Y0112773
X0296494Y0115502
X0295276Y0110236
X030273Y011717
X0302299Y0121688
X0311024Y0125984
X0305329Y0140164
X0302171Y0141538
X0302303Y0147318
X0307973Y0147282
X0307382Y0142756
X0290732Y0143005
X0287435Y0142821
X0284626Y0142478
X0285115Y0138226
X0278522Y0136068
X0274452Y0136068
X0273602Y0140931
X0270054Y0137775
X0265803Y0137208
X0263146Y014362
X0262969Y0156142
X0270755Y0149686
X0253945Y0148499
X0239592Y0143917
X0235489Y0147056
X0228618Y0151575
X0226165Y015032
X0226493Y0133097
X0224038Y013454
X0224449Y0119202
X0227335Y0119629
X0233268Y0120079
X0238189
X024311
X0251468Y0112076
X025928Y0099057
X0282742Y0083921
X0290978Y0080319
X0293583Y0081285
X0292323Y0077913
X0295276Y0077756
X0301208Y0080735
X0303453Y008263
X0306299
X0305985Y0077726
X030739Y0068009
X0311792Y006496
X0305959Y0058836
X0303175Y0055292
X0304815Y0045886
X0308425Y0047035
X029665Y0048778
X029673Y0038073
X0299486Y0039949
X0308071Y0033464
X0284391Y0032538
X0277096Y0026327
X027434Y0026327
X0286517Y0054134
X0283465Y0063976
X0278894Y006504
X0292514Y0065938
X0312162Y0082933
X0291354Y0125412
X0292126Y0152401
X0286555
X0299213Y015195
X023935Y0136164
X0204094Y0134481
X0205118Y0131496
X0206197Y0141732
X0205381Y0149235
X0202756Y0153
X0193701Y0143638
X0191128Y0139464
X0185913Y014486
X0179921Y0146456
X017615Y0146781
X0172917Y0143134
X0171973Y0140529
X0171102Y0136361
X0159449Y0138499
X0160137Y0132956
X015748Y0124016
X0158422Y01064
X0166122Y0107629
X0168445Y0105941
X0166122Y00985
X0166298Y0095652
X0172745Y0099315
X017491Y0097583
X017874Y0100787
X018467Y0103587
X019Y0103786
X020496Y0103183
X0207403Y0101747
X0204235Y0095891
X0201654Y00977
X0200622Y00825
X0202086Y0080079
X0206693Y0079724
X0211823Y0086115
X0178856Y0086712
X0173621Y0086215
X0173548Y0079746
X0179183Y0075636
X0159843Y0073228
X01613Y0079527
X0160559Y0087832
X0163461Y00639
X0170276Y0058071
X0172047Y0055512
X0181803Y0113268
X0184338Y0114348
X018502Y0125262
X0187636Y0126129
X0191929Y0124311
X0193701Y0128671
X0197087Y0116
X0182267Y0155466
X0179573Y0156046
X017046Y0155238
X0165524Y0150252
X0161596Y0149972
X015654Y0154965
X031287Y0151633
X0317285Y0151693
X0319668Y0144057
X0316612Y0140081
X0314037Y0139099
X0313664Y0142261
X0325666Y0142716
X0331693
X033023Y0138268
X0334626Y0136041
X0335283Y0140293
X0341535Y0138779
Y0149606
X033869Y015059
X034999Y014734
X0365077Y0145669
X0366514Y0135624
X0373032Y0141732
X0373031Y015059
X0382874Y0146895
X0385827Y012874
Y0125984
X0387953Y0102894
X0367126Y0100394
X0368615Y0110236
X036986Y0113298
X0366142Y011811
X0364369Y0109197
X0358268Y0109252
X0354498Y0109952
X0351875Y0109104
X0349079Y0108557
X0344165Y0111661
X03342Y0112986
X0327879Y0109285
X0322985Y0114749
X0320756Y011637
X0326507Y0123494
X0330168Y0120738
Y0127749
X0318633Y0129
X0314966Y0107209
X0315003Y0100802
X0312532Y009726
X0313639Y009302
X0317666Y0092053
X0320818Y0091307
X0327743Y00919
X0330568Y0091079
X0330709Y0086827
X0327953Y0083071
X0325984Y0085039
X0323264Y0084403
X0318911Y0083042
X032008Y0080547
X0312666Y0078681
X0313055Y006207
X031482Y0054386
X032185Y0050197
X0330551Y0042638
X0332677Y0038386
X0327756Y0036417
X0326772Y0023492
X0332677
X0350787Y0038018
X0348032Y0047135
X0370204Y0048386
X0374016Y0036417
X0380725Y0030579
X0359547Y0034729
X0358268Y0063976
X0362205
X0367402Y0064066
X0370032Y0069077
X0367126Y0077756
X0367405Y0086936
X0370351Y0084917
X0357283Y0080708
X0352329Y0081685
X0350152Y0090034
X0347446Y0090556
X0344002Y0090995
X0346201Y0097728
X0352189
X0333307Y0097441
X0333958Y0100119
X0330434Y00799
X0331244Y0077183
X0337598Y0074803
X034252
X0345659Y0075425
X034813Y0074204
X0359252Y0074803
X0339048Y0070347
X0338853Y0064837
X0330139Y0062989
X0324318Y006713
X0319113Y0067538
X0385627Y0070661
X0421157Y008563
X0429725Y0089567
X0430118Y0063976
X0437836Y0047247
X0431847Y0036811
X0437953Y0022835
X0468105Y0030512
X0457638Y0062205
X0457677Y0068897
X0457638Y0140945
X0419279Y0142495
X0419618Y0152757
X0419279Y0131668
X0419222Y01208
X0360236Y0123858
X0352941Y012037
X0354803Y0118338
X0350314Y0117716
X0348454Y011975
X034851Y0124002
X034352Y0123631
X034437Y0129724
X0348622
X0325787Y0155214
X0497008Y0140945
X0477323Y0101575
X0479331Y0083661
X0476378Y0081535
X0497008Y0062205
X0477323Y0022835
X0485827Y0179921
X049685
X0508159
X0518898
X0502277Y0203154
X0477323Y0240551
X0497008Y0279921
X0479331Y0301378
X0476378Y0299252
X0457677Y0286614
X0457638Y0279921
X0430118Y0281693
X0437836Y0264964
X0431847Y0254527
X0437953Y0240551
X0468105Y0248228
X0380725Y0248295
X0374016Y0254134
X0370204Y0266102
X0367402Y0281783
X0362205Y0281693
X0358268
X0359252Y0292519
X0357283Y0298425
X0352329Y0299401
X0350152Y0307751
X0347446Y0308273
X0344002Y0308711
X0330568Y0308795
X0327743Y0309616
X0320818Y0309024
X0317666Y0309769
X0313639Y0310736
X0318911Y0300759
X032008Y0298263
X0323264Y0302119
X0325984Y0302756
X0327953Y0300787
X0330434Y0297617
X0331244Y02949
X0337598Y0292519
X034252
X0345659Y0293141
X034813Y029192
X0339048Y0288064
X0338853Y0282553
X0330139Y0280705
X0324318Y0284847
X0319113Y0285254
X0313055Y0279787
X031482Y0272102
X032185Y0267913
X0330551Y0260354
X0332677Y0256102
X0327756Y0254134
X0326772Y0241209
X0332677
X0350787Y0255735
X0348032Y0264851
X0359547Y0252446
X0370032Y0286794
X0367126Y0295472
X0367405Y0304652
X0370351Y0302634
X0385627Y0288378
X0421157Y0303346
X0429725Y0307283
X0330709Y0304544
X0312666Y0296397
X0314961Y0181102
X0314305Y0171653
X0319882
X0326772Y0177165
X0330356Y0179331
X0330709Y0173228
X0322395Y015972
X0317505Y0159319
X035Y0181397
X0350492Y0184941
X0358268Y0178149
X0378259Y0177275
X0377264Y0174705
X0377362Y0170236
X0380114Y0170391
X0382874Y0171018
X0382087Y018001
X0385827Y0187008
X0373032Y0163386
X0437953Y0180315
X0309296Y0181622
X030811Y0179134
X0308727Y0171653
X0297343Y0172835
X0297359Y0160813
X0282122Y0156653
X0279322
X0274606Y016248
X0275591Y0165354
X0279528Y0173764
X0286811Y0183268
X0273147Y0186166
X0267607Y0179094
X0262108Y0180512
X0254921Y0179134
X0248795Y0180472
X0231575Y0185811
X022882Y0186614
X0226378Y0185039
X0220139Y0184376
X0213052Y0184025
X0208662Y0185039
X0208122Y01657
X0208327Y0158992
X022445Y0156489
X0226503Y0169166
X0225348Y0171706
X0226378Y017458
X0193701Y0173228
X0183465Y017874
X0168813Y017896
X0163017Y0176171
X0167105Y0170027
X0168348Y0163788
X0172822Y01656
X0158879Y0169724
X016378Y0187874
X0166858Y0187583
X0188116Y0157601
X0267721Y0158217
X0260202Y0168228
X0281496Y0198184
X0298462Y0195569
X029673Y025579
X0299486Y0257665
X0304815Y0263602
X0308425Y0264752
X0303175Y0273009
X0305959Y0276552
X030739Y0285726
X0311792Y0282677
X0312162Y0300649
X0306299Y0300346
X0303453
X0301208Y0298452
X0305985Y0295443
X0295276Y0295472
X0292323Y029563
X0290978Y0298035
X0293583Y0299002
X0282742Y0301637
X0286965Y0312305
X0294291Y0312205
X0305507Y031185
X0310108Y0311387
X0292514Y0283654
X0283465Y0281693
X0278894Y0282756
X0262812Y0283711
X0266392Y0293304
X0267717Y0296457
X0268645Y030556
X0256318Y0306013
X0252963Y0301689
X0250113Y0303815
X0246015Y0299952
X0247377Y0295755
X0246319Y0293006
X0247736Y0287106
Y028376
X0245906Y027032
X0240158Y0265118
X024807Y0250158
X0251078Y024726
X0253065Y0249247
X024561Y0241792
X027434Y0244043
X0277096Y0244043
X0284391Y0250254
X026811Y0251181
X0268701Y0256102
X0268595Y0261107
X027002Y0263465
X0267734Y0270472
X0286517Y027185
X029665Y0266495
X0308071Y0251181
X0214437Y026038
X0214173Y0265492
X0206935Y0267618
X0205455Y0271991
X0204725Y0276771
X0203937Y0281496
X0207874Y0281496
X0207906Y0285236
X0203937Y0287795
X0202086Y0297796
X0200622Y0300216
X0206693Y0297441
X0211823Y0303831
X0230835Y0303471
X0231566Y0300814
X0231565Y0297244
Y0292519
X0195491Y0291245
X0192422Y0284916
X0191732Y0278701
X0191732Y0272714
Y0266568
X0178718Y0258104
X0171548Y0261916
X0172047Y0273228
X0170276Y0275787
X0163461Y0281616
X0159843Y0290945
X01613Y0297244
X0160559Y0305549
X0173621Y0303931
X0178856Y0304429
X0179183Y0293352
X0173548Y0297462
X017126Y0239764
X0212598Y0243701
X0215748Y0231575
X0150122Y0265716
X013811Y0273661
X0134023Y0280011
X0141662Y0282308
X0144068Y0288867
X0145747Y0301101
X0143256Y030228
X0139653Y0303557
X0148622Y0302216
X0155234Y0302453
X0154909Y0310244
X0149806Y0310106
X0129921Y0307172
X0122244Y0296607
X0112205Y0299409
X0107584Y0307948
X0093711Y0309055
X0095197Y0311606
X0091349Y0311713
X0087498Y0311819
X0088583Y0309055
X0077756Y0308268
X0082378Y0291326
X0078975Y028579
X0082192Y0280686
X0081365Y0266275
X0085808Y0265729
X0091686Y0268718
X0097441Y0264961
X0096457Y0259055
X0092622Y0250316
X0087476Y0249287
X0082571Y0245957
X0103347Y0243307
X0109523Y0255765
X0114012Y0254952
X0127767Y02623
X0127559Y026811
X0104427Y0271445
X007035Y0266283
X0057228Y0266513
X0048183Y0267607
X0045433Y0267791
X0035236Y026685
X0039322Y0283016
X0045669Y0283071
X0051969
X005748Y0280709
X0049273Y0202755
X0053937Y0176378
X0043307Y017559
X0032015Y0173819
X0066339Y0172835
X0083622Y0180315
X0120079Y0177953
X0117564Y0190472
X013189Y0189961
X0146452Y0186181
X0149914Y0189237
X0151867Y0181929
X0137441Y0176771
X0107874Y0157874
X0114173Y0233464
X0116979Y0324015
X0112205Y0325
X0111221Y0330905
X0107283Y0329921
X0105315Y0339879
X0112205Y0342716
X0113189Y0349606
X0112143Y0355469
X0116142Y0355886
X0116873Y0367417
X0116705Y0372808
X0107874Y037559
X0085039Y0372714
X0063453Y0371919
X0066339Y0390551
X0053937Y0394094
X0043307Y0393307
X0032015Y0391535
X0049273Y0420472
X0083622Y0398031
X0120079Y0395669
X0117564Y0408189
X013189Y0407677
X0146452Y0403897
X0149914Y0406953
X0151867Y0399645
X0137441Y0394488
X0142138Y0365748
X0141732Y0355512
X0138583Y0349413
X013273Y0349278
X0134331Y0342815
X0133071Y0336352
X0138583
X0143791Y0336944
X0141352Y0326859
X0133071Y0329888
X0130089Y0320674
X0130122Y0313295
X0149669Y0315208
X0152289Y0312726
X0154771Y0315346
X0155352Y0323343
X0129921Y0355886
X0106299Y035059
X0081056Y034436
X0058812
X0063678Y0316801
X0084252Y0316929
X0090551Y0321063
X009941Y0317844
X0029528Y0325984
X0082571Y0463673
X0087476Y0467003
X0092622Y0468033
X0103347Y0461024
X0114173Y0451181
X017126Y045748
X0212598Y0461417
X0215748Y0449291
X024561Y0459508
X024807Y0467875
X0251078Y0464977
X0253065Y0466963
X027434Y046176
X0277096Y046176
X0284391Y0467971
X0281496Y0415901
X0298462Y0413286
X0297343Y0390551
X0297359Y037853
X0299213Y0369667
X0292126Y0370118
X0286555
X0282122Y037437
X0279322
X0274606Y0380197
X0275591Y0383071
X0279528Y0391481
X0286811Y0400984
X0273147Y0403883
X0267607Y0396811
X0262108Y0398228
X0254921Y039685
X0248795Y0398189
X0231575Y0403527
X022882Y0404331
X0226378Y0402756
X0220139Y0402093
X0213052Y0401742
X0208662Y0402756
X0208122Y0383416
X0208327Y0376708
X0202756Y0370716
X0205381Y0366952
X0206197Y0359449
X0204094Y0352198
X0205118Y0349212
X0193701Y0346387
X0191929Y0342027
X0187636Y0343846
X018502Y0342979
X0184338Y0332065
X0181803Y0330984
X018467Y0321304
X019Y0321502
X017874Y0318504
X017491Y0315299
X0172745Y0317032
X0166122Y0316216
X0166298Y0313368
X0166122Y0325345
X0168445Y0323658
X0158422Y0324116
X015748Y0341732
X0160137Y0350672
X0159449Y0356215
X0161596Y0367689
X0165524Y0367968
X017046Y0372954
X0179573Y0373762
X0182267Y0373182
X0188116Y0375317
X0185913Y0362577
X0179921Y0364173
X017615Y0364498
X0172917Y0360851
X0171973Y0358246
X0171102Y0354078
X0191128Y035718
X0193701Y0361355
X0193701Y0390945
X0183465Y0396457
X0168813Y0396676
X0163017Y0393888
X0167105Y0387743
X0168348Y0381505
X0172822Y0383316
X0158879Y0387441
X015654Y0372681
X016378Y040559
X0166858Y04053
X0226378Y0392297
X0225348Y0389423
X0226503Y0386882
X022445Y0374206
X0226165Y0368037
X0228618Y0369291
X0235489Y0364773
X0239592Y0361633
X023935Y0353881
X0226493Y0350813
X0224038Y0352256
X0224449Y0336918
X0227335Y0337346
X0233268Y0337795
X0238189
X024311
X0251468Y0329793
X0257072Y0327803
X026006Y0327404
X0262795Y0325886
X0262248Y0331206
X0266884Y0332342
X0269646Y0332724
X0273228Y0331889
X0273122Y0321716
X0271213Y0319646
X0271013Y0323711
X0268322Y0324816
X0257881Y032308
X0250922Y0322718
X0250662Y0317049
X0244992Y0316306
X0245007Y031355
X025928Y0316774
X0284166Y0323228
X0286899Y0323582
X028252Y0327461
X028252Y0330217
X0295276Y0327953
X029975Y0327734
X0299794Y033049
X0296494Y0333218
X030273Y0334887
X0302299Y0339405
X0311024Y0343701
X0305329Y0357881
X0302171Y0359254
X0302303Y0365035
X0307973Y0364998
X0307382Y0360472
X0290732Y0360722
X0287435Y0360538
X0284626Y0360194
X0285115Y0355942
X0278522Y0353784
X0274452Y0353785
X0273602Y0358647
X0270054Y0355491
X0265803Y0354924
X0263146Y0361336
X0262969Y0373858
X0267721Y0375934
X0270755Y0367403
X0253945Y0366215
X0260202Y0385945
X0308727Y038937
X030811Y039685
X0309296Y0399338
X0291354Y0343129
X0305674Y0319655
X031095Y032307
X022907Y0319563
X0226059Y0319993
X0225573Y0317047
X0207403Y0319463
X020496Y03209
X0204235Y0313608
X0201654Y0315417
X0197087Y0333716
X0320756Y0334086
X0322985Y0332465
X0327879Y0327002
X03342Y0330703
X0344165Y0329377
X0349079Y0326274
X0351875Y0326821
X0354498Y0327669
X0358268Y0326968
X0364369Y0326913
X0368615Y0327952
X036986Y0331015
X0366142Y0335827
X0354803Y0336054
X0352941Y0338086
X0348454Y0337466
X0350314Y0335433
X034851Y0341718
X034352Y0341348
X034437Y0347441
X0348622
X0341535Y0356496
X0335283Y035801
X0334626Y0353758
X033023Y0355985
X0331693Y0360433
X0325666
X0319668Y0361773
X0316612Y0357798
X0314037Y0356815
X0313664Y0359978
X031287Y0369349
X0317285Y0369409
X0317505Y0377036
X0322395Y0377437
X0325787Y037293
X033869Y0368307
X0341535Y0367323
X034999Y0365056
X0365077Y0363386
X0366514Y0353341
X0373032Y0359449
X0373031Y0368307
X0373032Y0381102
X0377362Y0387953
X0380114Y0388108
X0382874Y0388735
X0377264Y0392421
X0378259Y0394991
X0382087Y0397727
X0385827Y0404724
X0358268Y0395866
X035Y0399114
X0350492Y0402657
X0330356Y0397047
X0326772Y0394882
X0330709Y0390945
X0319882Y038937
X0314305
X0314961Y0398819
X0318633Y0346716
X0330168Y0345466
Y0338455
X0326507Y0341211
X0314966Y0324925
X0315003Y0318518
X0312532Y0314976
X0333307Y0315157
X0333958Y0317835
X0346201Y0315445
X0352189
X0367126Y031811
X0387953Y0320611
X0385827Y0343701
Y0346457
X0382874Y0364611
X0419279Y0360212
X0419618Y0370473
X0419279Y0349385
X0419222Y0338516
X0457638Y0358661
X0437953Y0398031
Y0458268
X0468105Y0465945
X0380725Y0466012
X0332677Y0458925
X0326772
X0360236Y0341575
X0477323Y0319291
X0497008Y0358661
X049685Y0397638
X0485827
X0508159
X0518898
X0502277Y042087
X0477323Y0458268
X0497008Y0497638
X0479331Y0519094
X0476378Y0516968
X0477323Y0537008
X0497008Y0576378
X049685Y0615354
X0485827
X0508159
X0518898
X0437953Y0615748
X0419618Y058819
X0419279Y0577928
Y0567101
X0419222Y0556233
X0421157Y0521063
X0429725Y0525
X0430118Y0499409
X0437836Y048268
X0431847Y0472244
X0457638Y0497638
X0457677Y0504331
X0457638Y0576378
X0382874Y0582328
X0373031Y0586023
X0373032Y0577165
X0365077Y0581102
X0366514Y0571057
X0366142Y0553543
X036986Y0548732
X0368615Y0545669
X0364369Y054463
X0358268Y0544685
X0354498Y0545385
X0351875Y0544537
X0349079Y054399
X0344165Y0547094
X03342Y054842
X0327879Y0544718
X0322985Y0550182
X0320756Y0551803
X0326507Y0558927
X0330168Y0556171
Y0563182
X033023Y0573701
X0331693Y057815
X0335283Y0575726
X0334626Y0571474
X0341535Y0574213
Y0585039
X033869Y0586024
X034999Y0582773
X0348622Y0565157
X034437
X034352Y0559064
X034851Y0559435
X0348454Y0555183
X0350314Y055315
X0354803Y0553771
X0352941Y0555803
X0360236Y0559291
X0385827Y0561417
Y0564173
X0387953Y0538328
X0367126Y0535827
X0367405Y0522369
X0370351Y052035
X0367126Y0513189
X0359252Y0510236
X0357283Y0516141
X0352329Y0517118
X0350152Y0525467
X0347446Y0525989
X0344002Y0526428
X0346201Y0533161
X0352189
X0333307Y0532874
X0333958Y0535552
X0330568Y0526512
X0327743Y0527333
X0320818Y0526741
X0317666Y0527486
X0313639Y0528453
X0312532Y0532693
X0315003Y0536235
X0314966Y0542642
X0318633Y0564433
X0316612Y0575514
X0314037Y0574532
X0313664Y0577694
X0319668Y057949
X0325666Y057815
X0325787Y0590647
X0322395Y0595153
X0317505Y0594752
X0317285Y0587126
X031287Y0587066
X0314305Y0607087
X0319882
X0326772Y0612598
X0330356Y0614764
X0330709Y0608661
X0314961Y0616535
X035Y0616831
X0350492Y0620374
X0358268Y0613583
X0378259Y0612708
X0377264Y0610138
X0377362Y0605669
X0380114Y0605824
X0382874Y0606451
X0382087Y0615443
X0385827Y0622441
X0373032Y0598819
X0370032Y0504511
X0367402Y0499499
X0362205Y0499409
X0358268
X0338853Y050027
X0339048Y050578
X0337598Y0510236
X034252
X0345659Y0510858
X034813Y0509637
X0331244Y0512616
X0330434Y0515334
X0327953Y0518504
X0325984Y0520472
X0323264Y0519836
X0318911Y0518475
X032008Y051598
X0312666Y0514114
X0313055Y0497503
X031482Y0489819
X032185Y048563
X0330551Y0478071
X0332677Y0473819
X0327756Y047185
X0350787Y0473451
X0348032Y0482568
X0370204Y0483819
X0374016Y047185
X0359547Y0470162
X0330139Y0498422
X0324318Y0502563
X0319113Y0502971
X0330709Y052226
X0385627Y0506095
X0311792Y0500394
X030739Y0503442
X0305959Y0494269
X0303175Y0490725
X0304815Y0481319
X0308425Y0482468
X029665Y0484211
X029673Y0473506
X0299486Y0475382
X0308071Y0468897
X026811
X0268701Y0473819
X0268595Y0478823
X027002Y0481182
X0267734Y0488189
X0262812Y0501428
X0266392Y0511021
X0267717Y0514173
X0268645Y0523277
X0256318Y0523729
X0252963Y0519406
X0250113Y0521532
X0246015Y0517668
X0247377Y0513471
X0246319Y0510722
X0247736Y0504823
Y0501476
X0245906Y0488036
X0240158Y0482834
X0214173Y0483208
X0214437Y0478096
X0206935Y0485334
X0205455Y0489707
X0204725Y0494488
X0203937Y0499213
X0207874Y0499212
X0207906Y0502952
X0203937Y0505512
X0202086Y0515512
X0200622Y0517933
X0206693Y0515157
X0211823Y0521548
X0204235Y0531324
X0201654Y0533133
X020496Y0538617
X0207403Y053718
X0226059Y053771
X0225573Y0534764
X022907Y053728
X0230835Y0521188
X0231566Y0518531
X0231565Y051496
Y0510236
X0245007Y0531267
X0244992Y0534023
X0250662Y0534765
X0250922Y0540434
X0257881Y0540797
X0257072Y054552
X026006Y054512
X0262795Y0543602
X0262248Y0548923
X0266884Y0550059
X0269646Y055044
X0273228Y0549606
X0273122Y0539433
X0271213Y0537362
X0271013Y0541428
X0268322Y0542533
X028252Y0545177
X028252Y0547933
X0284166Y0540944
X0286899Y0541299
X0286965Y0530021
X0294291Y0529921
X0305507Y0529567
X0310108Y0529104
X031095Y0540786
X0305674Y0537372
X029975Y0545451
X0299794Y0548206
X0296494Y0550935
X0295276Y0545669
X030273Y0552603
X0302299Y0557122
X0311024Y0561417
X0305329Y0575597
X0302171Y0576971
X0302303Y0582751
X0307973Y0582715
X0307382Y0578189
X0290732Y0578438
X0287435Y0578254
X0284626Y0577911
X0285115Y0573659
X0278522Y0571501
X0274452Y0571501
X0273602Y0576364
X0270054Y0573208
X0265803Y0572641
X0263146Y0579053
X0262969Y0591575
X0267721Y059365
X0274606Y0597913
X0275591Y0600787
X0279528Y0609197
X0286811Y0618701
X0273147Y0621599
X0267607Y0614527
X0262108Y0615945
X0254921Y0614567
X0248795Y0615905
X0231575Y0621244
X022882Y0622047
X0226378Y0620472
X0220139Y0619809
X0213052Y0619458
X0208662Y0620472
X0208122Y0601133
X0208327Y0594425
X0202756Y0588433
X0205381Y0584668
X0206197Y0577165
X0204094Y0569914
X0205118Y0566929
X0193701Y0564104
X0191929Y0559744
X0187636Y0561562
X018502Y0560695
X0184338Y0549781
X0181803Y0548701
X018467Y053902
X019Y0539219
X017874Y053622
X017491Y0533016
X0172745Y0534748
X0166122Y0533933
X0166298Y0531085
X0166122Y0543062
X0168445Y0541374
X0158422Y0541833
X015748Y0559449
X0160137Y0568389
X0159449Y0573932
X0161596Y0585406
X0165524Y0585685
X017046Y0590671
X0179573Y0591479
X0182267Y0590899
X0188116Y0593034
X0185913Y0580293
X0179921Y0581889
X017615Y0582214
X0172917Y0578568
X0171973Y0575962
X0171102Y0571794
X0191128Y0574897
X0193701Y0579072
X0193701Y0608661
X0183465Y0614173
X0168813Y0614393
X0163017Y0611604
X0167105Y060546
X0168348Y0599221
X0172822Y0601033
X0158879Y0605157
X015654Y0590398
X016378Y0623307
X0166858Y0623017
X0226378Y0610013
X0225348Y0607139
X0226503Y0604599
X022445Y0591922
X0226165Y0585753
X0228618Y0587008
X0235489Y0582489
X0239592Y057935
X023935Y0571597
X0226493Y056853
X0224038Y0569973
X0224449Y0554635
X0227335Y0555062
X0233268Y0555512
X0238189
X024311
X0251468Y0547509
X025928Y053449
X0282742Y0519354
X0290978Y0515752
X0293583Y0516718
X0292323Y0513346
X0295276Y0513189
X0301208Y0516168
X0303453Y0518063
X0306299
X0305985Y0513159
X0312162Y0518366
X0292514Y0501371
X0283465Y0499409
X0278894Y0500473
X0286517Y0489567
X0291354Y0560845
X0292126Y0587835
X0286555
X0282122Y0592087
X0279322
X0270755Y0585119
X0253945Y0583932
X0260202Y0603661
X0297343Y0608268
X0297359Y0596246
X0299213Y0587383
X0308727Y0607087
X030811Y0614567
X0309296Y0617055
X0197087Y0551433
X0195491Y0508961
X0192422Y0502633
X0191732Y0496418
X0191732Y0490431
Y0484284
X0178718Y0475821
X0171548Y0479633
X0172047Y0490945
X0170276Y0493504
X0163461Y0499333
X0159843Y0508661
X01613Y051496
X0160559Y0523265
X0173621Y0521648
X0178856Y0522145
X0179183Y0511069
X0173548Y0515179
X0155234Y052017
X0148622Y0519933
X0145747Y0518817
X0143256Y0519997
X0139653Y0521274
X0129921Y0524888
X0130122Y0531011
X0130089Y053839
X0133071Y0547605
Y0554068
X0138583
X0143791Y055466
X0141352Y0544575
X0155352Y0541059
X0154771Y0533062
X0152289Y0530442
X0149669Y0532925
X0149806Y0527823
X0154909Y052796
X0144068Y0506584
X0141662Y0500025
X0134023Y0497728
X013811Y0491378
X0127559Y0485827
X0127767Y0480016
X0114012Y0472669
X0109523Y0473481
X0096457Y0476771
X0097441Y0482677
X0091686Y0486434
X0085808Y0483446
X0081365Y0483991
X007035Y0483999
X0057228Y0484229
X0048183Y0485323
X0045433Y0485508
X0035236Y0484567
X0039322Y0500733
X0045669Y0500787
X0051969
X005748Y0498425
X0082192Y0498403
X0078975Y0503506
X0082378Y0509043
X0077756Y0525984
X0088583Y0526771
X0087498Y0529536
X0091349Y0529429
X0095197Y0529323
X0093711Y0526771
X009941Y0535561
X0090551Y0538779
X0084252Y0534645
X0063678Y0534517
X0058812Y0562076
X0081056
X0105315Y0557595
X0112205Y0560433
X0113189Y0567323
X0112143Y0573186
X0116142Y0573602
X0116873Y0585134
X0116705Y0590525
X0107874Y0593307
X0085039Y0590431
X0063453Y0589635
X0066339Y0608268
X0053937Y0611811
X0043307Y0611024
X0032015Y0609252
X0083622Y0615748
X0120079Y0613386
X0137441Y0612205
X0146452Y0621614
X0149914Y062467
X0151867Y0617362
X0142138Y0583464
X0141732Y0573228
X0138583Y0567129
X013273Y0566995
X0134331Y0560531
X0129921Y0573602
X0106299Y0568307
X0107283Y0547638
X0111221Y0548622
X0112205Y0542716
X0116979Y0541732
X0107584Y0525665
X0112205Y0517126
X0122244Y0514324
X0104427Y0489161
X0150122Y0483433
X0029528Y0543701
X0049273Y0638189
X0048183Y070304
X0045433Y0703224
X0035236Y0702283
X0039322Y0718449
X0045669Y0718504
X0051969
X005748Y0716142
X0057228Y0701946
X007035Y0701716
X0081365Y0701708
X0085808Y0701162
X0091686Y0704151
X0097441Y0700394
X0096457Y0694488
X0092622Y0685749
X0087476Y068472
X0082571Y068139
X0103347Y067874
X0109523Y0691198
X0114012Y0690385
X0127767Y0697733
X0127559Y0703543
X013811Y0709094
X0134023Y0715444
X0141662Y0717741
X0144068Y07243
X0145747Y0736534
X0143256Y0737713
X0139653Y073899
X0148622Y0737649
X0155234Y0737886
X0154909Y0745677
X0152289Y0748159
X0149669Y0750641
X0154771Y0750779
X0155352Y0758776
X0141352Y0762292
X0133071Y0765321
Y0771785
X0138583
X0143791Y0772377
X0134331Y0778248
X0112205Y077815
X0105315Y0775312
X0107283Y0765354
X0111221Y0766338
X0112205Y0760433
X0116979Y0759448
X0130089Y0756107
X0130122Y0748728
X0129921Y0742605
X0122244Y073204
X0112205Y0734842
X0107584Y0743382
X0093711Y0744488
X0095197Y0747039
X0091349Y0747146
X0087498Y0747252
X0088583Y0744488
X0077756Y0743701
X0084252Y0752362
X0090551Y0756496
X009941Y0753277
X0063678Y0752234
X0058812Y0779793
X0081056
X0082378Y072676
X0078975Y0721223
X0082192Y0716119
X0104427Y0706878
X0114173Y0668897
X0117564Y0625905
X013189Y0625394
X0150122Y070115
X0149806Y0745539
X0029528Y0761417
X0158422Y075955
X0166122Y0760779
X0168445Y0759091
X0166122Y075165
X0166298Y0748801
X0172745Y0752465
X017491Y0750732
X017874Y0753937
X018467Y0756737
X019Y0756936
X020496Y0756333
X0207403Y0754897
X0204235Y0749041
X0201654Y075085
X0200622Y0735649
X0202086Y0733229
X0206693Y0732874
X0211823Y0739264
X0230835Y0738905
X0231566Y0736247
X0231565Y0732677
Y0727953
X0246319Y0728439
X0247377Y0731188
X0246015Y0735385
X0250113Y0739248
X0252963Y0737122
X0256318Y0741446
X0268645Y0740994
X0267717Y073189
X0266392Y0728737
X0262812Y0719144
X0247736Y0719193
Y0722539
X0245906Y0705753
X0240158Y0700551
X024807Y0685591
X0251078Y0682693
X0253065Y068468
X024561Y0677225
X027434Y0679476
X0277096Y0679476
X0284391Y0685687
X026811Y0686614
X0268701Y0691535
X0268595Y069654
X027002Y0698899
X0267734Y0705905
X0286517Y0707283
X0283465Y0717126
X0278894Y0718189
X0292514Y0719088
X0292323Y0731063
X0295276Y0730905
X0293583Y0734435
X0290978Y0733468
X0301208Y0733885
X0303453Y0735779
X0306299
X0305985Y0730876
X030739Y0721159
X0311792Y071811
X0305959Y0711985
X0303175Y0708442
X0304815Y0699036
X0308425Y0700185
X029665Y0701928
X029673Y0691223
X0299486Y0693098
X0308071Y0686614
X0312162Y0736083
X0310108Y074682
X0305507Y0747283
X0305674Y0755088
X031095Y0758503
X029975Y0763167
X0299794Y0765923
X0296494Y0768651
X0295276Y0763386
X0286899Y0759015
X0284166Y0758661
X028252Y0762894
X028252Y076565
X0273228Y0767322
X0269646Y0768157
X0266884Y0767775
X0262248Y0766639
X0262795Y0761319
X026006Y0762837
X0257072Y0763236
X0257881Y0758513
X0250922Y0758151
X0250662Y0752482
X0244992Y0751739
X0245007Y0748983
X025928Y0752207
X0271213Y0755079
X0273122Y075715
X0271013Y0759144
X0268322Y076025
X0251468Y0765226
X024311Y0773228
X0238189
X0233268
X0227335Y0772779
X0224449Y0772351
X0226059Y0755426
X0225573Y075248
X022907Y0754996
X0197087Y0769149
X0191929Y077746
X0187636Y0779279
X018502Y0778412
X0184338Y0767498
X0181803Y0766417
X0178856Y0739862
X0173621Y0739365
X0173548Y0732895
X0179183Y0728785
X0195491Y0726678
X0192422Y072035
X0191732Y0714134
X0191732Y0708147
Y0702001
X0206935Y0703051
X0205455Y0707424
X0204725Y0712205
X0203937Y0716929
X0207874Y0716929
X0207906Y0720669
X0203937Y0723228
X0214173Y0700925
X0214437Y0695813
X0212598Y0679134
X0215748Y0667008
X017126Y0675197
X0171548Y0697349
X0178718Y0693537
X0172047Y0708661
X0170276Y071122
X0163461Y071705
X0159843Y0726378
X01613Y0732677
X0160559Y0740982
X015748Y0777165
X0291354Y0778562
X0302299Y0774838
X030273Y077032
X0311024Y0779134
X0294291Y0747638
X0286965Y0747738
X0282742Y073707
X0281496Y0633617
X0298462Y0631002
X0326772Y0676642
X0332677
Y0691535
X0330551Y0695787
X0327756Y0689567
X032185Y0703346
X031482Y0707535
X0313055Y071522
X0319113Y0720687
X0324318Y072028
X0330139Y0716138
X0338853Y0717986
X0339048Y0723497
X0337598Y0727953
X034252
X0345659Y0728574
X034813Y0727353
X0352329Y0734834
X0357283Y0733858
X0359252Y0727953
X0367126Y0730905
X0367405Y0740085
X0370351Y0738067
X0370032Y0722227
X0367402Y0717216
X0362205Y0717126
X0358268
X0348032Y0700284
X0350787Y0691168
X0359547Y0687879
X0374016Y0689567
X0380725Y0683728
X0370204Y0701535
X0385627Y0723811
X0387953Y0756044
X0367126Y0753543
X0368615Y0763385
X036986Y0766448
X0366142Y077126
X0364369Y0762347
X0358268Y0762401
X0354498Y0763102
X0351875Y0762254
X0349079Y0761707
X0344165Y076481
X03342Y0766136
X0327879Y0762435
X0322985Y0767899
X0320756Y076952
X0326507Y0776644
X0330168Y0773888
Y0780899
X034352Y0776781
X034851Y0777151
X0348454Y0772899
X0350314Y0770866
X0354803Y0771488
X0352941Y0773519
X0360236Y0777008
X0385827Y0779134
X0419222Y0773949
X0421157Y0738779
X0429725Y0742716
X0430118Y0717126
X0437836Y0700397
X0431847Y068996
X0437953Y0675984
X0468105Y0683661
X0457638Y0715354
X0457677Y0722047
X0350152Y0743184
X0347446Y0743706
X0344002Y0744144
X0346201Y0750878
X0352189
X0333307Y075059
X0333958Y0753268
X0330568Y0744229
X0327743Y0745049
X0320818Y0744457
X0317666Y0745202
X0313639Y0746169
X0312532Y0750409
X0315003Y0753951
X0314966Y0760358
X0318911Y0736192
X032008Y0733696
X0323264Y0737552
X0325984Y0738189
X0327953Y073622
X0330434Y073305
X0331244Y0730333
X0330709Y0739977
X0312666Y0731831
X0476378Y0734685
X0479331Y0736811
X0477323Y0754724
X0497008Y0715354
X0477323Y0675984
X0502277Y0638587
X0497008Y0794094
X049685Y0833071
X0485827
X0508159
X0518898
X0502277Y0856303
X0437953Y0833465
X0419618Y0805906
X0419279Y0795645
Y0784818
X0385827Y078189
X0382874Y0800044
X0373031Y080374
X0373032Y0794882
X0365077Y0798819
X0366514Y0788774
X0348622Y0782874
X034437
X0341535Y0791929
X0335283Y0793443
X0334626Y0789191
X033023Y0791418
X0331693Y0795866
X0325666
X0319668Y0797206
X0316612Y0793231
X0314037Y0792248
X0313664Y0795411
X031287Y0804782
X0317285Y0804842
X0317505Y0812469
X0322395Y081287
X0325787Y0808363
X033869Y080374
X0341535Y0802756
X034999Y0800489
X035Y0834547
X0350492Y083809
X0358268Y0831299
X0378259Y0830424
X0377264Y0827854
X0377362Y0823386
X0380114Y0823541
X0382874Y0824168
X0382087Y083316
X0385827Y0840157
X0373032Y0816535
X0330709Y0826378
X0330356Y083248
X0326772Y0830315
X0319882Y0824803
X0314305
X0314961Y0834252
X0318633Y078215
X0457638Y0794094
X0307382Y0795906
X0305329Y0793314
X0302171Y0794688
X0302303Y0800468
X0307973Y0800431
X0299213Y08051
X0292126Y0805551
X0286555
X0282122Y0809803
X0279322
X0274606Y081563
X0275591Y0818504
X0279528Y0826914
X0286811Y0836417
X0273147Y0839316
X0267607Y0832244
X0262108Y0833661
X0254921Y0832283
X0248795Y0833622
X0231575Y0838961
X022882Y0839764
X0226378Y0838189
X0220139Y0837526
X0213052Y0837175
X0208662Y0838189
X0208122Y0818849
X0208327Y0812142
X0202756Y0806149
X0205381Y0802385
X0206197Y0794882
X0204094Y0787631
X0205118Y0784645
X0193701Y078182
X0191128Y0792613
X0193701Y0796788
X0185913Y079801
X0179921Y0799606
X017615Y0799931
X0172917Y0796284
X0171973Y0793679
X0171102Y0789511
X0159449Y0791648
X0160137Y0786105
X0161596Y0803122
X0165524Y0803401
X017046Y0808387
X0179573Y0809195
X0182267Y0808615
X0188116Y081075
X0193701Y0826378
X0183465Y083189
X0168813Y083211
X0163017Y0829321
X0167105Y0823176
X0168348Y0816938
X0172822Y081875
X0158879Y0822874
X015654Y0808114
X016378Y0841024
X0166858Y0840733
X0226378Y082773
X0225348Y0824856
X0226503Y0822315
X022445Y0809639
X0226165Y080347
X0228618Y0804724
X0235489Y0800206
X0239592Y0797066
X023935Y0789314
X0226493Y0786246
X0224038Y0787689
X0253945Y0801648
X0263146Y079677
X0265803Y0790357
X0270054Y0790924
X0274452Y0789218
X0278522Y0789217
X0285115Y0791375
X0284626Y0795627
X0287435Y0795971
X0290732Y0796155
X0273602Y079408
X0270755Y0802836
X0267721Y0811367
X0262969Y0809291
X0260202Y0821378
X0297343Y0825984
X0297359Y0813963
X0308727Y0824803
X030811Y0832283
X0309296Y0834771
X0298462Y0848719
X0281496Y0851334
X0149914Y0842387
X0146452Y0839331
X0151867Y0835079
X0137441Y0829921
X0120079Y0831102
X0117564Y0843622
X013189Y084311
X0116705Y0808241
X0116873Y080285
X0116142Y0791319
X0112143Y0790902
X0113189Y0785039
X0106299Y0786024
X0107874Y0811024
X0085039Y0808147
X0063453Y0807352
X0066339Y0825984
X0053937Y0829527
X0043307Y082874
X0032015Y0826968
X0049273Y0855905
X0083622Y0833465
X0129921Y0791319
X013273Y0784711
X0138583Y0784846
X0141732Y0790945
X0142138Y0801181
T02
X0036811Y0037323
X0039961
X004311
X0041535Y0040079
X0038386
X0035236
X0044685
X0047835
X0050984
X0054134
X0057284
X0055709Y0037323
X0052559
X0049409
Y0255039
X0052559
X0055709
X0057284Y0257795
X0054134
X0050984
X0047835
X0044685
X0041535
X0038386
X0035236
X0036811Y0255039
X0039961
X004311
Y0472756
X0039961
X0036811
X0035236Y0475512
X0038386
X0041535
X0044685
X0047835
X0050984
X0054134
X0057284
X0055709Y0472756
X0052559
X0049409
Y0690472
X0052559
X0055709
X0057284Y0693228
X0054134
X0050984
X0047835
X0044685
X0041535
X0038386
X0035236
X0036811Y0690472
X0039961
X004311
T04
X0133836Y0010054
X0143836
X0153836
X0163836
X0173836
X0183836
X0193836
X0203836
X0223732
X0233732
X0243732
X0253732
X0263732
X0273732
X0283732
X0293732
X0313645
X0323645
X0333645
X0343645
X0353645
X0363645
X0373645
X0383645
X0363667Y02
X0353667
X0343667
X0333667
X0323667
X0313667
X0313645Y0227771
X0323645
X0333645
X0343645
X0353645
X0363645
X0373645
X0383645
X0293732
X0283732
X0273732
X0263732
X0253732
X0243732
X0233732
X0223732
X0203836
X0193836
X0183836
X0173836
X0163836
X0167852Y0200079
X0177852
X0187852
X0203803Y02
X0213804
X0223803
X0233804
X0243804
X0253803
X0263804
X0273803
X0293667
X0303667
X0157852Y0200079
X0147852
X0137852
X0127852
X0117852
X0107852
X0097852
X0133836Y0227771
X0143836
X0153836
X0147852Y0417795
X0137852
X0127852
X0117852
X0107852
X0097852
X0133836Y0445487
X0143836
X0153836
X0163836
X0173836
X0183836
X0193836
X0203836
X0223732
X0233732
X0243732
X0253732
X0263732
X0273732
X0283732
X0293732
X0293667Y0417716
X0303667
X0273803
X0263804
X0253803
X0243804
X0233804
X0223803
X0213804
X0203803
X0187852Y0417795
X0177852
X0167852
X0157852
X0313667Y0417716
X0323667
X0333667
X0343667
X0353667
X0363667
X0363645Y0445487
X0373645
X0383645
X0353645
X0343645
X0333645
X0323645
X0313645
X0147852Y0635512
X0137852
X0127852
X0117852
X0107852
X0097852
X0133836Y0663204
X0143836
X0153836
X0163836
X0173836
X0183836
X0193836
X0203836
X0223732
X0233732
X0243732
X0253732
X0263732
X0273732
X0283732
X0293732
X0293667Y0635433
X0303667
X0273803
X0263804
X0253803
X0243804
X0233804
X0223803
X0213804
X0203803
X0187852Y0635512
X0177852
X0167852
X0157852
X0313667Y0635433
X0323667
X0333667
X0343667
X0353667
X0363667
X0363645Y0663204
X0373645
X0383645
X0353645
X0343645
X0333645
X0323645
X0313645
X0313667Y085315
X0323667
X0333667
X0343667
X0353667
X0363667
X0303667
X0293667
X0273803
X0263804
X0253803
X0243804
X0233804
X0223803
X0213804
X0203803
X0187852Y0853228
X0177852
X0167852
X0157852
X0147852
X0137852
X0127852
X0117852
X0107852
X0097852
T05
X0393512Y0030049
X0403512
Y0040049
X0393512
Y005005
X0403512
Y0060049
X0393512
Y007005
X0403512
Y008005
X0393512
Y0090049
X0403512
Y0100049
X0393512
Y0110049
X0403512
Y012005
X0393512
Y013005
X0403512
Y014005
X0393512
Y0150049
X0403512
Y0160049
X0393512
Y017005
X0403512
Y018005
X0393512
Y019005
X0403512
Y0200049
X0393512
Y0247766
X0403512
Y0257766
X0393512
Y0267766
X0403512
Y0277766
X0393512
Y0287766
X0403512
Y0297766
X0393512
Y0307766
X0403512
Y0317766
X0393512
Y0327766
X0403512
Y0337766
X0393512
Y0347766
X0403512
Y0357766
X0393512
Y0367766
X0403512
Y0377766
X0393512
Y0387766
X0403512
Y0397766
X0393512
Y0407766
X0403512
Y0417766
X0393512
Y0465483
X0403512
Y0475483
X0393512
Y0485483
X0403512
Y0495483
X0393512
Y0505483
X0403512
Y0515483
X0393512
Y0525483
X0403512
Y0535483
X0393512
Y0545483
X0403512
Y0555483
X0393512
Y0565483
X0403512
Y0575483
X0393512
Y0585483
X0403512
Y0595483
X0393512
Y0605483
X0403512
Y0615483
X0393512
Y0625483
X0403512
Y0635483
X0393512
Y0683199
X0403512
Y0693199
X0393512
Y0703199
X0403512
Y0713199
X0393512
Y0723199
X0403512
Y0733199
X0393512
Y0743199
X0403512
Y0753199
X0393512
Y0763199
X0403512
Y0773199
X0393512
Y0783199
X0403512
Y0793199
X0393512
Y0803199
X0403512
Y0813199
X0393512
Y0823199
X0403512
Y0833199
X0393512
Y0843199
X0403512
Y0853199
X0393512
T06
X0147559Y0033858
X0148819Y0126063
X0147432Y0136063
X0148819Y0146063
X0147432Y0156063
X0157559Y0033858
X0167559
X0177559
X0187559
X0197559
Y0251575
X0187559
X0177559
X0167559
X0157559
X0147559
X0147432Y0176063
X0148819Y0166063
Y0343779
X0147432Y0353779
X0148819Y0363779
X0147432Y0373779
X0148819Y0383779
X0147432Y0393779
X0157559Y0469291
X0167559
X0177559
X0187559
X0197559
X0147559
X0148819Y0561496
X0147432Y0571496
X0148819Y0581496
X0147432Y0591496
X0148819Y0601496
X0147432Y0611496
X0147559Y0687008
X0148819Y0779213
X0157559Y0687008
X0167559
X0177559
X0187559
X0197559
X0147432Y0789213
X0148819Y0799213
X0147432Y0809212
X0148819Y0819213
X0147432Y0829212
T07
X0230837Y0029016
Y0115197
Y0246732
Y0332913
Y0464449
Y055063
Y0682165
Y0768346
T08
X043937Y0097166
X0511102Y0161575
X043937Y0314882
X0511102Y0379292
Y0597008
X043937Y0532599
Y0750316
X0511102Y0814725
T09
X0078622Y001
X0403622
X0472559Y0009605
Y0227321
X0467559Y0199605
X0378622Y02
X0403622Y0227716
X0078622
X0083622Y02
Y0417716
X0078622Y0445433
X0403622
X0378622Y0417716
X0467559Y0417321
X0472559Y0445038
X0083622Y0635433
X0078622Y0663149
X0403622
X0378622Y0635433
X0467559Y0635038
X0472559Y0662754
X0467559Y0852754
X0378622Y085315
X0083622
M30
