G04*
G04 #@! TF.GenerationSoftware,Altium Limited,Altium Designer,23.1.1 (15)*
G04*
G04 Layer_Color=32896*
%FSLAX25Y25*%
%MOIN*%
G70*
G04*
G04 #@! TF.SameCoordinates,62433247-A29E-43A8-B4B8-56B850690A23*
G04*
G04*
G04 #@! TF.FilePolarity,Positive*
G04*
G01*
G75*
%ADD54C,0.00787*%
%ADD73C,0.01000*%
%ADD74C,0.00500*%
G36*
X521653Y860177D02*
X518067D01*
X520990Y855512D01*
X519612D01*
X516762Y860192D01*
Y861067D01*
X521653D01*
Y860177D01*
D02*
G37*
G36*
X44882Y860155D02*
X43730D01*
Y855512D01*
X42593D01*
Y861067D01*
X44882D01*
Y860155D01*
D02*
G37*
G36*
X68395Y860133D02*
X65341D01*
X65231Y860126D01*
X65144Y860119D01*
X65071Y860104D01*
X65013Y860083D01*
X64976Y860061D01*
X64947Y860046D01*
X64933Y860039D01*
X64925Y860032D01*
X64903Y860010D01*
X64889Y859980D01*
X64860Y859915D01*
X64845Y859827D01*
X64830Y859747D01*
X64823Y859660D01*
X64816Y859594D01*
Y859565D01*
Y859543D01*
Y859536D01*
Y859529D01*
Y859251D01*
X64823Y859171D01*
X64830Y859106D01*
X64852Y859047D01*
X64867Y859004D01*
X64889Y858967D01*
X64911Y858945D01*
X64918Y858931D01*
X64925Y858923D01*
X64969Y858894D01*
X65035Y858872D01*
X65100Y858850D01*
X65173Y858843D01*
X65239Y858836D01*
X65290Y858829D01*
X66974D01*
Y857866D01*
X65129D01*
X65027Y857859D01*
X64940Y857852D01*
X64867Y857837D01*
X64816Y857815D01*
X64772Y857794D01*
X64743Y857779D01*
X64728Y857772D01*
X64721Y857764D01*
X64685Y857721D01*
X64656Y857662D01*
X64634Y857597D01*
X64619Y857531D01*
X64612Y857473D01*
X64604Y857422D01*
Y857385D01*
Y857371D01*
Y856970D01*
X64612Y856868D01*
X64619Y856780D01*
X64641Y856715D01*
X64663Y856664D01*
X64685Y856620D01*
X64699Y856598D01*
X64714Y856583D01*
X64721Y856576D01*
X64772Y856547D01*
X64830Y856525D01*
X64969Y856496D01*
X65027Y856489D01*
X65078Y856481D01*
X68359D01*
Y855512D01*
X64641D01*
X64524Y855519D01*
X64415Y855534D01*
X64320Y855548D01*
X64225Y855563D01*
X64145Y855585D01*
X64072Y855599D01*
X64014Y855621D01*
X63956Y855643D01*
X63905Y855665D01*
X63868Y855679D01*
X63839Y855694D01*
X63810Y855709D01*
X63795Y855723D01*
X63781Y855730D01*
X63722Y855781D01*
X63671Y855847D01*
X63598Y855986D01*
X63540Y856146D01*
X63496Y856299D01*
X63475Y856445D01*
X63467Y856510D01*
Y856569D01*
X63460Y856612D01*
Y856649D01*
Y856671D01*
Y856678D01*
Y857247D01*
X63482Y857422D01*
X63525Y857575D01*
X63577Y857706D01*
X63649Y857830D01*
X63722Y857932D01*
X63810Y858019D01*
X63897Y858092D01*
X63985Y858158D01*
X64072Y858209D01*
X64160Y858253D01*
X64240Y858282D01*
X64313Y858304D01*
X64371Y858326D01*
X64415Y858333D01*
X64451Y858340D01*
X64459D01*
X64320Y858377D01*
X64204Y858428D01*
X64094Y858493D01*
X64007Y858566D01*
X63934Y858646D01*
X63868Y858734D01*
X63817Y858829D01*
X63773Y858923D01*
X63744Y859011D01*
X63722Y859098D01*
X63700Y859179D01*
X63693Y859244D01*
X63686Y859303D01*
X63679Y859354D01*
Y859383D01*
Y859390D01*
Y859995D01*
Y860112D01*
X63693Y860221D01*
X63708Y860316D01*
X63722Y860403D01*
X63744Y860483D01*
X63773Y860556D01*
X63802Y860622D01*
X63824Y860673D01*
X63854Y860724D01*
X63883Y860768D01*
X63934Y860826D01*
X63963Y860863D01*
X63977Y860870D01*
X64029Y860906D01*
X64094Y860935D01*
X64233Y860987D01*
X64386Y861016D01*
X64539Y861045D01*
X64685Y861059D01*
X64743D01*
X64801Y861067D01*
X68395D01*
Y860133D01*
D02*
G37*
G36*
X498958Y861052D02*
X499038Y861023D01*
X499104Y860987D01*
X499169Y860935D01*
X499221Y860884D01*
X499257Y860826D01*
X499294Y860768D01*
X499323Y860702D01*
X499359Y860585D01*
X499374Y860527D01*
X499381Y860483D01*
Y860440D01*
X499388Y860411D01*
Y860389D01*
Y860381D01*
Y857874D01*
X495393D01*
Y856467D01*
X499388D01*
Y855512D01*
X495481D01*
X495291Y855526D01*
X495131Y855555D01*
X494992Y855592D01*
X494868Y855643D01*
X494766Y855694D01*
X494679Y855752D01*
X494613Y855818D01*
X494555Y855876D01*
X494511Y855942D01*
X494482Y856000D01*
X494453Y856058D01*
X494438Y856110D01*
X494431Y856153D01*
X494424Y856182D01*
Y856204D01*
Y856211D01*
Y856416D01*
X494431Y856612D01*
Y856802D01*
Y856977D01*
Y857145D01*
Y857298D01*
Y857444D01*
Y857568D01*
Y857691D01*
X494424Y857794D01*
Y857881D01*
Y857954D01*
Y858012D01*
Y858056D01*
Y858085D01*
Y858092D01*
X494446Y858216D01*
X494489Y858333D01*
X494548Y858428D01*
X494621Y858508D01*
X494701Y858581D01*
X494796Y858639D01*
X494890Y858683D01*
X494985Y858727D01*
X495080Y858756D01*
X495167Y858778D01*
X495255Y858792D01*
X495328Y858799D01*
X495393Y858807D01*
X495437Y858814D01*
X498397D01*
Y860126D01*
X494774D01*
Y861067D01*
X498863D01*
X498958Y861052D01*
D02*
G37*
G36*
X510069D02*
X510156Y861023D01*
X510229Y860987D01*
X510288Y860935D01*
X510346Y860884D01*
X510390Y860826D01*
X510426Y860760D01*
X510455Y860702D01*
X510492Y860578D01*
X510506Y860527D01*
X510513Y860476D01*
Y860432D01*
X510521Y860403D01*
Y860381D01*
Y860374D01*
Y856226D01*
X510513Y856110D01*
X510484Y856000D01*
X510441Y855913D01*
X510390Y855832D01*
X510324Y855767D01*
X510258Y855709D01*
X510178Y855657D01*
X510098Y855621D01*
X510025Y855585D01*
X509945Y855563D01*
X509879Y855541D01*
X509814Y855526D01*
X509763Y855519D01*
X509719Y855512D01*
X506307D01*
X506176Y855526D01*
X506059Y855555D01*
X505957Y855592D01*
X505870Y855643D01*
X505797Y855694D01*
X505731Y855752D01*
X505680Y855818D01*
X505644Y855876D01*
X505615Y855942D01*
X505585Y856000D01*
X505571Y856058D01*
X505564Y856110D01*
X505556Y856153D01*
X505549Y856182D01*
Y856204D01*
Y856211D01*
Y856416D01*
Y856612D01*
Y856802D01*
Y856977D01*
Y857145D01*
Y857298D01*
Y857444D01*
Y857568D01*
Y857691D01*
Y857794D01*
Y857881D01*
Y857954D01*
Y858012D01*
Y858056D01*
Y858085D01*
Y858092D01*
X505564Y858216D01*
X505600Y858333D01*
X505644Y858428D01*
X505695Y858508D01*
X505753Y858581D01*
X505819Y858639D01*
X505884Y858683D01*
X505950Y858727D01*
X506023Y858756D01*
X506088Y858778D01*
X506147Y858792D01*
X506205Y858799D01*
X506249Y858807D01*
X506285Y858814D01*
X509529D01*
Y860170D01*
X507991D01*
Y861067D01*
X509974D01*
X510069Y861052D01*
D02*
G37*
G36*
X488256Y857633D02*
Y856707D01*
X485063D01*
Y855512D01*
X484035D01*
Y856707D01*
X483663D01*
Y857633D01*
X484035D01*
Y861067D01*
X485704D01*
X488256Y857633D01*
D02*
G37*
G36*
X34006Y861052D02*
X34115Y861038D01*
X34218Y861023D01*
X34305Y861001D01*
X34385Y860979D01*
X34458Y860950D01*
X34524Y860928D01*
X34575Y860899D01*
X34618Y860870D01*
X34662Y860848D01*
X34691Y860826D01*
X34713Y860812D01*
X34728Y860797D01*
X34743Y860782D01*
X34786Y860724D01*
X34830Y860658D01*
X34888Y860505D01*
X34932Y860338D01*
X34969Y860170D01*
X34983Y860017D01*
X34990Y859951D01*
Y859886D01*
X34998Y859842D01*
Y859798D01*
Y859776D01*
Y859769D01*
Y856787D01*
Y856656D01*
X34983Y856532D01*
X34976Y856423D01*
X34954Y856321D01*
X34939Y856233D01*
X34917Y856146D01*
X34896Y856073D01*
X34866Y856015D01*
X34844Y855956D01*
X34823Y855905D01*
X34801Y855869D01*
X34779Y855840D01*
X34764Y855811D01*
X34750Y855796D01*
X34743Y855781D01*
X34691Y855738D01*
X34626Y855694D01*
X34553Y855657D01*
X34480Y855628D01*
X34312Y855577D01*
X34152Y855548D01*
X33999Y855526D01*
X33933Y855519D01*
X33875D01*
X33824Y855512D01*
X30667D01*
X30551Y855526D01*
X30441Y855534D01*
X30339Y855555D01*
X30252Y855577D01*
X30172Y855599D01*
X30099Y855621D01*
X30033Y855650D01*
X29982Y855672D01*
X29938Y855694D01*
X29895Y855716D01*
X29866Y855738D01*
X29844Y855760D01*
X29829Y855767D01*
X29814Y855781D01*
X29771Y855840D01*
X29727Y855905D01*
X29661Y856058D01*
X29618Y856219D01*
X29581Y856386D01*
X29567Y856540D01*
X29559Y856612D01*
Y856671D01*
X29552Y856722D01*
Y856758D01*
Y856780D01*
Y856787D01*
Y859769D01*
Y859900D01*
X29567Y860024D01*
X29574Y860133D01*
X29596Y860236D01*
X29610Y860330D01*
X29632Y860411D01*
X29661Y860491D01*
X29683Y860549D01*
X29705Y860607D01*
X29734Y860658D01*
X29756Y860695D01*
X29771Y860731D01*
X29793Y860753D01*
X29800Y860768D01*
X29814Y860782D01*
X29866Y860833D01*
X29931Y860877D01*
X29997Y860914D01*
X30077Y860950D01*
X30237Y861001D01*
X30405Y861030D01*
X30551Y861052D01*
X30624Y861059D01*
X30682D01*
X30733Y861067D01*
X33890D01*
X34006Y861052D01*
D02*
G37*
G36*
X56738Y860133D02*
X53290D01*
Y859303D01*
X56563Y856984D01*
X56643Y856926D01*
X56716Y856875D01*
X56782Y856831D01*
X56833Y856787D01*
X56935Y856707D01*
X57000Y856649D01*
X57051Y856605D01*
X57088Y856569D01*
X57102Y856554D01*
X57110Y856547D01*
X57161Y856467D01*
X57197Y856386D01*
X57226Y856306D01*
X57241Y856226D01*
X57248Y856161D01*
X57255Y856110D01*
Y856073D01*
Y856058D01*
X57248Y855942D01*
X57226Y855840D01*
X57197Y855752D01*
X57168Y855687D01*
X57139Y855643D01*
X57110Y855606D01*
X57088Y855585D01*
X57081Y855577D01*
X57022Y855541D01*
X56964Y855526D01*
X56920Y855512D01*
X52182D01*
Y856481D01*
X55593D01*
X52881Y858413D01*
X52794Y858479D01*
X52714Y858537D01*
X52641Y858588D01*
X52583Y858639D01*
X52531Y858683D01*
X52481Y858727D01*
X52408Y858792D01*
X52356Y858843D01*
X52327Y858880D01*
X52313Y858902D01*
X52306Y858909D01*
X52262Y858996D01*
X52233Y859098D01*
X52211Y859200D01*
X52196Y859295D01*
X52189Y859383D01*
X52182Y859456D01*
Y859485D01*
Y859507D01*
Y859514D01*
Y859521D01*
Y859878D01*
Y860010D01*
X52196Y860133D01*
X52203Y860243D01*
X52225Y860338D01*
X52240Y860425D01*
X52262Y860505D01*
X52291Y860578D01*
X52313Y860637D01*
X52335Y860688D01*
X52364Y860731D01*
X52386Y860768D01*
X52400Y860797D01*
X52429Y860833D01*
X52444Y860841D01*
X52495Y860877D01*
X52561Y860914D01*
X52634Y860943D01*
X52706Y860972D01*
X52867Y861008D01*
X53035Y861038D01*
X53188Y861052D01*
X53253Y861059D01*
X53319Y861067D01*
X56738D01*
Y860133D01*
D02*
G37*
G36*
X67149Y844586D02*
X64786D01*
X65967Y845571D01*
X67149Y844586D01*
D02*
G37*
G36*
X520188Y844390D02*
X517826D01*
X519007Y845374D01*
X520188Y844390D01*
D02*
G37*
G36*
X56016D02*
X53654D01*
X54835Y845374D01*
X56016Y844390D01*
D02*
G37*
G36*
X44883D02*
X42521D01*
X43702Y845374D01*
X44883Y844390D01*
D02*
G37*
G36*
X33751D02*
X31389D01*
X32570Y845374D01*
X33751Y844390D01*
D02*
G37*
G36*
X509055Y844193D02*
X506693D01*
X507874Y845177D01*
X509055Y844193D01*
D02*
G37*
G36*
X497923D02*
X495561D01*
X496742Y845177D01*
X497923Y844193D01*
D02*
G37*
G36*
X486790D02*
X484428D01*
X485609Y845177D01*
X486790Y844193D01*
D02*
G37*
G36*
X105861Y842171D02*
X101989D01*
Y843461D01*
X105861D01*
Y842171D01*
D02*
G37*
G36*
X453550Y842089D02*
X449678D01*
Y843379D01*
X453550D01*
Y842089D01*
D02*
G37*
G36*
X131506Y831443D02*
X128816D01*
Y836454D01*
X125947Y831443D01*
X124035D01*
X121026Y836569D01*
Y831443D01*
X118335D01*
Y841159D01*
X120758D01*
X124978Y834771D01*
X128867Y841159D01*
X131506D01*
Y831443D01*
D02*
G37*
G36*
X479195Y831361D02*
X476505D01*
Y836372D01*
X473636Y831361D01*
X471724D01*
X468715Y836487D01*
Y831361D01*
X466024D01*
Y841077D01*
X468447D01*
X472667Y834689D01*
X476556Y841077D01*
X479195D01*
Y831361D01*
D02*
G37*
G36*
X115543Y831443D02*
X112713D01*
Y841159D01*
X115543D01*
Y831443D01*
D02*
G37*
G36*
X108378Y841133D02*
X108658Y841082D01*
X108913Y841019D01*
X109117Y840942D01*
X109296Y840853D01*
X109449Y840751D01*
X109563Y840649D01*
X109665Y840547D01*
X109742Y840445D01*
X109793Y840343D01*
X109844Y840254D01*
X109869Y840164D01*
X109882Y840101D01*
X109895Y840050D01*
Y840011D01*
Y839999D01*
Y836480D01*
X109869Y836276D01*
X109818Y836097D01*
X109729Y835944D01*
X109602Y835804D01*
X109474Y835689D01*
X109308Y835587D01*
X109143Y835498D01*
X108977Y835434D01*
X108811Y835370D01*
X108645Y835332D01*
X108480Y835294D01*
X108339Y835281D01*
X108225Y835256D01*
X108135D01*
X108084Y835243D01*
X100944Y835243D01*
Y833471D01*
X109895Y833471D01*
Y831443D01*
X100116Y831443D01*
X99861Y831456D01*
X99631Y831494D01*
X99427Y831558D01*
X99249Y831635D01*
X99096Y831724D01*
X98968Y831813D01*
X98866Y831928D01*
X98777Y832043D01*
X98700Y832145D01*
X98649Y832259D01*
X98611Y832349D01*
X98573Y832451D01*
X98560Y832514D01*
X98547Y832578D01*
X98535Y832616D01*
Y832629D01*
Y836276D01*
X98573Y836454D01*
X98637Y836607D01*
X98726Y836747D01*
X98828Y836862D01*
X98955Y836964D01*
X99083Y837053D01*
X99236Y837117D01*
X99376Y837168D01*
X99657Y837245D01*
X99784Y837270D01*
X99899Y837283D01*
X99988Y837296D01*
X107523Y837296D01*
Y839081D01*
X98535Y839081D01*
Y841159D01*
X108059Y841159D01*
X108378Y841133D01*
D02*
G37*
G36*
X88437Y841146D02*
X93613Y837857D01*
Y841146D01*
X96036D01*
Y831443D01*
X93613D01*
Y834962D01*
X92211Y835880D01*
X87697Y831443D01*
X84229D01*
X90145Y837257D01*
X84433Y841159D01*
X88437Y841146D01*
D02*
G37*
G36*
X80481Y841133D02*
X80761Y841082D01*
X81016Y841019D01*
X81220Y840942D01*
X81399Y840853D01*
X81552Y840751D01*
X81666Y840649D01*
X81768Y840547D01*
X81845Y840445D01*
X81896Y840343D01*
X81947Y840254D01*
X81972Y840164D01*
X81985Y840101D01*
X81998Y840050D01*
Y840011D01*
Y839999D01*
Y839501D01*
Y839030D01*
Y838583D01*
Y838150D01*
Y837729D01*
Y837347D01*
Y836964D01*
Y836607D01*
Y836276D01*
Y835957D01*
Y835651D01*
Y835370D01*
Y835103D01*
Y834860D01*
Y834618D01*
Y834401D01*
Y834197D01*
Y834019D01*
Y833853D01*
Y833687D01*
Y833547D01*
Y833420D01*
Y833305D01*
Y833203D01*
Y833114D01*
Y833050D01*
Y832935D01*
Y832871D01*
Y832846D01*
X81972Y832604D01*
X81909Y832387D01*
X81832Y832196D01*
X81743Y832030D01*
X81628Y831902D01*
X81513Y831788D01*
X81386Y831698D01*
X81258Y831622D01*
X81131Y831558D01*
X81016Y831520D01*
X80901Y831482D01*
X80799Y831469D01*
X80723Y831456D01*
X80646Y831443D01*
X72397D01*
X72091Y831469D01*
X71811Y831533D01*
X71581Y831609D01*
X71377Y831698D01*
X71199Y831800D01*
X71058Y831915D01*
X70944Y832030D01*
X70842Y832157D01*
X70778Y832285D01*
X70714Y832400D01*
X70676Y832514D01*
X70650Y832604D01*
X70638Y832693D01*
X70625Y832757D01*
Y832795D01*
Y832808D01*
Y840050D01*
X70663Y840241D01*
X70740Y840419D01*
X70829Y840560D01*
X70956Y840687D01*
X71084Y840802D01*
X71237Y840891D01*
X71390Y840968D01*
X71556Y841019D01*
X71709Y841070D01*
X71862Y841095D01*
X72002Y841121D01*
X72129Y841146D01*
X72231D01*
X72308Y841159D01*
X80162D01*
X80481Y841133D01*
D02*
G37*
G36*
X463232Y831361D02*
X460402D01*
Y841077D01*
X463232D01*
Y831361D01*
D02*
G37*
G36*
X456067Y841051D02*
X456347Y841000D01*
X456602Y840936D01*
X456806Y840860D01*
X456985Y840771D01*
X457138Y840669D01*
X457252Y840567D01*
X457354Y840465D01*
X457431Y840363D01*
X457482Y840261D01*
X457533Y840172D01*
X457558Y840082D01*
X457571Y840018D01*
X457584Y839967D01*
Y839929D01*
Y839917D01*
Y836397D01*
X457558Y836193D01*
X457507Y836015D01*
X457418Y835862D01*
X457291Y835722D01*
X457163Y835607D01*
X456997Y835505D01*
X456832Y835416D01*
X456666Y835352D01*
X456500Y835288D01*
X456334Y835250D01*
X456169Y835212D01*
X456028Y835199D01*
X455914Y835174D01*
X455824D01*
X455773Y835161D01*
X448633Y835161D01*
Y833388D01*
X457584Y833389D01*
Y831361D01*
X447805Y831361D01*
X447550Y831374D01*
X447320Y831412D01*
X447116Y831476D01*
X446938Y831552D01*
X446785Y831642D01*
X446657Y831731D01*
X446555Y831846D01*
X446466Y831960D01*
X446389Y832062D01*
X446338Y832177D01*
X446300Y832266D01*
X446262Y832368D01*
X446249Y832432D01*
X446236Y832496D01*
X446224Y832534D01*
Y832547D01*
Y836193D01*
X446262Y836372D01*
X446326Y836525D01*
X446415Y836665D01*
X446517Y836780D01*
X446644Y836882D01*
X446772Y836971D01*
X446925Y837035D01*
X447065Y837086D01*
X447346Y837162D01*
X447473Y837188D01*
X447588Y837201D01*
X447677Y837213D01*
X455212Y837214D01*
Y838999D01*
X446224Y838998D01*
Y841077D01*
X455748Y841077D01*
X456067Y841051D01*
D02*
G37*
G36*
X436126Y841064D02*
X441302Y837774D01*
Y841064D01*
X443725D01*
Y831361D01*
X441302D01*
Y834880D01*
X439900Y835798D01*
X435386Y831361D01*
X431918D01*
X437834Y837175D01*
X432122Y841077D01*
X436126Y841064D01*
D02*
G37*
G36*
X428170Y841051D02*
X428450Y841000D01*
X428705Y840936D01*
X428909Y840860D01*
X429088Y840771D01*
X429241Y840669D01*
X429355Y840567D01*
X429457Y840465D01*
X429534Y840363D01*
X429585Y840261D01*
X429636Y840171D01*
X429661Y840082D01*
X429674Y840018D01*
X429687Y839967D01*
Y839929D01*
Y839916D01*
Y839419D01*
Y838947D01*
Y838501D01*
Y838068D01*
Y837647D01*
Y837264D01*
Y836882D01*
Y836525D01*
Y836193D01*
Y835875D01*
Y835569D01*
Y835288D01*
Y835020D01*
Y834778D01*
Y834536D01*
Y834319D01*
Y834115D01*
Y833937D01*
Y833771D01*
Y833605D01*
Y833465D01*
Y833337D01*
Y833223D01*
Y833121D01*
Y833031D01*
Y832968D01*
Y832853D01*
Y832789D01*
Y832764D01*
X429661Y832521D01*
X429598Y832305D01*
X429521Y832113D01*
X429432Y831948D01*
X429317Y831820D01*
X429202Y831705D01*
X429075Y831616D01*
X428947Y831540D01*
X428820Y831476D01*
X428705Y831438D01*
X428590Y831399D01*
X428488Y831387D01*
X428412Y831374D01*
X428335Y831361D01*
X420086D01*
X419780Y831387D01*
X419500Y831450D01*
X419270Y831527D01*
X419066Y831616D01*
X418888Y831718D01*
X418747Y831833D01*
X418633Y831948D01*
X418531Y832075D01*
X418467Y832203D01*
X418403Y832317D01*
X418365Y832432D01*
X418339Y832521D01*
X418327Y832611D01*
X418314Y832674D01*
Y832713D01*
Y832725D01*
Y839967D01*
X418352Y840159D01*
X418429Y840337D01*
X418518Y840477D01*
X418645Y840605D01*
X418773Y840720D01*
X418926Y840809D01*
X419079Y840885D01*
X419245Y840936D01*
X419398Y840987D01*
X419551Y841013D01*
X419691Y841038D01*
X419818Y841064D01*
X419920D01*
X419997Y841077D01*
X427851D01*
X428170Y841051D01*
D02*
G37*
G36*
X131513Y826517D02*
X120217D01*
X120071Y826499D01*
X119925Y826481D01*
X119798Y826426D01*
X119688Y826390D01*
X119597Y826335D01*
X119525Y826280D01*
X119488Y826262D01*
X119470Y826244D01*
X119361Y826135D01*
X119288Y826007D01*
X119233Y825898D01*
X119197Y825788D01*
X119178Y825697D01*
X119160Y825624D01*
Y825570D01*
Y825552D01*
X119178Y825406D01*
X119215Y825260D01*
X119251Y825151D01*
X119306Y825041D01*
X119379Y824969D01*
X119415Y824914D01*
X119452Y824877D01*
X119470Y824859D01*
X119597Y824768D01*
X119725Y824695D01*
X119834Y824659D01*
X119962Y824622D01*
X120053Y824604D01*
X120144Y824586D01*
X128434D01*
Y820905D01*
X120217D01*
X120071Y820887D01*
X119925Y820869D01*
X119798Y820814D01*
X119688Y820760D01*
X119597Y820705D01*
X119525Y820669D01*
X119488Y820632D01*
X119470Y820614D01*
X119361Y820505D01*
X119288Y820395D01*
X119233Y820286D01*
X119197Y820177D01*
X119178Y820086D01*
X119160Y820013D01*
Y819958D01*
Y819940D01*
X119178Y819794D01*
X119215Y819648D01*
X119251Y819539D01*
X119306Y819430D01*
X119379Y819339D01*
X119415Y819284D01*
X119452Y819248D01*
X119470Y819229D01*
X119597Y819138D01*
X119725Y819083D01*
X119962Y819011D01*
X120053Y818992D01*
X120144Y818974D01*
X131513D01*
Y815294D01*
X118686D01*
X118413Y815312D01*
X118158Y815330D01*
X117666Y815440D01*
X117247Y815585D01*
X116864Y815767D01*
X116719Y815840D01*
X116573Y815932D01*
X116445Y816004D01*
X116336Y816077D01*
X116263Y816132D01*
X116209Y816187D01*
X116172Y816205D01*
X116154Y816223D01*
X115972Y816405D01*
X115808Y816587D01*
X115662Y816788D01*
X115534Y816988D01*
X115443Y817189D01*
X115352Y817371D01*
X115225Y817735D01*
X115152Y818063D01*
X115134Y818191D01*
X115115Y818318D01*
X115097Y818409D01*
Y818482D01*
Y818519D01*
Y818537D01*
Y821379D01*
X115170Y821580D01*
X115243Y821762D01*
X115352Y821926D01*
X115462Y822053D01*
X115698Y822290D01*
X115953Y822472D01*
X116209Y822600D01*
X116409Y822673D01*
X116500Y822691D01*
X116555Y822709D01*
X116591Y822727D01*
X116609D01*
X116391Y822782D01*
X116190Y822855D01*
X116008Y822946D01*
X115862Y823037D01*
X115589Y823274D01*
X115389Y823511D01*
X115261Y823730D01*
X115170Y823930D01*
X115134Y824003D01*
X115115Y824058D01*
X115097Y824094D01*
Y824112D01*
Y826973D01*
X115115Y827210D01*
X115134Y827446D01*
X115188Y827665D01*
X115261Y827884D01*
X115425Y828266D01*
X115626Y828613D01*
X115826Y828868D01*
X115917Y828995D01*
X115990Y829086D01*
X116063Y829159D01*
X116099Y829214D01*
X116136Y829232D01*
X116154Y829250D01*
X116354Y829414D01*
X116555Y829578D01*
X116773Y829706D01*
X116992Y829815D01*
X117411Y829979D01*
X117812Y830088D01*
X118158Y830161D01*
X118304Y830180D01*
X118431Y830198D01*
X118541Y830216D01*
X131513D01*
Y826517D01*
D02*
G37*
G36*
X434764Y826294D02*
X423467D01*
X423322Y826276D01*
X423176Y826258D01*
X423048Y826203D01*
X422939Y826167D01*
X422848Y826112D01*
X422775Y826058D01*
X422739Y826039D01*
X422720Y826021D01*
X422611Y825912D01*
X422538Y825784D01*
X422483Y825675D01*
X422447Y825566D01*
X422429Y825474D01*
X422411Y825401D01*
Y825347D01*
Y825329D01*
X422429Y825183D01*
X422465Y825037D01*
X422502Y824928D01*
X422556Y824819D01*
X422629Y824746D01*
X422666Y824691D01*
X422702Y824654D01*
X422720Y824636D01*
X422848Y824545D01*
X422975Y824472D01*
X423085Y824436D01*
X423212Y824399D01*
X423303Y824381D01*
X423394Y824363D01*
X431685D01*
Y820683D01*
X423467D01*
X423322Y820664D01*
X423176Y820646D01*
X423048Y820592D01*
X422939Y820537D01*
X422848Y820482D01*
X422775Y820446D01*
X422739Y820409D01*
X422720Y820391D01*
X422611Y820282D01*
X422538Y820172D01*
X422483Y820063D01*
X422447Y819954D01*
X422429Y819863D01*
X422411Y819790D01*
Y819735D01*
Y819717D01*
X422429Y819571D01*
X422465Y819425D01*
X422502Y819316D01*
X422556Y819207D01*
X422629Y819116D01*
X422666Y819061D01*
X422702Y819024D01*
X422720Y819006D01*
X422848Y818915D01*
X422975Y818861D01*
X423212Y818788D01*
X423303Y818769D01*
X423394Y818751D01*
X434764D01*
Y815071D01*
X421937D01*
X421664Y815089D01*
X421409Y815107D01*
X420917Y815217D01*
X420498Y815362D01*
X420115Y815545D01*
X419969Y815617D01*
X419823Y815709D01*
X419696Y815781D01*
X419587Y815854D01*
X419514Y815909D01*
X419459Y815964D01*
X419422Y815982D01*
X419404Y816000D01*
X419222Y816182D01*
X419058Y816364D01*
X418912Y816565D01*
X418785Y816765D01*
X418694Y816966D01*
X418603Y817148D01*
X418475Y817512D01*
X418402Y817840D01*
X418384Y817968D01*
X418366Y818095D01*
X418348Y818186D01*
Y818259D01*
Y818296D01*
Y818314D01*
Y821156D01*
X418420Y821357D01*
X418493Y821539D01*
X418603Y821703D01*
X418712Y821830D01*
X418949Y822067D01*
X419204Y822250D01*
X419459Y822377D01*
X419659Y822450D01*
X419750Y822468D01*
X419805Y822486D01*
X419842Y822505D01*
X419860D01*
X419641Y822559D01*
X419441Y822632D01*
X419259Y822723D01*
X419113Y822814D01*
X418840Y823051D01*
X418639Y823288D01*
X418511Y823507D01*
X418420Y823707D01*
X418384Y823780D01*
X418366Y823835D01*
X418348Y823871D01*
Y823889D01*
Y826750D01*
X418366Y826987D01*
X418384Y827223D01*
X418439Y827442D01*
X418511Y827661D01*
X418676Y828043D01*
X418876Y828390D01*
X419076Y828645D01*
X419168Y828772D01*
X419240Y828863D01*
X419313Y828936D01*
X419350Y828991D01*
X419386Y829009D01*
X419404Y829027D01*
X419605Y829191D01*
X419805Y829355D01*
X420024Y829483D01*
X420242Y829592D01*
X420661Y829756D01*
X421062Y829865D01*
X421409Y829938D01*
X421554Y829957D01*
X421682Y829975D01*
X421791Y829993D01*
X434764D01*
Y826294D01*
D02*
G37*
G36*
X276460Y766700D02*
X276740Y766649D01*
X276995Y766585D01*
X277199Y766509D01*
X277378Y766419D01*
X277531Y766317D01*
X277646Y766215D01*
X277748Y766113D01*
X277824Y766011D01*
X277875Y765909D01*
X277926Y765820D01*
X277952Y765731D01*
X277964Y765667D01*
X277977Y765616D01*
Y765578D01*
Y765565D01*
Y765068D01*
Y764596D01*
Y764150D01*
Y763716D01*
Y763296D01*
Y762913D01*
Y762531D01*
Y762174D01*
Y761842D01*
Y761523D01*
Y761217D01*
Y760937D01*
Y760669D01*
Y760427D01*
Y760185D01*
Y759968D01*
Y759764D01*
Y759585D01*
Y759420D01*
Y759254D01*
Y759114D01*
Y758986D01*
Y758871D01*
Y758769D01*
Y758680D01*
Y758616D01*
Y758502D01*
Y758438D01*
Y758412D01*
X277952Y758170D01*
X277888Y757953D01*
X277811Y757762D01*
X277722Y757596D01*
X277607Y757469D01*
X277493Y757354D01*
X277365Y757265D01*
X277238Y757188D01*
X277110Y757125D01*
X276995Y757086D01*
X276881Y757048D01*
X276779Y757035D01*
X276702Y757023D01*
X276626Y757010D01*
X268529D01*
X268313Y757023D01*
X268121Y757048D01*
X267943Y757074D01*
X267790Y757099D01*
X267675Y757137D01*
X267586Y757163D01*
X267522Y757176D01*
X267509Y757188D01*
X267331Y757265D01*
X267191Y757341D01*
X267063Y757431D01*
X266948Y757533D01*
X266859Y757622D01*
X266795Y757737D01*
X266732Y757839D01*
X266693Y757941D01*
X266642Y758119D01*
X266617Y758285D01*
Y758336D01*
Y758387D01*
Y758412D01*
Y758425D01*
Y761077D01*
X269014D01*
Y759037D01*
X275606D01*
Y764647D01*
X269014D01*
Y762888D01*
X266617D01*
Y765565D01*
X266655Y765769D01*
X266732Y765948D01*
X266846Y766101D01*
X266974Y766241D01*
X267114Y766343D01*
X267267Y766445D01*
X267433Y766521D01*
X267611Y766585D01*
X267777Y766623D01*
X267930Y766662D01*
X268083Y766687D01*
X268223Y766713D01*
X268325D01*
X268415Y766725D01*
X276141D01*
X276460Y766700D01*
D02*
G37*
G36*
X289886Y757010D02*
X279596D01*
Y759152D01*
X287361D01*
Y766725D01*
X289886D01*
Y757010D01*
D02*
G37*
G36*
X264118D02*
X255869Y757010D01*
X255626Y757023D01*
X255384Y757035D01*
X254938Y757112D01*
X254530Y757239D01*
X254147Y757392D01*
X253816Y757584D01*
X253510Y757788D01*
X253229Y758004D01*
X252987Y758234D01*
X252783Y758463D01*
X252605Y758680D01*
X252452Y758897D01*
X252324Y759075D01*
X252235Y759228D01*
X252171Y759356D01*
X252133Y759432D01*
X252120Y759445D01*
Y759458D01*
X251967Y759853D01*
X251852Y760261D01*
X251750Y760669D01*
X251687Y761052D01*
X251661Y761230D01*
X251636Y761383D01*
X251623Y761536D01*
X251610Y761651D01*
X251597Y761753D01*
X251585Y761829D01*
Y761880D01*
Y761893D01*
X251636Y762403D01*
X251661Y762645D01*
X251699Y762862D01*
X251750Y763079D01*
X251789Y763283D01*
X251840Y763461D01*
X251891Y763627D01*
X251929Y763780D01*
X251980Y763908D01*
X252018Y764035D01*
X252044Y764124D01*
X252082Y764201D01*
X252095Y764252D01*
X252120Y764290D01*
Y764303D01*
X252222Y764520D01*
X252337Y764724D01*
X252464Y764928D01*
X252592Y765106D01*
X252860Y765425D01*
X253153Y765705D01*
X253459Y765935D01*
X253778Y766139D01*
X254084Y766292D01*
X254390Y766419D01*
X254696Y766521D01*
X254963Y766598D01*
X255218Y766649D01*
X255435Y766687D01*
X255614Y766713D01*
X255754Y766725D01*
X264118Y766725D01*
Y757010D01*
D02*
G37*
G36*
X81680Y705988D02*
X81864Y705955D01*
X82032Y705913D01*
X82166Y705863D01*
X82283Y705804D01*
X82384Y705737D01*
X82459Y705670D01*
X82526Y705603D01*
X82577Y705536D01*
X82610Y705469D01*
X82644Y705410D01*
X82661Y705351D01*
X82669Y705310D01*
X82677Y705276D01*
Y705251D01*
Y705243D01*
Y704916D01*
Y704606D01*
Y704312D01*
Y704028D01*
Y703751D01*
Y703500D01*
Y703248D01*
Y703014D01*
Y702796D01*
Y702586D01*
Y702385D01*
Y702201D01*
Y702025D01*
Y701865D01*
Y701706D01*
Y701564D01*
Y701430D01*
Y701312D01*
Y701203D01*
Y701094D01*
Y701002D01*
Y700918D01*
Y700843D01*
Y700776D01*
Y700717D01*
Y700675D01*
Y700600D01*
Y700558D01*
Y700541D01*
X82661Y700382D01*
X82619Y700240D01*
X82568Y700114D01*
X82510Y700005D01*
X82434Y699921D01*
X82359Y699846D01*
X82275Y699787D01*
X82191Y699737D01*
X82107Y699695D01*
X82032Y699670D01*
X81957Y699645D01*
X81889Y699636D01*
X81839Y699628D01*
X81789Y699620D01*
X76367D01*
X76166Y699636D01*
X75982Y699678D01*
X75831Y699728D01*
X75697Y699787D01*
X75579Y699854D01*
X75487Y699930D01*
X75412Y700005D01*
X75345Y700089D01*
X75303Y700173D01*
X75261Y700248D01*
X75236Y700323D01*
X75219Y700382D01*
X75211Y700441D01*
X75202Y700483D01*
Y700508D01*
Y700516D01*
Y705276D01*
X75227Y705402D01*
X75278Y705519D01*
X75336Y705611D01*
X75420Y705695D01*
X75504Y705770D01*
X75604Y705829D01*
X75705Y705879D01*
X75814Y705913D01*
X75915Y705946D01*
X76015Y705963D01*
X76107Y705980D01*
X76191Y705997D01*
X76258D01*
X76309Y706005D01*
X81471D01*
X81680Y705988D01*
D02*
G37*
G36*
X68389Y705997D02*
X71792Y703835D01*
Y705997D01*
X73384D01*
Y699620D01*
X71792D01*
Y701932D01*
X70870Y702536D01*
X67903Y699620D01*
X65624D01*
X69512Y703441D01*
X65758Y706005D01*
X68389Y705997D01*
D02*
G37*
G36*
X462757Y682419D02*
X462941Y682386D01*
X463109Y682344D01*
X463243Y682294D01*
X463360Y682235D01*
X463461Y682168D01*
X463536Y682101D01*
X463603Y682034D01*
X463654Y681967D01*
X463687Y681900D01*
X463721Y681841D01*
X463737Y681783D01*
X463746Y681741D01*
X463754Y681707D01*
Y681682D01*
Y681674D01*
Y681347D01*
Y681037D01*
Y680744D01*
Y680459D01*
Y680182D01*
Y679931D01*
Y679679D01*
Y679445D01*
Y679227D01*
Y679017D01*
Y678816D01*
Y678632D01*
Y678456D01*
Y678297D01*
Y678137D01*
Y677995D01*
Y677861D01*
Y677743D01*
Y677634D01*
Y677526D01*
Y677433D01*
Y677350D01*
Y677274D01*
Y677207D01*
Y677148D01*
Y677107D01*
Y677031D01*
Y676989D01*
Y676972D01*
X463737Y676813D01*
X463696Y676671D01*
X463645Y676545D01*
X463587Y676436D01*
X463511Y676352D01*
X463436Y676277D01*
X463352Y676218D01*
X463268Y676168D01*
X463184Y676126D01*
X463109Y676101D01*
X463034Y676076D01*
X462966Y676067D01*
X462916Y676059D01*
X462866Y676051D01*
X457545D01*
X457402Y676059D01*
X457276Y676076D01*
X457159Y676093D01*
X457059Y676109D01*
X456983Y676134D01*
X456925Y676151D01*
X456883Y676160D01*
X456874Y676168D01*
X456757Y676218D01*
X456665Y676269D01*
X456581Y676327D01*
X456506Y676394D01*
X456447Y676453D01*
X456405Y676528D01*
X456363Y676595D01*
X456338Y676662D01*
X456304Y676780D01*
X456288Y676889D01*
Y676922D01*
Y676956D01*
Y676972D01*
Y676981D01*
Y678724D01*
X457863D01*
Y677383D01*
X462196D01*
Y681070D01*
X457863D01*
Y679914D01*
X456288D01*
Y681674D01*
X456313Y681808D01*
X456363Y681925D01*
X456438Y682026D01*
X456522Y682118D01*
X456614Y682185D01*
X456715Y682252D01*
X456824Y682302D01*
X456941Y682344D01*
X457050Y682369D01*
X457151Y682394D01*
X457251Y682411D01*
X457344Y682428D01*
X457411D01*
X457469Y682436D01*
X462547D01*
X462757Y682419D01*
D02*
G37*
G36*
X481084Y676051D02*
X474321D01*
Y677459D01*
X479425D01*
Y678598D01*
X476433D01*
Y679981D01*
X479433D01*
Y681121D01*
X474305D01*
Y682436D01*
X481084D01*
Y676051D01*
D02*
G37*
G36*
X471866Y682419D02*
X472051Y682386D01*
X472218Y682344D01*
X472352Y682294D01*
X472470Y682235D01*
X472570Y682168D01*
X472645Y682101D01*
X472713Y682034D01*
X472763Y681967D01*
X472796Y681900D01*
X472830Y681841D01*
X472847Y681783D01*
X472855Y681741D01*
X472863Y681707D01*
Y681682D01*
Y681674D01*
Y679361D01*
X472847Y679227D01*
X472813Y679109D01*
X472754Y679009D01*
X472671Y678917D01*
X472587Y678841D01*
X472478Y678774D01*
X472369Y678716D01*
X472260Y678674D01*
X472151Y678632D01*
X472042Y678607D01*
X471933Y678581D01*
X471841Y678573D01*
X471766Y678556D01*
X471707D01*
X471673Y678548D01*
X466981D01*
Y677383D01*
X472863D01*
Y676051D01*
X466436D01*
X466268Y676059D01*
X466117Y676084D01*
X465983Y676126D01*
X465866Y676176D01*
X465765Y676235D01*
X465682Y676294D01*
X465615Y676369D01*
X465556Y676445D01*
X465506Y676512D01*
X465472Y676587D01*
X465447Y676646D01*
X465422Y676713D01*
X465414Y676755D01*
X465405Y676796D01*
X465397Y676822D01*
Y676830D01*
Y679227D01*
X465422Y679344D01*
X465464Y679445D01*
X465522Y679537D01*
X465590Y679612D01*
X465673Y679679D01*
X465757Y679738D01*
X465858Y679780D01*
X465950Y679813D01*
X466134Y679864D01*
X466218Y679880D01*
X466293Y679889D01*
X466352Y679897D01*
X471305D01*
Y681070D01*
X465397D01*
Y682436D01*
X471657D01*
X471866Y682419D01*
D02*
G37*
G36*
X521653Y642461D02*
X518067D01*
X520990Y637795D01*
X519612D01*
X516762Y642475D01*
Y643350D01*
X521653D01*
Y642461D01*
D02*
G37*
G36*
X44882Y642439D02*
X43730D01*
Y637795D01*
X42593D01*
Y643350D01*
X44882D01*
Y642439D01*
D02*
G37*
G36*
X68395Y642417D02*
X65341D01*
X65231Y642410D01*
X65144Y642402D01*
X65071Y642388D01*
X65013Y642366D01*
X64976Y642344D01*
X64947Y642330D01*
X64933Y642322D01*
X64925Y642315D01*
X64903Y642293D01*
X64889Y642264D01*
X64860Y642198D01*
X64845Y642111D01*
X64830Y642031D01*
X64823Y641943D01*
X64816Y641878D01*
Y641848D01*
Y641826D01*
Y641819D01*
Y641812D01*
Y641535D01*
X64823Y641455D01*
X64830Y641389D01*
X64852Y641331D01*
X64867Y641287D01*
X64889Y641251D01*
X64911Y641229D01*
X64918Y641214D01*
X64925Y641207D01*
X64969Y641178D01*
X65035Y641156D01*
X65100Y641134D01*
X65173Y641127D01*
X65239Y641119D01*
X65290Y641112D01*
X66974D01*
Y640150D01*
X65129D01*
X65027Y640142D01*
X64940Y640135D01*
X64867Y640121D01*
X64816Y640099D01*
X64772Y640077D01*
X64743Y640062D01*
X64728Y640055D01*
X64721Y640048D01*
X64685Y640004D01*
X64656Y639946D01*
X64634Y639880D01*
X64619Y639815D01*
X64612Y639756D01*
X64604Y639705D01*
Y639669D01*
Y639654D01*
Y639253D01*
X64612Y639151D01*
X64619Y639064D01*
X64641Y638998D01*
X64663Y638947D01*
X64685Y638903D01*
X64699Y638881D01*
X64714Y638867D01*
X64721Y638860D01*
X64772Y638830D01*
X64830Y638808D01*
X64969Y638779D01*
X65027Y638772D01*
X65078Y638765D01*
X68359D01*
Y637795D01*
X64641D01*
X64524Y637802D01*
X64415Y637817D01*
X64320Y637832D01*
X64225Y637846D01*
X64145Y637868D01*
X64072Y637883D01*
X64014Y637905D01*
X63956Y637926D01*
X63905Y637948D01*
X63868Y637963D01*
X63839Y637977D01*
X63810Y637992D01*
X63795Y638007D01*
X63781Y638014D01*
X63722Y638065D01*
X63671Y638131D01*
X63598Y638269D01*
X63540Y638429D01*
X63496Y638583D01*
X63475Y638728D01*
X63467Y638794D01*
Y638852D01*
X63460Y638896D01*
Y638932D01*
Y638954D01*
Y638962D01*
Y639530D01*
X63482Y639705D01*
X63525Y639858D01*
X63577Y639989D01*
X63649Y640113D01*
X63722Y640215D01*
X63810Y640303D01*
X63897Y640376D01*
X63985Y640441D01*
X64072Y640492D01*
X64160Y640536D01*
X64240Y640565D01*
X64313Y640587D01*
X64371Y640609D01*
X64415Y640616D01*
X64451Y640624D01*
X64459D01*
X64320Y640660D01*
X64204Y640711D01*
X64094Y640777D01*
X64007Y640850D01*
X63934Y640930D01*
X63868Y641017D01*
X63817Y641112D01*
X63773Y641207D01*
X63744Y641294D01*
X63722Y641382D01*
X63700Y641462D01*
X63693Y641528D01*
X63686Y641586D01*
X63679Y641637D01*
Y641666D01*
Y641673D01*
Y642278D01*
Y642395D01*
X63693Y642505D01*
X63708Y642599D01*
X63722Y642687D01*
X63744Y642767D01*
X63773Y642840D01*
X63802Y642905D01*
X63824Y642956D01*
X63854Y643008D01*
X63883Y643051D01*
X63934Y643110D01*
X63963Y643146D01*
X63977Y643153D01*
X64029Y643190D01*
X64094Y643219D01*
X64233Y643270D01*
X64386Y643299D01*
X64539Y643328D01*
X64685Y643343D01*
X64743D01*
X64801Y643350D01*
X68395D01*
Y642417D01*
D02*
G37*
G36*
X498958Y643335D02*
X499038Y643306D01*
X499104Y643270D01*
X499169Y643219D01*
X499221Y643168D01*
X499257Y643110D01*
X499294Y643051D01*
X499323Y642986D01*
X499359Y642869D01*
X499374Y642811D01*
X499381Y642767D01*
Y642723D01*
X499388Y642694D01*
Y642672D01*
Y642665D01*
Y640157D01*
X495393D01*
Y638750D01*
X499388D01*
Y637795D01*
X495481D01*
X495291Y637810D01*
X495131Y637839D01*
X494992Y637875D01*
X494868Y637926D01*
X494766Y637977D01*
X494679Y638036D01*
X494613Y638101D01*
X494555Y638160D01*
X494511Y638225D01*
X494482Y638284D01*
X494453Y638342D01*
X494438Y638393D01*
X494431Y638437D01*
X494424Y638466D01*
Y638488D01*
Y638495D01*
Y638699D01*
X494431Y638896D01*
Y639085D01*
Y639260D01*
Y639428D01*
Y639581D01*
Y639727D01*
Y639851D01*
Y639975D01*
X494424Y640077D01*
Y640164D01*
Y640237D01*
Y640296D01*
Y640339D01*
Y640369D01*
Y640376D01*
X494446Y640500D01*
X494489Y640616D01*
X494548Y640711D01*
X494621Y640791D01*
X494701Y640864D01*
X494796Y640923D01*
X494890Y640966D01*
X494985Y641010D01*
X495080Y641039D01*
X495167Y641061D01*
X495255Y641076D01*
X495328Y641083D01*
X495393Y641090D01*
X495437Y641097D01*
X498397D01*
Y642410D01*
X494774D01*
Y643350D01*
X498863D01*
X498958Y643335D01*
D02*
G37*
G36*
X510069D02*
X510156Y643306D01*
X510229Y643270D01*
X510288Y643219D01*
X510346Y643168D01*
X510390Y643110D01*
X510426Y643044D01*
X510455Y642986D01*
X510492Y642862D01*
X510506Y642811D01*
X510513Y642760D01*
Y642716D01*
X510521Y642687D01*
Y642665D01*
Y642658D01*
Y638510D01*
X510513Y638393D01*
X510484Y638284D01*
X510441Y638196D01*
X510390Y638116D01*
X510324Y638050D01*
X510258Y637992D01*
X510178Y637941D01*
X510098Y637905D01*
X510025Y637868D01*
X509945Y637846D01*
X509879Y637824D01*
X509814Y637810D01*
X509763Y637802D01*
X509719Y637795D01*
X506307D01*
X506176Y637810D01*
X506059Y637839D01*
X505957Y637875D01*
X505870Y637926D01*
X505797Y637977D01*
X505731Y638036D01*
X505680Y638101D01*
X505644Y638160D01*
X505615Y638225D01*
X505585Y638284D01*
X505571Y638342D01*
X505564Y638393D01*
X505556Y638437D01*
X505549Y638466D01*
Y638488D01*
Y638495D01*
Y638699D01*
Y638896D01*
Y639085D01*
Y639260D01*
Y639428D01*
Y639581D01*
Y639727D01*
Y639851D01*
Y639975D01*
Y640077D01*
Y640164D01*
Y640237D01*
Y640296D01*
Y640339D01*
Y640369D01*
Y640376D01*
X505564Y640500D01*
X505600Y640616D01*
X505644Y640711D01*
X505695Y640791D01*
X505753Y640864D01*
X505819Y640923D01*
X505884Y640966D01*
X505950Y641010D01*
X506023Y641039D01*
X506088Y641061D01*
X506147Y641076D01*
X506205Y641083D01*
X506249Y641090D01*
X506285Y641097D01*
X509529D01*
Y642453D01*
X507991D01*
Y643350D01*
X509974D01*
X510069Y643335D01*
D02*
G37*
G36*
X488256Y639917D02*
Y638991D01*
X485063D01*
Y637795D01*
X484035D01*
Y638991D01*
X483663D01*
Y639917D01*
X484035D01*
Y643350D01*
X485704D01*
X488256Y639917D01*
D02*
G37*
G36*
X34006Y643335D02*
X34115Y643321D01*
X34218Y643306D01*
X34305Y643285D01*
X34385Y643263D01*
X34458Y643233D01*
X34524Y643212D01*
X34575Y643183D01*
X34618Y643153D01*
X34662Y643131D01*
X34691Y643110D01*
X34713Y643095D01*
X34728Y643080D01*
X34743Y643066D01*
X34786Y643008D01*
X34830Y642942D01*
X34888Y642789D01*
X34932Y642621D01*
X34969Y642453D01*
X34983Y642300D01*
X34990Y642235D01*
Y642169D01*
X34998Y642125D01*
Y642082D01*
Y642060D01*
Y642053D01*
Y639071D01*
Y638940D01*
X34983Y638816D01*
X34976Y638706D01*
X34954Y638604D01*
X34939Y638517D01*
X34917Y638429D01*
X34896Y638356D01*
X34866Y638298D01*
X34844Y638240D01*
X34823Y638189D01*
X34801Y638152D01*
X34779Y638123D01*
X34764Y638094D01*
X34750Y638080D01*
X34743Y638065D01*
X34691Y638021D01*
X34626Y637977D01*
X34553Y637941D01*
X34480Y637912D01*
X34312Y637861D01*
X34152Y637832D01*
X33999Y637810D01*
X33933Y637802D01*
X33875D01*
X33824Y637795D01*
X30667D01*
X30551Y637810D01*
X30441Y637817D01*
X30339Y637839D01*
X30252Y637861D01*
X30172Y637883D01*
X30099Y637905D01*
X30033Y637934D01*
X29982Y637956D01*
X29938Y637977D01*
X29895Y637999D01*
X29866Y638021D01*
X29844Y638043D01*
X29829Y638050D01*
X29814Y638065D01*
X29771Y638123D01*
X29727Y638189D01*
X29661Y638342D01*
X29618Y638502D01*
X29581Y638670D01*
X29567Y638823D01*
X29559Y638896D01*
Y638954D01*
X29552Y639005D01*
Y639042D01*
Y639064D01*
Y639071D01*
Y642053D01*
Y642184D01*
X29567Y642308D01*
X29574Y642417D01*
X29596Y642519D01*
X29610Y642614D01*
X29632Y642694D01*
X29661Y642774D01*
X29683Y642833D01*
X29705Y642891D01*
X29734Y642942D01*
X29756Y642978D01*
X29771Y643015D01*
X29793Y643037D01*
X29800Y643051D01*
X29814Y643066D01*
X29866Y643117D01*
X29931Y643161D01*
X29997Y643197D01*
X30077Y643233D01*
X30237Y643285D01*
X30405Y643314D01*
X30551Y643335D01*
X30624Y643343D01*
X30682D01*
X30733Y643350D01*
X33890D01*
X34006Y643335D01*
D02*
G37*
G36*
X56738Y642417D02*
X53290D01*
Y641586D01*
X56563Y639268D01*
X56643Y639209D01*
X56716Y639158D01*
X56782Y639115D01*
X56833Y639071D01*
X56935Y638991D01*
X57000Y638932D01*
X57051Y638889D01*
X57088Y638852D01*
X57102Y638838D01*
X57110Y638830D01*
X57161Y638750D01*
X57197Y638670D01*
X57226Y638590D01*
X57241Y638510D01*
X57248Y638444D01*
X57255Y638393D01*
Y638356D01*
Y638342D01*
X57248Y638225D01*
X57226Y638123D01*
X57197Y638036D01*
X57168Y637970D01*
X57139Y637926D01*
X57110Y637890D01*
X57088Y637868D01*
X57081Y637861D01*
X57022Y637824D01*
X56964Y637810D01*
X56920Y637795D01*
X52182D01*
Y638765D01*
X55593D01*
X52881Y640697D01*
X52794Y640762D01*
X52714Y640821D01*
X52641Y640871D01*
X52583Y640923D01*
X52531Y640966D01*
X52481Y641010D01*
X52408Y641076D01*
X52356Y641127D01*
X52327Y641163D01*
X52313Y641185D01*
X52306Y641192D01*
X52262Y641280D01*
X52233Y641382D01*
X52211Y641484D01*
X52196Y641579D01*
X52189Y641666D01*
X52182Y641739D01*
Y641768D01*
Y641790D01*
Y641797D01*
Y641805D01*
Y642162D01*
Y642293D01*
X52196Y642417D01*
X52203Y642526D01*
X52225Y642621D01*
X52240Y642709D01*
X52262Y642789D01*
X52291Y642862D01*
X52313Y642920D01*
X52335Y642971D01*
X52364Y643015D01*
X52386Y643051D01*
X52400Y643080D01*
X52429Y643117D01*
X52444Y643124D01*
X52495Y643161D01*
X52561Y643197D01*
X52634Y643226D01*
X52706Y643255D01*
X52867Y643292D01*
X53035Y643321D01*
X53188Y643335D01*
X53253Y643343D01*
X53319Y643350D01*
X56738D01*
Y642417D01*
D02*
G37*
G36*
X67149Y626870D02*
X64786D01*
X65967Y627854D01*
X67149Y626870D01*
D02*
G37*
G36*
X520188Y626673D02*
X517826D01*
X519007Y627657D01*
X520188Y626673D01*
D02*
G37*
G36*
X56016D02*
X53654D01*
X54835Y627657D01*
X56016Y626673D01*
D02*
G37*
G36*
X44883D02*
X42521D01*
X43702Y627657D01*
X44883Y626673D01*
D02*
G37*
G36*
X33751D02*
X31389D01*
X32570Y627657D01*
X33751Y626673D01*
D02*
G37*
G36*
X509055Y626476D02*
X506693D01*
X507874Y627460D01*
X509055Y626476D01*
D02*
G37*
G36*
X497923D02*
X495561D01*
X496742Y627460D01*
X497923Y626476D01*
D02*
G37*
G36*
X486790D02*
X484428D01*
X485609Y627460D01*
X486790Y626476D01*
D02*
G37*
G36*
X105861Y624454D02*
X101989D01*
Y625745D01*
X105861D01*
Y624454D01*
D02*
G37*
G36*
X453550Y624372D02*
X449678D01*
Y625663D01*
X453550D01*
Y624372D01*
D02*
G37*
G36*
X131506Y613727D02*
X128816D01*
Y618738D01*
X125947Y613727D01*
X124035D01*
X121026Y618852D01*
Y613727D01*
X118335D01*
Y623442D01*
X120758D01*
X124978Y617055D01*
X128867Y623442D01*
X131506D01*
Y613727D01*
D02*
G37*
G36*
X479195Y613645D02*
X476505D01*
Y618655D01*
X473636Y613645D01*
X471724D01*
X468715Y618770D01*
Y613645D01*
X466024D01*
Y623360D01*
X468447D01*
X472667Y616972D01*
X476556Y623360D01*
X479195D01*
Y613645D01*
D02*
G37*
G36*
X115543Y613727D02*
X112713D01*
Y623442D01*
X115543D01*
Y613727D01*
D02*
G37*
G36*
X108378Y623417D02*
X108658Y623366D01*
X108913Y623302D01*
X109117Y623226D01*
X109296Y623136D01*
X109449Y623034D01*
X109563Y622932D01*
X109665Y622830D01*
X109742Y622728D01*
X109793Y622626D01*
X109844Y622537D01*
X109869Y622448D01*
X109882Y622384D01*
X109895Y622333D01*
Y622295D01*
Y622282D01*
Y618763D01*
X109869Y618559D01*
X109818Y618381D01*
X109729Y618228D01*
X109602Y618087D01*
X109474Y617973D01*
X109308Y617871D01*
X109143Y617781D01*
X108977Y617718D01*
X108811Y617654D01*
X108645Y617616D01*
X108480Y617577D01*
X108339Y617565D01*
X108225Y617539D01*
X108135D01*
X108084Y617526D01*
X100944Y617526D01*
Y615754D01*
X109895Y615754D01*
Y613727D01*
X100116Y613727D01*
X99861Y613739D01*
X99631Y613778D01*
X99427Y613842D01*
X99249Y613918D01*
X99096Y614007D01*
X98968Y614097D01*
X98866Y614211D01*
X98777Y614326D01*
X98700Y614428D01*
X98649Y614543D01*
X98611Y614632D01*
X98573Y614734D01*
X98560Y614798D01*
X98547Y614861D01*
X98535Y614900D01*
Y614913D01*
Y618559D01*
X98573Y618738D01*
X98637Y618890D01*
X98726Y619031D01*
X98828Y619146D01*
X98955Y619247D01*
X99083Y619337D01*
X99236Y619401D01*
X99376Y619452D01*
X99657Y619528D01*
X99784Y619554D01*
X99899Y619566D01*
X99988Y619579D01*
X107523Y619579D01*
Y621364D01*
X98535Y621364D01*
Y623442D01*
X108059Y623442D01*
X108378Y623417D01*
D02*
G37*
G36*
X88437Y623430D02*
X93613Y620140D01*
Y623430D01*
X96036D01*
Y613727D01*
X93613D01*
Y617246D01*
X92211Y618164D01*
X87697Y613727D01*
X84229D01*
X90145Y619541D01*
X84433Y623442D01*
X88437Y623430D01*
D02*
G37*
G36*
X80481Y623417D02*
X80761Y623366D01*
X81016Y623302D01*
X81220Y623226D01*
X81399Y623136D01*
X81552Y623034D01*
X81666Y622932D01*
X81768Y622830D01*
X81845Y622728D01*
X81896Y622626D01*
X81947Y622537D01*
X81972Y622448D01*
X81985Y622384D01*
X81998Y622333D01*
Y622295D01*
Y622282D01*
Y621785D01*
Y621313D01*
Y620867D01*
Y620433D01*
Y620013D01*
Y619630D01*
Y619247D01*
Y618890D01*
Y618559D01*
Y618240D01*
Y617934D01*
Y617654D01*
Y617386D01*
Y617144D01*
Y616902D01*
Y616685D01*
Y616481D01*
Y616302D01*
Y616137D01*
Y615971D01*
Y615831D01*
Y615703D01*
Y615588D01*
Y615486D01*
Y615397D01*
Y615333D01*
Y615218D01*
Y615155D01*
Y615129D01*
X81972Y614887D01*
X81909Y614670D01*
X81832Y614479D01*
X81743Y614313D01*
X81628Y614186D01*
X81513Y614071D01*
X81386Y613982D01*
X81258Y613905D01*
X81131Y613842D01*
X81016Y613803D01*
X80901Y613765D01*
X80799Y613752D01*
X80723Y613739D01*
X80646Y613727D01*
X72397D01*
X72091Y613752D01*
X71811Y613816D01*
X71581Y613893D01*
X71377Y613982D01*
X71199Y614084D01*
X71058Y614198D01*
X70944Y614313D01*
X70842Y614441D01*
X70778Y614568D01*
X70714Y614683D01*
X70676Y614798D01*
X70650Y614887D01*
X70638Y614976D01*
X70625Y615040D01*
Y615078D01*
Y615091D01*
Y622333D01*
X70663Y622524D01*
X70740Y622703D01*
X70829Y622843D01*
X70956Y622971D01*
X71084Y623085D01*
X71237Y623174D01*
X71390Y623251D01*
X71556Y623302D01*
X71709Y623353D01*
X71862Y623379D01*
X72002Y623404D01*
X72129Y623430D01*
X72231D01*
X72308Y623442D01*
X80162D01*
X80481Y623417D01*
D02*
G37*
G36*
X463232Y613645D02*
X460402D01*
Y623360D01*
X463232D01*
Y613645D01*
D02*
G37*
G36*
X456067Y623335D02*
X456347Y623284D01*
X456602Y623220D01*
X456806Y623143D01*
X456985Y623054D01*
X457138Y622952D01*
X457252Y622850D01*
X457354Y622748D01*
X457431Y622646D01*
X457482Y622544D01*
X457533Y622455D01*
X457558Y622366D01*
X457571Y622302D01*
X457584Y622251D01*
Y622213D01*
Y622200D01*
Y618681D01*
X457558Y618477D01*
X457507Y618298D01*
X457418Y618145D01*
X457291Y618005D01*
X457163Y617890D01*
X456997Y617788D01*
X456832Y617699D01*
X456666Y617635D01*
X456500Y617572D01*
X456334Y617533D01*
X456169Y617495D01*
X456028Y617482D01*
X455914Y617457D01*
X455824D01*
X455773Y617444D01*
X448633Y617444D01*
Y615672D01*
X457584Y615672D01*
Y613645D01*
X447805Y613645D01*
X447550Y613657D01*
X447320Y613696D01*
X447116Y613759D01*
X446938Y613836D01*
X446785Y613925D01*
X446657Y614014D01*
X446555Y614129D01*
X446466Y614244D01*
X446389Y614346D01*
X446338Y614461D01*
X446300Y614550D01*
X446262Y614652D01*
X446249Y614716D01*
X446236Y614779D01*
X446224Y614818D01*
Y614830D01*
Y618477D01*
X446262Y618655D01*
X446326Y618808D01*
X446415Y618949D01*
X446517Y619063D01*
X446644Y619165D01*
X446772Y619255D01*
X446925Y619318D01*
X447065Y619369D01*
X447346Y619446D01*
X447473Y619471D01*
X447588Y619484D01*
X447677Y619497D01*
X455212Y619497D01*
Y621282D01*
X446224Y621282D01*
Y623360D01*
X455748Y623360D01*
X456067Y623335D01*
D02*
G37*
G36*
X436126Y623347D02*
X441302Y620058D01*
Y623347D01*
X443725D01*
Y613645D01*
X441302D01*
Y617164D01*
X439900Y618082D01*
X435386Y613645D01*
X431918D01*
X437834Y619459D01*
X432122Y623360D01*
X436126Y623347D01*
D02*
G37*
G36*
X428170Y623335D02*
X428450Y623284D01*
X428705Y623220D01*
X428909Y623143D01*
X429088Y623054D01*
X429241Y622952D01*
X429355Y622850D01*
X429457Y622748D01*
X429534Y622646D01*
X429585Y622544D01*
X429636Y622455D01*
X429661Y622366D01*
X429674Y622302D01*
X429687Y622251D01*
Y622213D01*
Y622200D01*
Y621703D01*
Y621231D01*
Y620785D01*
Y620351D01*
Y619930D01*
Y619548D01*
Y619165D01*
Y618808D01*
Y618477D01*
Y618158D01*
Y617852D01*
Y617572D01*
Y617304D01*
Y617062D01*
Y616819D01*
Y616603D01*
Y616399D01*
Y616220D01*
Y616054D01*
Y615889D01*
Y615748D01*
Y615621D01*
Y615506D01*
Y615404D01*
Y615315D01*
Y615251D01*
Y615136D01*
Y615073D01*
Y615047D01*
X429661Y614805D01*
X429598Y614588D01*
X429521Y614397D01*
X429432Y614231D01*
X429317Y614104D01*
X429202Y613989D01*
X429075Y613900D01*
X428947Y613823D01*
X428820Y613759D01*
X428705Y613721D01*
X428590Y613683D01*
X428488Y613670D01*
X428412Y613657D01*
X428335Y613645D01*
X420086D01*
X419780Y613670D01*
X419500Y613734D01*
X419270Y613810D01*
X419066Y613900D01*
X418888Y614002D01*
X418747Y614116D01*
X418633Y614231D01*
X418531Y614359D01*
X418467Y614486D01*
X418403Y614601D01*
X418365Y614716D01*
X418339Y614805D01*
X418327Y614894D01*
X418314Y614958D01*
Y614996D01*
Y615009D01*
Y622251D01*
X418352Y622442D01*
X418429Y622621D01*
X418518Y622761D01*
X418645Y622888D01*
X418773Y623003D01*
X418926Y623092D01*
X419079Y623169D01*
X419245Y623220D01*
X419398Y623271D01*
X419551Y623296D01*
X419691Y623322D01*
X419818Y623347D01*
X419920D01*
X419997Y623360D01*
X427851D01*
X428170Y623335D01*
D02*
G37*
G36*
X131513Y608801D02*
X120217D01*
X120071Y608782D01*
X119925Y608764D01*
X119798Y608710D01*
X119688Y608673D01*
X119597Y608618D01*
X119525Y608564D01*
X119488Y608546D01*
X119470Y608527D01*
X119361Y608418D01*
X119288Y608291D01*
X119233Y608181D01*
X119197Y608072D01*
X119178Y607981D01*
X119160Y607908D01*
Y607853D01*
Y607835D01*
X119178Y607689D01*
X119215Y607544D01*
X119251Y607434D01*
X119306Y607325D01*
X119379Y607252D01*
X119415Y607197D01*
X119452Y607161D01*
X119470Y607143D01*
X119597Y607052D01*
X119725Y606979D01*
X119834Y606942D01*
X119962Y606906D01*
X120053Y606888D01*
X120144Y606869D01*
X128434D01*
Y603189D01*
X120217D01*
X120071Y603171D01*
X119925Y603153D01*
X119798Y603098D01*
X119688Y603043D01*
X119597Y602989D01*
X119525Y602952D01*
X119488Y602916D01*
X119470Y602898D01*
X119361Y602788D01*
X119288Y602679D01*
X119233Y602569D01*
X119197Y602460D01*
X119178Y602369D01*
X119160Y602296D01*
Y602242D01*
Y602223D01*
X119178Y602077D01*
X119215Y601932D01*
X119251Y601823D01*
X119306Y601713D01*
X119379Y601622D01*
X119415Y601567D01*
X119452Y601531D01*
X119470Y601513D01*
X119597Y601422D01*
X119725Y601367D01*
X119962Y601294D01*
X120053Y601276D01*
X120144Y601258D01*
X131513D01*
Y597577D01*
X118686D01*
X118413Y597595D01*
X118158Y597614D01*
X117666Y597723D01*
X117247Y597869D01*
X116864Y598051D01*
X116719Y598124D01*
X116573Y598215D01*
X116445Y598288D01*
X116336Y598361D01*
X116263Y598415D01*
X116209Y598470D01*
X116172Y598488D01*
X116154Y598506D01*
X115972Y598689D01*
X115808Y598871D01*
X115662Y599071D01*
X115534Y599272D01*
X115443Y599472D01*
X115352Y599654D01*
X115225Y600019D01*
X115152Y600347D01*
X115134Y600474D01*
X115115Y600602D01*
X115097Y600693D01*
Y600766D01*
Y600802D01*
Y600820D01*
Y603663D01*
X115170Y603863D01*
X115243Y604045D01*
X115352Y604209D01*
X115462Y604337D01*
X115698Y604574D01*
X115953Y604756D01*
X116209Y604883D01*
X116409Y604956D01*
X116500Y604975D01*
X116555Y604993D01*
X116591Y605011D01*
X116609D01*
X116391Y605066D01*
X116190Y605138D01*
X116008Y605230D01*
X115862Y605321D01*
X115589Y605558D01*
X115389Y605794D01*
X115261Y606013D01*
X115170Y606214D01*
X115134Y606286D01*
X115115Y606341D01*
X115097Y606378D01*
Y606396D01*
Y609256D01*
X115115Y609493D01*
X115134Y609730D01*
X115188Y609949D01*
X115261Y610167D01*
X115425Y610550D01*
X115626Y610896D01*
X115826Y611151D01*
X115917Y611279D01*
X115990Y611370D01*
X116063Y611443D01*
X116099Y611497D01*
X116136Y611516D01*
X116154Y611534D01*
X116354Y611698D01*
X116555Y611862D01*
X116773Y611989D01*
X116992Y612099D01*
X117411Y612262D01*
X117812Y612372D01*
X118158Y612445D01*
X118304Y612463D01*
X118431Y612481D01*
X118541Y612499D01*
X131513D01*
Y608801D01*
D02*
G37*
G36*
X434764Y608578D02*
X423467D01*
X423322Y608560D01*
X423176Y608541D01*
X423048Y608487D01*
X422939Y608450D01*
X422848Y608396D01*
X422775Y608341D01*
X422739Y608323D01*
X422720Y608305D01*
X422611Y608195D01*
X422538Y608068D01*
X422483Y607958D01*
X422447Y607849D01*
X422429Y607758D01*
X422411Y607685D01*
Y607630D01*
Y607612D01*
X422429Y607466D01*
X422465Y607321D01*
X422502Y607211D01*
X422556Y607102D01*
X422629Y607029D01*
X422666Y606974D01*
X422702Y606938D01*
X422720Y606920D01*
X422848Y606829D01*
X422975Y606756D01*
X423085Y606719D01*
X423212Y606683D01*
X423303Y606665D01*
X423394Y606646D01*
X431685D01*
Y602966D01*
X423467D01*
X423322Y602948D01*
X423176Y602930D01*
X423048Y602875D01*
X422939Y602820D01*
X422848Y602766D01*
X422775Y602729D01*
X422739Y602693D01*
X422720Y602674D01*
X422611Y602565D01*
X422538Y602456D01*
X422483Y602347D01*
X422447Y602237D01*
X422429Y602146D01*
X422411Y602073D01*
Y602019D01*
Y602000D01*
X422429Y601855D01*
X422465Y601709D01*
X422502Y601600D01*
X422556Y601490D01*
X422629Y601399D01*
X422666Y601344D01*
X422702Y601308D01*
X422720Y601290D01*
X422848Y601199D01*
X422975Y601144D01*
X423212Y601071D01*
X423303Y601053D01*
X423394Y601035D01*
X434764D01*
Y597354D01*
X421937D01*
X421664Y597372D01*
X421409Y597391D01*
X420917Y597500D01*
X420498Y597646D01*
X420115Y597828D01*
X419969Y597901D01*
X419823Y597992D01*
X419696Y598065D01*
X419587Y598138D01*
X419514Y598192D01*
X419459Y598247D01*
X419422Y598265D01*
X419404Y598283D01*
X419222Y598466D01*
X419058Y598648D01*
X418912Y598848D01*
X418785Y599049D01*
X418694Y599249D01*
X418603Y599431D01*
X418475Y599796D01*
X418402Y600124D01*
X418384Y600251D01*
X418366Y600379D01*
X418348Y600470D01*
Y600543D01*
Y600579D01*
Y600597D01*
Y603440D01*
X418420Y603640D01*
X418493Y603822D01*
X418603Y603986D01*
X418712Y604114D01*
X418949Y604351D01*
X419204Y604533D01*
X419459Y604661D01*
X419659Y604733D01*
X419750Y604752D01*
X419805Y604770D01*
X419842Y604788D01*
X419860D01*
X419641Y604843D01*
X419441Y604916D01*
X419259Y605007D01*
X419113Y605098D01*
X418840Y605335D01*
X418639Y605572D01*
X418511Y605790D01*
X418420Y605991D01*
X418384Y606063D01*
X418366Y606118D01*
X418348Y606154D01*
Y606173D01*
Y609033D01*
X418366Y609270D01*
X418384Y609507D01*
X418439Y609726D01*
X418511Y609944D01*
X418676Y610327D01*
X418876Y610673D01*
X419076Y610928D01*
X419168Y611056D01*
X419240Y611147D01*
X419313Y611220D01*
X419350Y611274D01*
X419386Y611293D01*
X419404Y611311D01*
X419605Y611475D01*
X419805Y611639D01*
X420024Y611766D01*
X420242Y611876D01*
X420661Y612040D01*
X421062Y612149D01*
X421409Y612222D01*
X421554Y612240D01*
X421682Y612258D01*
X421791Y612276D01*
X434764D01*
Y608578D01*
D02*
G37*
G36*
X276460Y548983D02*
X276740Y548932D01*
X276995Y548869D01*
X277199Y548792D01*
X277378Y548703D01*
X277531Y548601D01*
X277646Y548499D01*
X277748Y548397D01*
X277824Y548295D01*
X277875Y548193D01*
X277926Y548104D01*
X277952Y548014D01*
X277964Y547951D01*
X277977Y547900D01*
Y547861D01*
Y547849D01*
Y547351D01*
Y546880D01*
Y546433D01*
Y546000D01*
Y545579D01*
Y545197D01*
Y544814D01*
Y544457D01*
Y544126D01*
Y543807D01*
Y543501D01*
Y543220D01*
Y542953D01*
Y542710D01*
Y542468D01*
Y542251D01*
Y542047D01*
Y541869D01*
Y541703D01*
Y541537D01*
Y541397D01*
Y541270D01*
Y541155D01*
Y541053D01*
Y540964D01*
Y540900D01*
Y540785D01*
Y540721D01*
Y540696D01*
X277952Y540454D01*
X277888Y540237D01*
X277811Y540046D01*
X277722Y539880D01*
X277607Y539752D01*
X277493Y539638D01*
X277365Y539548D01*
X277238Y539472D01*
X277110Y539408D01*
X276995Y539370D01*
X276881Y539332D01*
X276779Y539319D01*
X276702Y539306D01*
X276626Y539293D01*
X268529D01*
X268313Y539306D01*
X268121Y539332D01*
X267943Y539357D01*
X267790Y539383D01*
X267675Y539421D01*
X267586Y539446D01*
X267522Y539459D01*
X267509Y539472D01*
X267331Y539548D01*
X267191Y539625D01*
X267063Y539714D01*
X266948Y539816D01*
X266859Y539905D01*
X266795Y540020D01*
X266732Y540122D01*
X266693Y540224D01*
X266642Y540403D01*
X266617Y540568D01*
Y540619D01*
Y540670D01*
Y540696D01*
Y540709D01*
Y543361D01*
X269014D01*
Y541321D01*
X275606D01*
Y546931D01*
X269014D01*
Y545171D01*
X266617D01*
Y547849D01*
X266655Y548053D01*
X266732Y548231D01*
X266846Y548384D01*
X266974Y548524D01*
X267114Y548626D01*
X267267Y548728D01*
X267433Y548805D01*
X267611Y548869D01*
X267777Y548907D01*
X267930Y548945D01*
X268083Y548971D01*
X268223Y548996D01*
X268325D01*
X268415Y549009D01*
X276141D01*
X276460Y548983D01*
D02*
G37*
G36*
X289886Y539293D02*
X279596D01*
Y541435D01*
X287361D01*
Y549009D01*
X289886D01*
Y539293D01*
D02*
G37*
G36*
X264118D02*
X255869Y539293D01*
X255626Y539306D01*
X255384Y539319D01*
X254938Y539395D01*
X254530Y539523D01*
X254147Y539676D01*
X253816Y539867D01*
X253510Y540071D01*
X253229Y540288D01*
X252987Y540517D01*
X252783Y540747D01*
X252605Y540964D01*
X252452Y541180D01*
X252324Y541359D01*
X252235Y541512D01*
X252171Y541639D01*
X252133Y541716D01*
X252120Y541729D01*
Y541741D01*
X251967Y542137D01*
X251852Y542545D01*
X251750Y542953D01*
X251687Y543335D01*
X251661Y543514D01*
X251636Y543667D01*
X251623Y543820D01*
X251610Y543934D01*
X251597Y544036D01*
X251585Y544113D01*
Y544164D01*
Y544177D01*
X251636Y544687D01*
X251661Y544929D01*
X251699Y545146D01*
X251750Y545362D01*
X251789Y545566D01*
X251840Y545745D01*
X251891Y545911D01*
X251929Y546064D01*
X251980Y546191D01*
X252018Y546319D01*
X252044Y546408D01*
X252082Y546484D01*
X252095Y546535D01*
X252120Y546574D01*
Y546586D01*
X252222Y546803D01*
X252337Y547007D01*
X252464Y547211D01*
X252592Y547390D01*
X252860Y547708D01*
X253153Y547989D01*
X253459Y548218D01*
X253778Y548422D01*
X254084Y548575D01*
X254390Y548703D01*
X254696Y548805D01*
X254963Y548881D01*
X255218Y548932D01*
X255435Y548971D01*
X255614Y548996D01*
X255754Y549009D01*
X264118Y549009D01*
Y539293D01*
D02*
G37*
G36*
X81680Y488272D02*
X81864Y488238D01*
X82032Y488197D01*
X82166Y488146D01*
X82283Y488088D01*
X82384Y488021D01*
X82459Y487953D01*
X82526Y487886D01*
X82577Y487819D01*
X82610Y487752D01*
X82644Y487694D01*
X82661Y487635D01*
X82669Y487593D01*
X82677Y487560D01*
Y487534D01*
Y487526D01*
Y487199D01*
Y486889D01*
Y486596D01*
Y486311D01*
Y486034D01*
Y485783D01*
Y485532D01*
Y485297D01*
Y485079D01*
Y484870D01*
Y484668D01*
Y484484D01*
Y484308D01*
Y484149D01*
Y483990D01*
Y483847D01*
Y483713D01*
Y483596D01*
Y483487D01*
Y483378D01*
Y483286D01*
Y483202D01*
Y483127D01*
Y483060D01*
Y483001D01*
Y482959D01*
Y482884D01*
Y482842D01*
Y482825D01*
X82661Y482666D01*
X82619Y482523D01*
X82568Y482398D01*
X82510Y482289D01*
X82434Y482205D01*
X82359Y482129D01*
X82275Y482071D01*
X82191Y482020D01*
X82107Y481979D01*
X82032Y481953D01*
X81957Y481928D01*
X81889Y481920D01*
X81839Y481911D01*
X81789Y481903D01*
X76367D01*
X76166Y481920D01*
X75982Y481962D01*
X75831Y482012D01*
X75697Y482071D01*
X75579Y482138D01*
X75487Y482213D01*
X75412Y482289D01*
X75345Y482372D01*
X75303Y482456D01*
X75261Y482532D01*
X75236Y482607D01*
X75219Y482666D01*
X75211Y482724D01*
X75202Y482766D01*
Y482791D01*
Y482800D01*
Y487560D01*
X75227Y487685D01*
X75278Y487803D01*
X75336Y487895D01*
X75420Y487979D01*
X75504Y488054D01*
X75604Y488113D01*
X75705Y488163D01*
X75814Y488197D01*
X75915Y488230D01*
X76015Y488247D01*
X76107Y488264D01*
X76191Y488280D01*
X76258D01*
X76309Y488289D01*
X81471D01*
X81680Y488272D01*
D02*
G37*
G36*
X68389Y488280D02*
X71792Y486118D01*
Y488280D01*
X73384D01*
Y481903D01*
X71792D01*
Y484216D01*
X70870Y484819D01*
X67903Y481903D01*
X65624D01*
X69512Y485724D01*
X65758Y488289D01*
X68389Y488280D01*
D02*
G37*
G36*
X462757Y464703D02*
X462941Y464669D01*
X463109Y464628D01*
X463243Y464577D01*
X463360Y464519D01*
X463461Y464452D01*
X463536Y464385D01*
X463603Y464318D01*
X463654Y464251D01*
X463687Y464183D01*
X463721Y464125D01*
X463737Y464066D01*
X463746Y464024D01*
X463754Y463991D01*
Y463966D01*
Y463957D01*
Y463630D01*
Y463320D01*
Y463027D01*
Y462742D01*
Y462465D01*
Y462214D01*
Y461963D01*
Y461728D01*
Y461510D01*
Y461301D01*
Y461100D01*
Y460915D01*
Y460739D01*
Y460580D01*
Y460421D01*
Y460278D01*
Y460144D01*
Y460027D01*
Y459918D01*
Y459809D01*
Y459717D01*
Y459633D01*
Y459558D01*
Y459491D01*
Y459432D01*
Y459390D01*
Y459315D01*
Y459273D01*
Y459256D01*
X463737Y459097D01*
X463696Y458954D01*
X463645Y458829D01*
X463587Y458720D01*
X463511Y458636D01*
X463436Y458560D01*
X463352Y458502D01*
X463268Y458452D01*
X463184Y458410D01*
X463109Y458385D01*
X463034Y458359D01*
X462966Y458351D01*
X462916Y458343D01*
X462866Y458334D01*
X457545D01*
X457402Y458343D01*
X457276Y458359D01*
X457159Y458376D01*
X457059Y458393D01*
X456983Y458418D01*
X456925Y458435D01*
X456883Y458443D01*
X456874Y458452D01*
X456757Y458502D01*
X456665Y458552D01*
X456581Y458611D01*
X456506Y458678D01*
X456447Y458736D01*
X456405Y458812D01*
X456363Y458879D01*
X456338Y458946D01*
X456304Y459063D01*
X456288Y459172D01*
Y459206D01*
Y459239D01*
Y459256D01*
Y459264D01*
Y461007D01*
X457863D01*
Y459667D01*
X462196D01*
Y463354D01*
X457863D01*
Y462197D01*
X456288D01*
Y463957D01*
X456313Y464091D01*
X456363Y464209D01*
X456438Y464309D01*
X456522Y464401D01*
X456614Y464468D01*
X456715Y464535D01*
X456824Y464586D01*
X456941Y464628D01*
X457050Y464653D01*
X457151Y464678D01*
X457251Y464695D01*
X457344Y464711D01*
X457411D01*
X457469Y464720D01*
X462547D01*
X462757Y464703D01*
D02*
G37*
G36*
X481084Y458334D02*
X474321D01*
Y459742D01*
X479425D01*
Y460882D01*
X476433D01*
Y462264D01*
X479433D01*
Y463404D01*
X474305D01*
Y464720D01*
X481084D01*
Y458334D01*
D02*
G37*
G36*
X471866Y464703D02*
X472051Y464669D01*
X472218Y464628D01*
X472352Y464577D01*
X472470Y464519D01*
X472570Y464452D01*
X472645Y464385D01*
X472713Y464318D01*
X472763Y464251D01*
X472796Y464183D01*
X472830Y464125D01*
X472847Y464066D01*
X472855Y464024D01*
X472863Y463991D01*
Y463966D01*
Y463957D01*
Y461644D01*
X472847Y461510D01*
X472813Y461393D01*
X472754Y461292D01*
X472671Y461200D01*
X472587Y461125D01*
X472478Y461058D01*
X472369Y460999D01*
X472260Y460957D01*
X472151Y460915D01*
X472042Y460890D01*
X471933Y460865D01*
X471841Y460856D01*
X471766Y460840D01*
X471707D01*
X471673Y460831D01*
X466981D01*
Y459667D01*
X472863D01*
Y458334D01*
X466436D01*
X466268Y458343D01*
X466117Y458368D01*
X465983Y458410D01*
X465866Y458460D01*
X465765Y458519D01*
X465682Y458577D01*
X465615Y458653D01*
X465556Y458728D01*
X465506Y458795D01*
X465472Y458871D01*
X465447Y458929D01*
X465422Y458996D01*
X465414Y459038D01*
X465405Y459080D01*
X465397Y459105D01*
Y459114D01*
Y461510D01*
X465422Y461627D01*
X465464Y461728D01*
X465522Y461820D01*
X465590Y461896D01*
X465673Y461963D01*
X465757Y462021D01*
X465858Y462063D01*
X465950Y462097D01*
X466134Y462147D01*
X466218Y462164D01*
X466293Y462172D01*
X466352Y462181D01*
X471305D01*
Y463354D01*
X465397D01*
Y464720D01*
X471657D01*
X471866Y464703D01*
D02*
G37*
G36*
X521653Y424744D02*
X518067D01*
X520990Y420079D01*
X519612D01*
X516762Y424759D01*
Y425634D01*
X521653D01*
Y424744D01*
D02*
G37*
G36*
X44882Y424722D02*
X43730D01*
Y420079D01*
X42593D01*
Y425634D01*
X44882D01*
Y424722D01*
D02*
G37*
G36*
X68395Y424700D02*
X65341D01*
X65231Y424693D01*
X65144Y424686D01*
X65071Y424671D01*
X65013Y424649D01*
X64976Y424628D01*
X64947Y424613D01*
X64933Y424606D01*
X64925Y424598D01*
X64903Y424577D01*
X64889Y424547D01*
X64860Y424482D01*
X64845Y424394D01*
X64830Y424314D01*
X64823Y424227D01*
X64816Y424161D01*
Y424132D01*
Y424110D01*
Y424103D01*
Y424095D01*
Y423818D01*
X64823Y423738D01*
X64830Y423673D01*
X64852Y423614D01*
X64867Y423570D01*
X64889Y423534D01*
X64911Y423512D01*
X64918Y423498D01*
X64925Y423490D01*
X64969Y423461D01*
X65035Y423439D01*
X65100Y423417D01*
X65173Y423410D01*
X65239Y423403D01*
X65290Y423396D01*
X66974D01*
Y422433D01*
X65129D01*
X65027Y422426D01*
X64940Y422419D01*
X64867Y422404D01*
X64816Y422382D01*
X64772Y422360D01*
X64743Y422346D01*
X64728Y422338D01*
X64721Y422331D01*
X64685Y422288D01*
X64656Y422229D01*
X64634Y422164D01*
X64619Y422098D01*
X64612Y422040D01*
X64604Y421989D01*
Y421952D01*
Y421938D01*
Y421537D01*
X64612Y421435D01*
X64619Y421347D01*
X64641Y421281D01*
X64663Y421230D01*
X64685Y421187D01*
X64699Y421165D01*
X64714Y421150D01*
X64721Y421143D01*
X64772Y421114D01*
X64830Y421092D01*
X64969Y421063D01*
X65027Y421056D01*
X65078Y421048D01*
X68359D01*
Y420079D01*
X64641D01*
X64524Y420086D01*
X64415Y420100D01*
X64320Y420115D01*
X64225Y420130D01*
X64145Y420152D01*
X64072Y420166D01*
X64014Y420188D01*
X63956Y420210D01*
X63905Y420232D01*
X63868Y420246D01*
X63839Y420261D01*
X63810Y420275D01*
X63795Y420290D01*
X63781Y420297D01*
X63722Y420348D01*
X63671Y420414D01*
X63598Y420552D01*
X63540Y420713D01*
X63496Y420866D01*
X63475Y421012D01*
X63467Y421077D01*
Y421136D01*
X63460Y421179D01*
Y421216D01*
Y421238D01*
Y421245D01*
Y421814D01*
X63482Y421989D01*
X63525Y422142D01*
X63577Y422273D01*
X63649Y422397D01*
X63722Y422499D01*
X63810Y422586D01*
X63897Y422659D01*
X63985Y422725D01*
X64072Y422776D01*
X64160Y422820D01*
X64240Y422849D01*
X64313Y422871D01*
X64371Y422893D01*
X64415Y422900D01*
X64451Y422907D01*
X64459D01*
X64320Y422944D01*
X64204Y422995D01*
X64094Y423060D01*
X64007Y423133D01*
X63934Y423213D01*
X63868Y423301D01*
X63817Y423396D01*
X63773Y423490D01*
X63744Y423578D01*
X63722Y423665D01*
X63700Y423745D01*
X63693Y423811D01*
X63686Y423869D01*
X63679Y423920D01*
Y423950D01*
Y423957D01*
Y424562D01*
Y424679D01*
X63693Y424788D01*
X63708Y424883D01*
X63722Y424970D01*
X63744Y425050D01*
X63773Y425123D01*
X63802Y425189D01*
X63824Y425240D01*
X63854Y425291D01*
X63883Y425335D01*
X63934Y425393D01*
X63963Y425429D01*
X63977Y425437D01*
X64029Y425473D01*
X64094Y425502D01*
X64233Y425553D01*
X64386Y425583D01*
X64539Y425612D01*
X64685Y425626D01*
X64743D01*
X64801Y425634D01*
X68395D01*
Y424700D01*
D02*
G37*
G36*
X498958Y425619D02*
X499038Y425590D01*
X499104Y425553D01*
X499169Y425502D01*
X499221Y425451D01*
X499257Y425393D01*
X499294Y425335D01*
X499323Y425269D01*
X499359Y425152D01*
X499374Y425094D01*
X499381Y425050D01*
Y425007D01*
X499388Y424977D01*
Y424956D01*
Y424948D01*
Y422441D01*
X495393D01*
Y421034D01*
X499388D01*
Y420079D01*
X495481D01*
X495291Y420093D01*
X495131Y420122D01*
X494992Y420159D01*
X494868Y420210D01*
X494766Y420261D01*
X494679Y420319D01*
X494613Y420385D01*
X494555Y420443D01*
X494511Y420509D01*
X494482Y420567D01*
X494453Y420625D01*
X494438Y420676D01*
X494431Y420720D01*
X494424Y420749D01*
Y420771D01*
Y420778D01*
Y420983D01*
X494431Y421179D01*
Y421369D01*
Y421544D01*
Y421712D01*
Y421865D01*
Y422011D01*
Y422134D01*
Y422258D01*
X494424Y422360D01*
Y422448D01*
Y422521D01*
Y422579D01*
Y422623D01*
Y422652D01*
Y422659D01*
X494446Y422783D01*
X494489Y422900D01*
X494548Y422995D01*
X494621Y423075D01*
X494701Y423148D01*
X494796Y423206D01*
X494890Y423250D01*
X494985Y423293D01*
X495080Y423323D01*
X495167Y423345D01*
X495255Y423359D01*
X495328Y423366D01*
X495393Y423374D01*
X495437Y423381D01*
X498397D01*
Y424693D01*
X494774D01*
Y425634D01*
X498863D01*
X498958Y425619D01*
D02*
G37*
G36*
X510069D02*
X510156Y425590D01*
X510229Y425553D01*
X510288Y425502D01*
X510346Y425451D01*
X510390Y425393D01*
X510426Y425327D01*
X510455Y425269D01*
X510492Y425145D01*
X510506Y425094D01*
X510513Y425043D01*
Y424999D01*
X510521Y424970D01*
Y424948D01*
Y424941D01*
Y420793D01*
X510513Y420676D01*
X510484Y420567D01*
X510441Y420480D01*
X510390Y420399D01*
X510324Y420334D01*
X510258Y420275D01*
X510178Y420224D01*
X510098Y420188D01*
X510025Y420152D01*
X509945Y420130D01*
X509879Y420108D01*
X509814Y420093D01*
X509763Y420086D01*
X509719Y420079D01*
X506307D01*
X506176Y420093D01*
X506059Y420122D01*
X505957Y420159D01*
X505870Y420210D01*
X505797Y420261D01*
X505731Y420319D01*
X505680Y420385D01*
X505644Y420443D01*
X505615Y420509D01*
X505585Y420567D01*
X505571Y420625D01*
X505564Y420676D01*
X505556Y420720D01*
X505549Y420749D01*
Y420771D01*
Y420778D01*
Y420983D01*
Y421179D01*
Y421369D01*
Y421544D01*
Y421712D01*
Y421865D01*
Y422011D01*
Y422134D01*
Y422258D01*
Y422360D01*
Y422448D01*
Y422521D01*
Y422579D01*
Y422623D01*
Y422652D01*
Y422659D01*
X505564Y422783D01*
X505600Y422900D01*
X505644Y422995D01*
X505695Y423075D01*
X505753Y423148D01*
X505819Y423206D01*
X505884Y423250D01*
X505950Y423293D01*
X506023Y423323D01*
X506088Y423345D01*
X506147Y423359D01*
X506205Y423366D01*
X506249Y423374D01*
X506285Y423381D01*
X509529D01*
Y424737D01*
X507991D01*
Y425634D01*
X509974D01*
X510069Y425619D01*
D02*
G37*
G36*
X488256Y422200D02*
Y421274D01*
X485063D01*
Y420079D01*
X484035D01*
Y421274D01*
X483663D01*
Y422200D01*
X484035D01*
Y425634D01*
X485704D01*
X488256Y422200D01*
D02*
G37*
G36*
X34006Y425619D02*
X34115Y425604D01*
X34218Y425590D01*
X34305Y425568D01*
X34385Y425546D01*
X34458Y425517D01*
X34524Y425495D01*
X34575Y425466D01*
X34618Y425437D01*
X34662Y425415D01*
X34691Y425393D01*
X34713Y425378D01*
X34728Y425364D01*
X34743Y425349D01*
X34786Y425291D01*
X34830Y425225D01*
X34888Y425072D01*
X34932Y424905D01*
X34969Y424737D01*
X34983Y424584D01*
X34990Y424518D01*
Y424453D01*
X34998Y424409D01*
Y424365D01*
Y424343D01*
Y424336D01*
Y421354D01*
Y421223D01*
X34983Y421099D01*
X34976Y420990D01*
X34954Y420888D01*
X34939Y420800D01*
X34917Y420713D01*
X34896Y420640D01*
X34866Y420582D01*
X34844Y420523D01*
X34823Y420472D01*
X34801Y420436D01*
X34779Y420407D01*
X34764Y420377D01*
X34750Y420363D01*
X34743Y420348D01*
X34691Y420305D01*
X34626Y420261D01*
X34553Y420224D01*
X34480Y420195D01*
X34312Y420144D01*
X34152Y420115D01*
X33999Y420093D01*
X33933Y420086D01*
X33875D01*
X33824Y420079D01*
X30667D01*
X30551Y420093D01*
X30441Y420100D01*
X30339Y420122D01*
X30252Y420144D01*
X30172Y420166D01*
X30099Y420188D01*
X30033Y420217D01*
X29982Y420239D01*
X29938Y420261D01*
X29895Y420283D01*
X29866Y420305D01*
X29844Y420327D01*
X29829Y420334D01*
X29814Y420348D01*
X29771Y420407D01*
X29727Y420472D01*
X29661Y420625D01*
X29618Y420786D01*
X29581Y420953D01*
X29567Y421106D01*
X29559Y421179D01*
Y421238D01*
X29552Y421289D01*
Y421325D01*
Y421347D01*
Y421354D01*
Y424336D01*
Y424467D01*
X29567Y424591D01*
X29574Y424700D01*
X29596Y424802D01*
X29610Y424897D01*
X29632Y424977D01*
X29661Y425058D01*
X29683Y425116D01*
X29705Y425174D01*
X29734Y425225D01*
X29756Y425262D01*
X29771Y425298D01*
X29793Y425320D01*
X29800Y425335D01*
X29814Y425349D01*
X29866Y425400D01*
X29931Y425444D01*
X29997Y425481D01*
X30077Y425517D01*
X30237Y425568D01*
X30405Y425597D01*
X30551Y425619D01*
X30624Y425626D01*
X30682D01*
X30733Y425634D01*
X33890D01*
X34006Y425619D01*
D02*
G37*
G36*
X56738Y424700D02*
X53290D01*
Y423869D01*
X56563Y421551D01*
X56643Y421493D01*
X56716Y421442D01*
X56782Y421398D01*
X56833Y421354D01*
X56935Y421274D01*
X57000Y421216D01*
X57051Y421172D01*
X57088Y421136D01*
X57102Y421121D01*
X57110Y421114D01*
X57161Y421034D01*
X57197Y420953D01*
X57226Y420873D01*
X57241Y420793D01*
X57248Y420727D01*
X57255Y420676D01*
Y420640D01*
Y420625D01*
X57248Y420509D01*
X57226Y420407D01*
X57197Y420319D01*
X57168Y420254D01*
X57139Y420210D01*
X57110Y420173D01*
X57088Y420152D01*
X57081Y420144D01*
X57022Y420108D01*
X56964Y420093D01*
X56920Y420079D01*
X52182D01*
Y421048D01*
X55593D01*
X52881Y422980D01*
X52794Y423046D01*
X52714Y423104D01*
X52641Y423155D01*
X52583Y423206D01*
X52531Y423250D01*
X52481Y423293D01*
X52408Y423359D01*
X52356Y423410D01*
X52327Y423447D01*
X52313Y423468D01*
X52306Y423476D01*
X52262Y423563D01*
X52233Y423665D01*
X52211Y423767D01*
X52196Y423862D01*
X52189Y423950D01*
X52182Y424022D01*
Y424052D01*
Y424074D01*
Y424081D01*
Y424088D01*
Y424445D01*
Y424577D01*
X52196Y424700D01*
X52203Y424810D01*
X52225Y424905D01*
X52240Y424992D01*
X52262Y425072D01*
X52291Y425145D01*
X52313Y425204D01*
X52335Y425254D01*
X52364Y425298D01*
X52386Y425335D01*
X52400Y425364D01*
X52429Y425400D01*
X52444Y425408D01*
X52495Y425444D01*
X52561Y425481D01*
X52634Y425510D01*
X52706Y425539D01*
X52867Y425575D01*
X53035Y425604D01*
X53188Y425619D01*
X53253Y425626D01*
X53319Y425634D01*
X56738D01*
Y424700D01*
D02*
G37*
G36*
X67149Y409153D02*
X64786D01*
X65967Y410138D01*
X67149Y409153D01*
D02*
G37*
G36*
X520188Y408957D02*
X517826D01*
X519007Y409941D01*
X520188Y408957D01*
D02*
G37*
G36*
X56016D02*
X53654D01*
X54835Y409941D01*
X56016Y408957D01*
D02*
G37*
G36*
X44883D02*
X42521D01*
X43702Y409941D01*
X44883Y408957D01*
D02*
G37*
G36*
X33751D02*
X31389D01*
X32570Y409941D01*
X33751Y408957D01*
D02*
G37*
G36*
X509055Y408760D02*
X506693D01*
X507874Y409744D01*
X509055Y408760D01*
D02*
G37*
G36*
X497923D02*
X495561D01*
X496742Y409744D01*
X497923Y408760D01*
D02*
G37*
G36*
X486790D02*
X484428D01*
X485609Y409744D01*
X486790Y408760D01*
D02*
G37*
G36*
X105861Y406738D02*
X101989D01*
Y408028D01*
X105861D01*
Y406738D01*
D02*
G37*
G36*
X453550Y406656D02*
X449678D01*
Y407946D01*
X453550D01*
Y406656D01*
D02*
G37*
G36*
X131506Y396010D02*
X128816D01*
Y401021D01*
X125947Y396010D01*
X124035D01*
X121026Y401136D01*
Y396010D01*
X118335D01*
Y405726D01*
X120758D01*
X124978Y399338D01*
X128867Y405726D01*
X131506D01*
Y396010D01*
D02*
G37*
G36*
X479195Y395928D02*
X476505D01*
Y400939D01*
X473636Y395928D01*
X471724D01*
X468715Y401054D01*
Y395928D01*
X466024D01*
Y405644D01*
X468447D01*
X472667Y399256D01*
X476556Y405644D01*
X479195D01*
Y395928D01*
D02*
G37*
G36*
X115543Y396010D02*
X112713D01*
Y405726D01*
X115543D01*
Y396010D01*
D02*
G37*
G36*
X108378Y405700D02*
X108658Y405649D01*
X108913Y405585D01*
X109117Y405509D01*
X109296Y405420D01*
X109449Y405318D01*
X109563Y405216D01*
X109665Y405114D01*
X109742Y405012D01*
X109793Y404910D01*
X109844Y404820D01*
X109869Y404731D01*
X109882Y404668D01*
X109895Y404616D01*
Y404578D01*
Y404565D01*
Y401047D01*
X109869Y400843D01*
X109818Y400664D01*
X109729Y400511D01*
X109602Y400371D01*
X109474Y400256D01*
X109308Y400154D01*
X109143Y400065D01*
X108977Y400001D01*
X108811Y399937D01*
X108645Y399899D01*
X108480Y399861D01*
X108339Y399848D01*
X108225Y399822D01*
X108135D01*
X108084Y399810D01*
X100944Y399810D01*
Y398038D01*
X109895Y398038D01*
Y396010D01*
X100116Y396010D01*
X99861Y396023D01*
X99631Y396061D01*
X99427Y396125D01*
X99249Y396201D01*
X99096Y396291D01*
X98968Y396380D01*
X98866Y396495D01*
X98777Y396609D01*
X98700Y396711D01*
X98649Y396826D01*
X98611Y396916D01*
X98573Y397018D01*
X98560Y397081D01*
X98547Y397145D01*
X98535Y397183D01*
Y397196D01*
Y400843D01*
X98573Y401021D01*
X98637Y401174D01*
X98726Y401314D01*
X98828Y401429D01*
X98955Y401531D01*
X99083Y401620D01*
X99236Y401684D01*
X99376Y401735D01*
X99657Y401812D01*
X99784Y401837D01*
X99899Y401850D01*
X99988Y401862D01*
X107523Y401862D01*
Y403648D01*
X98535Y403648D01*
Y405726D01*
X108059Y405726D01*
X108378Y405700D01*
D02*
G37*
G36*
X88437Y405713D02*
X93613Y402423D01*
Y405713D01*
X96036D01*
Y396010D01*
X93613D01*
Y399529D01*
X92211Y400447D01*
X87697Y396010D01*
X84229D01*
X90145Y401824D01*
X84433Y405726D01*
X88437Y405713D01*
D02*
G37*
G36*
X80481Y405700D02*
X80761Y405649D01*
X81016Y405585D01*
X81220Y405509D01*
X81399Y405420D01*
X81552Y405318D01*
X81666Y405216D01*
X81768Y405114D01*
X81845Y405012D01*
X81896Y404910D01*
X81947Y404820D01*
X81972Y404731D01*
X81985Y404668D01*
X81998Y404616D01*
Y404578D01*
Y404565D01*
Y404068D01*
Y403596D01*
Y403150D01*
Y402717D01*
Y402296D01*
Y401913D01*
Y401531D01*
Y401174D01*
Y400843D01*
Y400524D01*
Y400218D01*
Y399937D01*
Y399670D01*
Y399427D01*
Y399185D01*
Y398968D01*
Y398764D01*
Y398586D01*
Y398420D01*
Y398254D01*
Y398114D01*
Y397987D01*
Y397872D01*
Y397770D01*
Y397680D01*
Y397617D01*
Y397502D01*
Y397438D01*
Y397413D01*
X81972Y397170D01*
X81909Y396954D01*
X81832Y396762D01*
X81743Y396597D01*
X81628Y396469D01*
X81513Y396355D01*
X81386Y396265D01*
X81258Y396189D01*
X81131Y396125D01*
X81016Y396087D01*
X80901Y396048D01*
X80799Y396036D01*
X80723Y396023D01*
X80646Y396010D01*
X72397D01*
X72091Y396036D01*
X71811Y396099D01*
X71581Y396176D01*
X71377Y396265D01*
X71199Y396367D01*
X71058Y396482D01*
X70944Y396597D01*
X70842Y396724D01*
X70778Y396852D01*
X70714Y396967D01*
X70676Y397081D01*
X70650Y397170D01*
X70638Y397260D01*
X70625Y397323D01*
Y397362D01*
Y397375D01*
Y404616D01*
X70663Y404808D01*
X70740Y404986D01*
X70829Y405126D01*
X70956Y405254D01*
X71084Y405369D01*
X71237Y405458D01*
X71390Y405535D01*
X71556Y405585D01*
X71709Y405637D01*
X71862Y405662D01*
X72002Y405688D01*
X72129Y405713D01*
X72231D01*
X72308Y405726D01*
X80162D01*
X80481Y405700D01*
D02*
G37*
G36*
X463232Y395928D02*
X460402D01*
Y405644D01*
X463232D01*
Y395928D01*
D02*
G37*
G36*
X456067Y405618D02*
X456347Y405567D01*
X456602Y405503D01*
X456806Y405427D01*
X456985Y405338D01*
X457138Y405236D01*
X457252Y405134D01*
X457354Y405032D01*
X457431Y404930D01*
X457482Y404828D01*
X457533Y404738D01*
X457558Y404649D01*
X457571Y404585D01*
X457584Y404534D01*
Y404496D01*
Y404483D01*
Y400964D01*
X457558Y400760D01*
X457507Y400582D01*
X457418Y400429D01*
X457291Y400289D01*
X457163Y400174D01*
X456997Y400072D01*
X456832Y399983D01*
X456666Y399919D01*
X456500Y399855D01*
X456334Y399817D01*
X456169Y399779D01*
X456028Y399766D01*
X455914Y399740D01*
X455824D01*
X455773Y399728D01*
X448633Y399728D01*
Y397955D01*
X457584Y397955D01*
Y395928D01*
X447805Y395928D01*
X447550Y395941D01*
X447320Y395979D01*
X447116Y396043D01*
X446938Y396119D01*
X446785Y396209D01*
X446657Y396298D01*
X446555Y396413D01*
X446466Y396527D01*
X446389Y396629D01*
X446338Y396744D01*
X446300Y396833D01*
X446262Y396935D01*
X446249Y396999D01*
X446236Y397063D01*
X446224Y397101D01*
Y397114D01*
Y400760D01*
X446262Y400939D01*
X446326Y401092D01*
X446415Y401232D01*
X446517Y401347D01*
X446644Y401449D01*
X446772Y401538D01*
X446925Y401602D01*
X447065Y401653D01*
X447346Y401729D01*
X447473Y401755D01*
X447588Y401768D01*
X447677Y401780D01*
X455212Y401780D01*
Y403565D01*
X446224Y403565D01*
Y405644D01*
X455748Y405644D01*
X456067Y405618D01*
D02*
G37*
G36*
X436126Y405631D02*
X441302Y402341D01*
Y405631D01*
X443725D01*
Y395928D01*
X441302D01*
Y399447D01*
X439900Y400365D01*
X435386Y395928D01*
X431918D01*
X437834Y401742D01*
X432122Y405644D01*
X436126Y405631D01*
D02*
G37*
G36*
X428170Y405618D02*
X428450Y405567D01*
X428705Y405503D01*
X428909Y405427D01*
X429088Y405338D01*
X429241Y405236D01*
X429355Y405134D01*
X429457Y405032D01*
X429534Y404930D01*
X429585Y404828D01*
X429636Y404738D01*
X429661Y404649D01*
X429674Y404585D01*
X429687Y404534D01*
Y404496D01*
Y404483D01*
Y403986D01*
Y403514D01*
Y403068D01*
Y402635D01*
Y402214D01*
Y401831D01*
Y401449D01*
Y401092D01*
Y400760D01*
Y400442D01*
Y400136D01*
Y399855D01*
Y399587D01*
Y399345D01*
Y399103D01*
Y398886D01*
Y398682D01*
Y398504D01*
Y398338D01*
Y398172D01*
Y398032D01*
Y397904D01*
Y397790D01*
Y397688D01*
Y397598D01*
Y397535D01*
Y397420D01*
Y397356D01*
Y397331D01*
X429661Y397088D01*
X429598Y396872D01*
X429521Y396680D01*
X429432Y396515D01*
X429317Y396387D01*
X429202Y396272D01*
X429075Y396183D01*
X428947Y396107D01*
X428820Y396043D01*
X428705Y396005D01*
X428590Y395966D01*
X428488Y395954D01*
X428412Y395941D01*
X428335Y395928D01*
X420086D01*
X419780Y395954D01*
X419500Y396017D01*
X419270Y396094D01*
X419066Y396183D01*
X418888Y396285D01*
X418747Y396400D01*
X418633Y396515D01*
X418531Y396642D01*
X418467Y396770D01*
X418403Y396884D01*
X418365Y396999D01*
X418339Y397088D01*
X418327Y397178D01*
X418314Y397241D01*
Y397280D01*
Y397292D01*
Y404534D01*
X418352Y404726D01*
X418429Y404904D01*
X418518Y405044D01*
X418645Y405172D01*
X418773Y405287D01*
X418926Y405376D01*
X419079Y405452D01*
X419245Y405503D01*
X419398Y405554D01*
X419551Y405580D01*
X419691Y405605D01*
X419818Y405631D01*
X419920D01*
X419997Y405644D01*
X427851D01*
X428170Y405618D01*
D02*
G37*
G36*
X131513Y391084D02*
X120217D01*
X120071Y391066D01*
X119925Y391048D01*
X119798Y390993D01*
X119688Y390957D01*
X119597Y390902D01*
X119525Y390847D01*
X119488Y390829D01*
X119470Y390811D01*
X119361Y390702D01*
X119288Y390574D01*
X119233Y390465D01*
X119197Y390355D01*
X119178Y390264D01*
X119160Y390191D01*
Y390137D01*
Y390119D01*
X119178Y389973D01*
X119215Y389827D01*
X119251Y389718D01*
X119306Y389608D01*
X119379Y389535D01*
X119415Y389481D01*
X119452Y389444D01*
X119470Y389426D01*
X119597Y389335D01*
X119725Y389262D01*
X119834Y389226D01*
X119962Y389189D01*
X120053Y389171D01*
X120144Y389153D01*
X128434D01*
Y385472D01*
X120217D01*
X120071Y385454D01*
X119925Y385436D01*
X119798Y385381D01*
X119688Y385327D01*
X119597Y385272D01*
X119525Y385236D01*
X119488Y385199D01*
X119470Y385181D01*
X119361Y385072D01*
X119288Y384962D01*
X119233Y384853D01*
X119197Y384744D01*
X119178Y384652D01*
X119160Y384580D01*
Y384525D01*
Y384507D01*
X119178Y384361D01*
X119215Y384215D01*
X119251Y384106D01*
X119306Y383997D01*
X119379Y383906D01*
X119415Y383851D01*
X119452Y383814D01*
X119470Y383796D01*
X119597Y383705D01*
X119725Y383650D01*
X119962Y383578D01*
X120053Y383559D01*
X120144Y383541D01*
X131513D01*
Y379861D01*
X118686D01*
X118413Y379879D01*
X118158Y379897D01*
X117666Y380006D01*
X117247Y380152D01*
X116864Y380334D01*
X116719Y380407D01*
X116573Y380498D01*
X116445Y380571D01*
X116336Y380644D01*
X116263Y380699D01*
X116209Y380753D01*
X116172Y380772D01*
X116154Y380790D01*
X115972Y380972D01*
X115808Y381154D01*
X115662Y381355D01*
X115534Y381555D01*
X115443Y381755D01*
X115352Y381938D01*
X115225Y382302D01*
X115152Y382630D01*
X115134Y382758D01*
X115115Y382885D01*
X115097Y382976D01*
Y383049D01*
Y383086D01*
Y383104D01*
Y385946D01*
X115170Y386147D01*
X115243Y386329D01*
X115352Y386493D01*
X115462Y386620D01*
X115698Y386857D01*
X115953Y387039D01*
X116209Y387167D01*
X116409Y387240D01*
X116500Y387258D01*
X116555Y387276D01*
X116591Y387294D01*
X116609D01*
X116391Y387349D01*
X116190Y387422D01*
X116008Y387513D01*
X115862Y387604D01*
X115589Y387841D01*
X115389Y388078D01*
X115261Y388297D01*
X115170Y388497D01*
X115134Y388570D01*
X115115Y388625D01*
X115097Y388661D01*
Y388679D01*
Y391540D01*
X115115Y391776D01*
X115134Y392013D01*
X115188Y392232D01*
X115261Y392451D01*
X115425Y392833D01*
X115626Y393179D01*
X115826Y393435D01*
X115917Y393562D01*
X115990Y393653D01*
X116063Y393726D01*
X116099Y393781D01*
X116136Y393799D01*
X116154Y393817D01*
X116354Y393981D01*
X116555Y394145D01*
X116773Y394273D01*
X116992Y394382D01*
X117411Y394546D01*
X117812Y394655D01*
X118158Y394728D01*
X118304Y394746D01*
X118431Y394765D01*
X118541Y394783D01*
X131513D01*
Y391084D01*
D02*
G37*
G36*
X434764Y390861D02*
X423467D01*
X423322Y390843D01*
X423176Y390825D01*
X423048Y390770D01*
X422939Y390734D01*
X422848Y390679D01*
X422775Y390624D01*
X422739Y390606D01*
X422720Y390588D01*
X422611Y390479D01*
X422538Y390351D01*
X422483Y390242D01*
X422447Y390132D01*
X422429Y390041D01*
X422411Y389968D01*
Y389914D01*
Y389896D01*
X422429Y389750D01*
X422465Y389604D01*
X422502Y389495D01*
X422556Y389385D01*
X422629Y389313D01*
X422666Y389258D01*
X422702Y389221D01*
X422720Y389203D01*
X422848Y389112D01*
X422975Y389039D01*
X423085Y389003D01*
X423212Y388966D01*
X423303Y388948D01*
X423394Y388930D01*
X431685D01*
Y385249D01*
X423467D01*
X423322Y385231D01*
X423176Y385213D01*
X423048Y385158D01*
X422939Y385104D01*
X422848Y385049D01*
X422775Y385013D01*
X422739Y384976D01*
X422720Y384958D01*
X422611Y384849D01*
X422538Y384739D01*
X422483Y384630D01*
X422447Y384521D01*
X422429Y384430D01*
X422411Y384357D01*
Y384302D01*
Y384284D01*
X422429Y384138D01*
X422465Y383992D01*
X422502Y383883D01*
X422556Y383774D01*
X422629Y383683D01*
X422666Y383628D01*
X422702Y383592D01*
X422720Y383573D01*
X422848Y383482D01*
X422975Y383428D01*
X423212Y383355D01*
X423303Y383336D01*
X423394Y383318D01*
X434764D01*
Y379638D01*
X421937D01*
X421664Y379656D01*
X421409Y379674D01*
X420917Y379784D01*
X420498Y379929D01*
X420115Y380111D01*
X419969Y380184D01*
X419823Y380275D01*
X419696Y380348D01*
X419587Y380421D01*
X419514Y380476D01*
X419459Y380531D01*
X419422Y380549D01*
X419404Y380567D01*
X419222Y380749D01*
X419058Y380931D01*
X418912Y381132D01*
X418785Y381332D01*
X418694Y381533D01*
X418603Y381715D01*
X418475Y382079D01*
X418402Y382407D01*
X418384Y382535D01*
X418366Y382662D01*
X418348Y382753D01*
Y382826D01*
Y382863D01*
Y382881D01*
Y385723D01*
X418420Y385924D01*
X418493Y386106D01*
X418603Y386270D01*
X418712Y386397D01*
X418949Y386634D01*
X419204Y386816D01*
X419459Y386944D01*
X419659Y387017D01*
X419750Y387035D01*
X419805Y387053D01*
X419842Y387071D01*
X419860D01*
X419641Y387126D01*
X419441Y387199D01*
X419259Y387290D01*
X419113Y387381D01*
X418840Y387618D01*
X418639Y387855D01*
X418511Y388074D01*
X418420Y388274D01*
X418384Y388347D01*
X418366Y388402D01*
X418348Y388438D01*
Y388456D01*
Y391317D01*
X418366Y391554D01*
X418384Y391791D01*
X418439Y392009D01*
X418511Y392228D01*
X418676Y392610D01*
X418876Y392956D01*
X419076Y393212D01*
X419168Y393339D01*
X419240Y393430D01*
X419313Y393503D01*
X419350Y393558D01*
X419386Y393576D01*
X419404Y393594D01*
X419605Y393758D01*
X419805Y393922D01*
X420024Y394050D01*
X420242Y394159D01*
X420661Y394323D01*
X421062Y394432D01*
X421409Y394505D01*
X421554Y394524D01*
X421682Y394542D01*
X421791Y394560D01*
X434764D01*
Y390861D01*
D02*
G37*
G36*
X276460Y331267D02*
X276740Y331216D01*
X276995Y331152D01*
X277199Y331076D01*
X277378Y330986D01*
X277531Y330884D01*
X277646Y330782D01*
X277748Y330680D01*
X277824Y330578D01*
X277875Y330476D01*
X277926Y330387D01*
X277952Y330298D01*
X277964Y330234D01*
X277977Y330183D01*
Y330145D01*
Y330132D01*
Y329635D01*
Y329163D01*
Y328717D01*
Y328283D01*
Y327863D01*
Y327480D01*
Y327098D01*
Y326741D01*
Y326409D01*
Y326090D01*
Y325784D01*
Y325504D01*
Y325236D01*
Y324994D01*
Y324751D01*
Y324535D01*
Y324331D01*
Y324152D01*
Y323987D01*
Y323821D01*
Y323680D01*
Y323553D01*
Y323438D01*
Y323336D01*
Y323247D01*
Y323183D01*
Y323068D01*
Y323005D01*
Y322979D01*
X277952Y322737D01*
X277888Y322520D01*
X277811Y322329D01*
X277722Y322163D01*
X277607Y322036D01*
X277493Y321921D01*
X277365Y321832D01*
X277238Y321755D01*
X277110Y321691D01*
X276995Y321653D01*
X276881Y321615D01*
X276779Y321602D01*
X276702Y321589D01*
X276626Y321577D01*
X268529D01*
X268313Y321589D01*
X268121Y321615D01*
X267943Y321640D01*
X267790Y321666D01*
X267675Y321704D01*
X267586Y321730D01*
X267522Y321743D01*
X267509Y321755D01*
X267331Y321832D01*
X267191Y321908D01*
X267063Y321997D01*
X266948Y322099D01*
X266859Y322189D01*
X266795Y322304D01*
X266732Y322406D01*
X266693Y322508D01*
X266642Y322686D01*
X266617Y322852D01*
Y322903D01*
Y322954D01*
Y322979D01*
Y322992D01*
Y325644D01*
X269014D01*
Y323604D01*
X275606D01*
Y329214D01*
X269014D01*
Y327454D01*
X266617D01*
Y330132D01*
X266655Y330336D01*
X266732Y330515D01*
X266846Y330667D01*
X266974Y330808D01*
X267114Y330910D01*
X267267Y331012D01*
X267433Y331088D01*
X267611Y331152D01*
X267777Y331190D01*
X267930Y331228D01*
X268083Y331254D01*
X268223Y331279D01*
X268325D01*
X268415Y331292D01*
X276141D01*
X276460Y331267D01*
D02*
G37*
G36*
X289886Y321577D02*
X279596D01*
Y323719D01*
X287361D01*
Y331292D01*
X289886D01*
Y321577D01*
D02*
G37*
G36*
X264118D02*
X255869Y321577D01*
X255626Y321589D01*
X255384Y321602D01*
X254938Y321679D01*
X254530Y321806D01*
X254147Y321959D01*
X253816Y322150D01*
X253510Y322355D01*
X253229Y322571D01*
X252987Y322801D01*
X252783Y323030D01*
X252605Y323247D01*
X252452Y323464D01*
X252324Y323642D01*
X252235Y323795D01*
X252171Y323923D01*
X252133Y323999D01*
X252120Y324012D01*
Y324025D01*
X251967Y324420D01*
X251852Y324828D01*
X251750Y325236D01*
X251687Y325619D01*
X251661Y325797D01*
X251636Y325950D01*
X251623Y326103D01*
X251610Y326218D01*
X251597Y326320D01*
X251585Y326396D01*
Y326447D01*
Y326460D01*
X251636Y326970D01*
X251661Y327212D01*
X251699Y327429D01*
X251750Y327646D01*
X251789Y327850D01*
X251840Y328028D01*
X251891Y328194D01*
X251929Y328347D01*
X251980Y328474D01*
X252018Y328602D01*
X252044Y328691D01*
X252082Y328768D01*
X252095Y328819D01*
X252120Y328857D01*
Y328870D01*
X252222Y329086D01*
X252337Y329291D01*
X252464Y329495D01*
X252592Y329673D01*
X252860Y329992D01*
X253153Y330272D01*
X253459Y330502D01*
X253778Y330706D01*
X254084Y330859D01*
X254390Y330986D01*
X254696Y331088D01*
X254963Y331165D01*
X255218Y331216D01*
X255435Y331254D01*
X255614Y331279D01*
X255754Y331292D01*
X264118Y331292D01*
Y321577D01*
D02*
G37*
G36*
X81680Y270555D02*
X81864Y270522D01*
X82032Y270480D01*
X82166Y270430D01*
X82283Y270371D01*
X82384Y270304D01*
X82459Y270237D01*
X82526Y270170D01*
X82577Y270103D01*
X82610Y270036D01*
X82644Y269977D01*
X82661Y269918D01*
X82669Y269877D01*
X82677Y269843D01*
Y269818D01*
Y269810D01*
Y269483D01*
Y269173D01*
Y268879D01*
Y268594D01*
Y268318D01*
Y268067D01*
Y267815D01*
Y267580D01*
Y267363D01*
Y267153D01*
Y266952D01*
Y266768D01*
Y266592D01*
Y266432D01*
Y266273D01*
Y266131D01*
Y265997D01*
Y265879D01*
Y265770D01*
Y265661D01*
Y265569D01*
Y265485D01*
Y265410D01*
Y265343D01*
Y265284D01*
Y265242D01*
Y265167D01*
Y265125D01*
Y265108D01*
X82661Y264949D01*
X82619Y264807D01*
X82568Y264681D01*
X82510Y264572D01*
X82434Y264488D01*
X82359Y264413D01*
X82275Y264354D01*
X82191Y264304D01*
X82107Y264262D01*
X82032Y264237D01*
X81957Y264212D01*
X81889Y264203D01*
X81839Y264195D01*
X81789Y264187D01*
X76367D01*
X76166Y264203D01*
X75982Y264245D01*
X75831Y264296D01*
X75697Y264354D01*
X75579Y264421D01*
X75487Y264497D01*
X75412Y264572D01*
X75345Y264656D01*
X75303Y264740D01*
X75261Y264815D01*
X75236Y264891D01*
X75219Y264949D01*
X75211Y265008D01*
X75202Y265050D01*
Y265075D01*
Y265083D01*
Y269843D01*
X75227Y269969D01*
X75278Y270086D01*
X75336Y270178D01*
X75420Y270262D01*
X75504Y270337D01*
X75604Y270396D01*
X75705Y270446D01*
X75814Y270480D01*
X75915Y270513D01*
X76015Y270530D01*
X76107Y270547D01*
X76191Y270564D01*
X76258D01*
X76309Y270572D01*
X81471D01*
X81680Y270555D01*
D02*
G37*
G36*
X68389Y270564D02*
X71792Y268402D01*
Y270564D01*
X73384D01*
Y264187D01*
X71792D01*
Y266499D01*
X70870Y267103D01*
X67903Y264187D01*
X65624D01*
X69512Y268008D01*
X65758Y270572D01*
X68389Y270564D01*
D02*
G37*
G36*
X462757Y246986D02*
X462941Y246953D01*
X463109Y246911D01*
X463243Y246861D01*
X463360Y246802D01*
X463461Y246735D01*
X463536Y246668D01*
X463603Y246601D01*
X463654Y246534D01*
X463687Y246467D01*
X463721Y246408D01*
X463737Y246350D01*
X463746Y246308D01*
X463754Y246274D01*
Y246249D01*
Y246241D01*
Y245914D01*
Y245604D01*
Y245310D01*
Y245025D01*
Y244749D01*
Y244498D01*
Y244246D01*
Y244011D01*
Y243794D01*
Y243584D01*
Y243383D01*
Y243199D01*
Y243023D01*
Y242863D01*
Y242704D01*
Y242562D01*
Y242428D01*
Y242310D01*
Y242201D01*
Y242092D01*
Y242000D01*
Y241916D01*
Y241841D01*
Y241774D01*
Y241715D01*
Y241673D01*
Y241598D01*
Y241556D01*
Y241539D01*
X463737Y241380D01*
X463696Y241238D01*
X463645Y241112D01*
X463587Y241003D01*
X463511Y240919D01*
X463436Y240844D01*
X463352Y240785D01*
X463268Y240735D01*
X463184Y240693D01*
X463109Y240668D01*
X463034Y240643D01*
X462966Y240634D01*
X462916Y240626D01*
X462866Y240618D01*
X457545D01*
X457402Y240626D01*
X457276Y240643D01*
X457159Y240659D01*
X457059Y240676D01*
X456983Y240701D01*
X456925Y240718D01*
X456883Y240727D01*
X456874Y240735D01*
X456757Y240785D01*
X456665Y240835D01*
X456581Y240894D01*
X456506Y240961D01*
X456447Y241020D01*
X456405Y241095D01*
X456363Y241162D01*
X456338Y241229D01*
X456304Y241347D01*
X456288Y241456D01*
Y241489D01*
Y241523D01*
Y241539D01*
Y241548D01*
Y243291D01*
X457863D01*
Y241950D01*
X462196D01*
Y245637D01*
X457863D01*
Y244481D01*
X456288D01*
Y246241D01*
X456313Y246375D01*
X456363Y246492D01*
X456438Y246593D01*
X456522Y246685D01*
X456614Y246752D01*
X456715Y246819D01*
X456824Y246869D01*
X456941Y246911D01*
X457050Y246936D01*
X457151Y246961D01*
X457251Y246978D01*
X457344Y246995D01*
X457411D01*
X457469Y247003D01*
X462547D01*
X462757Y246986D01*
D02*
G37*
G36*
X481084Y240618D02*
X474321D01*
Y242025D01*
X479425D01*
Y243165D01*
X476433D01*
Y244548D01*
X479433D01*
Y245688D01*
X474305D01*
Y247003D01*
X481084D01*
Y240618D01*
D02*
G37*
G36*
X471866Y246986D02*
X472051Y246953D01*
X472218Y246911D01*
X472352Y246861D01*
X472470Y246802D01*
X472570Y246735D01*
X472645Y246668D01*
X472713Y246601D01*
X472763Y246534D01*
X472796Y246467D01*
X472830Y246408D01*
X472847Y246350D01*
X472855Y246308D01*
X472863Y246274D01*
Y246249D01*
Y246241D01*
Y243928D01*
X472847Y243794D01*
X472813Y243676D01*
X472754Y243576D01*
X472671Y243484D01*
X472587Y243408D01*
X472478Y243341D01*
X472369Y243283D01*
X472260Y243241D01*
X472151Y243199D01*
X472042Y243174D01*
X471933Y243148D01*
X471841Y243140D01*
X471766Y243123D01*
X471707D01*
X471673Y243115D01*
X466981D01*
Y241950D01*
X472863D01*
Y240618D01*
X466436D01*
X466268Y240626D01*
X466117Y240651D01*
X465983Y240693D01*
X465866Y240743D01*
X465765Y240802D01*
X465682Y240861D01*
X465615Y240936D01*
X465556Y241012D01*
X465506Y241078D01*
X465472Y241154D01*
X465447Y241213D01*
X465422Y241280D01*
X465414Y241321D01*
X465405Y241364D01*
X465397Y241389D01*
Y241397D01*
Y243794D01*
X465422Y243911D01*
X465464Y244011D01*
X465522Y244104D01*
X465590Y244179D01*
X465673Y244246D01*
X465757Y244305D01*
X465858Y244347D01*
X465950Y244380D01*
X466134Y244430D01*
X466218Y244447D01*
X466293Y244456D01*
X466352Y244464D01*
X471305D01*
Y245637D01*
X465397D01*
Y247003D01*
X471657D01*
X471866Y246986D01*
D02*
G37*
G36*
X521653Y207028D02*
X518067D01*
X520990Y202362D01*
X519612D01*
X516762Y207042D01*
Y207917D01*
X521653D01*
Y207028D01*
D02*
G37*
G36*
X44882Y207006D02*
X43730D01*
Y202362D01*
X42593D01*
Y207917D01*
X44882D01*
Y207006D01*
D02*
G37*
G36*
X68395Y206984D02*
X65341D01*
X65231Y206977D01*
X65144Y206969D01*
X65071Y206955D01*
X65013Y206933D01*
X64976Y206911D01*
X64947Y206896D01*
X64933Y206889D01*
X64925Y206882D01*
X64903Y206860D01*
X64889Y206831D01*
X64860Y206765D01*
X64845Y206678D01*
X64830Y206598D01*
X64823Y206510D01*
X64816Y206445D01*
Y206415D01*
Y206393D01*
Y206386D01*
Y206379D01*
Y206102D01*
X64823Y206022D01*
X64830Y205956D01*
X64852Y205898D01*
X64867Y205854D01*
X64889Y205818D01*
X64911Y205796D01*
X64918Y205781D01*
X64925Y205774D01*
X64969Y205745D01*
X65035Y205723D01*
X65100Y205701D01*
X65173Y205694D01*
X65239Y205686D01*
X65290Y205679D01*
X66974D01*
Y204717D01*
X65129D01*
X65027Y204709D01*
X64940Y204702D01*
X64867Y204688D01*
X64816Y204666D01*
X64772Y204644D01*
X64743Y204629D01*
X64728Y204622D01*
X64721Y204615D01*
X64685Y204571D01*
X64656Y204513D01*
X64634Y204447D01*
X64619Y204381D01*
X64612Y204323D01*
X64604Y204272D01*
Y204236D01*
Y204221D01*
Y203820D01*
X64612Y203718D01*
X64619Y203630D01*
X64641Y203565D01*
X64663Y203514D01*
X64685Y203470D01*
X64699Y203448D01*
X64714Y203434D01*
X64721Y203426D01*
X64772Y203397D01*
X64830Y203375D01*
X64969Y203346D01*
X65027Y203339D01*
X65078Y203332D01*
X68359D01*
Y202362D01*
X64641D01*
X64524Y202369D01*
X64415Y202384D01*
X64320Y202398D01*
X64225Y202413D01*
X64145Y202435D01*
X64072Y202449D01*
X64014Y202471D01*
X63956Y202493D01*
X63905Y202515D01*
X63868Y202530D01*
X63839Y202544D01*
X63810Y202559D01*
X63795Y202573D01*
X63781Y202581D01*
X63722Y202632D01*
X63671Y202697D01*
X63598Y202836D01*
X63540Y202996D01*
X63496Y203149D01*
X63475Y203295D01*
X63467Y203361D01*
Y203419D01*
X63460Y203463D01*
Y203499D01*
Y203521D01*
Y203528D01*
Y204097D01*
X63482Y204272D01*
X63525Y204425D01*
X63577Y204556D01*
X63649Y204680D01*
X63722Y204782D01*
X63810Y204870D01*
X63897Y204943D01*
X63985Y205008D01*
X64072Y205059D01*
X64160Y205103D01*
X64240Y205132D01*
X64313Y205154D01*
X64371Y205176D01*
X64415Y205183D01*
X64451Y205191D01*
X64459D01*
X64320Y205227D01*
X64204Y205278D01*
X64094Y205344D01*
X64007Y205417D01*
X63934Y205497D01*
X63868Y205584D01*
X63817Y205679D01*
X63773Y205774D01*
X63744Y205861D01*
X63722Y205949D01*
X63700Y206029D01*
X63693Y206095D01*
X63686Y206153D01*
X63679Y206204D01*
Y206233D01*
Y206240D01*
Y206845D01*
Y206962D01*
X63693Y207071D01*
X63708Y207166D01*
X63722Y207254D01*
X63744Y207334D01*
X63773Y207407D01*
X63802Y207472D01*
X63824Y207523D01*
X63854Y207574D01*
X63883Y207618D01*
X63934Y207677D01*
X63963Y207713D01*
X63977Y207720D01*
X64029Y207757D01*
X64094Y207786D01*
X64233Y207837D01*
X64386Y207866D01*
X64539Y207895D01*
X64685Y207910D01*
X64743D01*
X64801Y207917D01*
X68395D01*
Y206984D01*
D02*
G37*
G36*
X498958Y207903D02*
X499038Y207873D01*
X499104Y207837D01*
X499169Y207786D01*
X499221Y207735D01*
X499257Y207677D01*
X499294Y207618D01*
X499323Y207553D01*
X499359Y207436D01*
X499374Y207378D01*
X499381Y207334D01*
Y207290D01*
X499388Y207261D01*
Y207239D01*
Y207232D01*
Y204724D01*
X495393D01*
Y203317D01*
X499388D01*
Y202362D01*
X495481D01*
X495291Y202377D01*
X495131Y202406D01*
X494992Y202442D01*
X494868Y202493D01*
X494766Y202544D01*
X494679Y202603D01*
X494613Y202668D01*
X494555Y202727D01*
X494511Y202792D01*
X494482Y202851D01*
X494453Y202909D01*
X494438Y202960D01*
X494431Y203004D01*
X494424Y203033D01*
Y203055D01*
Y203062D01*
Y203266D01*
X494431Y203463D01*
Y203652D01*
Y203827D01*
Y203995D01*
Y204148D01*
Y204294D01*
Y204418D01*
Y204542D01*
X494424Y204644D01*
Y204731D01*
Y204804D01*
Y204862D01*
Y204906D01*
Y204935D01*
Y204943D01*
X494446Y205067D01*
X494489Y205183D01*
X494548Y205278D01*
X494621Y205358D01*
X494701Y205431D01*
X494796Y205489D01*
X494890Y205533D01*
X494985Y205577D01*
X495080Y205606D01*
X495167Y205628D01*
X495255Y205643D01*
X495328Y205650D01*
X495393Y205657D01*
X495437Y205664D01*
X498397D01*
Y206977D01*
X494774D01*
Y207917D01*
X498863D01*
X498958Y207903D01*
D02*
G37*
G36*
X510069D02*
X510156Y207873D01*
X510229Y207837D01*
X510288Y207786D01*
X510346Y207735D01*
X510390Y207677D01*
X510426Y207611D01*
X510455Y207553D01*
X510492Y207429D01*
X510506Y207378D01*
X510513Y207327D01*
Y207283D01*
X510521Y207254D01*
Y207232D01*
Y207224D01*
Y203077D01*
X510513Y202960D01*
X510484Y202851D01*
X510441Y202763D01*
X510390Y202683D01*
X510324Y202617D01*
X510258Y202559D01*
X510178Y202508D01*
X510098Y202471D01*
X510025Y202435D01*
X509945Y202413D01*
X509879Y202391D01*
X509814Y202377D01*
X509763Y202369D01*
X509719Y202362D01*
X506307D01*
X506176Y202377D01*
X506059Y202406D01*
X505957Y202442D01*
X505870Y202493D01*
X505797Y202544D01*
X505731Y202603D01*
X505680Y202668D01*
X505644Y202727D01*
X505615Y202792D01*
X505585Y202851D01*
X505571Y202909D01*
X505564Y202960D01*
X505556Y203004D01*
X505549Y203033D01*
Y203055D01*
Y203062D01*
Y203266D01*
Y203463D01*
Y203652D01*
Y203827D01*
Y203995D01*
Y204148D01*
Y204294D01*
Y204418D01*
Y204542D01*
Y204644D01*
Y204731D01*
Y204804D01*
Y204862D01*
Y204906D01*
Y204935D01*
Y204943D01*
X505564Y205067D01*
X505600Y205183D01*
X505644Y205278D01*
X505695Y205358D01*
X505753Y205431D01*
X505819Y205489D01*
X505884Y205533D01*
X505950Y205577D01*
X506023Y205606D01*
X506088Y205628D01*
X506147Y205643D01*
X506205Y205650D01*
X506249Y205657D01*
X506285Y205664D01*
X509529D01*
Y207020D01*
X507991D01*
Y207917D01*
X509974D01*
X510069Y207903D01*
D02*
G37*
G36*
X488256Y204484D02*
Y203558D01*
X485063D01*
Y202362D01*
X484035D01*
Y203558D01*
X483663D01*
Y204484D01*
X484035D01*
Y207917D01*
X485704D01*
X488256Y204484D01*
D02*
G37*
G36*
X34006Y207903D02*
X34115Y207888D01*
X34218Y207873D01*
X34305Y207851D01*
X34385Y207830D01*
X34458Y207800D01*
X34524Y207779D01*
X34575Y207749D01*
X34618Y207720D01*
X34662Y207698D01*
X34691Y207677D01*
X34713Y207662D01*
X34728Y207647D01*
X34743Y207633D01*
X34786Y207574D01*
X34830Y207509D01*
X34888Y207356D01*
X34932Y207188D01*
X34969Y207020D01*
X34983Y206867D01*
X34990Y206802D01*
Y206736D01*
X34998Y206692D01*
Y206649D01*
Y206627D01*
Y206619D01*
Y203638D01*
Y203507D01*
X34983Y203383D01*
X34976Y203273D01*
X34954Y203171D01*
X34939Y203084D01*
X34917Y202996D01*
X34896Y202923D01*
X34866Y202865D01*
X34844Y202807D01*
X34823Y202756D01*
X34801Y202719D01*
X34779Y202690D01*
X34764Y202661D01*
X34750Y202646D01*
X34743Y202632D01*
X34691Y202588D01*
X34626Y202544D01*
X34553Y202508D01*
X34480Y202479D01*
X34312Y202428D01*
X34152Y202398D01*
X33999Y202377D01*
X33933Y202369D01*
X33875D01*
X33824Y202362D01*
X30667D01*
X30551Y202377D01*
X30441Y202384D01*
X30339Y202406D01*
X30252Y202428D01*
X30172Y202449D01*
X30099Y202471D01*
X30033Y202501D01*
X29982Y202522D01*
X29938Y202544D01*
X29895Y202566D01*
X29866Y202588D01*
X29844Y202610D01*
X29829Y202617D01*
X29814Y202632D01*
X29771Y202690D01*
X29727Y202756D01*
X29661Y202909D01*
X29618Y203069D01*
X29581Y203237D01*
X29567Y203390D01*
X29559Y203463D01*
Y203521D01*
X29552Y203572D01*
Y203609D01*
Y203630D01*
Y203638D01*
Y206619D01*
Y206751D01*
X29567Y206875D01*
X29574Y206984D01*
X29596Y207086D01*
X29610Y207181D01*
X29632Y207261D01*
X29661Y207341D01*
X29683Y207400D01*
X29705Y207458D01*
X29734Y207509D01*
X29756Y207545D01*
X29771Y207582D01*
X29793Y207604D01*
X29800Y207618D01*
X29814Y207633D01*
X29866Y207684D01*
X29931Y207728D01*
X29997Y207764D01*
X30077Y207800D01*
X30237Y207851D01*
X30405Y207881D01*
X30551Y207903D01*
X30624Y207910D01*
X30682D01*
X30733Y207917D01*
X33890D01*
X34006Y207903D01*
D02*
G37*
G36*
X56738Y206984D02*
X53290D01*
Y206153D01*
X56563Y203835D01*
X56643Y203776D01*
X56716Y203725D01*
X56782Y203682D01*
X56833Y203638D01*
X56935Y203558D01*
X57000Y203499D01*
X57051Y203456D01*
X57088Y203419D01*
X57102Y203404D01*
X57110Y203397D01*
X57161Y203317D01*
X57197Y203237D01*
X57226Y203157D01*
X57241Y203077D01*
X57248Y203011D01*
X57255Y202960D01*
Y202923D01*
Y202909D01*
X57248Y202792D01*
X57226Y202690D01*
X57197Y202603D01*
X57168Y202537D01*
X57139Y202493D01*
X57110Y202457D01*
X57088Y202435D01*
X57081Y202428D01*
X57022Y202391D01*
X56964Y202377D01*
X56920Y202362D01*
X52182D01*
Y203332D01*
X55593D01*
X52881Y205263D01*
X52794Y205329D01*
X52714Y205387D01*
X52641Y205438D01*
X52583Y205489D01*
X52531Y205533D01*
X52481Y205577D01*
X52408Y205643D01*
X52356Y205694D01*
X52327Y205730D01*
X52313Y205752D01*
X52306Y205759D01*
X52262Y205847D01*
X52233Y205949D01*
X52211Y206051D01*
X52196Y206146D01*
X52189Y206233D01*
X52182Y206306D01*
Y206335D01*
Y206357D01*
Y206364D01*
Y206372D01*
Y206729D01*
Y206860D01*
X52196Y206984D01*
X52203Y207093D01*
X52225Y207188D01*
X52240Y207276D01*
X52262Y207356D01*
X52291Y207429D01*
X52313Y207487D01*
X52335Y207538D01*
X52364Y207582D01*
X52386Y207618D01*
X52400Y207647D01*
X52429Y207684D01*
X52444Y207691D01*
X52495Y207728D01*
X52561Y207764D01*
X52634Y207793D01*
X52706Y207822D01*
X52867Y207859D01*
X53035Y207888D01*
X53188Y207903D01*
X53253Y207910D01*
X53319Y207917D01*
X56738D01*
Y206984D01*
D02*
G37*
G36*
X67149Y191437D02*
X64786D01*
X65967Y192421D01*
X67149Y191437D01*
D02*
G37*
G36*
X520188Y191240D02*
X517826D01*
X519007Y192224D01*
X520188Y191240D01*
D02*
G37*
G36*
X56016D02*
X53654D01*
X54835Y192224D01*
X56016Y191240D01*
D02*
G37*
G36*
X44883D02*
X42521D01*
X43702Y192224D01*
X44883Y191240D01*
D02*
G37*
G36*
X33751D02*
X31389D01*
X32570Y192224D01*
X33751Y191240D01*
D02*
G37*
G36*
X509055Y191043D02*
X506693D01*
X507874Y192027D01*
X509055Y191043D01*
D02*
G37*
G36*
X497923D02*
X495561D01*
X496742Y192027D01*
X497923Y191043D01*
D02*
G37*
G36*
X486790D02*
X484428D01*
X485609Y192027D01*
X486790Y191043D01*
D02*
G37*
G36*
X105861Y189021D02*
X101989D01*
Y190312D01*
X105861D01*
Y189021D01*
D02*
G37*
G36*
X453550Y188939D02*
X449678D01*
Y190229D01*
X453550D01*
Y188939D01*
D02*
G37*
G36*
X131506Y178294D02*
X128816D01*
Y183305D01*
X125947Y178294D01*
X124035D01*
X121026Y183419D01*
Y178294D01*
X118335D01*
Y188009D01*
X120758D01*
X124978Y181622D01*
X128867Y188009D01*
X131506D01*
Y178294D01*
D02*
G37*
G36*
X479195Y178212D02*
X476505D01*
Y183222D01*
X473636Y178212D01*
X471724D01*
X468715Y183337D01*
Y178212D01*
X466024D01*
Y187927D01*
X468447D01*
X472667Y181539D01*
X476556Y187927D01*
X479195D01*
Y178212D01*
D02*
G37*
G36*
X115543Y178294D02*
X112713D01*
Y188009D01*
X115543D01*
Y178294D01*
D02*
G37*
G36*
X108378Y187984D02*
X108658Y187933D01*
X108913Y187869D01*
X109117Y187793D01*
X109296Y187703D01*
X109449Y187601D01*
X109563Y187499D01*
X109665Y187397D01*
X109742Y187295D01*
X109793Y187193D01*
X109844Y187104D01*
X109869Y187015D01*
X109882Y186951D01*
X109895Y186900D01*
Y186862D01*
Y186849D01*
Y183330D01*
X109869Y183126D01*
X109818Y182948D01*
X109729Y182794D01*
X109602Y182654D01*
X109474Y182539D01*
X109308Y182438D01*
X109143Y182348D01*
X108977Y182284D01*
X108811Y182221D01*
X108645Y182183D01*
X108480Y182144D01*
X108339Y182132D01*
X108225Y182106D01*
X108135D01*
X108084Y182093D01*
X100944Y182093D01*
Y180321D01*
X109895Y180321D01*
Y178294D01*
X100116Y178294D01*
X99861Y178306D01*
X99631Y178345D01*
X99427Y178409D01*
X99249Y178485D01*
X99096Y178574D01*
X98968Y178664D01*
X98866Y178778D01*
X98777Y178893D01*
X98700Y178995D01*
X98649Y179110D01*
X98611Y179199D01*
X98573Y179301D01*
X98560Y179365D01*
X98547Y179429D01*
X98535Y179467D01*
Y179480D01*
Y183126D01*
X98573Y183305D01*
X98637Y183458D01*
X98726Y183598D01*
X98828Y183712D01*
X98955Y183815D01*
X99083Y183904D01*
X99236Y183967D01*
X99376Y184019D01*
X99657Y184095D01*
X99784Y184121D01*
X99899Y184133D01*
X99988Y184146D01*
X107523Y184146D01*
Y185931D01*
X98535Y185931D01*
Y188009D01*
X108059Y188009D01*
X108378Y187984D01*
D02*
G37*
G36*
X88437Y187996D02*
X93613Y184707D01*
Y187996D01*
X96036D01*
Y178294D01*
X93613D01*
Y181813D01*
X92211Y182731D01*
X87697Y178294D01*
X84229D01*
X90145Y184108D01*
X84433Y188009D01*
X88437Y187996D01*
D02*
G37*
G36*
X80481Y187984D02*
X80761Y187933D01*
X81016Y187869D01*
X81220Y187793D01*
X81399Y187703D01*
X81552Y187601D01*
X81666Y187499D01*
X81768Y187397D01*
X81845Y187295D01*
X81896Y187193D01*
X81947Y187104D01*
X81972Y187015D01*
X81985Y186951D01*
X81998Y186900D01*
Y186862D01*
Y186849D01*
Y186352D01*
Y185880D01*
Y185434D01*
Y185000D01*
Y184580D01*
Y184197D01*
Y183815D01*
Y183458D01*
Y183126D01*
Y182807D01*
Y182501D01*
Y182221D01*
Y181953D01*
Y181711D01*
Y181468D01*
Y181252D01*
Y181048D01*
Y180869D01*
Y180703D01*
Y180538D01*
Y180397D01*
Y180270D01*
Y180155D01*
Y180053D01*
Y179964D01*
Y179900D01*
Y179786D01*
Y179722D01*
Y179696D01*
X81972Y179454D01*
X81909Y179237D01*
X81832Y179046D01*
X81743Y178880D01*
X81628Y178753D01*
X81513Y178638D01*
X81386Y178549D01*
X81258Y178472D01*
X81131Y178409D01*
X81016Y178370D01*
X80901Y178332D01*
X80799Y178319D01*
X80723Y178306D01*
X80646Y178294D01*
X72397D01*
X72091Y178319D01*
X71811Y178383D01*
X71581Y178460D01*
X71377Y178549D01*
X71199Y178651D01*
X71058Y178765D01*
X70944Y178880D01*
X70842Y179008D01*
X70778Y179135D01*
X70714Y179250D01*
X70676Y179365D01*
X70650Y179454D01*
X70638Y179543D01*
X70625Y179607D01*
Y179645D01*
Y179658D01*
Y186900D01*
X70663Y187091D01*
X70740Y187270D01*
X70829Y187410D01*
X70956Y187538D01*
X71084Y187652D01*
X71237Y187741D01*
X71390Y187818D01*
X71556Y187869D01*
X71709Y187920D01*
X71862Y187945D01*
X72002Y187971D01*
X72129Y187996D01*
X72231D01*
X72308Y188009D01*
X80162D01*
X80481Y187984D01*
D02*
G37*
G36*
X463232Y178212D02*
X460402D01*
Y187927D01*
X463232D01*
Y178212D01*
D02*
G37*
G36*
X456067Y187902D02*
X456347Y187851D01*
X456602Y187787D01*
X456806Y187710D01*
X456985Y187621D01*
X457138Y187519D01*
X457252Y187417D01*
X457354Y187315D01*
X457431Y187213D01*
X457482Y187111D01*
X457533Y187022D01*
X457558Y186933D01*
X457571Y186869D01*
X457584Y186818D01*
Y186780D01*
Y186767D01*
Y183248D01*
X457558Y183044D01*
X457507Y182865D01*
X457418Y182712D01*
X457291Y182572D01*
X457163Y182457D01*
X456997Y182355D01*
X456832Y182266D01*
X456666Y182202D01*
X456500Y182139D01*
X456334Y182100D01*
X456169Y182062D01*
X456028Y182049D01*
X455914Y182024D01*
X455824D01*
X455773Y182011D01*
X448633Y182011D01*
Y180239D01*
X457584Y180239D01*
Y178212D01*
X447805Y178212D01*
X447550Y178224D01*
X447320Y178263D01*
X447116Y178326D01*
X446938Y178403D01*
X446785Y178492D01*
X446657Y178581D01*
X446555Y178696D01*
X446466Y178811D01*
X446389Y178913D01*
X446338Y179028D01*
X446300Y179117D01*
X446262Y179219D01*
X446249Y179283D01*
X446236Y179346D01*
X446224Y179385D01*
Y179397D01*
Y183044D01*
X446262Y183222D01*
X446326Y183375D01*
X446415Y183516D01*
X446517Y183630D01*
X446644Y183732D01*
X446772Y183822D01*
X446925Y183885D01*
X447065Y183936D01*
X447346Y184013D01*
X447473Y184038D01*
X447588Y184051D01*
X447677Y184064D01*
X455212Y184064D01*
Y185849D01*
X446224Y185849D01*
Y187927D01*
X455748Y187927D01*
X456067Y187902D01*
D02*
G37*
G36*
X436126Y187914D02*
X441302Y184625D01*
Y187914D01*
X443725D01*
Y178212D01*
X441302D01*
Y181731D01*
X439900Y182649D01*
X435386Y178212D01*
X431918D01*
X437834Y184026D01*
X432122Y187927D01*
X436126Y187914D01*
D02*
G37*
G36*
X428170Y187902D02*
X428450Y187851D01*
X428705Y187787D01*
X428909Y187710D01*
X429088Y187621D01*
X429241Y187519D01*
X429355Y187417D01*
X429457Y187315D01*
X429534Y187213D01*
X429585Y187111D01*
X429636Y187022D01*
X429661Y186933D01*
X429674Y186869D01*
X429687Y186818D01*
Y186780D01*
Y186767D01*
Y186270D01*
Y185798D01*
Y185352D01*
Y184918D01*
Y184497D01*
Y184115D01*
Y183732D01*
Y183375D01*
Y183044D01*
Y182725D01*
Y182419D01*
Y182139D01*
Y181871D01*
Y181629D01*
Y181386D01*
Y181170D01*
Y180966D01*
Y180787D01*
Y180621D01*
Y180456D01*
Y180315D01*
Y180188D01*
Y180073D01*
Y179971D01*
Y179882D01*
Y179818D01*
Y179703D01*
Y179640D01*
Y179614D01*
X429661Y179372D01*
X429598Y179155D01*
X429521Y178964D01*
X429432Y178798D01*
X429317Y178671D01*
X429202Y178556D01*
X429075Y178467D01*
X428947Y178390D01*
X428820Y178326D01*
X428705Y178288D01*
X428590Y178250D01*
X428488Y178237D01*
X428412Y178224D01*
X428335Y178212D01*
X420086D01*
X419780Y178237D01*
X419500Y178301D01*
X419270Y178377D01*
X419066Y178467D01*
X418888Y178569D01*
X418747Y178683D01*
X418633Y178798D01*
X418531Y178926D01*
X418467Y179053D01*
X418403Y179168D01*
X418365Y179283D01*
X418339Y179372D01*
X418327Y179461D01*
X418314Y179525D01*
Y179563D01*
Y179576D01*
Y186818D01*
X418352Y187009D01*
X418429Y187188D01*
X418518Y187328D01*
X418645Y187455D01*
X418773Y187570D01*
X418926Y187659D01*
X419079Y187736D01*
X419245Y187787D01*
X419398Y187838D01*
X419551Y187863D01*
X419691Y187889D01*
X419818Y187914D01*
X419920D01*
X419997Y187927D01*
X427851D01*
X428170Y187902D01*
D02*
G37*
G36*
X131513Y173368D02*
X120217D01*
X120071Y173349D01*
X119925Y173331D01*
X119798Y173276D01*
X119688Y173240D01*
X119597Y173185D01*
X119525Y173131D01*
X119488Y173113D01*
X119470Y173094D01*
X119361Y172985D01*
X119288Y172857D01*
X119233Y172748D01*
X119197Y172639D01*
X119178Y172548D01*
X119160Y172475D01*
Y172420D01*
Y172402D01*
X119178Y172256D01*
X119215Y172110D01*
X119251Y172001D01*
X119306Y171892D01*
X119379Y171819D01*
X119415Y171764D01*
X119452Y171728D01*
X119470Y171710D01*
X119597Y171618D01*
X119725Y171546D01*
X119834Y171509D01*
X119962Y171473D01*
X120053Y171455D01*
X120144Y171436D01*
X128434D01*
Y167756D01*
X120217D01*
X120071Y167738D01*
X119925Y167719D01*
X119798Y167665D01*
X119688Y167610D01*
X119597Y167555D01*
X119525Y167519D01*
X119488Y167483D01*
X119470Y167464D01*
X119361Y167355D01*
X119288Y167246D01*
X119233Y167136D01*
X119197Y167027D01*
X119178Y166936D01*
X119160Y166863D01*
Y166808D01*
Y166790D01*
X119178Y166645D01*
X119215Y166499D01*
X119251Y166389D01*
X119306Y166280D01*
X119379Y166189D01*
X119415Y166134D01*
X119452Y166098D01*
X119470Y166080D01*
X119597Y165989D01*
X119725Y165934D01*
X119962Y165861D01*
X120053Y165843D01*
X120144Y165825D01*
X131513D01*
Y162144D01*
X118686D01*
X118413Y162162D01*
X118158Y162181D01*
X117666Y162290D01*
X117247Y162436D01*
X116864Y162618D01*
X116719Y162691D01*
X116573Y162782D01*
X116445Y162855D01*
X116336Y162928D01*
X116263Y162982D01*
X116209Y163037D01*
X116172Y163055D01*
X116154Y163073D01*
X115972Y163256D01*
X115808Y163438D01*
X115662Y163638D01*
X115534Y163839D01*
X115443Y164039D01*
X115352Y164221D01*
X115225Y164586D01*
X115152Y164914D01*
X115134Y165041D01*
X115115Y165169D01*
X115097Y165260D01*
Y165333D01*
Y165369D01*
Y165387D01*
Y168230D01*
X115170Y168430D01*
X115243Y168612D01*
X115352Y168776D01*
X115462Y168904D01*
X115698Y169141D01*
X115953Y169323D01*
X116209Y169450D01*
X116409Y169523D01*
X116500Y169542D01*
X116555Y169560D01*
X116591Y169578D01*
X116609D01*
X116391Y169632D01*
X116190Y169705D01*
X116008Y169797D01*
X115862Y169888D01*
X115589Y170124D01*
X115389Y170361D01*
X115261Y170580D01*
X115170Y170780D01*
X115134Y170853D01*
X115115Y170908D01*
X115097Y170944D01*
Y170963D01*
Y173823D01*
X115115Y174060D01*
X115134Y174297D01*
X115188Y174515D01*
X115261Y174734D01*
X115425Y175117D01*
X115626Y175463D01*
X115826Y175718D01*
X115917Y175846D01*
X115990Y175937D01*
X116063Y176010D01*
X116099Y176064D01*
X116136Y176082D01*
X116154Y176101D01*
X116354Y176265D01*
X116555Y176429D01*
X116773Y176556D01*
X116992Y176665D01*
X117411Y176829D01*
X117812Y176939D01*
X118158Y177012D01*
X118304Y177030D01*
X118431Y177048D01*
X118541Y177066D01*
X131513D01*
Y173368D01*
D02*
G37*
G36*
X434764Y173145D02*
X423467D01*
X423322Y173126D01*
X423176Y173108D01*
X423048Y173054D01*
X422939Y173017D01*
X422848Y172962D01*
X422775Y172908D01*
X422739Y172890D01*
X422720Y172871D01*
X422611Y172762D01*
X422538Y172634D01*
X422483Y172525D01*
X422447Y172416D01*
X422429Y172325D01*
X422411Y172252D01*
Y172197D01*
Y172179D01*
X422429Y172033D01*
X422465Y171888D01*
X422502Y171778D01*
X422556Y171669D01*
X422629Y171596D01*
X422666Y171541D01*
X422702Y171505D01*
X422720Y171487D01*
X422848Y171396D01*
X422975Y171323D01*
X423085Y171286D01*
X423212Y171250D01*
X423303Y171232D01*
X423394Y171213D01*
X431685D01*
Y167533D01*
X423467D01*
X423322Y167515D01*
X423176Y167497D01*
X423048Y167442D01*
X422939Y167387D01*
X422848Y167332D01*
X422775Y167296D01*
X422739Y167260D01*
X422720Y167241D01*
X422611Y167132D01*
X422538Y167023D01*
X422483Y166913D01*
X422447Y166804D01*
X422429Y166713D01*
X422411Y166640D01*
Y166586D01*
Y166567D01*
X422429Y166421D01*
X422465Y166276D01*
X422502Y166166D01*
X422556Y166057D01*
X422629Y165966D01*
X422666Y165911D01*
X422702Y165875D01*
X422720Y165857D01*
X422848Y165766D01*
X422975Y165711D01*
X423212Y165638D01*
X423303Y165620D01*
X423394Y165602D01*
X434764D01*
Y161921D01*
X421937D01*
X421664Y161939D01*
X421409Y161958D01*
X420917Y162067D01*
X420498Y162213D01*
X420115Y162395D01*
X419969Y162468D01*
X419823Y162559D01*
X419696Y162632D01*
X419587Y162705D01*
X419514Y162759D01*
X419459Y162814D01*
X419422Y162832D01*
X419404Y162850D01*
X419222Y163033D01*
X419058Y163215D01*
X418912Y163415D01*
X418785Y163616D01*
X418694Y163816D01*
X418603Y163998D01*
X418475Y164363D01*
X418402Y164691D01*
X418384Y164818D01*
X418366Y164946D01*
X418348Y165037D01*
Y165110D01*
Y165146D01*
Y165164D01*
Y168007D01*
X418420Y168207D01*
X418493Y168389D01*
X418603Y168553D01*
X418712Y168681D01*
X418949Y168918D01*
X419204Y169100D01*
X419459Y169227D01*
X419659Y169300D01*
X419750Y169318D01*
X419805Y169337D01*
X419842Y169355D01*
X419860D01*
X419641Y169410D01*
X419441Y169483D01*
X419259Y169574D01*
X419113Y169665D01*
X418840Y169902D01*
X418639Y170138D01*
X418511Y170357D01*
X418420Y170557D01*
X418384Y170630D01*
X418366Y170685D01*
X418348Y170721D01*
Y170740D01*
Y173600D01*
X418366Y173837D01*
X418384Y174074D01*
X418439Y174293D01*
X418511Y174511D01*
X418676Y174894D01*
X418876Y175240D01*
X419076Y175495D01*
X419168Y175623D01*
X419240Y175714D01*
X419313Y175787D01*
X419350Y175841D01*
X419386Y175859D01*
X419404Y175878D01*
X419605Y176042D01*
X419805Y176206D01*
X420024Y176333D01*
X420242Y176443D01*
X420661Y176607D01*
X421062Y176716D01*
X421409Y176789D01*
X421554Y176807D01*
X421682Y176825D01*
X421791Y176843D01*
X434764D01*
Y173145D01*
D02*
G37*
G36*
X276460Y113550D02*
X276740Y113499D01*
X276995Y113435D01*
X277199Y113359D01*
X277378Y113270D01*
X277531Y113168D01*
X277646Y113066D01*
X277748Y112964D01*
X277824Y112862D01*
X277875Y112760D01*
X277926Y112671D01*
X277952Y112581D01*
X277964Y112517D01*
X277977Y112467D01*
Y112428D01*
Y112416D01*
Y111918D01*
Y111446D01*
Y111000D01*
Y110567D01*
Y110146D01*
Y109764D01*
Y109381D01*
Y109024D01*
Y108693D01*
Y108374D01*
Y108068D01*
Y107787D01*
Y107519D01*
Y107277D01*
Y107035D01*
Y106818D01*
Y106614D01*
Y106436D01*
Y106270D01*
Y106104D01*
Y105964D01*
Y105836D01*
Y105722D01*
Y105620D01*
Y105531D01*
Y105467D01*
Y105352D01*
Y105288D01*
Y105263D01*
X277952Y105020D01*
X277888Y104804D01*
X277811Y104613D01*
X277722Y104447D01*
X277607Y104319D01*
X277493Y104204D01*
X277365Y104115D01*
X277238Y104039D01*
X277110Y103975D01*
X276995Y103937D01*
X276881Y103899D01*
X276779Y103886D01*
X276702Y103873D01*
X276626Y103860D01*
X268529D01*
X268313Y103873D01*
X268121Y103899D01*
X267943Y103924D01*
X267790Y103949D01*
X267675Y103988D01*
X267586Y104013D01*
X267522Y104026D01*
X267509Y104039D01*
X267331Y104115D01*
X267191Y104192D01*
X267063Y104281D01*
X266948Y104383D01*
X266859Y104472D01*
X266795Y104587D01*
X266732Y104689D01*
X266693Y104791D01*
X266642Y104970D01*
X266617Y105135D01*
Y105186D01*
Y105237D01*
Y105263D01*
Y105275D01*
Y107928D01*
X269014D01*
Y105887D01*
X275606D01*
Y111497D01*
X269014D01*
Y109738D01*
X266617D01*
Y112416D01*
X266655Y112619D01*
X266732Y112798D01*
X266846Y112951D01*
X266974Y113091D01*
X267114Y113193D01*
X267267Y113295D01*
X267433Y113372D01*
X267611Y113435D01*
X267777Y113474D01*
X267930Y113512D01*
X268083Y113538D01*
X268223Y113563D01*
X268325D01*
X268415Y113576D01*
X276141D01*
X276460Y113550D01*
D02*
G37*
G36*
X289886Y103860D02*
X279596D01*
Y106002D01*
X287361D01*
Y113576D01*
X289886D01*
Y103860D01*
D02*
G37*
G36*
X264118D02*
X255869Y103860D01*
X255626Y103873D01*
X255384Y103886D01*
X254938Y103962D01*
X254530Y104090D01*
X254147Y104243D01*
X253816Y104434D01*
X253510Y104638D01*
X253229Y104855D01*
X252987Y105084D01*
X252783Y105314D01*
X252605Y105531D01*
X252452Y105747D01*
X252324Y105926D01*
X252235Y106079D01*
X252171Y106206D01*
X252133Y106283D01*
X252120Y106296D01*
Y106308D01*
X251967Y106703D01*
X251852Y107112D01*
X251750Y107519D01*
X251687Y107902D01*
X251661Y108080D01*
X251636Y108233D01*
X251623Y108387D01*
X251610Y108501D01*
X251597Y108603D01*
X251585Y108680D01*
Y108731D01*
Y108744D01*
X251636Y109254D01*
X251661Y109496D01*
X251699Y109713D01*
X251750Y109929D01*
X251789Y110133D01*
X251840Y110312D01*
X251891Y110477D01*
X251929Y110631D01*
X251980Y110758D01*
X252018Y110886D01*
X252044Y110975D01*
X252082Y111051D01*
X252095Y111102D01*
X252120Y111141D01*
Y111153D01*
X252222Y111370D01*
X252337Y111574D01*
X252464Y111778D01*
X252592Y111957D01*
X252860Y112275D01*
X253153Y112556D01*
X253459Y112785D01*
X253778Y112989D01*
X254084Y113142D01*
X254390Y113270D01*
X254696Y113372D01*
X254963Y113448D01*
X255218Y113499D01*
X255435Y113538D01*
X255614Y113563D01*
X255754Y113576D01*
X264118Y113576D01*
Y103860D01*
D02*
G37*
G36*
X81680Y52839D02*
X81864Y52805D01*
X82032Y52763D01*
X82166Y52713D01*
X82283Y52654D01*
X82384Y52587D01*
X82459Y52520D01*
X82526Y52453D01*
X82577Y52386D01*
X82610Y52319D01*
X82644Y52261D01*
X82661Y52202D01*
X82669Y52160D01*
X82677Y52126D01*
Y52101D01*
Y52093D01*
Y51766D01*
Y51456D01*
Y51163D01*
Y50878D01*
Y50601D01*
Y50350D01*
Y50099D01*
Y49864D01*
Y49646D01*
Y49437D01*
Y49235D01*
Y49051D01*
Y48875D01*
Y48716D01*
Y48557D01*
Y48414D01*
Y48280D01*
Y48163D01*
Y48054D01*
Y47945D01*
Y47853D01*
Y47769D01*
Y47693D01*
Y47626D01*
Y47568D01*
Y47526D01*
Y47451D01*
Y47409D01*
Y47392D01*
X82661Y47233D01*
X82619Y47090D01*
X82568Y46964D01*
X82510Y46856D01*
X82434Y46772D01*
X82359Y46696D01*
X82275Y46638D01*
X82191Y46587D01*
X82107Y46545D01*
X82032Y46520D01*
X81957Y46495D01*
X81889Y46487D01*
X81839Y46478D01*
X81789Y46470D01*
X76367D01*
X76166Y46487D01*
X75982Y46529D01*
X75831Y46579D01*
X75697Y46638D01*
X75579Y46705D01*
X75487Y46780D01*
X75412Y46856D01*
X75345Y46939D01*
X75303Y47023D01*
X75261Y47098D01*
X75236Y47174D01*
X75219Y47233D01*
X75211Y47291D01*
X75202Y47333D01*
Y47358D01*
Y47367D01*
Y52126D01*
X75227Y52252D01*
X75278Y52369D01*
X75336Y52462D01*
X75420Y52545D01*
X75504Y52621D01*
X75604Y52680D01*
X75705Y52730D01*
X75814Y52763D01*
X75915Y52797D01*
X76015Y52814D01*
X76107Y52830D01*
X76191Y52847D01*
X76258D01*
X76309Y52856D01*
X81471D01*
X81680Y52839D01*
D02*
G37*
G36*
X68389Y52847D02*
X71792Y50685D01*
Y52847D01*
X73384D01*
Y46470D01*
X71792D01*
Y48783D01*
X70870Y49386D01*
X67903Y46470D01*
X65624D01*
X69512Y50291D01*
X65758Y52856D01*
X68389Y52847D01*
D02*
G37*
G36*
X462757Y29270D02*
X462941Y29236D01*
X463109Y29195D01*
X463243Y29144D01*
X463360Y29085D01*
X463461Y29019D01*
X463536Y28951D01*
X463603Y28884D01*
X463654Y28817D01*
X463687Y28750D01*
X463721Y28692D01*
X463737Y28633D01*
X463746Y28591D01*
X463754Y28558D01*
Y28532D01*
Y28524D01*
Y28197D01*
Y27887D01*
Y27594D01*
Y27309D01*
Y27032D01*
Y26781D01*
Y26530D01*
Y26295D01*
Y26077D01*
Y25868D01*
Y25666D01*
Y25482D01*
Y25306D01*
Y25147D01*
Y24988D01*
Y24845D01*
Y24711D01*
Y24594D01*
Y24485D01*
Y24376D01*
Y24284D01*
Y24200D01*
Y24125D01*
Y24058D01*
Y23999D01*
Y23957D01*
Y23881D01*
Y23840D01*
Y23823D01*
X463737Y23664D01*
X463696Y23521D01*
X463645Y23395D01*
X463587Y23287D01*
X463511Y23203D01*
X463436Y23127D01*
X463352Y23069D01*
X463268Y23018D01*
X463184Y22976D01*
X463109Y22951D01*
X463034Y22926D01*
X462966Y22918D01*
X462916Y22909D01*
X462866Y22901D01*
X457545D01*
X457402Y22909D01*
X457276Y22926D01*
X457159Y22943D01*
X457059Y22960D01*
X456983Y22985D01*
X456925Y23002D01*
X456883Y23010D01*
X456874Y23018D01*
X456757Y23069D01*
X456665Y23119D01*
X456581Y23178D01*
X456506Y23245D01*
X456447Y23303D01*
X456405Y23379D01*
X456363Y23446D01*
X456338Y23513D01*
X456304Y23630D01*
X456288Y23739D01*
Y23773D01*
Y23806D01*
Y23823D01*
Y23831D01*
Y25574D01*
X457863D01*
Y24234D01*
X462196D01*
Y27921D01*
X457863D01*
Y26764D01*
X456288D01*
Y28524D01*
X456313Y28658D01*
X456363Y28776D01*
X456438Y28876D01*
X456522Y28968D01*
X456614Y29035D01*
X456715Y29102D01*
X456824Y29153D01*
X456941Y29195D01*
X457050Y29220D01*
X457151Y29245D01*
X457251Y29261D01*
X457344Y29278D01*
X457411D01*
X457469Y29287D01*
X462547D01*
X462757Y29270D01*
D02*
G37*
G36*
X481084Y22901D02*
X474321D01*
Y24309D01*
X479425D01*
Y25449D01*
X476433D01*
Y26831D01*
X479433D01*
Y27971D01*
X474305D01*
Y29287D01*
X481084D01*
Y22901D01*
D02*
G37*
G36*
X471866Y29270D02*
X472051Y29236D01*
X472218Y29195D01*
X472352Y29144D01*
X472470Y29085D01*
X472570Y29019D01*
X472645Y28951D01*
X472713Y28884D01*
X472763Y28817D01*
X472796Y28750D01*
X472830Y28692D01*
X472847Y28633D01*
X472855Y28591D01*
X472863Y28558D01*
Y28532D01*
Y28524D01*
Y26211D01*
X472847Y26077D01*
X472813Y25960D01*
X472754Y25859D01*
X472671Y25767D01*
X472587Y25692D01*
X472478Y25625D01*
X472369Y25566D01*
X472260Y25524D01*
X472151Y25482D01*
X472042Y25457D01*
X471933Y25432D01*
X471841Y25423D01*
X471766Y25407D01*
X471707D01*
X471673Y25398D01*
X466981D01*
Y24234D01*
X472863D01*
Y22901D01*
X466436D01*
X466268Y22909D01*
X466117Y22935D01*
X465983Y22976D01*
X465866Y23027D01*
X465765Y23086D01*
X465682Y23144D01*
X465615Y23220D01*
X465556Y23295D01*
X465506Y23362D01*
X465472Y23437D01*
X465447Y23496D01*
X465422Y23563D01*
X465414Y23605D01*
X465405Y23647D01*
X465397Y23672D01*
Y23680D01*
Y26077D01*
X465422Y26194D01*
X465464Y26295D01*
X465522Y26387D01*
X465590Y26463D01*
X465673Y26530D01*
X465757Y26588D01*
X465858Y26630D01*
X465950Y26664D01*
X466134Y26714D01*
X466218Y26731D01*
X466293Y26739D01*
X466352Y26748D01*
X471305D01*
Y27921D01*
X465397D01*
Y29287D01*
X471657D01*
X471866Y29270D01*
D02*
G37*
%LPC*%
G36*
X509529Y857874D02*
X506519D01*
Y856467D01*
X509529D01*
Y857874D01*
D02*
G37*
G36*
X485063Y860338D02*
Y857633D01*
X487111Y857626D01*
X485063Y860338D01*
D02*
G37*
G36*
X33860Y860133D02*
X30689D01*
Y856481D01*
X33860D01*
Y860133D01*
D02*
G37*
%LPD*%
G36*
X32614Y858763D02*
X32665Y858734D01*
X32701Y858697D01*
X32723Y858661D01*
X32738Y858617D01*
X32752Y858581D01*
Y858552D01*
Y858544D01*
Y858034D01*
X32745Y857961D01*
X32716Y857910D01*
X32687Y857866D01*
X32643Y857845D01*
X32607Y857830D01*
X32570Y857823D01*
X32548Y857815D01*
X32031D01*
X31958Y857823D01*
X31907Y857852D01*
X31863Y857888D01*
X31841Y857925D01*
X31826Y857968D01*
X31812Y857998D01*
Y858027D01*
Y858034D01*
Y858544D01*
X31819Y858617D01*
X31848Y858675D01*
X31877Y858712D01*
X31921Y858741D01*
X31958Y858756D01*
X31994Y858770D01*
X32541D01*
X32614Y858763D01*
D02*
G37*
%LPC*%
G36*
X79626Y839081D02*
X73035D01*
Y833496D01*
X79626D01*
Y839081D01*
D02*
G37*
G36*
X427315Y838998D02*
X420724D01*
Y833414D01*
X427315D01*
Y838998D01*
D02*
G37*
G36*
X261708Y764724D02*
X256417Y764724D01*
X256136Y764711D01*
X255869Y764660D01*
X255626Y764596D01*
X255410Y764507D01*
X255206Y764392D01*
X255027Y764277D01*
X254861Y764137D01*
X254721Y764010D01*
X254594Y763882D01*
X254492Y763742D01*
X254402Y763627D01*
X254339Y763525D01*
X254275Y763423D01*
X254237Y763359D01*
X254224Y763308D01*
X254211Y763296D01*
X254122Y763066D01*
X254058Y762824D01*
X253994Y762582D01*
X253956Y762352D01*
X253931Y762161D01*
X253918Y762084D01*
X253905Y762008D01*
Y761944D01*
X253892Y761906D01*
Y761880D01*
Y761868D01*
X253918Y761574D01*
X253969Y761294D01*
X254020Y761052D01*
X254071Y760835D01*
X254122Y760669D01*
X254173Y760542D01*
X254186Y760491D01*
X254198Y760452D01*
X254211Y760440D01*
Y760427D01*
X254339Y760172D01*
X254492Y759955D01*
X254657Y759764D01*
X254823Y759598D01*
X255002Y759458D01*
X255193Y759343D01*
X255384Y759254D01*
X255563Y759177D01*
X255728Y759114D01*
X255894Y759075D01*
X256047Y759037D01*
X256175Y759024D01*
X256277Y759012D01*
X256366Y758999D01*
X261708Y758999D01*
Y764724D01*
D02*
G37*
G36*
X81119Y704639D02*
X76786D01*
Y700969D01*
X81119D01*
Y704639D01*
D02*
G37*
G36*
X509529Y640157D02*
X506519D01*
Y638750D01*
X509529D01*
Y640157D01*
D02*
G37*
G36*
X485063Y642621D02*
Y639917D01*
X487111Y639909D01*
X485063Y642621D01*
D02*
G37*
G36*
X33860Y642417D02*
X30689D01*
Y638765D01*
X33860D01*
Y642417D01*
D02*
G37*
%LPD*%
G36*
X32614Y641046D02*
X32665Y641017D01*
X32701Y640981D01*
X32723Y640944D01*
X32738Y640901D01*
X32752Y640864D01*
Y640835D01*
Y640828D01*
Y640317D01*
X32745Y640245D01*
X32716Y640194D01*
X32687Y640150D01*
X32643Y640128D01*
X32607Y640113D01*
X32570Y640106D01*
X32548Y640099D01*
X32031D01*
X31958Y640106D01*
X31907Y640135D01*
X31863Y640172D01*
X31841Y640208D01*
X31826Y640252D01*
X31812Y640281D01*
Y640310D01*
Y640317D01*
Y640828D01*
X31819Y640901D01*
X31848Y640959D01*
X31877Y640996D01*
X31921Y641025D01*
X31958Y641039D01*
X31994Y641054D01*
X32541D01*
X32614Y641046D01*
D02*
G37*
%LPC*%
G36*
X79626Y621364D02*
X73035D01*
Y615780D01*
X79626D01*
Y621364D01*
D02*
G37*
G36*
X427315Y621282D02*
X420724D01*
Y615697D01*
X427315D01*
Y621282D01*
D02*
G37*
G36*
X261708Y547007D02*
X256417Y547007D01*
X256136Y546994D01*
X255869Y546943D01*
X255626Y546880D01*
X255410Y546790D01*
X255206Y546676D01*
X255027Y546561D01*
X254861Y546421D01*
X254721Y546293D01*
X254594Y546166D01*
X254492Y546025D01*
X254402Y545911D01*
X254339Y545809D01*
X254275Y545707D01*
X254237Y545643D01*
X254224Y545592D01*
X254211Y545579D01*
X254122Y545350D01*
X254058Y545107D01*
X253994Y544865D01*
X253956Y544636D01*
X253931Y544444D01*
X253918Y544368D01*
X253905Y544291D01*
Y544228D01*
X253892Y544189D01*
Y544164D01*
Y544151D01*
X253918Y543858D01*
X253969Y543577D01*
X254020Y543335D01*
X254071Y543118D01*
X254122Y542953D01*
X254173Y542825D01*
X254186Y542774D01*
X254198Y542736D01*
X254211Y542723D01*
Y542710D01*
X254339Y542455D01*
X254492Y542239D01*
X254657Y542047D01*
X254823Y541882D01*
X255002Y541741D01*
X255193Y541627D01*
X255384Y541537D01*
X255563Y541461D01*
X255728Y541397D01*
X255894Y541359D01*
X256047Y541321D01*
X256175Y541308D01*
X256277Y541295D01*
X256366Y541282D01*
X261708Y541282D01*
Y547007D01*
D02*
G37*
G36*
X81119Y486923D02*
X76786D01*
Y483252D01*
X81119D01*
Y486923D01*
D02*
G37*
G36*
X509529Y422441D02*
X506519D01*
Y421034D01*
X509529D01*
Y422441D01*
D02*
G37*
G36*
X485063Y424905D02*
Y422200D01*
X487111Y422193D01*
X485063Y424905D01*
D02*
G37*
G36*
X33860Y424700D02*
X30689D01*
Y421048D01*
X33860D01*
Y424700D01*
D02*
G37*
%LPD*%
G36*
X32614Y423330D02*
X32665Y423301D01*
X32701Y423264D01*
X32723Y423228D01*
X32738Y423184D01*
X32752Y423148D01*
Y423118D01*
Y423111D01*
Y422601D01*
X32745Y422528D01*
X32716Y422477D01*
X32687Y422433D01*
X32643Y422411D01*
X32607Y422397D01*
X32570Y422390D01*
X32548Y422382D01*
X32031D01*
X31958Y422390D01*
X31907Y422419D01*
X31863Y422455D01*
X31841Y422492D01*
X31826Y422535D01*
X31812Y422565D01*
Y422594D01*
Y422601D01*
Y423111D01*
X31819Y423184D01*
X31848Y423243D01*
X31877Y423279D01*
X31921Y423308D01*
X31958Y423323D01*
X31994Y423337D01*
X32541D01*
X32614Y423330D01*
D02*
G37*
%LPC*%
G36*
X79626Y403648D02*
X73035D01*
Y398063D01*
X79626D01*
Y403648D01*
D02*
G37*
G36*
X427315Y403565D02*
X420724D01*
Y397981D01*
X427315D01*
Y403565D01*
D02*
G37*
G36*
X261708Y329291D02*
X256417Y329291D01*
X256136Y329278D01*
X255869Y329227D01*
X255626Y329163D01*
X255410Y329074D01*
X255206Y328959D01*
X255027Y328844D01*
X254861Y328704D01*
X254721Y328576D01*
X254594Y328449D01*
X254492Y328309D01*
X254402Y328194D01*
X254339Y328092D01*
X254275Y327990D01*
X254237Y327926D01*
X254224Y327875D01*
X254211Y327863D01*
X254122Y327633D01*
X254058Y327391D01*
X253994Y327149D01*
X253956Y326919D01*
X253931Y326728D01*
X253918Y326651D01*
X253905Y326575D01*
Y326511D01*
X253892Y326473D01*
Y326447D01*
Y326434D01*
X253918Y326141D01*
X253969Y325861D01*
X254020Y325619D01*
X254071Y325402D01*
X254122Y325236D01*
X254173Y325109D01*
X254186Y325058D01*
X254198Y325019D01*
X254211Y325007D01*
Y324994D01*
X254339Y324739D01*
X254492Y324522D01*
X254657Y324331D01*
X254823Y324165D01*
X255002Y324025D01*
X255193Y323910D01*
X255384Y323821D01*
X255563Y323744D01*
X255728Y323680D01*
X255894Y323642D01*
X256047Y323604D01*
X256175Y323591D01*
X256277Y323579D01*
X256366Y323566D01*
X261708Y323566D01*
Y329291D01*
D02*
G37*
G36*
X81119Y269206D02*
X76786D01*
Y265536D01*
X81119D01*
Y269206D01*
D02*
G37*
G36*
X509529Y204724D02*
X506519D01*
Y203317D01*
X509529D01*
Y204724D01*
D02*
G37*
G36*
X485063Y207188D02*
Y204484D01*
X487111Y204476D01*
X485063Y207188D01*
D02*
G37*
G36*
X33860Y206984D02*
X30689D01*
Y203332D01*
X33860D01*
Y206984D01*
D02*
G37*
%LPD*%
G36*
X32614Y205613D02*
X32665Y205584D01*
X32701Y205548D01*
X32723Y205511D01*
X32738Y205468D01*
X32752Y205431D01*
Y205402D01*
Y205395D01*
Y204884D01*
X32745Y204812D01*
X32716Y204761D01*
X32687Y204717D01*
X32643Y204695D01*
X32607Y204680D01*
X32570Y204673D01*
X32548Y204666D01*
X32031D01*
X31958Y204673D01*
X31907Y204702D01*
X31863Y204739D01*
X31841Y204775D01*
X31826Y204819D01*
X31812Y204848D01*
Y204877D01*
Y204884D01*
Y205395D01*
X31819Y205468D01*
X31848Y205526D01*
X31877Y205562D01*
X31921Y205592D01*
X31958Y205606D01*
X31994Y205621D01*
X32541D01*
X32614Y205613D01*
D02*
G37*
%LPC*%
G36*
X79626Y185931D02*
X73035D01*
Y180347D01*
X79626D01*
Y185931D01*
D02*
G37*
G36*
X427315Y185849D02*
X420724D01*
Y180264D01*
X427315D01*
Y185849D01*
D02*
G37*
G36*
X261708Y111574D02*
X256417Y111574D01*
X256136Y111561D01*
X255869Y111510D01*
X255626Y111446D01*
X255410Y111357D01*
X255206Y111242D01*
X255027Y111128D01*
X254861Y110987D01*
X254721Y110860D01*
X254594Y110732D01*
X254492Y110592D01*
X254402Y110477D01*
X254339Y110375D01*
X254275Y110274D01*
X254237Y110210D01*
X254224Y110159D01*
X254211Y110146D01*
X254122Y109916D01*
X254058Y109674D01*
X253994Y109432D01*
X253956Y109203D01*
X253931Y109011D01*
X253918Y108935D01*
X253905Y108858D01*
Y108794D01*
X253892Y108756D01*
Y108731D01*
Y108718D01*
X253918Y108425D01*
X253969Y108144D01*
X254020Y107902D01*
X254071Y107685D01*
X254122Y107519D01*
X254173Y107392D01*
X254186Y107341D01*
X254198Y107303D01*
X254211Y107290D01*
Y107277D01*
X254339Y107022D01*
X254492Y106806D01*
X254657Y106614D01*
X254823Y106448D01*
X255002Y106308D01*
X255193Y106193D01*
X255384Y106104D01*
X255563Y106028D01*
X255728Y105964D01*
X255894Y105926D01*
X256047Y105887D01*
X256175Y105875D01*
X256277Y105862D01*
X256366Y105849D01*
X261708Y105849D01*
Y111574D01*
D02*
G37*
G36*
X81119Y51490D02*
X76786D01*
Y47819D01*
X81119D01*
Y51490D01*
D02*
G37*
%LPD*%
D54*
X75513Y63976D02*
G03*
X75513Y63976I-710J0D01*
G01*
Y69882D02*
G03*
X75513Y69882I-710J0D01*
G01*
X469228Y41360D02*
G03*
X469228Y41360I-710J0D01*
G01*
Y47266D02*
G03*
X469228Y47266I-710J0D01*
G01*
X103336Y132549D02*
G03*
X103336Y132549I-710J0D01*
G01*
Y138454D02*
G03*
X103336Y138454I-710J0D01*
G01*
X75777Y104990D02*
G03*
X75777Y104990I-710J0D01*
G01*
Y110895D02*
G03*
X75777Y110895I-710J0D01*
G01*
Y160108D02*
G03*
X75777Y160108I-710J0D01*
G01*
Y166013D02*
G03*
X75777Y166013I-710J0D01*
G01*
X48217Y132549D02*
G03*
X48217Y132549I-710J0D01*
G01*
Y138454D02*
G03*
X48217Y138454I-710J0D01*
G01*
X222961Y171706D02*
X227583D01*
Y51974D02*
Y171706D01*
X206222Y51974D02*
X227583D01*
X206222D02*
Y171706D01*
X225348D01*
X75513Y281693D02*
G03*
X75513Y281693I-710J0D01*
G01*
Y287598D02*
G03*
X75513Y287598I-710J0D01*
G01*
X469228Y259077D02*
G03*
X469228Y259077I-710J0D01*
G01*
Y264983D02*
G03*
X469228Y264983I-710J0D01*
G01*
X103336Y350265D02*
G03*
X103336Y350265I-710J0D01*
G01*
Y356171D02*
G03*
X103336Y356171I-710J0D01*
G01*
X75777Y322706D02*
G03*
X75777Y322706I-710J0D01*
G01*
Y328612D02*
G03*
X75777Y328612I-710J0D01*
G01*
Y377824D02*
G03*
X75777Y377824I-710J0D01*
G01*
Y383730D02*
G03*
X75777Y383730I-710J0D01*
G01*
X48217Y350265D02*
G03*
X48217Y350265I-710J0D01*
G01*
Y356171D02*
G03*
X48217Y356171I-710J0D01*
G01*
X222961Y389423D02*
X227583D01*
Y269690D02*
Y389423D01*
X206222Y269690D02*
X227583D01*
X206222D02*
Y389423D01*
X225348D01*
X75513Y499409D02*
G03*
X75513Y499409I-710J0D01*
G01*
Y505315D02*
G03*
X75513Y505315I-710J0D01*
G01*
X469228Y476793D02*
G03*
X469228Y476793I-710J0D01*
G01*
Y482699D02*
G03*
X469228Y482699I-710J0D01*
G01*
X103336Y567982D02*
G03*
X103336Y567982I-710J0D01*
G01*
Y573887D02*
G03*
X103336Y573887I-710J0D01*
G01*
X75777Y540423D02*
G03*
X75777Y540423I-710J0D01*
G01*
Y546328D02*
G03*
X75777Y546328I-710J0D01*
G01*
Y595541D02*
G03*
X75777Y595541I-710J0D01*
G01*
Y601446D02*
G03*
X75777Y601446I-710J0D01*
G01*
X48217Y567982D02*
G03*
X48217Y567982I-710J0D01*
G01*
Y573887D02*
G03*
X48217Y573887I-710J0D01*
G01*
X222961Y607139D02*
X227583D01*
Y487407D02*
Y607139D01*
X206222Y487407D02*
X227583D01*
X206222D02*
Y607139D01*
X225348D01*
X75513Y717126D02*
G03*
X75513Y717126I-710J0D01*
G01*
Y723031D02*
G03*
X75513Y723031I-710J0D01*
G01*
X469228Y694510D02*
G03*
X469228Y694510I-710J0D01*
G01*
Y700416D02*
G03*
X469228Y700416I-710J0D01*
G01*
X103336Y785698D02*
G03*
X103336Y785698I-710J0D01*
G01*
Y791604D02*
G03*
X103336Y791604I-710J0D01*
G01*
X75777Y758139D02*
G03*
X75777Y758139I-710J0D01*
G01*
Y764045D02*
G03*
X75777Y764045I-710J0D01*
G01*
Y813257D02*
G03*
X75777Y813257I-710J0D01*
G01*
Y819163D02*
G03*
X75777Y819163I-710J0D01*
G01*
X48217Y785698D02*
G03*
X48217Y785698I-710J0D01*
G01*
Y791604D02*
G03*
X48217Y791604I-710J0D01*
G01*
X222961Y824856D02*
X227583D01*
Y705123D02*
Y824856D01*
X206222Y705123D02*
X227583D01*
X206222D02*
Y824856D01*
X225348D01*
D73*
X85039Y78543D02*
X86221Y77756D01*
X64567Y78543D02*
X85039D01*
X63250Y77665D02*
X64567Y78543D01*
X87402Y61614D02*
Y72244D01*
X85039Y55315D02*
X86221Y56102D01*
X64567Y55315D02*
X85039D01*
X63250Y56193D02*
X64567Y55315D01*
X61811Y61614D02*
Y72244D01*
X82677Y71850D02*
X84646Y75787D01*
X66929Y71850D02*
X82677D01*
X64961Y75787D02*
X66929Y71850D01*
X64961Y58071D02*
X66929Y62008D01*
X82677D01*
X84646Y58071D01*
X74803Y69882D02*
Y71457D01*
Y62401D02*
Y63976D01*
X63189Y58071D02*
X64961D01*
X84646D02*
X86221D01*
X84646Y75787D02*
X85827D01*
X63189D02*
X64961D01*
X72835Y64960D02*
X74803Y69882D01*
X85827Y75787D02*
X86221D01*
X478755Y55927D02*
X479936Y55140D01*
X458283Y55927D02*
X478755D01*
X456965Y55049D02*
X458283Y55927D01*
X481117Y38998D02*
Y49628D01*
X478755Y32699D02*
X479936Y33486D01*
X458283Y32699D02*
X478755D01*
X456965Y33577D02*
X458283Y32699D01*
X455527Y38998D02*
Y49628D01*
X476393Y49234D02*
X478361Y53171D01*
X460645Y49234D02*
X476393D01*
X458676Y53171D02*
X460645Y49234D01*
X458676Y35455D02*
X460645Y39392D01*
X476393D01*
X478361Y35455D01*
X468519Y47266D02*
Y48841D01*
Y39786D02*
Y41360D01*
X456905Y35455D02*
X458676D01*
X478361D02*
X479936D01*
X478361Y53171D02*
X479542D01*
X456905D02*
X458676D01*
X466550Y42345D02*
X468519Y47266D01*
X479542Y53171D02*
X479936D01*
X112862Y147116D02*
X114043Y146328D01*
X92390Y147116D02*
X112862D01*
X91072Y146237D02*
X92390Y147116D01*
X115224Y130186D02*
Y140816D01*
X112862Y123887D02*
X114043Y124675D01*
X92390Y123887D02*
X112862D01*
X91072Y124766D02*
X92390Y123887D01*
X89634Y130186D02*
Y140816D01*
X110500Y140423D02*
X112468Y144360D01*
X94752Y140423D02*
X110500D01*
X92783Y144360D02*
X94752Y140423D01*
X92783Y126643D02*
X94752Y130580D01*
X110500D01*
X112468Y126643D01*
X102626Y138454D02*
Y140029D01*
Y130974D02*
Y132549D01*
X91012Y126643D02*
X92783D01*
X112468D02*
X114043D01*
X112468Y144360D02*
X113649D01*
X91012D02*
X92783D01*
X100657Y133533D02*
X102626Y138454D01*
X113649Y144360D02*
X114043D01*
X85303Y119556D02*
X86484Y118769D01*
X64831Y119556D02*
X85303D01*
X63513Y118678D02*
X64831Y119556D01*
X87665Y102627D02*
Y113257D01*
X85303Y96328D02*
X86484Y97115D01*
X64831Y96328D02*
X85303D01*
X63513Y97206D02*
X64831Y96328D01*
X62075Y102627D02*
Y113257D01*
X82941Y112864D02*
X84909Y116801D01*
X67193Y112864D02*
X82941D01*
X65224Y116801D02*
X67193Y112864D01*
X65224Y99084D02*
X67193Y103021D01*
X82941D01*
X84909Y99084D01*
X75067Y110895D02*
Y112470D01*
Y103415D02*
Y104990D01*
X63453Y99084D02*
X65224D01*
X84909D02*
X86484D01*
X84909Y116801D02*
X86090D01*
X63453D02*
X65224D01*
X73098Y105974D02*
X75067Y110895D01*
X86090Y116801D02*
X86484D01*
X85303Y174675D02*
X86484Y173887D01*
X64831Y174675D02*
X85303D01*
X63513Y173796D02*
X64831Y174675D01*
X87665Y157746D02*
Y168375D01*
X85303Y151446D02*
X86484Y152234D01*
X64831Y151446D02*
X85303D01*
X63513Y152324D02*
X64831Y151446D01*
X62075Y157746D02*
Y168375D01*
X82941Y167982D02*
X84909Y171919D01*
X67193Y167982D02*
X82941D01*
X65224Y171919D02*
X67193Y167982D01*
X65224Y154202D02*
X67193Y158139D01*
X82941D01*
X84909Y154202D01*
X75067Y166013D02*
Y167588D01*
Y158533D02*
Y160108D01*
X63453Y154202D02*
X65224D01*
X84909D02*
X86484D01*
X84909Y171919D02*
X86090D01*
X63453D02*
X65224D01*
X73098Y161092D02*
X75067Y166013D01*
X86090Y171919D02*
X86484D01*
X57744Y147116D02*
X58925Y146328D01*
X37272Y147116D02*
X57744D01*
X35954Y146237D02*
X37272Y147116D01*
X60106Y130186D02*
Y140816D01*
X57744Y123887D02*
X58925Y124675D01*
X37272Y123887D02*
X57744D01*
X35954Y124766D02*
X37272Y123887D01*
X34516Y130186D02*
Y140816D01*
X55382Y140423D02*
X57350Y144360D01*
X39634Y140423D02*
X55382D01*
X37665Y144360D02*
X39634Y140423D01*
X37665Y126643D02*
X39634Y130580D01*
X55382D01*
X57350Y126643D01*
X47508Y138454D02*
Y140029D01*
Y130974D02*
Y132549D01*
X35894Y126643D02*
X37665D01*
X57350D02*
X58925D01*
X57350Y144360D02*
X58531D01*
X35894D02*
X37665D01*
X45539Y133533D02*
X47508Y138454D01*
X58531Y144360D02*
X58925D01*
X216876Y46275D02*
X215564D01*
X216220D01*
Y50211D01*
X216876Y49555D01*
X218306Y176799D02*
X217650Y177455D01*
X216338D01*
X215682Y176799D01*
Y176143D01*
X216338Y175487D01*
X216994D01*
X216338D01*
X215682Y174831D01*
Y174175D01*
X216338Y173519D01*
X217650D01*
X218306Y174175D01*
X214370Y177455D02*
X211746D01*
Y176799D01*
X214370Y174175D01*
Y173519D01*
X85039Y296260D02*
X86221Y295472D01*
X64567Y296260D02*
X85039D01*
X63250Y295381D02*
X64567Y296260D01*
X87402Y279331D02*
Y289961D01*
X85039Y273031D02*
X86221Y273819D01*
X64567Y273031D02*
X85039D01*
X63250Y273910D02*
X64567Y273031D01*
X61811Y279331D02*
Y289961D01*
X82677Y289567D02*
X84646Y293504D01*
X66929Y289567D02*
X82677D01*
X64961Y293504D02*
X66929Y289567D01*
X64961Y275787D02*
X66929Y279724D01*
X82677D01*
X84646Y275787D01*
X74803Y287598D02*
Y289173D01*
Y280118D02*
Y281693D01*
X63189Y275787D02*
X64961D01*
X84646D02*
X86221D01*
X84646Y293504D02*
X85827D01*
X63189D02*
X64961D01*
X72835Y282677D02*
X74803Y287598D01*
X85827Y293504D02*
X86221D01*
X478755Y273644D02*
X479936Y272856D01*
X458283Y273644D02*
X478755D01*
X456965Y272766D02*
X458283Y273644D01*
X481117Y256715D02*
Y267345D01*
X478755Y250416D02*
X479936Y251203D01*
X458283Y250416D02*
X478755D01*
X456965Y251294D02*
X458283Y250416D01*
X455527Y256715D02*
Y267345D01*
X476393Y266951D02*
X478361Y270888D01*
X460645Y266951D02*
X476393D01*
X458676Y270888D02*
X460645Y266951D01*
X458676Y253171D02*
X460645Y257108D01*
X476393D01*
X478361Y253171D01*
X468519Y264983D02*
Y266557D01*
Y257502D02*
Y259077D01*
X456905Y253171D02*
X458676D01*
X478361D02*
X479936D01*
X478361Y270888D02*
X479542D01*
X456905D02*
X458676D01*
X466550Y260061D02*
X468519Y264983D01*
X479542Y270888D02*
X479936D01*
X112862Y364832D02*
X114043Y364045D01*
X92390Y364832D02*
X112862D01*
X91072Y363954D02*
X92390Y364832D01*
X115224Y347903D02*
Y358533D01*
X112862Y341604D02*
X114043Y342391D01*
X92390Y341604D02*
X112862D01*
X91072Y342482D02*
X92390Y341604D01*
X89634Y347903D02*
Y358533D01*
X110500Y358139D02*
X112468Y362076D01*
X94752Y358139D02*
X110500D01*
X92783Y362076D02*
X94752Y358139D01*
X92783Y344360D02*
X94752Y348297D01*
X110500D01*
X112468Y344360D01*
X102626Y356171D02*
Y357746D01*
Y348690D02*
Y350265D01*
X91012Y344360D02*
X92783D01*
X112468D02*
X114043D01*
X112468Y362076D02*
X113649D01*
X91012D02*
X92783D01*
X100657Y351249D02*
X102626Y356171D01*
X113649Y362076D02*
X114043D01*
X85303Y337273D02*
X86484Y336486D01*
X64831Y337273D02*
X85303D01*
X63513Y336395D02*
X64831Y337273D01*
X87665Y320344D02*
Y330974D01*
X85303Y314045D02*
X86484Y314832D01*
X64831Y314045D02*
X85303D01*
X63513Y314923D02*
X64831Y314045D01*
X62075Y320344D02*
Y330974D01*
X82941Y330580D02*
X84909Y334517D01*
X67193Y330580D02*
X82941D01*
X65224Y334517D02*
X67193Y330580D01*
X65224Y316801D02*
X67193Y320738D01*
X82941D01*
X84909Y316801D01*
X75067Y328612D02*
Y330186D01*
Y321131D02*
Y322706D01*
X63453Y316801D02*
X65224D01*
X84909D02*
X86484D01*
X84909Y334517D02*
X86090D01*
X63453D02*
X65224D01*
X73098Y323690D02*
X75067Y328612D01*
X86090Y334517D02*
X86484D01*
X85303Y392391D02*
X86484Y391604D01*
X64831Y392391D02*
X85303D01*
X63513Y391513D02*
X64831Y392391D01*
X87665Y375462D02*
Y386092D01*
X85303Y369163D02*
X86484Y369950D01*
X64831Y369163D02*
X85303D01*
X63513Y370041D02*
X64831Y369163D01*
X62075Y375462D02*
Y386092D01*
X82941Y385698D02*
X84909Y389635D01*
X67193Y385698D02*
X82941D01*
X65224Y389635D02*
X67193Y385698D01*
X65224Y371919D02*
X67193Y375856D01*
X82941D01*
X84909Y371919D01*
X75067Y383730D02*
Y385304D01*
Y376249D02*
Y377824D01*
X63453Y371919D02*
X65224D01*
X84909D02*
X86484D01*
X84909Y389635D02*
X86090D01*
X63453D02*
X65224D01*
X73098Y378808D02*
X75067Y383730D01*
X86090Y389635D02*
X86484D01*
X57744Y364832D02*
X58925Y364045D01*
X37272Y364832D02*
X57744D01*
X35954Y363954D02*
X37272Y364832D01*
X60106Y347903D02*
Y358533D01*
X57744Y341604D02*
X58925Y342391D01*
X37272Y341604D02*
X57744D01*
X35954Y342482D02*
X37272Y341604D01*
X34516Y347903D02*
Y358533D01*
X55382Y358139D02*
X57350Y362076D01*
X39634Y358139D02*
X55382D01*
X37665Y362076D02*
X39634Y358139D01*
X37665Y344360D02*
X39634Y348297D01*
X55382D01*
X57350Y344360D01*
X47508Y356171D02*
Y357746D01*
Y348690D02*
Y350265D01*
X35894Y344360D02*
X37665D01*
X57350D02*
X58925D01*
X57350Y362076D02*
X58531D01*
X35894D02*
X37665D01*
X45539Y351249D02*
X47508Y356171D01*
X58531Y362076D02*
X58925D01*
X216876Y263992D02*
X215564D01*
X216220D01*
Y267928D01*
X216876Y267272D01*
X218306Y394515D02*
X217650Y395171D01*
X216338D01*
X215682Y394515D01*
Y393859D01*
X216338Y393203D01*
X216994D01*
X216338D01*
X215682Y392547D01*
Y391891D01*
X216338Y391235D01*
X217650D01*
X218306Y391891D01*
X214370Y395171D02*
X211746D01*
Y394515D01*
X214370Y391891D01*
Y391235D01*
X85039Y513976D02*
X86221Y513189D01*
X64567Y513976D02*
X85039D01*
X63250Y513098D02*
X64567Y513976D01*
X87402Y497047D02*
Y507677D01*
X85039Y490748D02*
X86221Y491535D01*
X64567Y490748D02*
X85039D01*
X63250Y491626D02*
X64567Y490748D01*
X61811Y497047D02*
Y507677D01*
X82677Y507283D02*
X84646Y511220D01*
X66929Y507283D02*
X82677D01*
X64961Y511220D02*
X66929Y507283D01*
X64961Y493504D02*
X66929Y497441D01*
X82677D01*
X84646Y493504D01*
X74803Y505315D02*
Y506890D01*
Y497834D02*
Y499409D01*
X63189Y493504D02*
X64961D01*
X84646D02*
X86221D01*
X84646Y511220D02*
X85827D01*
X63189D02*
X64961D01*
X72835Y500394D02*
X74803Y505315D01*
X85827Y511220D02*
X86221D01*
X478755Y491361D02*
X479936Y490573D01*
X458283Y491361D02*
X478755D01*
X456965Y490482D02*
X458283Y491361D01*
X481117Y474431D02*
Y485061D01*
X478755Y468132D02*
X479936Y468920D01*
X458283Y468132D02*
X478755D01*
X456965Y469010D02*
X458283Y468132D01*
X455527Y474431D02*
Y485061D01*
X476393Y484667D02*
X478361Y488604D01*
X460645Y484667D02*
X476393D01*
X458676Y488604D02*
X460645Y484667D01*
X458676Y470888D02*
X460645Y474825D01*
X476393D01*
X478361Y470888D01*
X468519Y482699D02*
Y484274D01*
Y475219D02*
Y476793D01*
X456905Y470888D02*
X458676D01*
X478361D02*
X479936D01*
X478361Y488604D02*
X479542D01*
X456905D02*
X458676D01*
X466550Y477778D02*
X468519Y482699D01*
X479542Y488604D02*
X479936D01*
X112862Y582549D02*
X114043Y581761D01*
X92390Y582549D02*
X112862D01*
X91072Y581670D02*
X92390Y582549D01*
X115224Y565620D02*
Y576249D01*
X112862Y559320D02*
X114043Y560108D01*
X92390Y559320D02*
X112862D01*
X91072Y560198D02*
X92390Y559320D01*
X89634Y565620D02*
Y576249D01*
X110500Y575856D02*
X112468Y579793D01*
X94752Y575856D02*
X110500D01*
X92783Y579793D02*
X94752Y575856D01*
X92783Y562076D02*
X94752Y566013D01*
X110500D01*
X112468Y562076D01*
X102626Y573887D02*
Y575462D01*
Y566407D02*
Y567982D01*
X91012Y562076D02*
X92783D01*
X112468D02*
X114043D01*
X112468Y579793D02*
X113649D01*
X91012D02*
X92783D01*
X100657Y568966D02*
X102626Y573887D01*
X113649Y579793D02*
X114043D01*
X85303Y554990D02*
X86484Y554202D01*
X64831Y554990D02*
X85303D01*
X63513Y554111D02*
X64831Y554990D01*
X87665Y538060D02*
Y548690D01*
X85303Y531761D02*
X86484Y532549D01*
X64831Y531761D02*
X85303D01*
X63513Y532640D02*
X64831Y531761D01*
X62075Y538060D02*
Y548690D01*
X82941Y548297D02*
X84909Y552234D01*
X67193Y548297D02*
X82941D01*
X65224Y552234D02*
X67193Y548297D01*
X65224Y534517D02*
X67193Y538454D01*
X82941D01*
X84909Y534517D01*
X75067Y546328D02*
Y547903D01*
Y538848D02*
Y540423D01*
X63453Y534517D02*
X65224D01*
X84909D02*
X86484D01*
X84909Y552234D02*
X86090D01*
X63453D02*
X65224D01*
X73098Y541407D02*
X75067Y546328D01*
X86090Y552234D02*
X86484D01*
X85303Y610108D02*
X86484Y609320D01*
X64831Y610108D02*
X85303D01*
X63513Y609229D02*
X64831Y610108D01*
X87665Y593179D02*
Y603808D01*
X85303Y586879D02*
X86484Y587667D01*
X64831Y586879D02*
X85303D01*
X63513Y587758D02*
X64831Y586879D01*
X62075Y593179D02*
Y603808D01*
X82941Y603415D02*
X84909Y607352D01*
X67193Y603415D02*
X82941D01*
X65224Y607352D02*
X67193Y603415D01*
X65224Y589635D02*
X67193Y593572D01*
X82941D01*
X84909Y589635D01*
X75067Y601446D02*
Y603021D01*
Y593966D02*
Y595541D01*
X63453Y589635D02*
X65224D01*
X84909D02*
X86484D01*
X84909Y607352D02*
X86090D01*
X63453D02*
X65224D01*
X73098Y596525D02*
X75067Y601446D01*
X86090Y607352D02*
X86484D01*
X57744Y582549D02*
X58925Y581761D01*
X37272Y582549D02*
X57744D01*
X35954Y581670D02*
X37272Y582549D01*
X60106Y565620D02*
Y576249D01*
X57744Y559320D02*
X58925Y560108D01*
X37272Y559320D02*
X57744D01*
X35954Y560198D02*
X37272Y559320D01*
X34516Y565620D02*
Y576249D01*
X55382Y575856D02*
X57350Y579793D01*
X39634Y575856D02*
X55382D01*
X37665Y579793D02*
X39634Y575856D01*
X37665Y562076D02*
X39634Y566013D01*
X55382D01*
X57350Y562076D01*
X47508Y573887D02*
Y575462D01*
Y566407D02*
Y567982D01*
X35894Y562076D02*
X37665D01*
X57350D02*
X58925D01*
X57350Y579793D02*
X58531D01*
X35894D02*
X37665D01*
X45539Y568966D02*
X47508Y573887D01*
X58531Y579793D02*
X58925D01*
X216876Y481708D02*
X215564D01*
X216220D01*
Y485644D01*
X216876Y484988D01*
X218306Y612232D02*
X217650Y612888D01*
X216338D01*
X215682Y612232D01*
Y611576D01*
X216338Y610920D01*
X216994D01*
X216338D01*
X215682Y610264D01*
Y609608D01*
X216338Y608952D01*
X217650D01*
X218306Y609608D01*
X214370Y612888D02*
X211746D01*
Y612232D01*
X214370Y609608D01*
Y608952D01*
X85039Y731693D02*
X86221Y730905D01*
X64567Y731693D02*
X85039D01*
X63250Y730815D02*
X64567Y731693D01*
X87402Y714764D02*
Y725394D01*
X85039Y708464D02*
X86221Y709252D01*
X64567Y708464D02*
X85039D01*
X63250Y709343D02*
X64567Y708464D01*
X61811Y714764D02*
Y725394D01*
X82677Y725000D02*
X84646Y728937D01*
X66929Y725000D02*
X82677D01*
X64961Y728937D02*
X66929Y725000D01*
X64961Y711220D02*
X66929Y715157D01*
X82677D01*
X84646Y711220D01*
X74803Y723031D02*
Y724606D01*
Y715551D02*
Y717126D01*
X63189Y711220D02*
X64961D01*
X84646D02*
X86221D01*
X84646Y728937D02*
X85827D01*
X63189D02*
X64961D01*
X72835Y718110D02*
X74803Y723031D01*
X85827Y728937D02*
X86221D01*
X478755Y709077D02*
X479936Y708290D01*
X458283Y709077D02*
X478755D01*
X456965Y708199D02*
X458283Y709077D01*
X481117Y692148D02*
Y702778D01*
X478755Y685849D02*
X479936Y686636D01*
X458283Y685849D02*
X478755D01*
X456965Y686727D02*
X458283Y685849D01*
X455527Y692148D02*
Y702778D01*
X476393Y702384D02*
X478361Y706321D01*
X460645Y702384D02*
X476393D01*
X458676Y706321D02*
X460645Y702384D01*
X458676Y688604D02*
X460645Y692542D01*
X476393D01*
X478361Y688604D01*
X468519Y700416D02*
Y701990D01*
Y692935D02*
Y694510D01*
X456905Y688604D02*
X458676D01*
X478361D02*
X479936D01*
X478361Y706321D02*
X479542D01*
X456905D02*
X458676D01*
X466550Y695494D02*
X468519Y700416D01*
X479542Y706321D02*
X479936D01*
X112862Y800265D02*
X114043Y799478D01*
X92390Y800265D02*
X112862D01*
X91072Y799387D02*
X92390Y800265D01*
X115224Y783336D02*
Y793966D01*
X112862Y777037D02*
X114043Y777824D01*
X92390Y777037D02*
X112862D01*
X91072Y777915D02*
X92390Y777037D01*
X89634Y783336D02*
Y793966D01*
X110500Y793572D02*
X112468Y797509D01*
X94752Y793572D02*
X110500D01*
X92783Y797509D02*
X94752Y793572D01*
X92783Y779793D02*
X94752Y783730D01*
X110500D01*
X112468Y779793D01*
X102626Y791604D02*
Y793179D01*
Y784123D02*
Y785698D01*
X91012Y779793D02*
X92783D01*
X112468D02*
X114043D01*
X112468Y797509D02*
X113649D01*
X91012D02*
X92783D01*
X100657Y786683D02*
X102626Y791604D01*
X113649Y797509D02*
X114043D01*
X85303Y772706D02*
X86484Y771919D01*
X64831Y772706D02*
X85303D01*
X63513Y771828D02*
X64831Y772706D01*
X87665Y755777D02*
Y766407D01*
X85303Y749478D02*
X86484Y750265D01*
X64831Y749478D02*
X85303D01*
X63513Y750356D02*
X64831Y749478D01*
X62075Y755777D02*
Y766407D01*
X82941Y766013D02*
X84909Y769950D01*
X67193Y766013D02*
X82941D01*
X65224Y769950D02*
X67193Y766013D01*
X65224Y752234D02*
X67193Y756171D01*
X82941D01*
X84909Y752234D01*
X75067Y764045D02*
Y765620D01*
Y756564D02*
Y758139D01*
X63453Y752234D02*
X65224D01*
X84909D02*
X86484D01*
X84909Y769950D02*
X86090D01*
X63453D02*
X65224D01*
X73098Y759123D02*
X75067Y764045D01*
X86090Y769950D02*
X86484D01*
X85303Y827824D02*
X86484Y827037D01*
X64831Y827824D02*
X85303D01*
X63513Y826946D02*
X64831Y827824D01*
X87665Y810895D02*
Y821525D01*
X85303Y804596D02*
X86484Y805383D01*
X64831Y804596D02*
X85303D01*
X63513Y805474D02*
X64831Y804596D01*
X62075Y810895D02*
Y821525D01*
X82941Y821131D02*
X84909Y825068D01*
X67193Y821131D02*
X82941D01*
X65224Y825068D02*
X67193Y821131D01*
X65224Y807352D02*
X67193Y811289D01*
X82941D01*
X84909Y807352D01*
X75067Y819163D02*
Y820738D01*
Y811683D02*
Y813257D01*
X63453Y807352D02*
X65224D01*
X84909D02*
X86484D01*
X84909Y825068D02*
X86090D01*
X63453D02*
X65224D01*
X73098Y814242D02*
X75067Y819163D01*
X86090Y825068D02*
X86484D01*
X57744Y800265D02*
X58925Y799478D01*
X37272Y800265D02*
X57744D01*
X35954Y799387D02*
X37272Y800265D01*
X60106Y783336D02*
Y793966D01*
X57744Y777037D02*
X58925Y777824D01*
X37272Y777037D02*
X57744D01*
X35954Y777915D02*
X37272Y777037D01*
X34516Y783336D02*
Y793966D01*
X55382Y793572D02*
X57350Y797509D01*
X39634Y793572D02*
X55382D01*
X37665Y797509D02*
X39634Y793572D01*
X37665Y779793D02*
X39634Y783730D01*
X55382D01*
X57350Y779793D01*
X47508Y791604D02*
Y793179D01*
Y784123D02*
Y785698D01*
X35894Y779793D02*
X37665D01*
X57350D02*
X58925D01*
X57350Y797509D02*
X58531D01*
X35894D02*
X37665D01*
X45539Y786683D02*
X47508Y791604D01*
X58531Y797509D02*
X58925D01*
X216876Y699425D02*
X215564D01*
X216220D01*
Y703361D01*
X216876Y702705D01*
X218306Y829948D02*
X217650Y830604D01*
X216338D01*
X215682Y829948D01*
Y829292D01*
X216338Y828636D01*
X216994D01*
X216338D01*
X215682Y827980D01*
Y827324D01*
X216338Y826668D01*
X217650D01*
X218306Y827324D01*
X214370Y830604D02*
X211746D01*
Y829948D01*
X214370Y827324D01*
Y826668D01*
D74*
X482459Y188976D02*
Y193700D01*
X488758Y188779D02*
Y193897D01*
X515857Y189173D02*
Y193897D01*
X522156Y188976D02*
Y194094D01*
X504724Y188976D02*
Y193700D01*
X511023Y188779D02*
Y193897D01*
X493592Y188976D02*
Y193700D01*
X499891Y188779D02*
Y193897D01*
X62818Y189370D02*
Y194094D01*
X69117Y189173D02*
Y194291D01*
X51685Y189173D02*
Y193897D01*
X57984Y188976D02*
Y194094D01*
X40552Y189173D02*
Y193897D01*
X46852Y188976D02*
Y194094D01*
X29420Y189173D02*
Y193897D01*
X35719Y188976D02*
Y194094D01*
X482459Y406693D02*
Y411417D01*
X488758Y406496D02*
Y411614D01*
X515857Y406889D02*
Y411614D01*
X522156Y406693D02*
Y411811D01*
X504724Y406693D02*
Y411417D01*
X511023Y406496D02*
Y411614D01*
X493592Y406693D02*
Y411417D01*
X499891Y406496D02*
Y411614D01*
X62818Y407086D02*
Y411811D01*
X69117Y406889D02*
Y412007D01*
X51685Y406889D02*
Y411614D01*
X57984Y406693D02*
Y411811D01*
X40552Y406889D02*
Y411614D01*
X46852Y406693D02*
Y411811D01*
X29420Y406889D02*
Y411614D01*
X35719Y406693D02*
Y411811D01*
X482459Y624409D02*
Y629133D01*
X488758Y624212D02*
Y629330D01*
X515857Y624606D02*
Y629330D01*
X522156Y624409D02*
Y629527D01*
X504724Y624409D02*
Y629133D01*
X511023Y624212D02*
Y629330D01*
X493592Y624409D02*
Y629133D01*
X499891Y624212D02*
Y629330D01*
X62818Y624803D02*
Y629527D01*
X69117Y624606D02*
Y629724D01*
X51685Y624606D02*
Y629330D01*
X57984Y624409D02*
Y629527D01*
X40552Y624606D02*
Y629330D01*
X46852Y624409D02*
Y629527D01*
X29420Y624606D02*
Y629330D01*
X35719Y624409D02*
Y629527D01*
X482459Y842126D02*
Y846850D01*
X488758Y841929D02*
Y847047D01*
X515857Y842322D02*
Y847047D01*
X522156Y842126D02*
Y847244D01*
X504724Y842126D02*
Y846850D01*
X511023Y841929D02*
Y847047D01*
X493592Y842126D02*
Y846850D01*
X499891Y841929D02*
Y847047D01*
X62818Y842519D02*
Y847244D01*
X69117Y842322D02*
Y847441D01*
X51685Y842322D02*
Y847047D01*
X57984Y842126D02*
Y847244D01*
X40552Y842322D02*
Y847047D01*
X46852Y842126D02*
Y847244D01*
X29420Y842322D02*
Y847047D01*
X35719Y842126D02*
Y847244D01*
M02*
