M48
;Layer_Color=9474304
;FILE_FORMAT=2:5
INCH,LZ
;TYPE=PLATED
T3F00S00C0.02362
;TYPE=NON_PLATED
%
G90
G05
T03
G00X0029449Y0015748
M15
G01Y001811
M16
G00X0029449Y003437
M15
G01Y0036732
M16
G00X0063071Y003437
M15
G01Y0036732
M16
G00X0063071Y0015748
M15
G01Y001811
M16
G00X0063071Y0233464
M15
G01Y0235827
M16
G00X0063071Y0252086
M15
G01Y0254449
M16
G00X0029449Y0252086
M15
G01Y0254449
M16
G00X0029449Y0233464
M15
G01Y0235827
M16
G00X0029449Y0451181
M15
G01Y0453543
M16
G00X0063071Y0451181
M15
G01Y0453543
M16
G00X0063071Y0469803
M15
G01Y0472165
M16
G00X0029449Y0469803
M15
G01Y0472165
M16
G00X0029449Y0668897
M15
G01Y067126
M16
G00X0029449Y068752
M15
G01Y0689882
M16
G00X0063071Y068752
M15
G01Y0689882
M16
G00X0063071Y0668897
M15
G01Y067126
M16
M17
M30
