G04*
G04 #@! TF.GenerationSoftware,Altium Limited,Altium Designer,23.1.1 (15)*
G04*
G04 Layer_Color=8388736*
%FSLAX25Y25*%
%MOIN*%
G70*
G04*
G04 #@! TF.SameCoordinates,62433247-A29E-43A8-B4B8-56B850690A23*
G04*
G04*
G04 #@! TF.FilePolarity,Positive*
G04*
G01*
G75*
%ADD56C,0.03937*%
%ADD154C,0.07874*%
D56*
X437992Y68897D02*
Y88582D01*
X413722Y13600D02*
Y33285D01*
X413622Y45500D02*
Y65185D01*
X413722Y78400D02*
Y98085D01*
X414022Y111800D02*
Y131485D01*
X414122Y145000D02*
Y164685D01*
Y178500D02*
Y194882D01*
X437992Y286614D02*
Y306299D01*
X413722Y231316D02*
Y251001D01*
X413622Y263216D02*
Y282901D01*
X413722Y296116D02*
Y315801D01*
X414022Y329516D02*
Y349201D01*
X414122Y362716D02*
Y382401D01*
Y396216D02*
Y412598D01*
X437992Y504331D02*
Y524016D01*
X413722Y449033D02*
Y468718D01*
X413622Y480933D02*
Y500618D01*
X413722Y513833D02*
Y533518D01*
X414022Y547233D02*
Y566918D01*
X414122Y580433D02*
Y600118D01*
Y613933D02*
Y630315D01*
X437992Y722047D02*
Y741732D01*
X413722Y666749D02*
Y686435D01*
X413622Y698650D02*
Y718334D01*
X413722Y731550D02*
Y751234D01*
X414022Y764950D02*
Y784634D01*
X414122Y798149D02*
Y817834D01*
Y831649D02*
Y848031D01*
D154*
X23622Y213779D02*
X527953D01*
X23622Y431496D02*
X527953D01*
X23622Y649213D02*
X527953D01*
M02*
