G04*
G04 #@! TF.GenerationSoftware,Altium Limited,Altium Designer,23.1.1 (15)*
G04*
G04 Layer_Color=128*
%FSLAX25Y25*%
%MOIN*%
G70*
G04*
G04 #@! TF.SameCoordinates,62433247-A29E-43A8-B4B8-56B850690A23*
G04*
G04*
G04 #@! TF.FilePolarity,Positive*
G04*
G01*
G75*
%ADD151R,0.13099X0.01288*%
%ADD152R,0.05282X0.05282*%
G04:AMPARAMS|DCode=153|XSize=44.65mil|YSize=72.21mil|CornerRadius=0mil|HoleSize=0mil|Usage=FLASHONLY|Rotation=270.000|XOffset=0mil|YOffset=0mil|HoleType=Round|Shape=RoundedRectangle|*
%AMROUNDEDRECTD153*
21,1,0.04465,0.07221,0,0,270.0*
21,1,0.04465,0.07221,0,0,270.0*
1,1,0.00000,-0.03610,-0.02232*
1,1,0.00000,-0.03610,0.02232*
1,1,0.00000,0.03610,0.02232*
1,1,0.00000,0.03610,-0.02232*
%
%ADD153ROUNDEDRECTD153*%
D151*
X216622Y168595D02*
D03*
Y165446D02*
D03*
Y162296D02*
D03*
Y159146D02*
D03*
Y155996D02*
D03*
Y152847D02*
D03*
Y149697D02*
D03*
Y146548D02*
D03*
Y143398D02*
D03*
Y140248D02*
D03*
Y137099D02*
D03*
Y133949D02*
D03*
Y130800D02*
D03*
Y127650D02*
D03*
Y124500D02*
D03*
Y121351D02*
D03*
Y118201D02*
D03*
Y102453D02*
D03*
Y99304D02*
D03*
Y96154D02*
D03*
Y93004D02*
D03*
Y89855D02*
D03*
Y86705D02*
D03*
Y83556D02*
D03*
Y80406D02*
D03*
Y77257D02*
D03*
Y74107D02*
D03*
Y70957D02*
D03*
Y67808D02*
D03*
Y64658D02*
D03*
Y61508D02*
D03*
Y58359D02*
D03*
Y55209D02*
D03*
Y115052D02*
D03*
Y111902D02*
D03*
Y108752D02*
D03*
Y105603D02*
D03*
Y386312D02*
D03*
Y383162D02*
D03*
Y380013D02*
D03*
Y376862D02*
D03*
Y373713D02*
D03*
Y370563D02*
D03*
Y367414D02*
D03*
Y364265D02*
D03*
Y361114D02*
D03*
Y357965D02*
D03*
Y354815D02*
D03*
Y351666D02*
D03*
Y348516D02*
D03*
Y345367D02*
D03*
Y342216D02*
D03*
Y339067D02*
D03*
Y335918D02*
D03*
Y320170D02*
D03*
Y317021D02*
D03*
Y313870D02*
D03*
Y310721D02*
D03*
Y307571D02*
D03*
Y304422D02*
D03*
Y301272D02*
D03*
Y298123D02*
D03*
Y294973D02*
D03*
Y291823D02*
D03*
Y288673D02*
D03*
Y285524D02*
D03*
Y282375D02*
D03*
Y279224D02*
D03*
Y276075D02*
D03*
Y272926D02*
D03*
Y332769D02*
D03*
Y329618D02*
D03*
Y326469D02*
D03*
Y323319D02*
D03*
Y604028D02*
D03*
Y600879D02*
D03*
Y597729D02*
D03*
Y594579D02*
D03*
Y591429D02*
D03*
Y588280D02*
D03*
Y585130D02*
D03*
Y581981D02*
D03*
Y578831D02*
D03*
Y575681D02*
D03*
Y572532D02*
D03*
Y569382D02*
D03*
Y566233D02*
D03*
Y563084D02*
D03*
Y559933D02*
D03*
Y556784D02*
D03*
Y553634D02*
D03*
Y537886D02*
D03*
Y534737D02*
D03*
Y531587D02*
D03*
Y528437D02*
D03*
Y525288D02*
D03*
Y522138D02*
D03*
Y518989D02*
D03*
Y515839D02*
D03*
Y512690D02*
D03*
Y509540D02*
D03*
Y506390D02*
D03*
Y503241D02*
D03*
Y500091D02*
D03*
Y496941D02*
D03*
Y493792D02*
D03*
Y490642D02*
D03*
Y550485D02*
D03*
Y547335D02*
D03*
Y544185D02*
D03*
Y541036D02*
D03*
Y821745D02*
D03*
Y818595D02*
D03*
Y815446D02*
D03*
Y812295D02*
D03*
Y809146D02*
D03*
Y805996D02*
D03*
Y802847D02*
D03*
Y799698D02*
D03*
Y796547D02*
D03*
Y793398D02*
D03*
Y790248D02*
D03*
Y787099D02*
D03*
Y783950D02*
D03*
Y780800D02*
D03*
Y777650D02*
D03*
Y774500D02*
D03*
Y771351D02*
D03*
Y755603D02*
D03*
Y752454D02*
D03*
Y749303D02*
D03*
Y746154D02*
D03*
Y743004D02*
D03*
Y739855D02*
D03*
Y736705D02*
D03*
Y733556D02*
D03*
Y730407D02*
D03*
Y727256D02*
D03*
Y724107D02*
D03*
Y720957D02*
D03*
Y717808D02*
D03*
Y714658D02*
D03*
Y711508D02*
D03*
Y708359D02*
D03*
Y768202D02*
D03*
Y765051D02*
D03*
Y761902D02*
D03*
Y758752D02*
D03*
D152*
X485609Y184448D02*
D03*
Y198228D02*
D03*
X519006Y184645D02*
D03*
Y198425D02*
D03*
X507874Y184448D02*
D03*
Y198228D02*
D03*
X496741Y184448D02*
D03*
Y198228D02*
D03*
X65967Y184842D02*
D03*
Y198622D02*
D03*
X54835Y184645D02*
D03*
Y198425D02*
D03*
X43702Y184645D02*
D03*
Y198425D02*
D03*
X32570Y184645D02*
D03*
Y198425D02*
D03*
X485609Y402165D02*
D03*
Y415944D02*
D03*
X519006Y402362D02*
D03*
Y416141D02*
D03*
X507874Y402165D02*
D03*
Y415944D02*
D03*
X496741Y402165D02*
D03*
Y415944D02*
D03*
X65967Y402559D02*
D03*
Y416338D02*
D03*
X54835Y402362D02*
D03*
Y416141D02*
D03*
X43702Y402362D02*
D03*
Y416141D02*
D03*
X32570Y402362D02*
D03*
Y416141D02*
D03*
X485609Y619881D02*
D03*
Y633661D02*
D03*
X519006Y620078D02*
D03*
Y633858D02*
D03*
X507874Y619881D02*
D03*
Y633661D02*
D03*
X496741Y619881D02*
D03*
Y633661D02*
D03*
X65967Y620275D02*
D03*
Y634055D02*
D03*
X54835Y620078D02*
D03*
Y633858D02*
D03*
X43702Y620078D02*
D03*
Y633858D02*
D03*
X32570Y620078D02*
D03*
Y633858D02*
D03*
X485609Y837598D02*
D03*
Y851377D02*
D03*
X519006Y837795D02*
D03*
Y851574D02*
D03*
X507874Y837598D02*
D03*
Y851377D02*
D03*
X496741Y837598D02*
D03*
Y851377D02*
D03*
X65967Y837992D02*
D03*
Y851771D02*
D03*
X54835Y837795D02*
D03*
Y851574D02*
D03*
X43702Y837795D02*
D03*
Y851574D02*
D03*
X32570Y837795D02*
D03*
Y851574D02*
D03*
D153*
X91142Y75787D02*
D03*
X58268D02*
D03*
Y58071D02*
D03*
X91142D02*
D03*
X484857Y35455D02*
D03*
X451983D02*
D03*
Y53171D02*
D03*
X484857D02*
D03*
X118965Y144360D02*
D03*
X86090D02*
D03*
Y126643D02*
D03*
X118965D02*
D03*
X91405Y116801D02*
D03*
X58531D02*
D03*
Y99084D02*
D03*
X91405D02*
D03*
Y171919D02*
D03*
X58531D02*
D03*
Y154202D02*
D03*
X91405D02*
D03*
X63846Y144360D02*
D03*
X30972D02*
D03*
Y126643D02*
D03*
X63846D02*
D03*
X91142Y293504D02*
D03*
X58268D02*
D03*
Y275787D02*
D03*
X91142D02*
D03*
X484857Y253171D02*
D03*
X451983D02*
D03*
Y270888D02*
D03*
X484857D02*
D03*
X118965Y362076D02*
D03*
X86090D02*
D03*
Y344360D02*
D03*
X118965D02*
D03*
X91405Y334517D02*
D03*
X58531D02*
D03*
Y316801D02*
D03*
X91405D02*
D03*
Y389635D02*
D03*
X58531D02*
D03*
Y371919D02*
D03*
X91405D02*
D03*
X63846Y362076D02*
D03*
X30972D02*
D03*
Y344360D02*
D03*
X63846D02*
D03*
X91142Y511220D02*
D03*
X58268D02*
D03*
Y493504D02*
D03*
X91142D02*
D03*
X484857Y470888D02*
D03*
X451983D02*
D03*
Y488604D02*
D03*
X484857D02*
D03*
X118965Y579793D02*
D03*
X86090D02*
D03*
Y562076D02*
D03*
X118965D02*
D03*
X91405Y552234D02*
D03*
X58531D02*
D03*
Y534517D02*
D03*
X91405D02*
D03*
Y607352D02*
D03*
X58531D02*
D03*
Y589635D02*
D03*
X91405D02*
D03*
X63846Y579793D02*
D03*
X30972D02*
D03*
Y562076D02*
D03*
X63846D02*
D03*
X91142Y728937D02*
D03*
X58268D02*
D03*
Y711220D02*
D03*
X91142D02*
D03*
X484857Y688604D02*
D03*
X451983D02*
D03*
Y706321D02*
D03*
X484857D02*
D03*
X118965Y797509D02*
D03*
X86090D02*
D03*
Y779793D02*
D03*
X118965D02*
D03*
X91405Y769950D02*
D03*
X58531D02*
D03*
Y752234D02*
D03*
X91405D02*
D03*
Y825068D02*
D03*
X58531D02*
D03*
Y807352D02*
D03*
X91405D02*
D03*
X63846Y797509D02*
D03*
X30972D02*
D03*
Y779793D02*
D03*
X63846D02*
D03*
M02*
