G04 Generated by CircuitCAM 6.2.0.1234*
%FSLAX33Y33*%
%MOMM*%
%ADD10C,0.025000*%
%ADD11C,0.999998*%
%ADD12C,0.200000*%
%AMROUNDED68*21,1,0.435000,0.659000,0,0,0.0*
21,1,0.335000,0.759000,0,0,0.0*
1,1,0.100000,0.167500,0.329500*
1,1,0.100000,0.167500,-0.329500*
1,1,0.100000,-0.167500,-0.329500*
1,1,0.100000,-0.167500,0.329500*%
%ADD68ROUNDED68*%
%AMROUNDED70*21,1,1.648000,0.948000,0,0,0.0*
21,1,1.548000,1.048000,0,0,0.0*
1,1,0.100000,0.774000,0.474000*
1,1,0.100000,0.774000,-0.474000*
1,1,0.100000,-0.774000,-0.474000*
1,1,0.100000,-0.774000,0.474000*%
%ADD70ROUNDED70*%
%AMROUNDED71*21,1,0.800000,0.600000,0,0,0.0*
21,1,0.700000,0.700000,0,0,0.0*
1,1,0.100000,0.350000,0.300000*
1,1,0.100000,0.350000,-0.300000*
1,1,0.100000,-0.350000,-0.300000*
1,1,0.100000,-0.350000,0.300000*%
%ADD71ROUNDED71*%
%AMROUNDED72*21,1,0.700000,0.700000,0,0,0.0*
21,1,0.600000,0.800000,0,0,0.0*
1,1,0.100000,0.300000,0.350000*
1,1,0.100000,0.300000,-0.350000*
1,1,0.100000,-0.300000,-0.350000*
1,1,0.100000,-0.300000,0.350000*%
%ADD72ROUNDED72*%
%AMROUNDED73*21,1,0.948000,0.698000,0,0,0.0*
21,1,0.848000,0.798000,0,0,0.0*
1,1,0.100000,0.424000,0.349000*
1,1,0.100000,0.424000,-0.349000*
1,1,0.100000,-0.424000,-0.349000*
1,1,0.100000,-0.424000,0.349000*%
%ADD73ROUNDED73*%
%AMROUNDED74*21,1,0.256000,0.842000,0,0,0.0*
21,1,0.156000,0.942000,0,0,0.0*
1,1,0.100000,0.078000,0.421000*
1,1,0.100000,0.078000,-0.421000*
1,1,0.100000,-0.078000,-0.421000*
1,1,0.100000,-0.078000,0.421000*%
%ADD74ROUNDED74*%
%AMROUNDED75*21,1,0.699000,0.999000,0,0,0.0*
21,1,0.599000,1.099000,0,0,0.0*
1,1,0.100000,0.299500,0.499500*
1,1,0.100000,0.299500,-0.499500*
1,1,0.100000,-0.299500,-0.499500*
1,1,0.100000,-0.299500,0.499500*%
%ADD75ROUNDED75*%
%AMROUNDED76*21,1,0.554000,0.654000,0,0,0.0*
21,1,0.454000,0.754000,0,0,0.0*
1,1,0.100000,0.227000,0.327000*
1,1,0.100000,0.227000,-0.327000*
1,1,0.100000,-0.227000,-0.327000*
1,1,0.100000,-0.227000,0.327000*%
%ADD76ROUNDED76*%
%AMROUNDED77*21,1,1.449000,0.499000,0,0,0.0*
21,1,1.349000,0.599000,0,0,0.0*
1,1,0.100000,0.674500,0.249500*
1,1,0.100000,0.674500,-0.249500*
1,1,0.100000,-0.674500,-0.249500*
1,1,0.100000,-0.674500,0.249500*%
%ADD77ROUNDED77*%
%ADD79O,0.226000X1.504000*%
%ADD84O,1.504000X0.226000*%
%AMROUNDED85*21,1,0.783000,0.307900,0,0,0.0*
21,1,0.537900,0.553000,0,0,0.0*
1,1,0.245100,0.268950,0.153950*
1,1,0.245100,0.268950,-0.153950*
1,1,0.245100,-0.268950,-0.153950*
1,1,0.245100,-0.268950,0.153950*%
%ADD85ROUNDED85*%
%AMROUNDED88*21,1,0.783000,0.307399,0,0,0.0*
21,1,0.537399,0.553000,0,0,0.0*
1,1,0.245601,0.268699,0.153699*
1,1,0.245601,0.268699,-0.153699*
1,1,0.245601,-0.268699,-0.153699*
1,1,0.245601,-0.268699,0.153699*%
%ADD88ROUNDED88*%
%AMROUNDED89*21,1,0.783000,0.311949,0,0,0.0*
21,1,0.541949,0.553000,0,0,0.0*
1,1,0.241051,0.270974,0.155974*
1,1,0.241051,0.270974,-0.155974*
1,1,0.241051,-0.270974,-0.155974*
1,1,0.241051,-0.270974,0.155974*%
%ADD89ROUNDED89*%
%AMROUNDED90*21,1,0.759000,0.335000,0,0,0.0*
21,1,0.659000,0.435000,0,0,0.0*
1,1,0.100000,0.329500,0.167500*
1,1,0.100000,0.329500,-0.167500*
1,1,0.100000,-0.329500,-0.167500*
1,1,0.100000,-0.329500,0.167500*%
%ADD90ROUNDED90*%
%AMROUNDED93*21,1,0.784000,0.312204,0,0,0.0*
21,1,0.543204,0.553000,0,0,0.0*
1,1,0.240796,0.271602,0.156102*
1,1,0.240796,0.271602,-0.156102*
1,1,0.240796,-0.271602,-0.156102*
1,1,0.240796,-0.271602,0.156102*%
%ADD93ROUNDED93*%
%AMROUNDED95*21,1,0.200000,1.227000,0,0,0.0*
21,1,0.100000,1.327000,0,0,0.0*
1,1,0.100000,0.050000,0.613500*
1,1,0.100000,0.050000,-0.613500*
1,1,0.100000,-0.050000,-0.613500*
1,1,0.100000,-0.050000,0.613500*%
%ADD95ROUNDED95*%
%AMROUNDED98*21,1,0.886000,0.286000,0,0,0.0*
21,1,0.786000,0.386000,0,0,0.0*
1,1,0.100000,0.393000,0.143000*
1,1,0.100000,0.393000,-0.143000*
1,1,0.100000,-0.393000,-0.143000*
1,1,0.100000,-0.393000,0.143000*%
%ADD98ROUNDED98*%
%AMROUNDED99*21,1,1.327000,0.100000,0,0,0.0*
21,1,1.227000,0.200000,0,0,0.0*
1,1,0.100000,0.613500,0.050000*
1,1,0.100000,0.613500,-0.050000*
1,1,0.100000,-0.613500,-0.050000*
1,1,0.100000,-0.613500,0.050000*%
%ADD99ROUNDED99*%
%ADD106O,0.240000X0.760000*%
%ADD107O,0.228000X0.723000*%
%ADD108O,0.723000X0.228000*%
%AMROUNDED109*21,1,0.697000,0.597000,0,0,0.0*
21,1,0.597000,0.697000,0,0,0.0*
1,1,0.100000,0.298500,0.298500*
1,1,0.100000,0.298500,-0.298500*
1,1,0.100000,-0.298500,-0.298500*
1,1,0.100000,-0.298500,0.298500*%
%ADD109ROUNDED109*%
%AMROUNDED111*21,1,2.985000,1.685000,0,0,0.0*
21,1,2.885000,1.785000,0,0,0.0*
1,1,0.100000,1.442500,0.842500*
1,1,0.100000,1.442500,-0.842500*
1,1,0.100000,-1.442500,-0.842500*
1,1,0.100000,-1.442500,0.842500*%
%ADD111ROUNDED111*%
%AMROUNDED115*21,1,2.674000,0.519000,0,0,0.0*
21,1,2.574000,0.619000,0,0,0.0*
1,1,0.100000,1.287000,0.259500*
1,1,0.100000,1.287000,-0.259500*
1,1,0.100000,-1.287000,-0.259500*
1,1,0.100000,-1.287000,0.259500*%
%ADD115ROUNDED115*%
%AMROUNDED117*21,1,2.822000,1.922000,0,0,0.0*
21,1,2.722000,2.022000,0,0,0.0*
1,1,0.100000,1.361000,0.961000*
1,1,0.100000,1.361000,-0.961000*
1,1,0.100000,-1.361000,-0.961000*
1,1,0.100000,-1.361000,0.961000*%
%ADD117ROUNDED117*%
%AMROUNDED118*21,1,0.783000,0.308444,0,0,0.0*
21,1,0.538444,0.553000,0,0,0.0*
1,1,0.244556,0.269222,0.154222*
1,1,0.244556,0.269222,-0.154222*
1,1,0.244556,-0.269222,-0.154222*
1,1,0.244556,-0.269222,0.154222*%
%ADD118ROUNDED118*%
%AMROUNDED126*21,1,1.051000,0.151000,0,0,0.0*
21,1,0.951000,0.251000,0,0,0.0*
1,1,0.100000,0.475500,0.075500*
1,1,0.100000,0.475500,-0.075500*
1,1,0.100000,-0.475500,-0.075500*
1,1,0.100000,-0.475500,0.075500*%
%ADD126ROUNDED126*%
%AMROUNDED137*21,1,0.859000,1.809000,0,0,0.0*
21,1,0.759000,1.909000,0,0,0.0*
1,1,0.100000,0.379500,0.904500*
1,1,0.100000,0.379500,-0.904500*
1,1,0.100000,-0.379500,-0.904500*
1,1,0.100000,-0.379500,0.904500*%
%ADD137ROUNDED137*%
%AMROUNDED140*21,1,1.000000,1.000000,0,0,0.0*
21,1,0.900000,1.100000,0,0,0.0*
1,1,0.100000,0.450000,0.500000*
1,1,0.100000,0.450000,-0.500000*
1,1,0.100000,-0.450000,-0.500000*
1,1,0.100000,-0.450000,0.500000*%
%ADD140ROUNDED140*%
%AMROUNDED143*21,1,0.510000,1.360000,0,0,0.0*
21,1,0.410000,1.460000,0,0,0.0*
1,1,0.100000,0.205000,0.680000*
1,1,0.100000,0.205000,-0.680000*
1,1,0.100000,-0.205000,-0.680000*
1,1,0.100000,-0.205000,0.680000*%
%ADD143ROUNDED143*%
%AMROUNDED146*21,1,1.100000,0.900000,0,0,0.0*
21,1,1.000000,1.000000,0,0,0.0*
1,1,0.100000,0.500000,0.450000*
1,1,0.100000,0.500000,-0.450000*
1,1,0.100000,-0.500000,-0.450000*
1,1,0.100000,-0.500000,0.450000*%
%ADD146ROUNDED146*%
%AMROUNDED149*21,1,1.874000,0.404000,0,0,0.0*
21,1,1.774000,0.504000,0,0,0.0*
1,1,0.100000,0.887000,0.202000*
1,1,0.100000,0.887000,-0.202000*
1,1,0.100000,-0.887000,-0.202000*
1,1,0.100000,-0.887000,0.202000*%
%ADD149ROUNDED149*%
%AMROUNDED152*21,1,0.250000,1.050000,0,0,0.0*
21,1,0.150000,1.150000,0,0,0.0*
1,1,0.100000,0.075000,0.525000*
1,1,0.100000,0.075000,-0.525000*
1,1,0.100000,-0.075000,-0.525000*
1,1,0.100000,-0.075000,0.525000*%
%ADD152ROUNDED152*%
%AMROUNDED155*21,1,1.560000,0.390000,0,0,0.0*
21,1,1.460000,0.490000,0,0,0.0*
1,1,0.100000,0.730000,0.195000*
1,1,0.100000,0.730000,-0.195000*
1,1,0.100000,-0.730000,-0.195000*
1,1,0.100000,-0.730000,0.195000*%
%ADD155ROUNDED155*%
%ADD156O,0.536000X1.206000*%
%AMROUNDED160*21,1,1.140000,0.958196,0,0,0.0*
21,1,0.358196,1.740000,0,0,0.0*
1,1,0.781804,0.179098,0.479098*
1,1,0.781804,0.179098,-0.479098*
1,1,0.781804,-0.179098,-0.479098*
1,1,0.781804,-0.179098,0.479098*%
%ADD160ROUNDED160*%
%AMROUNDED161*21,1,0.478000,0.728000,0,0,0.0*
21,1,0.378000,0.828000,0,0,0.0*
1,1,0.100000,0.189000,0.364000*
1,1,0.100000,0.189000,-0.364000*
1,1,0.100000,-0.189000,-0.364000*
1,1,0.100000,-0.189000,0.364000*%
%ADD161ROUNDED161*%
%AMROUNDED164*21,1,1.400000,1.000000,0,0,0.0*
21,1,1.300000,1.100000,0,0,0.0*
1,1,0.100000,0.650000,0.500000*
1,1,0.100000,0.650000,-0.500000*
1,1,0.100000,-0.650000,-0.500000*
1,1,0.100000,-0.650000,0.500000*%
%ADD164ROUNDED164*%
%AMROUNDED165*21,1,0.536000,1.105000,0,0,0.0*
21,1,0.436000,1.205000,0,0,0.0*
1,1,0.100000,0.218000,0.552500*
1,1,0.100000,0.218000,-0.552500*
1,1,0.100000,-0.218000,-0.552500*
1,1,0.100000,-0.218000,0.552500*%
%ADD165ROUNDED165*%
%ADD166O,0.537000X1.206000*%
%AMROUNDED206*21,1,0.783000,0.307649,0,0,0.0*
21,1,0.537649,0.553000,0,0,0.0*
1,1,0.245351,0.268825,0.153825*
1,1,0.245351,0.268825,-0.153825*
1,1,0.245351,-0.268825,-0.153825*
1,1,0.245351,-0.268825,0.153825*%
%ADD206ROUNDED206*%
%AMROUNDED244*21,1,0.784000,0.308780,0,0,0.0*
21,1,0.539780,0.553000,0,0,0.0*
1,1,0.244220,0.269890,0.154390*
1,1,0.244220,0.269890,-0.154390*
1,1,0.244220,-0.269890,-0.154390*
1,1,0.244220,-0.269890,0.154390*%
%ADD244ROUNDED244*%
%AMROUNDED251*21,1,0.783000,0.306399,0,0,0.0*
21,1,0.536399,0.553000,0,0,0.0*
1,1,0.246601,0.268199,0.153199*
1,1,0.246601,0.268199,-0.153199*
1,1,0.246601,-0.268199,-0.153199*
1,1,0.246601,-0.268199,0.153199*%
%ADD251ROUNDED251*%
%AMROUNDED253*21,1,0.783000,0.307065,0,0,0.0*
21,1,0.537065,0.553000,0,0,0.0*
1,1,0.245935,0.268532,0.153532*
1,1,0.245935,0.268532,-0.153532*
1,1,0.245935,-0.268532,-0.153532*
1,1,0.245935,-0.268532,0.153532*%
%ADD253ROUNDED253*%
%AMROUNDED269*21,1,0.783000,0.309000,0,0,0.0*
21,1,0.539000,0.553000,0,0,0.0*
1,1,0.244000,0.269500,0.154500*
1,1,0.244000,0.269500,-0.154500*
1,1,0.244000,-0.269500,-0.154500*
1,1,0.244000,-0.269500,0.154500*%
%ADD269ROUNDED269*%
%AMROUNDED318*21,1,0.784000,0.309032,0,0,0.0*
21,1,0.540032,0.553000,0,0,0.0*
1,1,0.243968,0.270016,0.154516*
1,1,0.243968,0.270016,-0.154516*
1,1,0.243968,-0.270016,-0.154516*
1,1,0.243968,-0.270016,0.154516*%
%ADD318ROUNDED318*%
%LNSolderPasteTop_Ready*%
%LPD*%
G36*
X-168001Y164300D02*
X-172502Y164300D01*
X-172502Y161559D01*
G75*
G03X-168001Y161559I2251J-10D01*
G74*
G01*
X-168001Y164300D01*
G37*
G36*
X-132001Y164300D02*
X-136502Y164300D01*
X-136502Y161559D01*
G75*
G03X-132001Y161559I2251J-10D01*
G74*
G01*
X-132001Y164300D01*
G37*
G36*
X-144000Y164300D02*
X-148501Y164300D01*
X-148501Y161559D01*
G75*
G03X-144000Y161559I2251J-10D01*
G74*
G01*
X-144000Y164300D01*
G37*
G36*
X-156002Y164300D02*
X-160503Y164300D01*
X-160503Y161559D01*
G75*
G03X-156002Y161559I2251J-10D01*
G74*
G01*
X-156002Y164300D01*
G37*
G36*
X-96002Y164300D02*
X-100500Y164300D01*
X-100500Y161559D01*
G75*
G03X-96002Y161559I2249J-10D01*
G74*
G01*
X-96002Y164300D01*
G37*
G36*
X-108001Y164300D02*
X-112502Y164300D01*
X-112502Y161559D01*
G75*
G03X-108001Y161559I2251J-10D01*
G74*
G01*
X-108001Y164300D01*
G37*
G36*
X-120002Y164300D02*
X-124501Y164300D01*
X-124501Y161559D01*
G75*
G03X-120002Y161559I2249J-10D01*
G74*
G01*
X-120002Y164300D01*
G37*
G36*
X-60002Y164300D02*
X-64501Y164300D01*
X-64501Y161559D01*
G75*
G03X-60002Y161559I2249J-10D01*
G74*
G01*
X-60002Y164300D01*
G37*
G36*
X-72001Y164300D02*
X-76502Y164300D01*
X-76502Y161559D01*
G75*
G03X-72001Y161559I2251J-10D01*
G74*
G01*
X-72001Y164300D01*
G37*
G36*
X-84000Y164300D02*
X-88501Y164300D01*
X-88501Y161559D01*
G75*
G03X-84000Y161559I2251J-10D01*
G74*
G01*
X-84000Y164300D01*
G37*
G36*
X-24000Y164300D02*
X-28501Y164300D01*
X-28501Y161559D01*
G75*
G03X-24000Y161559I2251J-10D01*
G74*
G01*
X-24000Y164300D01*
G37*
G36*
X-36002Y164300D02*
X-40500Y164300D01*
X-40500Y161559D01*
G75*
G03X-36002Y161559I2250J-10D01*
G74*
G01*
X-36002Y164300D01*
G37*
G36*
X-48001Y164300D02*
X-52502Y164300D01*
X-52502Y161559D01*
G75*
G03X-48001Y161559I2251J-10D01*
G74*
G01*
X-48001Y164300D01*
G37*
G36*
X11999Y164300D02*
X7498Y164300D01*
X7498Y161559D01*
G75*
G03X11999Y161559I2251J-10D01*
G74*
G01*
X11999Y164300D01*
G37*
G36*
X-3Y164300D02*
X-4501Y164300D01*
X-4501Y161559D01*
G75*
G03X-3Y161559I2250J-10D01*
G74*
G01*
X-3Y164300D01*
G37*
G36*
X-12001Y164300D02*
X-16502Y164300D01*
X-16502Y161559D01*
G75*
G03X-12001Y161559I2251J-10D01*
G74*
G01*
X-12001Y164300D01*
G37*
G36*
X47998Y164300D02*
X43498Y164300D01*
X43498Y161559D01*
G75*
G03X47998Y161559I2251J-10D01*
G74*
G01*
X47998Y164300D01*
G37*
G36*
X35999Y164300D02*
X31499Y164300D01*
X31499Y161559D01*
G75*
G03X35999Y161559I2251J-10D01*
G74*
G01*
X35999Y164300D01*
G37*
G36*
X23998Y164300D02*
X19500Y164300D01*
X19500Y161559D01*
G75*
G03X23998Y161559I2250J-10D01*
G74*
G01*
X23998Y164300D01*
G37*
G36*
X83998Y164300D02*
X79499Y164300D01*
X79499Y161559D01*
G75*
G03X83998Y161559I2250J-10D01*
G74*
G01*
X83998Y164300D01*
G37*
G36*
X71999Y164300D02*
X67498Y164300D01*
X67498Y161559D01*
G75*
G03X71999Y161559I2251J-10D01*
G74*
G01*
X71999Y164300D01*
G37*
G36*
X60000Y164300D02*
X55499Y164300D01*
X55499Y161559D01*
G75*
G03X60000Y161559I2251J-10D01*
G74*
G01*
X60000Y164300D01*
G37*
G36*
X120000Y164300D02*
X115499Y164300D01*
X115499Y161559D01*
G75*
G03X120000Y161559I2251J-10D01*
G74*
G01*
X120000Y164300D01*
G37*
G36*
X107998Y164300D02*
X103500Y164300D01*
X103500Y161559D01*
G75*
G03X107998Y161559I2250J-10D01*
G74*
G01*
X107998Y164300D01*
G37*
G36*
X95999Y164300D02*
X91498Y164300D01*
X91498Y161559D01*
G75*
G03X95999Y161559I2251J-10D01*
G74*
G01*
X95999Y164300D01*
G37*
G36*
X155999Y164300D02*
X151498Y164300D01*
X151498Y161559D01*
G75*
G03X155999Y161559I2251J-10D01*
G74*
G01*
X155999Y164300D01*
G37*
G36*
X143998Y164300D02*
X139499Y164300D01*
X139499Y161559D01*
G75*
G03X143998Y161559I2250J-10D01*
G74*
G01*
X143998Y164300D01*
G37*
G36*
X131999Y164300D02*
X127498Y164300D01*
X127498Y161559D01*
G75*
G03X131999Y161559I2251J-10D01*
G74*
G01*
X131999Y164300D01*
G37*
G36*
X191999Y164300D02*
X187498Y164300D01*
X187498Y161559D01*
G75*
G03X191999Y161559I2251J-10D01*
G74*
G01*
X191999Y164300D01*
G37*
G36*
X180000Y164300D02*
X175499Y164300D01*
X175499Y161559D01*
G75*
G03X180000Y161559I2251J-10D01*
G74*
G01*
X180000Y164300D01*
G37*
G36*
X167998Y164300D02*
X163500Y164300D01*
X163500Y161559D01*
G75*
G03X167998Y161559I2249J-10D01*
G74*
G01*
X167998Y164300D01*
G37*
G36*
X227998Y164300D02*
X223500Y164300D01*
X223500Y161559D01*
G75*
G03X227998Y161559I2250J-10D01*
G74*
G01*
X227998Y164300D01*
G37*
G36*
X215999Y164300D02*
X211498Y164300D01*
X211498Y161559D01*
G75*
G03X215999Y161559I2251J-10D01*
G74*
G01*
X215999Y164300D01*
G37*
G36*
X203998Y164300D02*
X199499Y164300D01*
X199499Y161559D01*
G75*
G03X203998Y161559I2250J-10D01*
G74*
G01*
X203998Y164300D01*
G37*
G36*
X263997Y164300D02*
X259499Y164300D01*
X259499Y161559D01*
G75*
G03X263997Y161559I2249J-10D01*
G74*
G01*
X263997Y164300D01*
G37*
G36*
X251998Y164300D02*
X247498Y164300D01*
X247498Y161559D01*
G75*
G03X251998Y161559I2251J-10D01*
G74*
G01*
X251998Y164300D01*
G37*
G36*
X240000Y164300D02*
X235499Y164300D01*
X235499Y161559D01*
G75*
G03X240000Y161559I2251J-10D01*
G74*
G01*
X240000Y164300D01*
G37*
G36*
X310749Y113050D02*
X310749Y117551D01*
X308008Y117551D01*
G75*
G03X308008Y113050I-10J-2250D01*
G74*
G01*
X310749Y113050D01*
G37*
G36*
X310749Y77051D02*
X310749Y81549D01*
X308008Y81549D01*
G75*
G03X308008Y77051I-10J-2249D01*
G74*
G01*
X310749Y77051D01*
G37*
G36*
X310749Y89050D02*
X310749Y93551D01*
X308008Y93551D01*
G75*
G03X308008Y89050I-10J-2250D01*
G74*
G01*
X310749Y89050D01*
G37*
G36*
X310749Y101049D02*
X310749Y105550D01*
X308008Y105550D01*
G75*
G03X308008Y101049I-10J-2250D01*
G74*
G01*
X310749Y101049D01*
G37*
G36*
X310749Y41049D02*
X310749Y45550D01*
X308008Y45550D01*
G75*
G03X308008Y41049I-10J-2250D01*
G74*
G01*
X310749Y41049D01*
G37*
G36*
X310749Y53050D02*
X310749Y57549D01*
X308008Y57549D01*
G75*
G03X308008Y53050I-10J-2249D01*
G74*
G01*
X310749Y53050D01*
G37*
G36*
X310749Y65049D02*
X310749Y69550D01*
X308008Y69550D01*
G75*
G03X308008Y65049I-10J-2250D01*
G74*
G01*
X310749Y65049D01*
G37*
G36*
X310749Y5050D02*
X310749Y9550D01*
X308008Y9550D01*
G75*
G03X308008Y5050I-10J-2250D01*
G74*
G01*
X310749Y5050D01*
G37*
G36*
X310749Y17051D02*
X310749Y21549D01*
X308008Y21549D01*
G75*
G03X308008Y17051I-10J-2249D01*
G74*
G01*
X310749Y17051D01*
G37*
G36*
X310749Y29050D02*
X310749Y33551D01*
X308008Y33551D01*
G75*
G03X308008Y29050I-10J-2250D01*
G74*
G01*
X310749Y29050D01*
G37*
G36*
X310749Y-30950D02*
X310749Y-26449D01*
X308008Y-26449D01*
G75*
G03X308008Y-30950I-10J-2250D01*
G74*
G01*
X310749Y-30950D01*
G37*
G36*
X310749Y-18951D02*
X310749Y-14450D01*
X308008Y-14450D01*
G75*
G03X308008Y-18951I-10J-2250D01*
G74*
G01*
X310749Y-18951D01*
G37*
G36*
X310749Y-6949D02*
X310749Y-2451D01*
X308008Y-2451D01*
G75*
G03X308008Y-6949I-10J-2249D01*
G74*
G01*
X310749Y-6949D01*
G37*
G36*
X310749Y-66949D02*
X310749Y-62451D01*
X308008Y-62451D01*
G75*
G03X308008Y-66949I-10J-2249D01*
G74*
G01*
X310749Y-66949D01*
G37*
G36*
X310749Y-54950D02*
X310749Y-50449D01*
X308008Y-50449D01*
G75*
G03X308008Y-54950I-10J-2250D01*
G74*
G01*
X310749Y-54950D01*
G37*
G36*
X310749Y-42949D02*
X310749Y-38451D01*
X308008Y-38451D01*
G75*
G03X308008Y-42949I-10J-2249D01*
G74*
G01*
X310749Y-42949D01*
G37*
G36*
X310749Y-102951D02*
X310749Y-98450D01*
X308008Y-98450D01*
G75*
G03X308008Y-102951I-10J-2250D01*
G74*
G01*
X310749Y-102951D01*
G37*
G36*
X310749Y-90950D02*
X310749Y-86449D01*
X308008Y-86449D01*
G75*
G03X308008Y-90950I-10J-2250D01*
G74*
G01*
X310749Y-90950D01*
G37*
G36*
X310749Y-78951D02*
X310749Y-74450D01*
X308008Y-74450D01*
G75*
G03X308008Y-78951I-10J-2250D01*
G74*
G01*
X310749Y-78951D01*
G37*
G36*
X310749Y-138951D02*
X310749Y-134450D01*
X308008Y-134450D01*
G75*
G03X308008Y-138951I-10J-2250D01*
G74*
G01*
X310749Y-138951D01*
G37*
G36*
X310749Y-126949D02*
X310749Y-122451D01*
X308008Y-122451D01*
G75*
G03X308008Y-126949I-10J-2249D01*
G74*
G01*
X310749Y-126949D01*
G37*
G36*
X310749Y-114950D02*
X310749Y-110449D01*
X308008Y-110449D01*
G75*
G03X308008Y-114950I-10J-2250D01*
G74*
G01*
X310749Y-114950D01*
G37*
G36*
X310749Y-174950D02*
X310749Y-170449D01*
X308008Y-170449D01*
G75*
G03X308008Y-174950I-10J-2250D01*
G74*
G01*
X310749Y-174950D01*
G37*
G36*
X310749Y-162951D02*
X310749Y-158450D01*
X308008Y-158450D01*
G75*
G03X308008Y-162951I-10J-2250D01*
G74*
G01*
X310749Y-162951D01*
G37*
G36*
X310749Y-150950D02*
X310749Y-146449D01*
X308008Y-146449D01*
G75*
G03X308008Y-150950I-10J-2250D01*
G74*
G01*
X310749Y-150950D01*
G37*
G36*
X310749Y-210950D02*
X310749Y-206451D01*
X308008Y-206451D01*
G75*
G03X308008Y-210950I-10J-2249D01*
G74*
G01*
X310749Y-210950D01*
G37*
G36*
X310749Y-198951D02*
X310749Y-194450D01*
X308008Y-194450D01*
G75*
G03X308008Y-198951I-10J-2250D01*
G74*
G01*
X310749Y-198951D01*
G37*
G36*
X310749Y-186949D02*
X310749Y-182451D01*
X308008Y-182451D01*
G75*
G03X308008Y-186949I-10J-2249D01*
G74*
G01*
X310749Y-186949D01*
G37*
G36*
X310749Y-246949D02*
X310749Y-242451D01*
X308008Y-242451D01*
G75*
G03X308008Y-246949I-10J-2249D01*
G74*
G01*
X310749Y-246949D01*
G37*
G36*
X310749Y-234950D02*
X310749Y-230449D01*
X308008Y-230449D01*
G75*
G03X308008Y-234950I-10J-2250D01*
G74*
G01*
X310749Y-234950D01*
G37*
G36*
X310749Y-222951D02*
X310749Y-218450D01*
X308008Y-218450D01*
G75*
G03X308008Y-222951I-10J-2250D01*
G74*
G01*
X310749Y-222951D01*
G37*
G36*
X310749Y-282951D02*
X310749Y-278450D01*
X308008Y-278450D01*
G75*
G03X308008Y-282951I-10J-2250D01*
G74*
G01*
X310749Y-282951D01*
G37*
G36*
X310749Y-270949D02*
X310749Y-266451D01*
X308008Y-266451D01*
G75*
G03X308008Y-270949I-10J-2249D01*
G74*
G01*
X310749Y-270949D01*
G37*
G36*
X310749Y-258950D02*
X310749Y-254450D01*
X308008Y-254450D01*
G75*
G03X308008Y-258950I-10J-2250D01*
G74*
G01*
X310749Y-258950D01*
G37*
G36*
X310749Y-318950D02*
X310749Y-314449D01*
X308008Y-314449D01*
G75*
G03X308008Y-318950I-10J-2250D01*
G74*
G01*
X310749Y-318950D01*
G37*
G36*
X310749Y-306949D02*
X310749Y-302450D01*
X308008Y-302450D01*
G75*
G03X308008Y-306949I-10J-2249D01*
G74*
G01*
X310749Y-306949D01*
G37*
G36*
X310749Y-294950D02*
X310749Y-290449D01*
X308008Y-290449D01*
G75*
G03X308008Y-294950I-10J-2250D01*
G74*
G01*
X310749Y-294950D01*
G37*
G36*
X-219250Y-314449D02*
X-219250Y-318950D01*
X-216512Y-318950D01*
G75*
G03X-216512Y-314449I10J2251D01*
G74*
G01*
X-219250Y-314449D01*
G37*
G36*
X-219250Y-278450D02*
X-219250Y-282951D01*
X-216512Y-282951D01*
G75*
G03X-216512Y-278450I10J2251D01*
G74*
G01*
X-219250Y-278450D01*
G37*
G36*
X-219250Y-290449D02*
X-219250Y-294950D01*
X-216512Y-294950D01*
G75*
G03X-216512Y-290449I10J2250D01*
G74*
G01*
X-219250Y-290449D01*
G37*
G36*
X-219250Y-302450D02*
X-219250Y-306949D01*
X-216512Y-306949D01*
G75*
G03X-216512Y-302450I10J2249D01*
G74*
G01*
X-219250Y-302450D01*
G37*
G36*
X-219250Y-242451D02*
X-219250Y-246949D01*
X-216512Y-246949D01*
G75*
G03X-216512Y-242451I10J2249D01*
G74*
G01*
X-219250Y-242451D01*
G37*
G36*
X-219250Y-254450D02*
X-219250Y-258950D01*
X-216512Y-258950D01*
G75*
G03X-216512Y-254450I10J2250D01*
G74*
G01*
X-219250Y-254450D01*
G37*
G36*
X-219250Y-266451D02*
X-219250Y-270949D01*
X-216512Y-270949D01*
G75*
G03X-216512Y-266451I10J2249D01*
G74*
G01*
X-219250Y-266451D01*
G37*
G36*
X-219250Y-206451D02*
X-219250Y-210950D01*
X-216512Y-210950D01*
G75*
G03X-216512Y-206451I10J2249D01*
G74*
G01*
X-219250Y-206451D01*
G37*
G36*
X-219250Y-218450D02*
X-219250Y-222951D01*
X-216512Y-222951D01*
G75*
G03X-216512Y-218450I10J2250D01*
G74*
G01*
X-219250Y-218450D01*
G37*
G36*
X-219250Y-230449D02*
X-219250Y-234950D01*
X-216512Y-234950D01*
G75*
G03X-216512Y-230449I10J2251D01*
G74*
G01*
X-219250Y-230449D01*
G37*
G36*
X-219250Y-170449D02*
X-219250Y-174950D01*
X-216512Y-174950D01*
G75*
G03X-216512Y-170449I10J2251D01*
G74*
G01*
X-219250Y-170449D01*
G37*
G36*
X-219250Y-182451D02*
X-219250Y-186949D01*
X-216512Y-186949D01*
G75*
G03X-216512Y-182451I10J2249D01*
G74*
G01*
X-219250Y-182451D01*
G37*
G36*
X-219250Y-194450D02*
X-219250Y-198951D01*
X-216512Y-198951D01*
G75*
G03X-216512Y-194450I10J2251D01*
G74*
G01*
X-219250Y-194450D01*
G37*
G36*
X-219250Y-134450D02*
X-219250Y-138951D01*
X-216512Y-138951D01*
G75*
G03X-216512Y-134450I10J2251D01*
G74*
G01*
X-219250Y-134450D01*
G37*
G36*
X-219250Y-146451D02*
X-219250Y-150950D01*
X-216512Y-150950D01*
G75*
G03X-216512Y-146451I10J2249D01*
G74*
G01*
X-219250Y-146451D01*
G37*
G36*
X-219250Y-158450D02*
X-219250Y-162951D01*
X-216512Y-162951D01*
G75*
G03X-216512Y-158450I10J2251D01*
G74*
G01*
X-219250Y-158450D01*
G37*
G36*
X-219250Y-98450D02*
X-219250Y-102951D01*
X-216512Y-102951D01*
G75*
G03X-216512Y-98450I10J2251D01*
G74*
G01*
X-219250Y-98450D01*
G37*
G36*
X-219250Y-110449D02*
X-219250Y-114950D01*
X-216512Y-114950D01*
G75*
G03X-216512Y-110449I10J2251D01*
G74*
G01*
X-219250Y-110449D01*
G37*
G36*
X-219250Y-122451D02*
X-219250Y-126949D01*
X-216512Y-126949D01*
G75*
G03X-216512Y-122451I10J2249D01*
G74*
G01*
X-219250Y-122451D01*
G37*
G36*
X-219250Y-62451D02*
X-219250Y-66949D01*
X-216512Y-66949D01*
G75*
G03X-216512Y-62451I10J2249D01*
G74*
G01*
X-219250Y-62451D01*
G37*
G36*
X-219250Y-74450D02*
X-219250Y-78951D01*
X-216512Y-78951D01*
G75*
G03X-216512Y-74450I10J2251D01*
G74*
G01*
X-219250Y-74450D01*
G37*
G36*
X-219250Y-86449D02*
X-219250Y-90950D01*
X-216512Y-90950D01*
G75*
G03X-216512Y-86449I10J2251D01*
G74*
G01*
X-219250Y-86449D01*
G37*
G36*
X-219250Y-26449D02*
X-219250Y-30950D01*
X-216512Y-30950D01*
G75*
G03X-216512Y-26449I10J2251D01*
G74*
G01*
X-219250Y-26449D01*
G37*
G36*
X-219250Y-38451D02*
X-219250Y-42949D01*
X-216512Y-42949D01*
G75*
G03X-216512Y-38451I10J2249D01*
G74*
G01*
X-219250Y-38451D01*
G37*
G36*
X-219250Y-50449D02*
X-219250Y-54950D01*
X-216512Y-54950D01*
G75*
G03X-216512Y-50449I10J2251D01*
G74*
G01*
X-219250Y-50449D01*
G37*
G36*
X-219250Y9550D02*
X-219250Y5050D01*
X-216512Y5050D01*
G75*
G03X-216512Y9550I10J2251D01*
G74*
G01*
X-219250Y9550D01*
G37*
G36*
X-219250Y-2451D02*
X-219250Y-6949D01*
X-216512Y-6949D01*
G75*
G03X-216512Y-2451I10J2249D01*
G74*
G01*
X-219250Y-2451D01*
G37*
G36*
X-219250Y-14450D02*
X-219250Y-18951D01*
X-216512Y-18951D01*
G75*
G03X-216512Y-14450I10J2251D01*
G74*
G01*
X-219250Y-14450D01*
G37*
G36*
X-219250Y45550D02*
X-219250Y41049D01*
X-216512Y41049D01*
G75*
G03X-216512Y45550I10J2251D01*
G74*
G01*
X-219250Y45550D01*
G37*
G36*
X-219250Y33551D02*
X-219250Y29050D01*
X-216512Y29050D01*
G75*
G03X-216512Y33551I10J2251D01*
G74*
G01*
X-219250Y33551D01*
G37*
G36*
X-219250Y21549D02*
X-219250Y17051D01*
X-216512Y17051D01*
G75*
G03X-216512Y21549I10J2249D01*
G74*
G01*
X-219250Y21549D01*
G37*
G36*
X-219250Y81549D02*
X-219250Y77051D01*
X-216512Y77051D01*
G75*
G03X-216512Y81549I10J2249D01*
G74*
G01*
X-219250Y81549D01*
G37*
G36*
X-219250Y69550D02*
X-219250Y65049D01*
X-216512Y65049D01*
G75*
G03X-216512Y69550I10J2251D01*
G74*
G01*
X-219250Y69550D01*
G37*
G36*
X-219250Y57549D02*
X-219250Y53050D01*
X-216512Y53050D01*
G75*
G03X-216512Y57549I10J2249D01*
G74*
G01*
X-219250Y57549D01*
G37*
G36*
X-219250Y117549D02*
X-219250Y113050D01*
X-216512Y113050D01*
G75*
G03X-216512Y117549I10J2249D01*
G74*
G01*
X-219250Y117549D01*
G37*
G36*
X-219250Y105550D02*
X-219250Y101049D01*
X-216512Y101049D01*
G75*
G03X-216512Y105550I10J2251D01*
G74*
G01*
X-219250Y105550D01*
G37*
G36*
X-219250Y93551D02*
X-219250Y89050D01*
X-216512Y89050D01*
G75*
G03X-216512Y93551I10J2251D01*
G74*
G01*
X-219250Y93551D01*
G37*
G36*
X259499Y-365699D02*
X264000Y-365699D01*
X264000Y-362961D01*
G75*
G03X259499Y-362961I-2250J10D01*
G74*
G01*
X259499Y-365699D01*
G37*
G36*
X223500Y-365699D02*
X227998Y-365699D01*
X227998Y-362961D01*
G75*
G03X223500Y-362961I-2249J10D01*
G74*
G01*
X223500Y-365699D01*
G37*
G36*
X235499Y-365699D02*
X240000Y-365699D01*
X240000Y-362961D01*
G75*
G03X235499Y-362961I-2250J10D01*
G74*
G01*
X235499Y-365699D01*
G37*
G36*
X247498Y-365699D02*
X251998Y-365699D01*
X251998Y-362961D01*
G75*
G03X247498Y-362961I-2250J10D01*
G74*
G01*
X247498Y-365699D01*
G37*
G36*
X187498Y-365699D02*
X191999Y-365699D01*
X191999Y-362961D01*
G75*
G03X187498Y-362961I-2250J10D01*
G74*
G01*
X187498Y-365699D01*
G37*
G36*
X199499Y-365699D02*
X203998Y-365699D01*
X203998Y-362961D01*
G75*
G03X199499Y-362961I-2249J10D01*
G74*
G01*
X199499Y-365699D01*
G37*
G36*
X211498Y-365699D02*
X215999Y-365699D01*
X215999Y-362961D01*
G75*
G03X211498Y-362961I-2250J10D01*
G74*
G01*
X211498Y-365699D01*
G37*
G36*
X151498Y-365699D02*
X155999Y-365699D01*
X155999Y-362961D01*
G75*
G03X151498Y-362961I-2250J10D01*
G74*
G01*
X151498Y-365699D01*
G37*
G36*
X163500Y-365699D02*
X167998Y-365699D01*
X167998Y-362961D01*
G75*
G03X163500Y-362961I-2249J10D01*
G74*
G01*
X163500Y-365699D01*
G37*
G36*
X175499Y-365699D02*
X180000Y-365699D01*
X180000Y-362961D01*
G75*
G03X175499Y-362961I-2250J10D01*
G74*
G01*
X175499Y-365699D01*
G37*
G36*
X115499Y-365699D02*
X120000Y-365699D01*
X120000Y-362961D01*
G75*
G03X115499Y-362961I-2250J10D01*
G74*
G01*
X115499Y-365699D01*
G37*
G36*
X127498Y-365699D02*
X131999Y-365699D01*
X131999Y-362961D01*
G75*
G03X127498Y-362961I-2250J10D01*
G74*
G01*
X127498Y-365699D01*
G37*
G36*
X139499Y-365699D02*
X143998Y-365699D01*
X143998Y-362961D01*
G75*
G03X139499Y-362961I-2249J10D01*
G74*
G01*
X139499Y-365699D01*
G37*
G36*
X79499Y-365699D02*
X83998Y-365699D01*
X83998Y-362961D01*
G75*
G03X79499Y-362961I-2249J10D01*
G74*
G01*
X79499Y-365699D01*
G37*
G36*
X91498Y-365699D02*
X95999Y-365699D01*
X95999Y-362961D01*
G75*
G03X91498Y-362961I-2250J10D01*
G74*
G01*
X91498Y-365699D01*
G37*
G36*
X103500Y-365699D02*
X107998Y-365699D01*
X107998Y-362961D01*
G75*
G03X103500Y-362961I-2249J10D01*
G74*
G01*
X103500Y-365699D01*
G37*
G36*
X43498Y-365699D02*
X47998Y-365699D01*
X47998Y-362961D01*
G75*
G03X43498Y-362961I-2250J10D01*
G74*
G01*
X43498Y-365699D01*
G37*
G36*
X55499Y-365699D02*
X60000Y-365699D01*
X60000Y-362961D01*
G75*
G03X55499Y-362961I-2250J10D01*
G74*
G01*
X55499Y-365699D01*
G37*
G36*
X67498Y-365699D02*
X71999Y-365699D01*
X71999Y-362961D01*
G75*
G03X67498Y-362961I-2250J10D01*
G74*
G01*
X67498Y-365699D01*
G37*
G36*
X7498Y-365699D02*
X11999Y-365699D01*
X11999Y-362961D01*
G75*
G03X7498Y-362961I-2250J10D01*
G74*
G01*
X7498Y-365699D01*
G37*
G36*
X19500Y-365699D02*
X23998Y-365699D01*
X23998Y-362961D01*
G75*
G03X19500Y-362961I-2249J10D01*
G74*
G01*
X19500Y-365699D01*
G37*
G36*
X31499Y-365699D02*
X35999Y-365699D01*
X35999Y-362961D01*
G75*
G03X31499Y-362961I-2250J10D01*
G74*
G01*
X31499Y-365699D01*
G37*
G36*
X-28501Y-365699D02*
X-24000Y-365699D01*
X-24000Y-362961D01*
G75*
G03X-28501Y-362961I-2250J10D01*
G74*
G01*
X-28501Y-365699D01*
G37*
G36*
X-16502Y-365699D02*
X-12001Y-365699D01*
X-12001Y-362961D01*
G75*
G03X-16502Y-362961I-2250J10D01*
G74*
G01*
X-16502Y-365699D01*
G37*
G36*
X-4501Y-365699D02*
X0Y-365699D01*
X0Y-362961D01*
G75*
G03X-4501Y-362961I-2250J10D01*
G74*
G01*
X-4501Y-365699D01*
G37*
G36*
X-64501Y-365699D02*
X-60002Y-365699D01*
X-60002Y-362961D01*
G75*
G03X-64501Y-362961I-2249J10D01*
G74*
G01*
X-64501Y-365699D01*
G37*
G36*
X-52502Y-365699D02*
X-48001Y-365699D01*
X-48001Y-362961D01*
G75*
G03X-52502Y-362961I-2250J10D01*
G74*
G01*
X-52502Y-365699D01*
G37*
G36*
X-40500Y-365699D02*
X-36002Y-365699D01*
X-36002Y-362961D01*
G75*
G03X-40500Y-362961I-2249J10D01*
G74*
G01*
X-40500Y-365699D01*
G37*
G36*
X-100500Y-365699D02*
X-96002Y-365699D01*
X-96002Y-362961D01*
G75*
G03X-100500Y-362961I-2249J10D01*
G74*
G01*
X-100500Y-365699D01*
G37*
G36*
X-88501Y-365699D02*
X-84000Y-365699D01*
X-84000Y-362961D01*
G75*
G03X-88501Y-362961I-2250J10D01*
G74*
G01*
X-88501Y-365699D01*
G37*
G36*
X-76502Y-365699D02*
X-72001Y-365699D01*
X-72001Y-362961D01*
G75*
G03X-76502Y-362961I-2250J10D01*
G74*
G01*
X-76502Y-365699D01*
G37*
G36*
X-136502Y-365699D02*
X-132001Y-365699D01*
X-132001Y-362961D01*
G75*
G03X-136502Y-362961I-2250J10D01*
G74*
G01*
X-136502Y-365699D01*
G37*
G36*
X-124501Y-365699D02*
X-120002Y-365699D01*
X-120002Y-362961D01*
G75*
G03X-124501Y-362961I-2249J10D01*
G74*
G01*
X-124501Y-365699D01*
G37*
G36*
X-112502Y-365699D02*
X-108001Y-365699D01*
X-108001Y-362961D01*
G75*
G03X-112502Y-362961I-2250J10D01*
G74*
G01*
X-112502Y-365699D01*
G37*
G36*
X-172502Y-365699D02*
X-168001Y-365699D01*
X-168001Y-362961D01*
G75*
G03X-172502Y-362961I-2250J10D01*
G74*
G01*
X-172502Y-365699D01*
G37*
G36*
X-160500Y-365699D02*
X-156002Y-365699D01*
X-156002Y-362961D01*
G75*
G03X-160500Y-362961I-2249J10D01*
G74*
G01*
X-160500Y-365699D01*
G37*
G36*
X-148501Y-365699D02*
X-144000Y-365699D01*
X-144000Y-362961D01*
G75*
G03X-148501Y-362961I-2250J10D01*
G74*
G01*
X-148501Y-365699D01*
G37*
G36*
X-12451Y-37051D02*
X-12550Y-37051D01*
G75*
G03X-12601Y-37099I0J-49D01*
G74*
G01*
X-12601Y-38001D01*
G75*
G03X-12550Y-38049I51J1D01*
G74*
G01*
X-12451Y-38049D01*
G75*
G03X-12400Y-37993I1J49D01*
G74*
G01*
X-12400Y-37099D01*
G75*
G03X-12451Y-37051I-50J-1D01*
G74*
G01*
G37*
G36*
X-12451Y-40150D02*
X-12550Y-40150D01*
G75*
G03X-12601Y-40201I0J-50D01*
G74*
G01*
X-12601Y-41100D01*
G75*
G03X-12550Y-41151I51J0D01*
G74*
G01*
X-12451Y-41151D01*
G75*
G03X-12400Y-41092I1J51D01*
G74*
G01*
X-12400Y-40201D01*
G75*
G03X-12451Y-40150I-50J1D01*
G74*
G01*
G37*
G36*
X-12451Y-92349D02*
X-12550Y-92349D01*
G75*
G03X-12601Y-92400I0J-51D01*
G74*
G01*
X-12601Y-93299D01*
G75*
G03X-12550Y-93350I51J-1D01*
G74*
G01*
X-12451Y-93350D01*
G75*
G03X-12400Y-93294I1J50D01*
G74*
G01*
X-12400Y-92400D01*
G75*
G03X-12451Y-92349I-50J0D01*
G74*
G01*
G37*
G36*
X-12451Y-95448D02*
X-12550Y-95448D01*
G75*
G03X-12601Y-95499I0J-51D01*
G74*
G01*
X-12601Y-96398D01*
G75*
G03X-12550Y-96449I51J-1D01*
G74*
G01*
X-12451Y-96449D01*
G75*
G03X-12400Y-96393I1J50D01*
G74*
G01*
X-12400Y-95499D01*
G75*
G03X-12451Y-95448I-50J0D01*
G74*
G01*
G37*
G36*
X-12451Y-147650D02*
X-12550Y-147650D01*
G75*
G03X-12601Y-147701I0J-50D01*
G74*
G01*
X-12601Y-148600D01*
G75*
G03X-12550Y-148651I51J0D01*
G74*
G01*
X-12451Y-148651D01*
G75*
G03X-12400Y-148593I1J51D01*
G74*
G01*
X-12400Y-147701D01*
G75*
G03X-12451Y-147650I-50J1D01*
G74*
G01*
G37*
G36*
X-12451Y-150749D02*
X-12550Y-150749D01*
G75*
G03X-12601Y-150800I0J-51D01*
G74*
G01*
X-12601Y-151699D01*
G75*
G03X-12550Y-151750I51J-1D01*
G74*
G01*
X-12451Y-151750D01*
G75*
G03X-12400Y-151694I1J50D01*
G74*
G01*
X-12400Y-150800D01*
G75*
G03X-12451Y-150749I-50J0D01*
G74*
G01*
G37*
G36*
X-12451Y-202951D02*
X-12550Y-202951D01*
G75*
G03X-12601Y-202999I0J-49D01*
G74*
G01*
X-12601Y-203901D01*
G75*
G03X-12550Y-203949I51J1D01*
G74*
G01*
X-12451Y-203949D01*
G75*
G03X-12400Y-203893I1J49D01*
G74*
G01*
X-12400Y-202999D01*
G75*
G03X-12451Y-202951I-50J-1D01*
G74*
G01*
G37*
G36*
X-12451Y-206050D02*
X-12550Y-206050D01*
G75*
G03X-12601Y-206098I0J-49D01*
G74*
G01*
X-12601Y-207000D01*
G75*
G03X-12550Y-207048I51J1D01*
G74*
G01*
X-12451Y-207048D01*
G75*
G03X-12400Y-206992I1J49D01*
G74*
G01*
X-12400Y-206098D01*
G75*
G03X-12451Y-206050I-50J-1D01*
G74*
G01*
G37*
G36*
X-9540Y-33749D02*
X-9860Y-33749D01*
G75*
G03X-10030Y-33914I3J-173D01*
G74*
G01*
G75*
G03X-10030Y-33919I50J1D01*
G74*
G01*
X-10030Y-34199D01*
G75*
G03X-10030Y-34206I76J-4D01*
G74*
G01*
X-10030Y-34211D01*
G75*
G03X-10030Y-34219I50J-1D01*
G74*
G01*
G75*
G03X-9370Y-34204I331J-1D01*
G74*
G01*
G75*
G03X-9370Y-34199I-50J-2D01*
G74*
G01*
X-9370Y-33919D01*
G75*
G03X-9370Y-33912I-75J4D01*
G74*
G01*
G75*
G03X-9540Y-33749I-170J-8D01*
G74*
G01*
G37*
G36*
X-10340Y-33749D02*
X-10660Y-33749D01*
G75*
G03X-10831Y-33914I3J-173D01*
G74*
G01*
G75*
G03X-10831Y-33919I51J1D01*
G74*
G01*
X-10831Y-34199D01*
G75*
G03X-10831Y-34206I76J-4D01*
G74*
G01*
X-10831Y-34211D01*
G75*
G03X-10831Y-34219I51J-1D01*
G74*
G01*
G75*
G03X-10170Y-34204I331J-1D01*
G74*
G01*
G75*
G03X-10170Y-34199I-50J-2D01*
G74*
G01*
X-10170Y-33919D01*
G75*
G03X-10170Y-33912I-75J4D01*
G74*
G01*
G75*
G03X-10340Y-33749I-170J-8D01*
G74*
G01*
G37*
G36*
X-11140Y-33749D02*
X-11460Y-33749D01*
G75*
G03X-11631Y-33914I3J-173D01*
G74*
G01*
G75*
G03X-11631Y-33919I50J1D01*
G74*
G01*
X-11631Y-34199D01*
G75*
G03X-11631Y-34206I75J-4D01*
G74*
G01*
X-11631Y-34211D01*
G75*
G03X-11631Y-34219I50J-1D01*
G74*
G01*
G75*
G03X-10970Y-34204I330J-1D01*
G74*
G01*
G75*
G03X-10970Y-34199I-51J-2D01*
G74*
G01*
X-10970Y-33919D01*
G75*
G03X-10970Y-33912I-76J4D01*
G74*
G01*
G75*
G03X-11140Y-33749I-171J-8D01*
G74*
G01*
G37*
G36*
X-11941Y-33749D02*
X-12261Y-33749D01*
G75*
G03X-12431Y-33914I3J-174D01*
G74*
G01*
G75*
G03X-12431Y-33919I51J1D01*
G74*
G01*
X-12431Y-34199D01*
G75*
G03X-12431Y-34206I76J-4D01*
G74*
G01*
X-12431Y-34211D01*
G75*
G03X-12431Y-34219I51J-1D01*
G74*
G01*
G75*
G03X-11770Y-34204I331J-1D01*
G74*
G01*
G75*
G03X-11770Y-34199I-50J-2D01*
G74*
G01*
X-11770Y-33919D01*
G75*
G03X-11770Y-33912I-75J4D01*
G74*
G01*
G75*
G03X-11941Y-33749I-170J-8D01*
G74*
G01*
G37*
G36*
X-14341Y-33749D02*
X-14661Y-33749D01*
G75*
G03X-14831Y-33914I3J-174D01*
G74*
G01*
G75*
G03X-14831Y-33919I51J1D01*
G74*
G01*
X-14831Y-34199D01*
G75*
G03X-14831Y-34206I77J-4D01*
G74*
G01*
X-14831Y-34211D01*
G75*
G03X-14831Y-34219I51J-1D01*
G74*
G01*
G75*
G03X-14171Y-34204I331J-1D01*
G74*
G01*
G75*
G03X-14171Y-34199I-49J-2D01*
G74*
G01*
X-14171Y-33919D01*
G75*
G03X-14171Y-33912I-74J4D01*
G74*
G01*
G75*
G03X-14341Y-33749I-169J-8D01*
G74*
G01*
G37*
G36*
X-15141Y-33749D02*
X-15461Y-33749D01*
G75*
G03X-15631Y-33914I3J-173D01*
G74*
G01*
G75*
G03X-15631Y-33919I50J1D01*
G74*
G01*
X-15631Y-34199D01*
G75*
G03X-15631Y-34206I76J-4D01*
G74*
G01*
X-15631Y-34211D01*
G75*
G03X-15631Y-34219I50J-1D01*
G74*
G01*
G75*
G03X-14971Y-34204I330J-1D01*
G74*
G01*
G75*
G03X-14971Y-34199I-50J-2D01*
G74*
G01*
X-14971Y-33919D01*
G75*
G03X-14971Y-33912I-76J4D01*
G74*
G01*
G75*
G03X-15141Y-33749I-170J-8D01*
G74*
G01*
G37*
G36*
X-9540Y-89050D02*
X-9860Y-89050D01*
G75*
G03X-10030Y-89212I2J-173D01*
G74*
G01*
G75*
G03X-10030Y-89220I50J0D01*
G74*
G01*
X-10030Y-89497D01*
G75*
G03X-10030Y-89507I101J-5D01*
G74*
G01*
G75*
G03X-10030Y-89512I50J0D01*
G74*
G01*
G75*
G03X-10030Y-89517I50J1D01*
G74*
G01*
G75*
G03X-9370Y-89502I331J-2D01*
G74*
G01*
G75*
G03X-9370Y-89497I-50J-3D01*
G74*
G01*
X-9370Y-89220D01*
G75*
G03X-9370Y-89210I-67J5D01*
G74*
G01*
G75*
G03X-9540Y-89050I-170J-9D01*
G74*
G01*
G37*
G36*
X-10340Y-89050D02*
X-10660Y-89050D01*
G75*
G03X-10831Y-89212I2J-173D01*
G74*
G01*
G75*
G03X-10831Y-89220I51J0D01*
G74*
G01*
X-10831Y-89497D01*
G75*
G03X-10831Y-89507I101J-5D01*
G74*
G01*
G75*
G03X-10831Y-89512I51J0D01*
G74*
G01*
G75*
G03X-10831Y-89517I51J1D01*
G74*
G01*
G75*
G03X-10170Y-89502I331J-2D01*
G74*
G01*
G75*
G03X-10170Y-89497I-50J-3D01*
G74*
G01*
X-10170Y-89220D01*
G75*
G03X-10170Y-89210I-67J5D01*
G74*
G01*
G75*
G03X-10340Y-89050I-170J-9D01*
G74*
G01*
G37*
G36*
X-11140Y-89050D02*
X-11460Y-89050D01*
G75*
G03X-11631Y-89212I2J-172D01*
G74*
G01*
G75*
G03X-11631Y-89220I50J0D01*
G74*
G01*
X-11631Y-89497D01*
G75*
G03X-11631Y-89507I100J-5D01*
G74*
G01*
G75*
G03X-11631Y-89512I50J0D01*
G74*
G01*
G75*
G03X-11631Y-89517I50J1D01*
G74*
G01*
G75*
G03X-10970Y-89502I330J-2D01*
G74*
G01*
G75*
G03X-10970Y-89497I-51J-3D01*
G74*
G01*
X-10970Y-89220D01*
G75*
G03X-10970Y-89210I-68J5D01*
G74*
G01*
G75*
G03X-11140Y-89050I-171J-9D01*
G74*
G01*
G37*
G36*
X-11941Y-89050D02*
X-12261Y-89050D01*
G75*
G03X-12431Y-89212I2J-173D01*
G74*
G01*
G75*
G03X-12431Y-89220I51J0D01*
G74*
G01*
X-12431Y-89497D01*
G75*
G03X-12431Y-89507I102J-5D01*
G74*
G01*
G75*
G03X-12431Y-89512I51J0D01*
G74*
G01*
G75*
G03X-12431Y-89517I51J1D01*
G74*
G01*
G75*
G03X-11770Y-89502I331J-2D01*
G74*
G01*
G75*
G03X-11770Y-89497I-50J-3D01*
G74*
G01*
X-11770Y-89220D01*
G75*
G03X-11770Y-89210I-66J5D01*
G74*
G01*
G75*
G03X-11941Y-89050I-170J-9D01*
G74*
G01*
G37*
G36*
X-14341Y-89050D02*
X-14661Y-89050D01*
G75*
G03X-14831Y-89212I2J-173D01*
G74*
G01*
G75*
G03X-14831Y-89220I51J0D01*
G74*
G01*
X-14831Y-89497D01*
G75*
G03X-14831Y-89507I102J-5D01*
G74*
G01*
G75*
G03X-14831Y-89512I51J0D01*
G74*
G01*
G75*
G03X-14831Y-89517I51J1D01*
G74*
G01*
G75*
G03X-14171Y-89502I331J-2D01*
G74*
G01*
G75*
G03X-14171Y-89497I-49J-3D01*
G74*
G01*
X-14171Y-89220D01*
G75*
G03X-14171Y-89210I-66J5D01*
G74*
G01*
G75*
G03X-14341Y-89050I-169J-9D01*
G74*
G01*
G37*
G36*
X-15141Y-89050D02*
X-15461Y-89050D01*
G75*
G03X-15631Y-89212I2J-172D01*
G74*
G01*
G75*
G03X-15631Y-89220I50J0D01*
G74*
G01*
X-15631Y-89497D01*
G75*
G03X-15631Y-89507I101J-5D01*
G74*
G01*
G75*
G03X-15631Y-89512I50J0D01*
G74*
G01*
G75*
G03X-15631Y-89517I50J1D01*
G74*
G01*
G75*
G03X-14971Y-89502I330J-2D01*
G74*
G01*
G75*
G03X-14971Y-89497I-50J-3D01*
G74*
G01*
X-14971Y-89220D01*
G75*
G03X-14971Y-89210I-67J5D01*
G74*
G01*
G75*
G03X-15141Y-89050I-170J-9D01*
G74*
G01*
G37*
G36*
X-9540Y-144351D02*
X-9860Y-144351D01*
G75*
G03X-10030Y-144513I2J-173D01*
G74*
G01*
G75*
G03X-10030Y-144521I50J0D01*
G74*
G01*
X-10030Y-144798D01*
G75*
G03X-10030Y-144808I101J-5D01*
G74*
G01*
G75*
G03X-10030Y-144813I50J0D01*
G74*
G01*
G75*
G03X-10030Y-144818I50J1D01*
G74*
G01*
G75*
G03X-9370Y-144803I331J-2D01*
G74*
G01*
G75*
G03X-9370Y-144798I-50J-3D01*
G74*
G01*
X-9370Y-144521D01*
G75*
G03X-9370Y-144511I-67J5D01*
G74*
G01*
G75*
G03X-9540Y-144351I-170J-9D01*
G74*
G01*
G37*
G36*
X-10340Y-144351D02*
X-10660Y-144351D01*
G75*
G03X-10831Y-144513I2J-173D01*
G74*
G01*
G75*
G03X-10831Y-144521I51J0D01*
G74*
G01*
X-10831Y-144798D01*
G75*
G03X-10831Y-144808I101J-5D01*
G74*
G01*
G75*
G03X-10831Y-144813I51J0D01*
G74*
G01*
G75*
G03X-10831Y-144818I51J1D01*
G74*
G01*
G75*
G03X-10170Y-144803I331J-2D01*
G74*
G01*
G75*
G03X-10170Y-144798I-50J-3D01*
G74*
G01*
X-10170Y-144521D01*
G75*
G03X-10170Y-144511I-67J5D01*
G74*
G01*
G75*
G03X-10340Y-144351I-170J-9D01*
G74*
G01*
G37*
G36*
X-11140Y-144351D02*
X-11460Y-144351D01*
G75*
G03X-11631Y-144513I2J-172D01*
G74*
G01*
G75*
G03X-11631Y-144521I50J0D01*
G74*
G01*
X-11631Y-144798D01*
G75*
G03X-11631Y-144808I100J-5D01*
G74*
G01*
G75*
G03X-11631Y-144813I50J0D01*
G74*
G01*
G75*
G03X-11631Y-144818I50J1D01*
G74*
G01*
G75*
G03X-10970Y-144803I330J-2D01*
G74*
G01*
G75*
G03X-10970Y-144798I-51J-3D01*
G74*
G01*
X-10970Y-144521D01*
G75*
G03X-10970Y-144511I-68J5D01*
G74*
G01*
G75*
G03X-11140Y-144351I-171J-9D01*
G74*
G01*
G37*
G36*
X-11941Y-144351D02*
X-12261Y-144351D01*
G75*
G03X-12431Y-144513I2J-173D01*
G74*
G01*
G75*
G03X-12431Y-144521I51J0D01*
G74*
G01*
X-12431Y-144798D01*
G75*
G03X-12431Y-144808I102J-5D01*
G74*
G01*
G75*
G03X-12431Y-144813I51J0D01*
G74*
G01*
G75*
G03X-12431Y-144818I51J1D01*
G74*
G01*
G75*
G03X-11770Y-144803I331J-2D01*
G74*
G01*
G75*
G03X-11770Y-144798I-50J-3D01*
G74*
G01*
X-11770Y-144521D01*
G75*
G03X-11770Y-144511I-66J5D01*
G74*
G01*
G75*
G03X-11941Y-144351I-170J-9D01*
G74*
G01*
G37*
G36*
X-14341Y-144351D02*
X-14661Y-144351D01*
G75*
G03X-14831Y-144513I2J-173D01*
G74*
G01*
G75*
G03X-14831Y-144521I51J0D01*
G74*
G01*
X-14831Y-144798D01*
G75*
G03X-14831Y-144808I102J-5D01*
G74*
G01*
G75*
G03X-14831Y-144813I51J0D01*
G74*
G01*
G75*
G03X-14831Y-144818I51J1D01*
G74*
G01*
G75*
G03X-14171Y-144803I331J-2D01*
G74*
G01*
G75*
G03X-14171Y-144798I-49J-3D01*
G74*
G01*
X-14171Y-144521D01*
G75*
G03X-14171Y-144511I-66J5D01*
G74*
G01*
G75*
G03X-14341Y-144351I-169J-9D01*
G74*
G01*
G37*
G36*
X-15141Y-144351D02*
X-15461Y-144351D01*
G75*
G03X-15631Y-144513I2J-172D01*
G74*
G01*
G75*
G03X-15631Y-144521I50J0D01*
G74*
G01*
X-15631Y-144798D01*
G75*
G03X-15631Y-144808I101J-5D01*
G74*
G01*
G75*
G03X-15631Y-144813I50J0D01*
G74*
G01*
G75*
G03X-15631Y-144818I50J1D01*
G74*
G01*
G75*
G03X-14971Y-144803I330J-2D01*
G74*
G01*
G75*
G03X-14971Y-144798I-50J-3D01*
G74*
G01*
X-14971Y-144521D01*
G75*
G03X-14971Y-144511I-67J5D01*
G74*
G01*
G75*
G03X-15141Y-144351I-170J-9D01*
G74*
G01*
G37*
G36*
X-9540Y-199649D02*
X-9860Y-199649D01*
G75*
G03X-10030Y-199812I1J-172D01*
G74*
G01*
G75*
G03X-10030Y-199819I50J0D01*
G74*
G01*
X-10030Y-200096D01*
G75*
G03X-10030Y-200106I68J-5D01*
G74*
G01*
G75*
G03X-10030Y-200111I50J-1D01*
G74*
G01*
G75*
G03X-10030Y-200119I50J0D01*
G74*
G01*
G75*
G03X-9370Y-200104I331J0D01*
G74*
G01*
G75*
G03X-9370Y-200099I-50J-1D01*
G74*
G01*
X-9370Y-199819D01*
G75*
G03X-9370Y-199812I-50J0D01*
G74*
G01*
G75*
G03X-9540Y-199649I-170J-7D01*
G74*
G01*
G37*
G36*
X-10340Y-199649D02*
X-10660Y-199649D01*
G75*
G03X-10831Y-199812I1J-172D01*
G74*
G01*
G75*
G03X-10831Y-199819I51J0D01*
G74*
G01*
X-10831Y-200096D01*
G75*
G03X-10831Y-200106I68J-5D01*
G74*
G01*
G75*
G03X-10831Y-200111I51J-1D01*
G74*
G01*
G75*
G03X-10831Y-200119I51J0D01*
G74*
G01*
G75*
G03X-10170Y-200104I331J0D01*
G74*
G01*
G75*
G03X-10170Y-200099I-50J-1D01*
G74*
G01*
X-10170Y-199819D01*
G75*
G03X-10170Y-199812I-50J0D01*
G74*
G01*
G75*
G03X-10340Y-199649I-170J-7D01*
G74*
G01*
G37*
G36*
X-11140Y-199649D02*
X-11460Y-199649D01*
G75*
G03X-11631Y-199812I1J-171D01*
G74*
G01*
G75*
G03X-11631Y-199819I50J0D01*
G74*
G01*
X-11631Y-200096D01*
G75*
G03X-11631Y-200106I66J-5D01*
G74*
G01*
G75*
G03X-11631Y-200111I50J-1D01*
G74*
G01*
G75*
G03X-11631Y-200119I50J0D01*
G74*
G01*
G75*
G03X-10970Y-200104I330J0D01*
G74*
G01*
G75*
G03X-10970Y-200099I-51J-1D01*
G74*
G01*
X-10970Y-199819D01*
G75*
G03X-10970Y-199812I-51J0D01*
G74*
G01*
G75*
G03X-11140Y-199649I-171J-7D01*
G74*
G01*
G37*
G36*
X-11941Y-199649D02*
X-12261Y-199649D01*
G75*
G03X-12431Y-199812I1J-172D01*
G74*
G01*
G75*
G03X-12431Y-199819I51J0D01*
G74*
G01*
X-12431Y-200096D01*
G75*
G03X-12431Y-200106I68J-5D01*
G74*
G01*
G75*
G03X-12431Y-200111I51J-1D01*
G74*
G01*
G75*
G03X-12431Y-200119I51J0D01*
G74*
G01*
G75*
G03X-11770Y-200104I331J0D01*
G74*
G01*
G75*
G03X-11770Y-200099I-50J-1D01*
G74*
G01*
X-11770Y-199819D01*
G75*
G03X-11770Y-199812I-50J0D01*
G74*
G01*
G75*
G03X-11941Y-199649I-170J-7D01*
G74*
G01*
G37*
G36*
X-14341Y-199649D02*
X-14661Y-199649D01*
G75*
G03X-14831Y-199812I1J-172D01*
G74*
G01*
G75*
G03X-14831Y-199819I51J0D01*
G74*
G01*
X-14831Y-200096D01*
G75*
G03X-14831Y-200106I68J-5D01*
G74*
G01*
G75*
G03X-14831Y-200111I51J-1D01*
G74*
G01*
G75*
G03X-14831Y-200119I51J0D01*
G74*
G01*
G75*
G03X-14171Y-200104I331J0D01*
G74*
G01*
G75*
G03X-14171Y-200099I-49J-1D01*
G74*
G01*
X-14171Y-199819D01*
G75*
G03X-14171Y-199812I-49J0D01*
G74*
G01*
G75*
G03X-14341Y-199649I-169J-7D01*
G74*
G01*
G37*
G36*
X-15141Y-199649D02*
X-15461Y-199649D01*
G75*
G03X-15631Y-199812I1J-171D01*
G74*
G01*
G75*
G03X-15631Y-199819I50J0D01*
G74*
G01*
X-15631Y-200096D01*
G75*
G03X-15631Y-200106I67J-5D01*
G74*
G01*
G75*
G03X-15631Y-200111I50J-1D01*
G74*
G01*
G75*
G03X-15631Y-200119I50J0D01*
G74*
G01*
G75*
G03X-14971Y-200104I330J0D01*
G74*
G01*
G75*
G03X-14971Y-200099I-50J-1D01*
G74*
G01*
X-14971Y-199819D01*
G75*
G03X-14971Y-199812I-50J0D01*
G74*
G01*
G75*
G03X-15141Y-199649I-170J-7D01*
G74*
G01*
G37*
G36*
X-12741Y-33749D02*
X-13061Y-33749D01*
G75*
G03X-13228Y-33899I1J-171D01*
G74*
G01*
G75*
G03X-13231Y-33914I72J-20D01*
G74*
G01*
X-13231Y-33919D01*
X-13231Y-34221D01*
G75*
G03X-13228Y-34234I51J0D01*
G74*
G01*
G75*
G03X-13228Y-34242I76J-4D01*
G74*
G01*
G75*
G03X-12570Y-34219I329J22D01*
G74*
G01*
G75*
G03X-12570Y-34211I-50J0D01*
G74*
G01*
G75*
G03X-12570Y-34191I-49J9D01*
G74*
G01*
G75*
G03X-12570Y-34183I-50J0D01*
G74*
G01*
X-12570Y-33919D01*
G75*
G03X-12741Y-33749I-170J-1D01*
G74*
G01*
G37*
G36*
X-12741Y-89050D02*
X-13061Y-89050D01*
G75*
G03X-13228Y-89200I2J-171D01*
G74*
G01*
G75*
G03X-13231Y-89215I96J-24D01*
G74*
G01*
G75*
G03X-13231Y-89220I51J4D01*
G74*
G01*
X-13231Y-89520D01*
G75*
G03X-13228Y-89532I51J0D01*
G74*
G01*
G75*
G03X-13228Y-89540I76J-4D01*
G74*
G01*
G75*
G03X-12570Y-89517I329J21D01*
G74*
G01*
G75*
G03X-12570Y-89510I-75J4D01*
G74*
G01*
G75*
G03X-12570Y-89489I-49J9D01*
G74*
G01*
G75*
G03X-12570Y-89484I-50J-1D01*
G74*
G01*
X-12570Y-89220D01*
G75*
G03X-12741Y-89050I-170J1D01*
G74*
G01*
G37*
G36*
X-12741Y-144351D02*
X-13061Y-144351D01*
G75*
G03X-13228Y-144501I2J-171D01*
G74*
G01*
G75*
G03X-13231Y-144516I96J-24D01*
G74*
G01*
G75*
G03X-13231Y-144521I51J4D01*
G74*
G01*
X-13231Y-144821D01*
G75*
G03X-13228Y-144833I51J0D01*
G74*
G01*
G75*
G03X-13228Y-144841I76J-4D01*
G74*
G01*
G75*
G03X-12570Y-144818I329J21D01*
G74*
G01*
G75*
G03X-12570Y-144810I-75J4D01*
G74*
G01*
G75*
G03X-12570Y-144790I-49J8D01*
G74*
G01*
G75*
G03X-12570Y-144785I-50J-1D01*
G74*
G01*
X-12570Y-144521D01*
G75*
G03X-12741Y-144351I-170J1D01*
G74*
G01*
G37*
G36*
X-12741Y-199649D02*
X-13061Y-199649D01*
G75*
G03X-13228Y-199799I1J-170D01*
G74*
G01*
G75*
G03X-13231Y-199814I97J-24D01*
G74*
G01*
G75*
G03X-13231Y-199819I51J3D01*
G74*
G01*
X-13231Y-200119D01*
G75*
G03X-13228Y-200137I70J1D01*
G74*
G01*
G75*
G03X-13228Y-200142I50J-1D01*
G74*
G01*
G75*
G03X-12570Y-200119I329J23D01*
G74*
G01*
G75*
G03X-12570Y-200109I-66J5D01*
G74*
G01*
G75*
G03X-12570Y-200089I-56J10D01*
G74*
G01*
G75*
G03X-12570Y-200083I-50J-2D01*
G74*
G01*
X-12570Y-199819D01*
G75*
G03X-12741Y-199649I-170J0D01*
G74*
G01*
G37*
G36*
X-13541Y-33749D02*
X-13861Y-33749D01*
G75*
G03X-14031Y-33914I3J-174D01*
G74*
G01*
G75*
G03X-14031Y-33919I51J1D01*
G74*
G01*
X-14031Y-34183D01*
G75*
G03X-14031Y-34191I51J0D01*
G74*
G01*
X-14031Y-34196D01*
G75*
G03X-14031Y-34201I51J1D01*
G74*
G01*
G75*
G03X-14031Y-34214I48J-6D01*
G74*
G01*
G75*
G02X-14028Y-34219I-29J-9D01*
G74*
G01*
G75*
G03X-14031Y-34239I46J-18D01*
G74*
G01*
G75*
G03X-13371Y-34219I329J19D01*
G74*
G01*
X-13371Y-33919D01*
G75*
G03X-13371Y-33912I-76J4D01*
G74*
G01*
G75*
G03X-13541Y-33749I-170J-8D01*
G74*
G01*
G37*
G36*
X-13541Y-89050D02*
X-13861Y-89050D01*
G75*
G03X-14031Y-89212I2J-173D01*
G74*
G01*
G75*
G03X-14031Y-89220I51J0D01*
G74*
G01*
X-14031Y-89482D01*
G75*
G03X-14031Y-89494I85J-6D01*
G74*
G01*
G75*
G03X-14031Y-89502I51J0D01*
G74*
G01*
G75*
G03X-14031Y-89512I48J-5D01*
G74*
G01*
G75*
G02X-14028Y-89517I-29J-10D01*
G74*
G01*
G75*
G03X-14031Y-89540I46J-19D01*
G74*
G01*
G75*
G03X-13371Y-89517I329J21D01*
G74*
G01*
X-13371Y-89220D01*
G75*
G03X-13371Y-89210I-67J5D01*
G74*
G01*
G75*
G03X-13541Y-89050I-170J-9D01*
G74*
G01*
G37*
G36*
X-13541Y-144351D02*
X-13861Y-144351D01*
G75*
G03X-14031Y-144513I2J-173D01*
G74*
G01*
G75*
G03X-14031Y-144521I51J0D01*
G74*
G01*
X-14031Y-144783D01*
G75*
G03X-14031Y-144795I85J-6D01*
G74*
G01*
G75*
G03X-14031Y-144803I51J0D01*
G74*
G01*
G75*
G03X-14031Y-144813I48J-5D01*
G74*
G01*
G75*
G02X-14028Y-144818I-29J-10D01*
G74*
G01*
G75*
G03X-14031Y-144841I46J-19D01*
G74*
G01*
G75*
G03X-13371Y-144818I329J21D01*
G74*
G01*
X-13371Y-144521D01*
G75*
G03X-13371Y-144511I-67J5D01*
G74*
G01*
G75*
G03X-13541Y-144351I-170J-9D01*
G74*
G01*
G37*
G36*
X-13541Y-199649D02*
X-13861Y-199649D01*
G75*
G03X-14031Y-199812I1J-172D01*
G74*
G01*
G75*
G03X-14031Y-199819I51J0D01*
G74*
G01*
X-14031Y-200081D01*
G75*
G03X-14031Y-200094I85J-6D01*
G74*
G01*
G75*
G03X-14031Y-200101I51J0D01*
G74*
G01*
G75*
G03X-14031Y-200114I60J-6D01*
G74*
G01*
X-14028Y-200119D01*
G75*
G03X-14031Y-200139I46J-17D01*
G74*
G01*
G75*
G03X-13371Y-200119I329J20D01*
G74*
G01*
X-13371Y-199819D01*
G75*
G03X-13371Y-199812I-50J0D01*
G74*
G01*
G75*
G03X-13541Y-199649I-170J-7D01*
G74*
G01*
G37*
G36*
X-10569Y-34897D02*
G75*
G03X-11229Y-34887I-331J-23D01*
G74*
G01*
G75*
G03X-11229Y-34902I59J-8D01*
G74*
G01*
G75*
G03X-11229Y-34915I83J-6D01*
G74*
G01*
G75*
G03X-11229Y-34920I49J-4D01*
G74*
G01*
X-11229Y-35212D01*
G75*
G03X-11229Y-35220I49J-1D01*
G74*
G01*
G75*
G03X-11059Y-35390I169J0D01*
G74*
G01*
X-10739Y-35390D01*
X-10721Y-35390D01*
G75*
G03X-10569Y-35220I-19J170D01*
G74*
G01*
G75*
G03X-10569Y-35212I-51J0D01*
G74*
G01*
X-10569Y-34917D01*
G75*
G02X-10569Y-34910I33J3D01*
G74*
G01*
G75*
G03X-10569Y-34897I-50J8D01*
G74*
G01*
G37*
G36*
X-12969Y-34897D02*
G75*
G03X-13630Y-34887I-331J-23D01*
G74*
G01*
G75*
G03X-13630Y-34902I60J-8D01*
G74*
G01*
G75*
G03X-13630Y-34915I83J-6D01*
G74*
G01*
G75*
G03X-13630Y-34920I50J-4D01*
G74*
G01*
X-13630Y-35212D01*
G75*
G03X-13630Y-35220I50J-1D01*
G74*
G01*
G75*
G03X-13459Y-35390I170J0D01*
G74*
G01*
X-13139Y-35390D01*
X-13122Y-35390D01*
G75*
G03X-12969Y-35220I-18J170D01*
G74*
G01*
G75*
G03X-12969Y-35212I-51J0D01*
G74*
G01*
X-12969Y-34917D01*
G75*
G02X-12969Y-34910I33J3D01*
G74*
G01*
G75*
G03X-12969Y-34897I-50J8D01*
G74*
G01*
G37*
G36*
X-14569Y-34897D02*
G75*
G03X-15230Y-34887I-330J-23D01*
G74*
G01*
G75*
G03X-15230Y-34902I60J-8D01*
G74*
G01*
G75*
G03X-15230Y-34915I83J-6D01*
G74*
G01*
G75*
G03X-15230Y-34920I50J-4D01*
G74*
G01*
X-15230Y-35212D01*
G75*
G03X-15230Y-35220I50J-1D01*
G74*
G01*
G75*
G03X-15060Y-35390I170J0D01*
G74*
G01*
X-14740Y-35390D01*
X-14722Y-35390D01*
G75*
G03X-14569Y-35220I-18J170D01*
G74*
G01*
G75*
G03X-14569Y-35212I-51J0D01*
G74*
G01*
X-14569Y-34917D01*
G75*
G02X-14569Y-34910I33J3D01*
G74*
G01*
G75*
G03X-14569Y-34897I-50J8D01*
G74*
G01*
G37*
G36*
X-13769Y-34897D02*
G75*
G03X-14430Y-34889I-331J-24D01*
G74*
G01*
G75*
G03X-14430Y-34905I60J-8D01*
G74*
G01*
G75*
G03X-14430Y-34912I75J-4D01*
G74*
G01*
G75*
G02X-14430Y-34920I-43J-4D01*
G74*
G01*
X-14430Y-35215D01*
G75*
G03X-14430Y-35222I75J-4D01*
G74*
G01*
G75*
G03X-14260Y-35390I170J1D01*
G74*
G01*
X-13940Y-35390D01*
X-13922Y-35390D01*
G75*
G03X-13769Y-35222I-18J169D01*
G74*
G01*
G75*
G03X-13769Y-35215I-51J1D01*
G74*
G01*
X-13769Y-34917D01*
G75*
G02X-13769Y-34912I33J2D01*
G74*
G01*
G75*
G03X-13769Y-34897I-50J9D01*
G74*
G01*
G37*
G36*
X-9769Y-34897D02*
G75*
G03X-10429Y-34889I-331J-24D01*
G74*
G01*
G75*
G03X-10429Y-34905I59J-8D01*
G74*
G01*
G75*
G03X-10429Y-34912I74J-4D01*
G74*
G01*
G75*
G02X-10429Y-34920I-44J-4D01*
G74*
G01*
X-10429Y-35215D01*
G75*
G03X-10429Y-35222I74J-4D01*
G74*
G01*
G75*
G03X-10259Y-35390I169J1D01*
G74*
G01*
X-9939Y-35390D01*
X-9921Y-35390D01*
G75*
G03X-9769Y-35222I-19J169D01*
G74*
G01*
G75*
G03X-9769Y-35215I-51J1D01*
G74*
G01*
X-9769Y-34917D01*
G75*
G02X-9769Y-34912I33J2D01*
G74*
G01*
G75*
G03X-9769Y-34897I-50J9D01*
G74*
G01*
G37*
G36*
X-10569Y-90195D02*
G75*
G03X-11229Y-90188I-331J-24D01*
G74*
G01*
G75*
G03X-11229Y-90203I74J-8D01*
G74*
G01*
G75*
G03X-11229Y-90211I74J-4D01*
G74*
G01*
G75*
G02X-11229Y-90218I-43J-4D01*
G74*
G01*
X-11229Y-90513D01*
G75*
G03X-11229Y-90518I49J1D01*
G74*
G01*
G75*
G03X-11059Y-90688I169J-1D01*
G74*
G01*
X-10739Y-90688D01*
X-10721Y-90688D01*
G75*
G03X-10569Y-90518I-19J169D01*
G74*
G01*
G75*
G03X-10569Y-90513I-51J-1D01*
G74*
G01*
X-10569Y-90216D01*
G75*
G02X-10569Y-90211I33J3D01*
G74*
G01*
G75*
G03X-10569Y-90195I-50J10D01*
G74*
G01*
G37*
G36*
X-12969Y-90195D02*
G75*
G03X-13630Y-90188I-331J-24D01*
G74*
G01*
G75*
G03X-13630Y-90203I74J-8D01*
G74*
G01*
G75*
G03X-13630Y-90211I75J-4D01*
G74*
G01*
G75*
G02X-13630Y-90218I-43J-4D01*
G74*
G01*
X-13630Y-90513D01*
G75*
G03X-13630Y-90518I50J1D01*
G74*
G01*
G75*
G03X-13459Y-90688I170J-1D01*
G74*
G01*
X-13139Y-90688D01*
X-13122Y-90688D01*
G75*
G03X-12969Y-90518I-18J169D01*
G74*
G01*
G75*
G03X-12969Y-90513I-51J-1D01*
G74*
G01*
X-12969Y-90216D01*
G75*
G02X-12969Y-90211I33J3D01*
G74*
G01*
G75*
G03X-12969Y-90195I-50J10D01*
G74*
G01*
G37*
G36*
X-14569Y-90195D02*
G75*
G03X-15230Y-90188I-330J-24D01*
G74*
G01*
G75*
G03X-15230Y-90203I75J-8D01*
G74*
G01*
G75*
G03X-15230Y-90211I75J-4D01*
G74*
G01*
G75*
G02X-15230Y-90218I-43J-4D01*
G74*
G01*
X-15230Y-90513D01*
G75*
G03X-15230Y-90518I50J1D01*
G74*
G01*
G75*
G03X-15060Y-90688I170J-1D01*
G74*
G01*
X-14740Y-90688D01*
X-14722Y-90688D01*
G75*
G03X-14569Y-90518I-18J169D01*
G74*
G01*
G75*
G03X-14569Y-90513I-51J-1D01*
G74*
G01*
X-14569Y-90216D01*
G75*
G02X-14569Y-90211I33J3D01*
G74*
G01*
G75*
G03X-14569Y-90195I-50J10D01*
G74*
G01*
G37*
G36*
X-13769Y-90195D02*
G75*
G03X-14430Y-90188I-331J-25D01*
G74*
G01*
G75*
G03X-14430Y-90203I60J-8D01*
G74*
G01*
G75*
G03X-14430Y-90213I67J-5D01*
G74*
G01*
X-14430Y-90218D01*
X-14430Y-90513D01*
G75*
G03X-14430Y-90521I75J-4D01*
G74*
G01*
G75*
G03X-14260Y-90691I170J1D01*
G74*
G01*
X-13940Y-90691D01*
X-13922Y-90688D01*
G75*
G03X-13769Y-90521I-18J168D01*
G74*
G01*
G75*
G03X-13769Y-90513I-51J1D01*
G74*
G01*
X-13769Y-90218D01*
G75*
G02X-13769Y-90211I33J4D01*
G74*
G01*
G75*
G03X-13769Y-90195I-60J8D01*
G74*
G01*
G37*
G36*
X-9769Y-90195D02*
G75*
G03X-10429Y-90188I-331J-25D01*
G74*
G01*
G75*
G03X-10429Y-90203I59J-8D01*
G74*
G01*
G75*
G03X-10429Y-90213I66J-5D01*
G74*
G01*
X-10429Y-90218D01*
X-10429Y-90513D01*
G75*
G03X-10429Y-90521I74J-4D01*
G74*
G01*
G75*
G03X-10259Y-90691I169J1D01*
G74*
G01*
X-9939Y-90691D01*
X-9921Y-90688D01*
G75*
G03X-9769Y-90521I-19J168D01*
G74*
G01*
G75*
G03X-9769Y-90513I-51J1D01*
G74*
G01*
X-9769Y-90218D01*
G75*
G02X-9769Y-90211I33J4D01*
G74*
G01*
G75*
G03X-9769Y-90195I-60J8D01*
G74*
G01*
G37*
G36*
X-10569Y-145496D02*
G75*
G03X-11229Y-145489I-331J-24D01*
G74*
G01*
G75*
G03X-11229Y-145504I74J-8D01*
G74*
G01*
G75*
G03X-11229Y-145512I74J-4D01*
G74*
G01*
G75*
G02X-11229Y-145519I-43J-4D01*
G74*
G01*
X-11229Y-145814D01*
G75*
G03X-11229Y-145819I49J1D01*
G74*
G01*
G75*
G03X-11059Y-145989I169J-1D01*
G74*
G01*
X-10739Y-145989D01*
X-10721Y-145989D01*
G75*
G03X-10569Y-145819I-19J169D01*
G74*
G01*
G75*
G03X-10569Y-145814I-51J-1D01*
G74*
G01*
X-10569Y-145517D01*
G75*
G02X-10569Y-145512I33J3D01*
G74*
G01*
G75*
G03X-10569Y-145496I-50J10D01*
G74*
G01*
G37*
G36*
X-12969Y-145496D02*
G75*
G03X-13630Y-145489I-331J-24D01*
G74*
G01*
G75*
G03X-13630Y-145504I74J-8D01*
G74*
G01*
G75*
G03X-13630Y-145512I75J-4D01*
G74*
G01*
G75*
G02X-13630Y-145519I-43J-4D01*
G74*
G01*
X-13630Y-145814D01*
G75*
G03X-13630Y-145819I50J1D01*
G74*
G01*
G75*
G03X-13459Y-145989I170J-1D01*
G74*
G01*
X-13139Y-145989D01*
X-13122Y-145989D01*
G75*
G03X-12969Y-145819I-18J169D01*
G74*
G01*
G75*
G03X-12969Y-145814I-51J-1D01*
G74*
G01*
X-12969Y-145517D01*
G75*
G02X-12969Y-145512I33J3D01*
G74*
G01*
G75*
G03X-12969Y-145496I-50J10D01*
G74*
G01*
G37*
G36*
X-14569Y-145496D02*
G75*
G03X-15230Y-145489I-330J-24D01*
G74*
G01*
G75*
G03X-15230Y-145504I75J-8D01*
G74*
G01*
G75*
G03X-15230Y-145512I75J-4D01*
G74*
G01*
G75*
G02X-15230Y-145519I-43J-4D01*
G74*
G01*
X-15230Y-145814D01*
G75*
G03X-15230Y-145819I50J1D01*
G74*
G01*
G75*
G03X-15060Y-145989I170J-1D01*
G74*
G01*
X-14740Y-145989D01*
X-14722Y-145989D01*
G75*
G03X-14569Y-145819I-18J169D01*
G74*
G01*
G75*
G03X-14569Y-145814I-51J-1D01*
G74*
G01*
X-14569Y-145517D01*
G75*
G02X-14569Y-145512I33J3D01*
G74*
G01*
G75*
G03X-14569Y-145496I-50J10D01*
G74*
G01*
G37*
G36*
X-13769Y-145496D02*
G75*
G03X-14430Y-145489I-331J-25D01*
G74*
G01*
G75*
G03X-14430Y-145504I60J-8D01*
G74*
G01*
G75*
G03X-14430Y-145514I67J-5D01*
G74*
G01*
X-14430Y-145519D01*
X-14430Y-145814D01*
G75*
G03X-14430Y-145821I75J-4D01*
G74*
G01*
G75*
G03X-14260Y-145992I170J0D01*
G74*
G01*
X-13940Y-145992D01*
X-13922Y-145989D01*
G75*
G03X-13769Y-145821I-18J168D01*
G74*
G01*
G75*
G03X-13769Y-145814I-51J0D01*
G74*
G01*
X-13769Y-145519D01*
G75*
G02X-13769Y-145512I33J4D01*
G74*
G01*
G75*
G03X-13769Y-145496I-60J8D01*
G74*
G01*
G37*
G36*
X-9769Y-145496D02*
G75*
G03X-10429Y-145489I-331J-25D01*
G74*
G01*
G75*
G03X-10429Y-145504I59J-8D01*
G74*
G01*
G75*
G03X-10429Y-145514I66J-5D01*
G74*
G01*
X-10429Y-145519D01*
X-10429Y-145814D01*
G75*
G03X-10429Y-145821I74J-4D01*
G74*
G01*
G75*
G03X-10259Y-145992I169J0D01*
G74*
G01*
X-9939Y-145992D01*
X-9921Y-145989D01*
G75*
G03X-9769Y-145821I-19J168D01*
G74*
G01*
G75*
G03X-9769Y-145814I-51J0D01*
G74*
G01*
X-9769Y-145519D01*
G75*
G02X-9769Y-145512I33J4D01*
G74*
G01*
G75*
G03X-9769Y-145496I-60J8D01*
G74*
G01*
G37*
G36*
X-10569Y-200795D02*
G75*
G03X-11229Y-200787I-331J-24D01*
G74*
G01*
G75*
G03X-11229Y-200802I59J-8D01*
G74*
G01*
G75*
G03X-11229Y-200810I49J0D01*
G74*
G01*
G75*
G02X-11229Y-200817I-43J-4D01*
G74*
G01*
X-11229Y-201112D01*
G75*
G03X-11229Y-201120I74J-4D01*
G74*
G01*
G75*
G03X-11059Y-201290I169J1D01*
G74*
G01*
X-10739Y-201290D01*
X-10721Y-201287D01*
G75*
G03X-10569Y-201120I-19J168D01*
G74*
G01*
G75*
G03X-10569Y-201112I-51J1D01*
G74*
G01*
X-10569Y-200815D01*
G75*
G02X-10569Y-200810I33J2D01*
G74*
G01*
G75*
G03X-10569Y-200795I-60J8D01*
G74*
G01*
G37*
G36*
X-12969Y-200795D02*
G75*
G03X-13630Y-200787I-331J-24D01*
G74*
G01*
G75*
G03X-13630Y-200802I60J-8D01*
G74*
G01*
G75*
G03X-13630Y-200810I50J0D01*
G74*
G01*
G75*
G02X-13630Y-200817I-43J-4D01*
G74*
G01*
X-13630Y-201112D01*
G75*
G03X-13630Y-201120I75J-4D01*
G74*
G01*
G75*
G03X-13459Y-201290I170J1D01*
G74*
G01*
X-13139Y-201290D01*
X-13122Y-201287D01*
G75*
G03X-12969Y-201120I-18J168D01*
G74*
G01*
G75*
G03X-12969Y-201112I-51J1D01*
G74*
G01*
X-12969Y-200815D01*
G75*
G02X-12969Y-200810I33J2D01*
G74*
G01*
G75*
G03X-12969Y-200795I-60J8D01*
G74*
G01*
G37*
G36*
X-14569Y-200795D02*
G75*
G03X-15230Y-200787I-330J-24D01*
G74*
G01*
G75*
G03X-15230Y-200802I60J-8D01*
G74*
G01*
G75*
G03X-15230Y-200810I50J0D01*
G74*
G01*
G75*
G02X-15230Y-200817I-43J-4D01*
G74*
G01*
X-15230Y-201112D01*
G75*
G03X-15230Y-201120I75J-4D01*
G74*
G01*
G75*
G03X-15060Y-201290I170J1D01*
G74*
G01*
X-14740Y-201290D01*
X-14722Y-201287D01*
G75*
G03X-14569Y-201120I-18J168D01*
G74*
G01*
G75*
G03X-14569Y-201112I-51J1D01*
G74*
G01*
X-14569Y-200815D01*
G75*
G02X-14569Y-200810I33J2D01*
G74*
G01*
G75*
G03X-14569Y-200795I-60J8D01*
G74*
G01*
G37*
G36*
X-13769Y-200797D02*
G75*
G03X-14430Y-200787I-331J-23D01*
G74*
G01*
G75*
G03X-14430Y-200802I60J-8D01*
G74*
G01*
G75*
G03X-14430Y-200815I83J-6D01*
G74*
G01*
G75*
G03X-14430Y-200820I50J-4D01*
G74*
G01*
X-14430Y-201112D01*
G75*
G03X-14430Y-201120I50J-1D01*
G74*
G01*
G75*
G03X-14260Y-201290I170J0D01*
G74*
G01*
X-13940Y-201290D01*
X-13922Y-201290D01*
G75*
G03X-13769Y-201120I-18J170D01*
G74*
G01*
G75*
G03X-13769Y-201112I-51J0D01*
G74*
G01*
X-13769Y-200817D01*
G75*
G02X-13769Y-200810I33J3D01*
G74*
G01*
G75*
G03X-13769Y-200797I-50J8D01*
G74*
G01*
G37*
G36*
X-9769Y-200797D02*
G75*
G03X-10429Y-200787I-331J-23D01*
G74*
G01*
G75*
G03X-10429Y-200802I59J-8D01*
G74*
G01*
G75*
G03X-10429Y-200815I82J-6D01*
G74*
G01*
G75*
G03X-10429Y-200820I49J-4D01*
G74*
G01*
X-10429Y-201112D01*
G75*
G03X-10429Y-201120I49J-1D01*
G74*
G01*
G75*
G03X-10259Y-201290I169J0D01*
G74*
G01*
X-9939Y-201290D01*
X-9921Y-201290D01*
G75*
G03X-9769Y-201120I-19J170D01*
G74*
G01*
G75*
G03X-9769Y-201112I-51J0D01*
G74*
G01*
X-9769Y-200817D01*
G75*
G02X-9769Y-200810I33J3D01*
G74*
G01*
G75*
G03X-9769Y-200797I-50J8D01*
G74*
G01*
G37*
G36*
X-11374Y-34874D02*
G75*
G03X-12032Y-34905I-327J-48D01*
G74*
G01*
G75*
G03X-12032Y-34910I51J1D01*
G74*
G01*
G75*
G03X-12032Y-34915I51J-1D01*
G74*
G01*
G75*
G03X-12032Y-34925I68J-5D01*
G74*
G01*
G75*
G03X-12032Y-34935I102J-5D01*
G74*
G01*
G75*
G03X-12029Y-34945I51J0D01*
G74*
G01*
G75*
G03X-12029Y-34953I49J0D01*
G74*
G01*
X-12029Y-35212D01*
G75*
G03X-12029Y-35220I49J-1D01*
G74*
G01*
G75*
G03X-11859Y-35390I169J0D01*
G74*
G01*
X-11542Y-35390D01*
X-11524Y-35390D01*
G75*
G03X-11372Y-35220I-17J170D01*
G74*
G01*
X-11372Y-34920D01*
G75*
G03X-11372Y-34910I-66J5D01*
G74*
G01*
G75*
G03X-11372Y-34895I-170J-4D01*
G74*
G01*
G75*
G03X-11374Y-34887I-50J-6D01*
G74*
G01*
G75*
G03X-11374Y-34874I-49J-3D01*
G74*
G01*
G37*
G36*
X-11374Y-90173D02*
G75*
G03X-12032Y-90198I-328J-46D01*
G74*
G01*
G75*
G03X-12032Y-90203I51J-4D01*
G74*
G01*
G75*
G03X-12032Y-90213I102J-5D01*
G74*
G01*
G75*
G03X-12032Y-90223I68J-5D01*
G74*
G01*
G75*
G03X-12032Y-90233I68J-5D01*
G74*
G01*
G75*
G03X-12029Y-90244I51J0D01*
G74*
G01*
G75*
G03X-12029Y-90251I49J0D01*
G74*
G01*
X-12029Y-90508D01*
G75*
G03X-12029Y-90513I49J-1D01*
G74*
G01*
G75*
G03X-12029Y-90518I49J1D01*
G74*
G01*
G75*
G03X-11859Y-90688I169J-1D01*
G74*
G01*
X-11542Y-90688D01*
X-11524Y-90688D01*
G75*
G03X-11372Y-90518I-17J169D01*
G74*
G01*
X-11372Y-90218D01*
G75*
G03X-11372Y-90211I-49J0D01*
G74*
G01*
G75*
G03X-11372Y-90193I-170J-2D01*
G74*
G01*
G75*
G03X-11374Y-90185I-50J-7D01*
G74*
G01*
G75*
G03X-11374Y-90173I-63J6D01*
G74*
G01*
G37*
G36*
X-11374Y-145473D02*
G75*
G03X-12032Y-145499I-328J-47D01*
G74*
G01*
G75*
G03X-12032Y-145504I51J-4D01*
G74*
G01*
G75*
G03X-12032Y-145514I102J-5D01*
G74*
G01*
G75*
G03X-12032Y-145524I68J-5D01*
G74*
G01*
G75*
G03X-12032Y-145534I68J-5D01*
G74*
G01*
G75*
G03X-12029Y-145545I51J-1D01*
G74*
G01*
G75*
G03X-12029Y-145552I49J0D01*
G74*
G01*
X-12029Y-145814D01*
G75*
G03X-12029Y-145819I49J1D01*
G74*
G01*
G75*
G03X-11859Y-145989I169J-1D01*
G74*
G01*
X-11542Y-145989D01*
X-11524Y-145989D01*
G75*
G03X-11372Y-145819I-17J169D01*
G74*
G01*
X-11372Y-145519D01*
G75*
G03X-11372Y-145512I-49J0D01*
G74*
G01*
G75*
G03X-11372Y-145494I-170J-2D01*
G74*
G01*
G75*
G03X-11374Y-145486I-50J-7D01*
G74*
G01*
G75*
G03X-11374Y-145473I-63J6D01*
G74*
G01*
G37*
G36*
X-11374Y-200772D02*
G75*
G03X-12032Y-200802I-327J-48D01*
G74*
G01*
G75*
G03X-12032Y-200810I51J-1D01*
G74*
G01*
G75*
G03X-12032Y-200815I51J0D01*
G74*
G01*
G75*
G03X-12032Y-200825I102J-5D01*
G74*
G01*
G75*
G03X-12032Y-200830I51J-5D01*
G74*
G01*
G75*
G03X-12032Y-200835I51J-1D01*
G74*
G01*
G75*
G03X-12029Y-200843I51J1D01*
G74*
G01*
G75*
G03X-12029Y-200851I49J-1D01*
G74*
G01*
X-12029Y-201112D01*
G75*
G03X-12029Y-201120I74J-4D01*
G74*
G01*
G75*
G03X-11859Y-201290I169J1D01*
G74*
G01*
X-11542Y-201290D01*
X-11524Y-201287D01*
G75*
G03X-11372Y-201120I-17J168D01*
G74*
G01*
X-11372Y-200817D01*
G75*
G03X-11372Y-200810I-49J-1D01*
G74*
G01*
G75*
G03X-11372Y-200792I-170J-3D01*
G74*
G01*
G75*
G03X-11374Y-200784I-71J-19D01*
G74*
G01*
G75*
G03X-11374Y-200772I-63J6D01*
G74*
G01*
G37*
G54D10*
X282261Y172311D02*
G75*
G03X282248Y172314I-9J-9D01*
G74*
G01*
X274262Y172314D01*
X274037Y172314D02*
X266037Y172314D01*
X265812Y172314D02*
X257812Y172314D01*
X257587Y172314D02*
X249587Y172314D01*
X249362Y172314D02*
X241362Y172314D01*
X241137Y172314D02*
X233137Y172314D01*
X232912Y172314D02*
X224912Y172314D01*
X224687Y172314D02*
X216687Y172314D01*
X216462Y172314D02*
X208462Y172314D01*
X208237Y172314D02*
X200237Y172314D01*
X200012Y172314D02*
X192012Y172314D01*
X191787Y172314D02*
X183787Y172314D01*
X183562Y172314D02*
X175562Y172314D01*
X175337Y172314D02*
X167337Y172314D01*
X167112Y172314D02*
X159112Y172314D01*
X158887Y172314D02*
X150887Y172314D01*
X150662Y172314D02*
X142662Y172314D01*
X142437Y172314D02*
X134437Y172314D01*
X134212Y172314D02*
X126212Y172314D01*
X125987Y172314D02*
X117987Y172314D01*
X117762Y172314D02*
X109762Y172314D01*
X109537Y172314D02*
X101537Y172314D01*
X101312Y172314D02*
X93312Y172314D01*
X93087Y172314D02*
X85087Y172314D01*
X84862Y172314D02*
X76862Y172314D01*
X76637Y172314D02*
X68637Y172314D01*
X68412Y172314D02*
X60412Y172314D01*
X60187Y172314D02*
X52187Y172314D01*
X51962Y172314D02*
X43962Y172314D01*
X43737Y172314D02*
X35737Y172314D01*
X35512Y172314D02*
X27512Y172314D01*
X27287Y172314D02*
X19287Y172314D01*
X19062Y172314D02*
X11062Y172314D01*
X10837Y172314D02*
X2837Y172314D01*
X2612Y172314D02*
X-5388Y172314D01*
X-5613Y172314D02*
X-13613Y172314D01*
X-13838Y172314D02*
X-21838Y172314D01*
X-22063Y172314D02*
X-30063Y172314D01*
X-30288Y172314D02*
X-38288Y172314D01*
X-38513Y172314D02*
X-46513Y172314D01*
X-46738Y172314D02*
X-54738Y172314D01*
X-54963Y172314D02*
X-62963Y172314D01*
X-63188Y172314D02*
X-71188Y172314D01*
X-71413Y172314D02*
X-79413Y172314D01*
X-79638Y172314D02*
X-87638Y172314D01*
X-87863Y172314D02*
X-95863Y172314D01*
X-96088Y172314D02*
X-104088Y172314D01*
X-104313Y172314D02*
X-112313Y172314D01*
X-112538Y172314D02*
X-120538Y172314D01*
X-120763Y172314D02*
X-128763Y172314D01*
X-128988Y172314D02*
X-136988Y172314D01*
X-137213Y172314D02*
X-145213Y172314D01*
X-145438Y172314D02*
X-153438Y172314D01*
X-153663Y172314D02*
X-161663Y172314D01*
X-161888Y172314D02*
X-169888Y172314D01*
X-170113Y172314D02*
X-178113Y172314D01*
X-178338Y172314D02*
X-186338Y172314D01*
X-186563Y172314D02*
X-190752Y172314D01*
G75*
G03X-190760Y172311I0J-12D01*
G74*
G01*
X-190761Y172311D01*
X-193449Y169622D01*
X-193608Y169463D02*
X-195759Y167310D01*
G75*
G03X-195763Y167298I9J-9D01*
G74*
G01*
X-195762Y167298D01*
X-195762Y162355D01*
X-195762Y162130D02*
X-195762Y154130D01*
X-195762Y153905D02*
X-195762Y145905D01*
X-195762Y145680D02*
X-195762Y140813D01*
X-198895Y140813D01*
X-199120Y140813D02*
X-207120Y140813D01*
X-207345Y140813D02*
X-215345Y140813D01*
X-215570Y140813D02*
X-222250Y140813D01*
G75*
G03X-222258Y140810I0J-12D01*
G74*
G01*
X-222259Y140810D01*
X-223186Y139884D01*
X-223345Y139725D02*
X-227260Y135811D01*
G75*
G03X-227264Y135801I9J-9D01*
G74*
G01*
X-227263Y135800D01*
X-227263Y133349D01*
X-227263Y133124D02*
X-227263Y125124D01*
X-227263Y124899D02*
X-227263Y116899D01*
X-227263Y116674D02*
X-227263Y108674D01*
X-227263Y108449D02*
X-227263Y100449D01*
X-227263Y100224D02*
X-227263Y92224D01*
X-227263Y91999D02*
X-227263Y83999D01*
X-227263Y83774D02*
X-227263Y75774D01*
X-227263Y75549D02*
X-227263Y67549D01*
X-227263Y67324D02*
X-227263Y59324D01*
X-227263Y59099D02*
X-227263Y51099D01*
X-227263Y50874D02*
X-227263Y42874D01*
X-227263Y42649D02*
X-227263Y34649D01*
X-227263Y34424D02*
X-227263Y26424D01*
X-227263Y26199D02*
X-227263Y18199D01*
X-227263Y17974D02*
X-227263Y9974D01*
X-227263Y9749D02*
X-227263Y1749D01*
X-227263Y1524D02*
X-227263Y-6476D01*
X-227263Y-6701D02*
X-227263Y-14701D01*
X-227263Y-14926D02*
X-227263Y-22926D01*
X-227263Y-23151D02*
X-227263Y-31151D01*
X-227263Y-31376D02*
X-227263Y-39376D01*
X-227263Y-39601D02*
X-227263Y-47601D01*
X-227263Y-47826D02*
X-227263Y-55826D01*
X-227263Y-56051D02*
X-227263Y-64051D01*
X-227263Y-64276D02*
X-227263Y-72276D01*
X-227263Y-72501D02*
X-227263Y-80501D01*
X-227263Y-80726D02*
X-227263Y-88726D01*
X-227263Y-88951D02*
X-227263Y-96951D01*
X-227263Y-97176D02*
X-227263Y-105176D01*
X-227263Y-105401D02*
X-227263Y-113401D01*
X-227263Y-113626D02*
X-227263Y-121626D01*
X-227263Y-121851D02*
X-227263Y-129851D01*
X-227263Y-130076D02*
X-227263Y-138076D01*
X-227263Y-138301D02*
X-227263Y-146301D01*
X-227263Y-146526D02*
X-227263Y-154526D01*
X-227263Y-154751D02*
X-227263Y-162751D01*
X-227263Y-162976D02*
X-227263Y-170976D01*
X-227263Y-171201D02*
X-227263Y-179201D01*
X-227263Y-179426D02*
X-227263Y-187426D01*
X-227263Y-187651D02*
X-227263Y-195651D01*
X-227263Y-195876D02*
X-227263Y-203876D01*
X-227263Y-204101D02*
X-227263Y-212101D01*
X-227263Y-212326D02*
X-227263Y-220326D01*
X-227263Y-220551D02*
X-227263Y-228551D01*
X-227263Y-228776D02*
X-227263Y-236776D01*
X-227263Y-237001D02*
X-227263Y-245001D01*
X-227263Y-245226D02*
X-227263Y-253226D01*
X-227263Y-253451D02*
X-227263Y-261451D01*
X-227263Y-261676D02*
X-227263Y-269676D01*
X-227263Y-269901D02*
X-227263Y-277901D01*
X-227263Y-278126D02*
X-227263Y-286126D01*
X-227263Y-286351D02*
X-227263Y-294351D01*
X-227263Y-294576D02*
X-227263Y-302576D01*
X-227263Y-302801D02*
X-227263Y-310801D01*
X-227263Y-311026D02*
X-227263Y-319026D01*
X-227263Y-319251D02*
X-227263Y-327251D01*
X-227263Y-327476D02*
X-227263Y-335476D01*
X-227263Y-335701D02*
X-227263Y-337201D01*
G75*
G03X-227260Y-337209I12J0D01*
G74*
G01*
X-227260Y-337210D01*
X-222670Y-341798D01*
X-222511Y-341957D02*
X-222259Y-342208D01*
G75*
G03X-222246Y-342212I9J9D01*
G74*
G01*
X-214616Y-342212D01*
X-214391Y-342212D02*
X-206391Y-342212D01*
X-206166Y-342212D02*
X-198166Y-342212D01*
X-197941Y-342212D02*
X-195762Y-342212D01*
X-195762Y-348033D01*
X-195762Y-348258D02*
X-195762Y-356258D01*
X-195762Y-356483D02*
X-195762Y-364483D01*
X-195762Y-364708D02*
X-195762Y-368699D01*
G75*
G03X-195759Y-368707I12J0D01*
G74*
G01*
X-195759Y-368709D01*
X-192933Y-371537D01*
X-192774Y-371696D02*
X-190761Y-373709D01*
G75*
G03X-190748Y-373712I9J9D01*
G74*
G01*
X-185609Y-373712D01*
X-185384Y-373712D02*
X-177384Y-373712D01*
X-177159Y-373712D02*
X-169159Y-373712D01*
X-168934Y-373712D02*
X-160934Y-373712D01*
X-160709Y-373712D02*
X-152709Y-373712D01*
X-152484Y-373712D02*
X-144484Y-373712D01*
X-144259Y-373712D02*
X-136259Y-373712D01*
X-136034Y-373712D02*
X-128034Y-373712D01*
X-127809Y-373712D02*
X-119809Y-373712D01*
X-119584Y-373712D02*
X-111584Y-373712D01*
X-111359Y-373712D02*
X-103359Y-373712D01*
X-103134Y-373712D02*
X-95134Y-373712D01*
X-94909Y-373712D02*
X-86909Y-373712D01*
X-86684Y-373712D02*
X-78684Y-373712D01*
X-78459Y-373712D02*
X-70459Y-373712D01*
X-70234Y-373712D02*
X-62234Y-373712D01*
X-62009Y-373712D02*
X-54009Y-373712D01*
X-53784Y-373712D02*
X-45784Y-373712D01*
X-45559Y-373712D02*
X-37559Y-373712D01*
X-37334Y-373712D02*
X-29334Y-373712D01*
X-29109Y-373712D02*
X-21109Y-373712D01*
X-20884Y-373712D02*
X-12884Y-373712D01*
X-12659Y-373712D02*
X-4659Y-373712D01*
X-4434Y-373712D02*
X3566Y-373712D01*
X3791Y-373712D02*
X11791Y-373712D01*
X12016Y-373712D02*
X20016Y-373712D01*
X20241Y-373712D02*
X28241Y-373712D01*
X28466Y-373712D02*
X36466Y-373712D01*
X36691Y-373712D02*
X44691Y-373712D01*
X44916Y-373712D02*
X52916Y-373712D01*
X53141Y-373712D02*
X61141Y-373712D01*
X61366Y-373712D02*
X69366Y-373712D01*
X69591Y-373712D02*
X77591Y-373712D01*
X77816Y-373712D02*
X85816Y-373712D01*
X86041Y-373712D02*
X94041Y-373712D01*
X94266Y-373712D02*
X102266Y-373712D01*
X102491Y-373712D02*
X110491Y-373712D01*
X110716Y-373712D02*
X118716Y-373712D01*
X118941Y-373712D02*
X126941Y-373712D01*
X127166Y-373712D02*
X135166Y-373712D01*
X135391Y-373712D02*
X143391Y-373712D01*
X143616Y-373712D02*
X151616Y-373712D01*
X151841Y-373712D02*
X159841Y-373712D01*
X160066Y-373712D02*
X168066Y-373712D01*
X168291Y-373712D02*
X176291Y-373712D01*
X176516Y-373712D02*
X184516Y-373712D01*
X184741Y-373712D02*
X192741Y-373712D01*
X192966Y-373712D02*
X200966Y-373712D01*
X201191Y-373712D02*
X209191Y-373712D01*
X209416Y-373712D02*
X217416Y-373712D01*
X217641Y-373712D02*
X225641Y-373712D01*
X225866Y-373712D02*
X233866Y-373712D01*
X234091Y-373712D02*
X242091Y-373712D01*
X242316Y-373712D02*
X250316Y-373712D01*
X250541Y-373712D02*
X258541Y-373712D01*
X258766Y-373712D02*
X266766Y-373712D01*
X266991Y-373712D02*
X274991Y-373712D01*
X275216Y-373712D02*
X282252Y-373712D01*
G75*
G03X282260Y-373709I0J12D01*
G74*
G01*
X282261Y-373709D01*
X282936Y-373034D01*
X283095Y-372875D02*
X287259Y-368711D01*
G75*
G03X287262Y-368697I-9J9D01*
G74*
G01*
X287262Y-366601D01*
X287262Y-366376D02*
X287262Y-358376D01*
X287262Y-358151D02*
X287262Y-350151D01*
X287262Y-349926D02*
X287262Y-342212D01*
X287547Y-342212D01*
X287772Y-342212D02*
X295772Y-342212D01*
X295997Y-342212D02*
X303997Y-342212D01*
X304222Y-342212D02*
X312222Y-342212D01*
X312447Y-342212D02*
X313750Y-342212D01*
G75*
G03X313758Y-342208I0J12D01*
G74*
G01*
X313759Y-342208D01*
X318489Y-337481D01*
X318648Y-337322D02*
X318760Y-337210D01*
G75*
G03X318763Y-337196I-9J9D01*
G74*
G01*
X318763Y-329370D01*
X318763Y-329145D02*
X318763Y-321145D01*
X318763Y-320920D02*
X318763Y-312920D01*
X318763Y-312695D02*
X318763Y-304695D01*
X318763Y-304470D02*
X318763Y-296470D01*
X318763Y-296245D02*
X318763Y-288245D01*
X318763Y-288020D02*
X318763Y-280020D01*
X318763Y-279795D02*
X318763Y-271795D01*
X318763Y-271570D02*
X318763Y-263570D01*
X318763Y-263345D02*
X318763Y-255345D01*
X318763Y-255120D02*
X318763Y-247120D01*
X318763Y-246895D02*
X318763Y-238895D01*
X318763Y-238670D02*
X318763Y-230670D01*
X318763Y-230445D02*
X318763Y-222445D01*
X318763Y-222220D02*
X318763Y-214220D01*
X318763Y-213995D02*
X318763Y-205995D01*
X318763Y-205770D02*
X318763Y-197770D01*
X318763Y-197545D02*
X318763Y-189545D01*
X318763Y-189320D02*
X318763Y-181320D01*
X318763Y-181095D02*
X318763Y-173095D01*
X318763Y-172870D02*
X318763Y-164870D01*
X318763Y-164645D02*
X318763Y-156645D01*
X318763Y-156420D02*
X318763Y-148420D01*
X318763Y-148195D02*
X318763Y-140195D01*
X318763Y-139970D02*
X318763Y-131970D01*
X318763Y-131745D02*
X318763Y-123745D01*
X318763Y-123520D02*
X318763Y-115520D01*
X318763Y-115295D02*
X318763Y-107295D01*
X318763Y-107070D02*
X318763Y-99070D01*
X318763Y-98845D02*
X318763Y-90845D01*
X318763Y-90620D02*
X318763Y-82620D01*
X318763Y-82395D02*
X318763Y-74395D01*
X318763Y-74170D02*
X318763Y-66170D01*
X318763Y-65945D02*
X318763Y-57945D01*
X318763Y-57720D02*
X318763Y-49720D01*
X318763Y-49495D02*
X318763Y-41495D01*
X318763Y-41270D02*
X318763Y-33270D01*
X318763Y-33045D02*
X318763Y-25045D01*
X318763Y-24820D02*
X318763Y-16820D01*
X318763Y-16595D02*
X318763Y-8595D01*
X318763Y-8370D02*
X318763Y-370D01*
X318763Y-145D02*
X318763Y7855D01*
X318763Y8080D02*
X318763Y16080D01*
X318763Y16305D02*
X318763Y24305D01*
X318763Y24530D02*
X318763Y32530D01*
X318763Y32755D02*
X318763Y40755D01*
X318763Y40980D02*
X318763Y48980D01*
X318763Y49205D02*
X318763Y57205D01*
X318763Y57430D02*
X318763Y65430D01*
X318763Y65655D02*
X318763Y73655D01*
X318763Y73880D02*
X318763Y81880D01*
X318763Y82105D02*
X318763Y90105D01*
X318763Y90330D02*
X318763Y98330D01*
X318763Y98555D02*
X318763Y106555D01*
X318763Y106780D02*
X318763Y114780D01*
X318763Y115005D02*
X318763Y123005D01*
X318763Y123230D02*
X318763Y131230D01*
X318763Y131455D02*
X318763Y135802D01*
G75*
G03X318760Y135810I-12J0D01*
G74*
G01*
X318760Y135811D01*
X316183Y138387D01*
X316024Y138546D02*
X313759Y140810D01*
G75*
G03X313746Y140813I-9J-9D01*
G74*
G01*
X308962Y140813D01*
X308737Y140813D02*
X300737Y140813D01*
X300512Y140813D02*
X292512Y140813D01*
X292287Y140813D02*
X287262Y140813D01*
X287262Y143787D01*
X287262Y144012D02*
X287262Y152012D01*
X287262Y152237D02*
X287262Y160237D01*
X287262Y160462D02*
X287262Y167301D01*
G75*
G03X287259Y167308I-12J0D01*
G74*
G01*
X287259Y167310D01*
X286444Y168124D01*
X286285Y168284D02*
X282261Y172311D01*
G54D11*
X112750Y-1299D03*
X103750Y-38400D03*
X103750Y4601D03*
X-16250Y-26399D03*
X-21250Y-1299D03*
X112750Y-200299D03*
X-21250Y-200299D03*
X103750Y-204300D03*
X103750Y-161300D03*
X-16250Y-192300D03*
G54D12*
X-165259Y-302662D02*
X-165259Y-306462D01*
X-165259Y-302662D02*
X-163811Y-306462D01*
X-162363Y-302662D02*
X-163811Y-306462D01*
X-162363Y-302662D02*
X-162363Y-306462D01*
X-161278Y-302662D02*
X-161097Y-302843D01*
X-160916Y-302662D01*
X-161097Y-302481D01*
X-161278Y-302662D01*
X-161097Y-303929D02*
X-161097Y-306462D01*
X-157840Y-304472D02*
X-158021Y-304110D01*
X-158563Y-303929D01*
X-159106Y-303929D01*
X-159649Y-304110D01*
X-159830Y-304472D01*
X-159649Y-304834D01*
X-159287Y-305015D01*
X-158382Y-305196D01*
X-158021Y-305377D01*
X-157840Y-305739D01*
X-157840Y-305920D01*
X-158021Y-306281D01*
X-158563Y-306462D01*
X-159106Y-306462D01*
X-159649Y-306281D01*
X-159830Y-305920D01*
X-156754Y-302662D02*
X-156754Y-306462D01*
X-154944Y-303929D02*
X-156754Y-305739D01*
X-156030Y-305015D02*
X-154763Y-306462D01*
X-152773Y-303929D02*
X-153135Y-304110D01*
X-153497Y-304472D01*
X-153678Y-305015D01*
X-153678Y-305377D01*
X-153497Y-305920D01*
X-153135Y-306281D01*
X-152773Y-306462D01*
X-152230Y-306462D01*
X-151868Y-306281D01*
X-151506Y-305920D01*
X-151325Y-305377D01*
X-151325Y-305015D01*
X-151506Y-304472D01*
X-151868Y-304110D01*
X-152230Y-303929D01*
X-152773Y-303929D01*
X-146259Y-302662D02*
X-144268Y-302662D01*
X-145354Y-304110D01*
X-144811Y-304110D01*
X-144449Y-304291D01*
X-144268Y-304472D01*
X-144087Y-305015D01*
X-144087Y-305377D01*
X-144268Y-305920D01*
X-144630Y-306281D01*
X-145173Y-306462D01*
X-145716Y-306462D01*
X-146259Y-306281D01*
X-146440Y-306100D01*
X-146621Y-305739D01*
X-139382Y-303386D02*
X-139021Y-303205D01*
X-138478Y-302662D01*
X-138478Y-306462D01*
X-137211Y-306100D02*
X-137392Y-306281D01*
X-137211Y-306462D01*
X-137030Y-306281D01*
X-137211Y-306100D01*
X-135944Y-303386D02*
X-135582Y-303205D01*
X-135040Y-302662D01*
X-135040Y-306462D01*
X-130335Y-303929D02*
X-130335Y-307729D01*
X-130335Y-304472D02*
X-129973Y-304110D01*
X-129611Y-303929D01*
X-129068Y-303929D01*
X-128706Y-304110D01*
X-128344Y-304472D01*
X-128163Y-305015D01*
X-128163Y-305377D01*
X-128344Y-305920D01*
X-128706Y-306281D01*
X-129068Y-306462D01*
X-129611Y-306462D01*
X-129973Y-306281D01*
X-130335Y-305920D01*
X-124906Y-303929D02*
X-124906Y-306462D01*
X-124906Y-304472D02*
X-125268Y-304110D01*
X-125630Y-303929D01*
X-126173Y-303929D01*
X-126535Y-304110D01*
X-126897Y-304472D01*
X-127078Y-305015D01*
X-127078Y-305377D01*
X-126897Y-305920D01*
X-126535Y-306281D01*
X-126173Y-306462D01*
X-125630Y-306462D01*
X-125268Y-306281D01*
X-124906Y-305920D01*
X-123821Y-303929D02*
X-123821Y-306462D01*
X-123821Y-304653D02*
X-123278Y-304110D01*
X-122916Y-303929D01*
X-122373Y-303929D01*
X-122011Y-304110D01*
X-121830Y-304653D01*
X-121830Y-306462D01*
X-120744Y-305015D02*
X-118573Y-305015D01*
X-118573Y-304653D01*
X-118754Y-304291D01*
X-118935Y-304110D01*
X-119297Y-303929D01*
X-119840Y-303929D01*
X-120202Y-304110D01*
X-120563Y-304472D01*
X-120744Y-305015D01*
X-120744Y-305377D01*
X-120563Y-305920D01*
X-120202Y-306281D01*
X-119840Y-306462D01*
X-119297Y-306462D01*
X-118935Y-306281D01*
X-118573Y-305920D01*
X-117487Y-302662D02*
X-117487Y-306462D01*
X-165259Y-308815D02*
X-164897Y-308634D01*
X-164354Y-308091D01*
X-164354Y-311891D01*
X-163087Y-308996D02*
X-163087Y-308815D01*
X-162906Y-308453D01*
X-162725Y-308272D01*
X-162363Y-308091D01*
X-161640Y-308091D01*
X-161278Y-308272D01*
X-161097Y-308453D01*
X-160916Y-308815D01*
X-160916Y-309177D01*
X-161097Y-309539D01*
X-161459Y-310081D01*
X-163268Y-311891D01*
X-160735Y-311891D01*
X-158563Y-308091D02*
X-159106Y-308272D01*
X-159468Y-308815D01*
X-159649Y-309720D01*
X-159649Y-310262D01*
X-159468Y-311167D01*
X-159106Y-311710D01*
X-158563Y-311891D01*
X-158201Y-311891D01*
X-157659Y-311710D01*
X-157297Y-311167D01*
X-157116Y-310262D01*
X-157116Y-309720D01*
X-157297Y-308815D01*
X-157659Y-308272D01*
X-158201Y-308091D01*
X-158563Y-308091D01*
X-152411Y-309358D02*
X-152411Y-311167D01*
X-152230Y-311710D01*
X-151868Y-311891D01*
X-151325Y-311891D01*
X-150963Y-311710D01*
X-150421Y-311167D01*
X-150421Y-309358D02*
X-150421Y-311891D01*
X-149335Y-309358D02*
X-149335Y-311891D01*
X-149335Y-310081D02*
X-148792Y-309539D01*
X-148430Y-309358D01*
X-147887Y-309358D01*
X-147525Y-309539D01*
X-147344Y-310081D01*
X-147344Y-311891D01*
X-147344Y-310081D02*
X-146802Y-309539D01*
X-146440Y-309358D01*
X-145897Y-309358D01*
X-145535Y-309539D01*
X-145354Y-310081D01*
X-145354Y-311891D01*
X-165078Y-314424D02*
X-165078Y-314243D01*
X-164897Y-313881D01*
X-164716Y-313700D01*
X-164354Y-313520D01*
X-163630Y-313520D01*
X-163268Y-313700D01*
X-163087Y-313881D01*
X-162906Y-314243D01*
X-162906Y-314605D01*
X-163087Y-314967D01*
X-163449Y-315510D01*
X-165259Y-317320D01*
X-162725Y-317320D01*
X-159468Y-314062D02*
X-159649Y-313700D01*
X-160192Y-313520D01*
X-160554Y-313520D01*
X-161097Y-313700D01*
X-161459Y-314243D01*
X-161640Y-315148D01*
X-161640Y-316053D01*
X-161459Y-316777D01*
X-161097Y-317139D01*
X-160554Y-317320D01*
X-160373Y-317320D01*
X-159830Y-317139D01*
X-159468Y-316777D01*
X-159287Y-316234D01*
X-159287Y-316053D01*
X-159468Y-315510D01*
X-159830Y-315148D01*
X-160373Y-314967D01*
X-160554Y-314967D01*
X-161097Y-315148D01*
X-161459Y-315510D01*
X-161640Y-316053D01*
X-158021Y-316958D02*
X-158201Y-317139D01*
X-158021Y-317320D01*
X-157840Y-317139D01*
X-158021Y-316958D01*
X-155668Y-313520D02*
X-156211Y-313700D01*
X-156573Y-314243D01*
X-156754Y-315148D01*
X-156754Y-315691D01*
X-156573Y-316596D01*
X-156211Y-317139D01*
X-155668Y-317320D01*
X-155306Y-317320D01*
X-154763Y-317139D01*
X-154402Y-316596D01*
X-154221Y-315691D01*
X-154221Y-315148D01*
X-154402Y-314243D01*
X-154763Y-313700D01*
X-155306Y-313520D01*
X-155668Y-313520D01*
X-153135Y-314243D02*
X-152773Y-314062D01*
X-152230Y-313520D01*
X-152230Y-317320D01*
X-150963Y-316958D02*
X-151144Y-317139D01*
X-150963Y-317320D01*
X-150782Y-317139D01*
X-150963Y-316958D01*
X-149516Y-314424D02*
X-149516Y-314243D01*
X-149335Y-313881D01*
X-149154Y-313700D01*
X-148792Y-313520D01*
X-148068Y-313520D01*
X-147706Y-313700D01*
X-147525Y-313881D01*
X-147344Y-314243D01*
X-147344Y-314605D01*
X-147525Y-314967D01*
X-147887Y-315510D01*
X-149697Y-317320D01*
X-147163Y-317320D01*
X-144992Y-313520D02*
X-145535Y-313700D01*
X-145897Y-314243D01*
X-146078Y-315148D01*
X-146078Y-315691D01*
X-145897Y-316596D01*
X-145535Y-317139D01*
X-144992Y-317320D01*
X-144630Y-317320D01*
X-144087Y-317139D01*
X-143725Y-316596D01*
X-143544Y-315691D01*
X-143544Y-315148D01*
X-143725Y-314243D01*
X-144087Y-313700D01*
X-144630Y-313520D01*
X-144992Y-313520D01*
X-142278Y-314424D02*
X-142278Y-314243D01*
X-142097Y-313881D01*
X-141916Y-313700D01*
X-141554Y-313520D01*
X-140830Y-313520D01*
X-140468Y-313700D01*
X-140287Y-313881D01*
X-140106Y-314243D01*
X-140106Y-314605D01*
X-140287Y-314967D01*
X-140649Y-315510D01*
X-142459Y-317320D01*
X-139925Y-317320D01*
X-138478Y-313520D02*
X-136487Y-313520D01*
X-137573Y-314967D01*
X-137030Y-314967D01*
X-136668Y-315148D01*
X-136487Y-315329D01*
X-136306Y-315872D01*
X-136306Y-316234D01*
X-136487Y-316777D01*
X-136849Y-317139D01*
X-137392Y-317320D01*
X-137935Y-317320D01*
X-138478Y-317139D01*
X-138659Y-316958D01*
X-138840Y-316596D01*
X-165259Y-318948D02*
X-165259Y-322748D01*
X-165259Y-318948D02*
X-162906Y-318948D01*
X-165259Y-320758D02*
X-163811Y-320758D01*
X-159649Y-320215D02*
X-159649Y-322748D01*
X-159649Y-320758D02*
X-160011Y-320396D01*
X-160373Y-320215D01*
X-160916Y-320215D01*
X-161278Y-320396D01*
X-161640Y-320758D01*
X-161821Y-321300D01*
X-161821Y-321662D01*
X-161640Y-322205D01*
X-161278Y-322567D01*
X-160916Y-322748D01*
X-160373Y-322748D01*
X-160011Y-322567D01*
X-159649Y-322205D01*
X-158563Y-318948D02*
X-158563Y-322748D01*
X-156754Y-320215D02*
X-158563Y-322024D01*
X-157840Y-321300D02*
X-156573Y-322748D01*
X-155487Y-320215D02*
X-155487Y-322024D01*
X-155306Y-322567D01*
X-154944Y-322748D01*
X-154402Y-322748D01*
X-154040Y-322567D01*
X-153497Y-322024D01*
X-153497Y-320215D02*
X-153497Y-322748D01*
X-152411Y-318948D02*
X-152411Y-322748D01*
X-150782Y-318948D02*
X-150782Y-322024D01*
X-150602Y-322567D01*
X-150240Y-322748D01*
X-149878Y-322748D01*
X-151325Y-320215D02*
X-150059Y-320215D01*
X-148792Y-321300D02*
X-146621Y-321300D01*
X-146621Y-320939D01*
X-146802Y-320577D01*
X-146982Y-320396D01*
X-147344Y-320215D01*
X-147887Y-320215D01*
X-148249Y-320396D01*
X-148611Y-320758D01*
X-148792Y-321300D01*
X-148792Y-321662D01*
X-148611Y-322205D01*
X-148249Y-322567D01*
X-147887Y-322748D01*
X-147344Y-322748D01*
X-146982Y-322567D01*
X-146621Y-322205D01*
X-144992Y-318948D02*
X-144992Y-322024D01*
X-144811Y-322567D01*
X-144449Y-322748D01*
X-144087Y-322748D01*
X-145535Y-320215D02*
X-144268Y-320215D01*
X-140830Y-320215D02*
X-140830Y-322748D01*
X-140830Y-320758D02*
X-141192Y-320396D01*
X-141554Y-320215D01*
X-142097Y-320215D01*
X-142459Y-320396D01*
X-142821Y-320758D01*
X-143001Y-321300D01*
X-143001Y-321662D01*
X-142821Y-322205D01*
X-142459Y-322567D01*
X-142097Y-322748D01*
X-141554Y-322748D01*
X-141192Y-322567D01*
X-140830Y-322205D01*
X-134135Y-320215D02*
X-136125Y-322748D01*
X-136125Y-320215D02*
X-134135Y-320215D01*
X-136125Y-322748D02*
X-134135Y-322748D01*
X-130878Y-320215D02*
X-130878Y-322748D01*
X-130878Y-320758D02*
X-131240Y-320396D01*
X-131601Y-320215D01*
X-132144Y-320215D01*
X-132506Y-320396D01*
X-132868Y-320758D01*
X-133049Y-321300D01*
X-133049Y-321662D01*
X-132868Y-322205D01*
X-132506Y-322567D01*
X-132144Y-322748D01*
X-131601Y-322748D01*
X-131240Y-322567D01*
X-130878Y-322205D01*
X-126173Y-321300D02*
X-124002Y-321300D01*
X-124002Y-320939D01*
X-124182Y-320577D01*
X-124363Y-320396D01*
X-124725Y-320215D01*
X-125268Y-320215D01*
X-125630Y-320396D01*
X-125992Y-320758D01*
X-126173Y-321300D01*
X-126173Y-321662D01*
X-125992Y-322205D01*
X-125630Y-322567D01*
X-125268Y-322748D01*
X-124725Y-322748D01*
X-124363Y-322567D01*
X-124002Y-322205D01*
X-122916Y-318948D02*
X-122916Y-322748D01*
X-121830Y-321300D02*
X-119659Y-321300D01*
X-119659Y-320939D01*
X-119840Y-320577D01*
X-120021Y-320396D01*
X-120382Y-320215D01*
X-120925Y-320215D01*
X-121287Y-320396D01*
X-121649Y-320758D01*
X-121830Y-321300D01*
X-121830Y-321662D01*
X-121649Y-322205D01*
X-121287Y-322567D01*
X-120925Y-322748D01*
X-120382Y-322748D01*
X-120021Y-322567D01*
X-119659Y-322205D01*
X-118573Y-318948D02*
X-118573Y-322748D01*
X-116763Y-320215D02*
X-118573Y-322024D01*
X-117849Y-321300D02*
X-116582Y-322748D01*
X-114954Y-318948D02*
X-114954Y-322024D01*
X-114773Y-322567D01*
X-114411Y-322748D01*
X-114049Y-322748D01*
X-115497Y-320215D02*
X-114230Y-320215D01*
X-112963Y-320215D02*
X-112963Y-322748D01*
X-112963Y-321300D02*
X-112782Y-320758D01*
X-112421Y-320396D01*
X-112059Y-320215D01*
X-111516Y-320215D01*
X-109525Y-320215D02*
X-109887Y-320396D01*
X-110249Y-320758D01*
X-110430Y-321300D01*
X-110430Y-321662D01*
X-110249Y-322205D01*
X-109887Y-322567D01*
X-109525Y-322748D01*
X-108982Y-322748D01*
X-108621Y-322567D01*
X-108259Y-322205D01*
X-108078Y-321662D01*
X-108078Y-321300D01*
X-108259Y-320758D01*
X-108621Y-320396D01*
X-108982Y-320215D01*
X-109525Y-320215D01*
X-106449Y-318948D02*
X-106449Y-322024D01*
X-106268Y-322567D01*
X-105906Y-322748D01*
X-105544Y-322748D01*
X-106992Y-320215D02*
X-105725Y-320215D01*
X-104459Y-321300D02*
X-102287Y-321300D01*
X-102287Y-320939D01*
X-102468Y-320577D01*
X-102649Y-320396D01*
X-103011Y-320215D01*
X-103554Y-320215D01*
X-103916Y-320396D01*
X-104278Y-320758D01*
X-104459Y-321300D01*
X-104459Y-321662D01*
X-104278Y-322205D01*
X-103916Y-322567D01*
X-103554Y-322748D01*
X-103011Y-322748D01*
X-102649Y-322567D01*
X-102287Y-322205D01*
X-101202Y-318948D02*
X-101202Y-322748D01*
X-101202Y-320939D02*
X-100659Y-320396D01*
X-100297Y-320215D01*
X-99754Y-320215D01*
X-99392Y-320396D01*
X-99211Y-320939D01*
X-99211Y-322748D01*
X-98125Y-320215D02*
X-98125Y-322748D01*
X-98125Y-320939D02*
X-97582Y-320396D01*
X-97221Y-320215D01*
X-96678Y-320215D01*
X-96316Y-320396D01*
X-96135Y-320939D01*
X-96135Y-322748D01*
X-95049Y-318948D02*
X-94868Y-319129D01*
X-94687Y-318948D01*
X-94868Y-318767D01*
X-95049Y-318948D01*
X-94868Y-320215D02*
X-94868Y-322748D01*
X-93602Y-318948D02*
X-93602Y-322748D01*
X-91792Y-320215D02*
X-93602Y-322024D01*
X-92878Y-321300D02*
X-91611Y-322748D01*
X-89621Y-320215D02*
X-89982Y-320396D01*
X-90344Y-320758D01*
X-90525Y-321300D01*
X-90525Y-321662D01*
X-90344Y-322205D01*
X-89982Y-322567D01*
X-89621Y-322748D01*
X-89078Y-322748D01*
X-88716Y-322567D01*
X-88354Y-322205D01*
X-88173Y-321662D01*
X-88173Y-321300D01*
X-88354Y-320758D01*
X-88716Y-320396D01*
X-89078Y-320215D01*
X-89621Y-320215D01*
G54D68*
X-4351Y3289D03*
X-4351Y1713D03*
X-4351Y-52011D03*
X-4351Y-53587D03*
X-4351Y-107311D03*
X-4351Y-108887D03*
X-4351Y-162611D03*
X-4351Y-164187D03*
G54D70*
X24950Y1001D03*
X20950Y1001D03*
X24950Y-1399D03*
X20950Y-1399D03*
X18950Y-25799D03*
X14950Y-25799D03*
X18950Y-28200D03*
X14950Y-28200D03*
X24950Y-54300D03*
X20950Y-54300D03*
X24950Y-56700D03*
X20950Y-56700D03*
X18950Y-81100D03*
X14950Y-81100D03*
X18950Y-83499D03*
X14950Y-83499D03*
X24950Y-109599D03*
X20950Y-109599D03*
X24950Y-111999D03*
X20950Y-111999D03*
X18950Y-136399D03*
X14950Y-136399D03*
X18950Y-138799D03*
X14950Y-138799D03*
X24950Y-164899D03*
X20950Y-164899D03*
X24950Y-167299D03*
X20950Y-167299D03*
X18950Y-191699D03*
X14950Y-191699D03*
X18950Y-194100D03*
X14950Y-194100D03*
G54D71*
X17878Y1107D03*
X16377Y1107D03*
X17878Y-440D03*
X16377Y-440D03*
X17878Y-1986D03*
X16377Y-1986D03*
X28574Y-1649D03*
X27074Y-1649D03*
X21938Y-3135D03*
X20438Y-3135D03*
X17828Y-3582D03*
X16327Y-3582D03*
X25158Y-3164D03*
X23658Y-3164D03*
X28601Y-3226D03*
X27100Y-3226D03*
X28639Y-4898D03*
X27139Y-4898D03*
X4679Y-5006D03*
X3179Y-5006D03*
X1452Y-5006D03*
X-48Y-5006D03*
X17828Y-5079D03*
X16327Y-5079D03*
X11000Y-6800D03*
X9500Y-6800D03*
X7839Y-6800D03*
X6339Y-6800D03*
X4679Y-6800D03*
X3179Y-6800D03*
X1518Y-6800D03*
X18Y-6800D03*
X84782Y-4206D03*
X83282Y-4206D03*
X68944Y-4435D03*
X67444Y-4435D03*
X84782Y-5563D03*
X83282Y-5563D03*
X68939Y-5705D03*
X67439Y-5705D03*
X84782Y-6920D03*
X83282Y-6920D03*
X7839Y-8434D03*
X6339Y-8434D03*
X4679Y-8434D03*
X3179Y-8434D03*
X1518Y-8434D03*
X18Y-8434D03*
X11000Y-8441D03*
X9500Y-8441D03*
X84782Y-8277D03*
X83282Y-8277D03*
X47394Y-8578D03*
X45894Y-8578D03*
X7839Y-10099D03*
X6339Y-10099D03*
X10950Y-10133D03*
X9450Y-10133D03*
X64694Y-8750D03*
X63194Y-8750D03*
X84782Y-9634D03*
X83282Y-9634D03*
X7839Y-11749D03*
X6339Y-11749D03*
X10950Y-11775D03*
X9450Y-11775D03*
X67944Y-10250D03*
X66444Y-10250D03*
X84782Y-10991D03*
X83282Y-10991D03*
X65000Y-12150D03*
X63500Y-12150D03*
X7839Y-13399D03*
X6339Y-13399D03*
X10950Y-13416D03*
X9450Y-13416D03*
X84782Y-12349D03*
X83282Y-12349D03*
X17073Y-14963D03*
X15574Y-14963D03*
X13990Y-14982D03*
X12489Y-14982D03*
X7839Y-15049D03*
X6339Y-15049D03*
X10950Y-15058D03*
X9450Y-15058D03*
X68273Y-13382D03*
X66773Y-13382D03*
X84782Y-13706D03*
X83282Y-13706D03*
X68223Y-15045D03*
X66723Y-15045D03*
X26619Y-15754D03*
X25119Y-15754D03*
X44586Y-16341D03*
X43086Y-16341D03*
X16900Y-16699D03*
X15400Y-16699D03*
X13900Y-16699D03*
X12400Y-16699D03*
X10950Y-16699D03*
X9450Y-16699D03*
X7839Y-16699D03*
X6339Y-16699D03*
X26548Y-17257D03*
X25047Y-17257D03*
X23516Y-17257D03*
X22016Y-17257D03*
X68273Y-17514D03*
X66773Y-17514D03*
X43736Y-18277D03*
X42236Y-18277D03*
X7850Y-18289D03*
X6350Y-18289D03*
X19188Y-18292D03*
X17688Y-18292D03*
X11059Y-18307D03*
X9559Y-18307D03*
X23488Y-18882D03*
X21988Y-18882D03*
X26537Y-18901D03*
X25038Y-18901D03*
X65190Y-18927D03*
X63689Y-18927D03*
X68223Y-18937D03*
X66723Y-18937D03*
X43757Y-19745D03*
X42257Y-19745D03*
X7866Y-20110D03*
X6366Y-20110D03*
X11075Y-20142D03*
X9575Y-20142D03*
X23488Y-20293D03*
X21988Y-20293D03*
X68223Y-20309D03*
X66723Y-20309D03*
X23488Y-21704D03*
X21988Y-21704D03*
X11131Y-21896D03*
X9631Y-21896D03*
X7860Y-21903D03*
X6360Y-21903D03*
X68273Y-21632D03*
X66773Y-21632D03*
X19103Y-22545D03*
X17603Y-22545D03*
X23488Y-23046D03*
X21988Y-23046D03*
X7866Y-23511D03*
X6367Y-23511D03*
X11131Y-23559D03*
X9631Y-23559D03*
X19120Y-24126D03*
X17620Y-24126D03*
X16015Y-24157D03*
X14516Y-24157D03*
X68273Y-23004D03*
X66773Y-23004D03*
X23488Y-24433D03*
X21988Y-24433D03*
X9632Y-25038D03*
X8132Y-25038D03*
X65241Y-24377D03*
X63741Y-24377D03*
X68223Y-24427D03*
X66723Y-24427D03*
X9632Y-26501D03*
X8132Y-26501D03*
X23488Y-25943D03*
X21988Y-25943D03*
X23488Y-27409D03*
X21988Y-27409D03*
X9632Y-27964D03*
X8132Y-27964D03*
X61000Y-27799D03*
X59500Y-27799D03*
X23488Y-28920D03*
X21988Y-28920D03*
X9632Y-29427D03*
X8132Y-29427D03*
X84150Y-28232D03*
X82650Y-28232D03*
X23488Y-30430D03*
X21988Y-30430D03*
X9632Y-30890D03*
X8132Y-30890D03*
X43800Y-30300D03*
X42300Y-30300D03*
X23488Y-31940D03*
X21988Y-31940D03*
X-4182Y-32064D03*
X-5681Y-32064D03*
X4579Y-32314D03*
X3079Y-32314D03*
X9632Y-32352D03*
X8132Y-32352D03*
X-4182Y-33498D03*
X-5681Y-33498D03*
X9582Y-33815D03*
X8082Y-33815D03*
X29400Y-33399D03*
X27900Y-33399D03*
X26399Y-33399D03*
X24900Y-33399D03*
X72145Y-32268D03*
X70644Y-32268D03*
X86923Y-33099D03*
X85423Y-33099D03*
X70500Y-33900D03*
X69000Y-33900D03*
X9632Y-35279D03*
X8132Y-35279D03*
X86933Y-34308D03*
X85433Y-34308D03*
X9632Y-36741D03*
X8132Y-36741D03*
X-4182Y-37226D03*
X-5681Y-37226D03*
X17878Y-54193D03*
X16377Y-54193D03*
X17878Y-55739D03*
X16377Y-55739D03*
X17878Y-57286D03*
X16377Y-57286D03*
X28574Y-56949D03*
X27074Y-56949D03*
X21938Y-58435D03*
X20438Y-58435D03*
X17828Y-58882D03*
X16327Y-58882D03*
X25158Y-58464D03*
X23658Y-58464D03*
X28601Y-58526D03*
X27100Y-58526D03*
X28639Y-60198D03*
X27139Y-60198D03*
X4679Y-60306D03*
X3179Y-60306D03*
X1452Y-60306D03*
X-48Y-60306D03*
X17828Y-60379D03*
X16327Y-60379D03*
X11000Y-62100D03*
X9500Y-62100D03*
X7839Y-62100D03*
X6339Y-62100D03*
X4679Y-62100D03*
X3179Y-62100D03*
X1518Y-62100D03*
X18Y-62100D03*
X84782Y-59506D03*
X83282Y-59506D03*
X68944Y-59735D03*
X67444Y-59735D03*
X84782Y-60863D03*
X83282Y-60863D03*
X68939Y-61005D03*
X67439Y-61005D03*
X84782Y-62220D03*
X83282Y-62220D03*
X7839Y-63734D03*
X6339Y-63734D03*
X4679Y-63734D03*
X3179Y-63734D03*
X1518Y-63734D03*
X18Y-63734D03*
X11000Y-63741D03*
X9500Y-63741D03*
X84782Y-63577D03*
X83282Y-63577D03*
X47394Y-63878D03*
X45894Y-63878D03*
X7839Y-65400D03*
X6339Y-65400D03*
X10950Y-65433D03*
X9450Y-65433D03*
X64694Y-64050D03*
X63194Y-64050D03*
X84782Y-64934D03*
X83282Y-64934D03*
X7839Y-67050D03*
X6339Y-67050D03*
X10950Y-67074D03*
X9450Y-67074D03*
X67944Y-65550D03*
X66444Y-65550D03*
X84782Y-66291D03*
X83282Y-66291D03*
X65000Y-67450D03*
X63500Y-67450D03*
X7839Y-68700D03*
X6339Y-68700D03*
X10950Y-68716D03*
X9450Y-68716D03*
X84782Y-67649D03*
X83282Y-67649D03*
X17073Y-70263D03*
X15574Y-70263D03*
X13990Y-70282D03*
X12489Y-70282D03*
X7839Y-70350D03*
X6339Y-70350D03*
X10950Y-70358D03*
X9450Y-70358D03*
X68273Y-68682D03*
X66773Y-68682D03*
X84782Y-69006D03*
X83282Y-69006D03*
X68223Y-70344D03*
X66723Y-70344D03*
X26619Y-71054D03*
X25119Y-71054D03*
X44586Y-71641D03*
X43086Y-71641D03*
X16900Y-72000D03*
X15400Y-72000D03*
X13900Y-72000D03*
X12400Y-72000D03*
X10950Y-72000D03*
X9450Y-72000D03*
X7839Y-72000D03*
X6339Y-72000D03*
X26548Y-72557D03*
X25047Y-72557D03*
X23516Y-72557D03*
X22016Y-72557D03*
X68273Y-72814D03*
X66773Y-72814D03*
X43736Y-73577D03*
X42236Y-73577D03*
X7850Y-73589D03*
X6350Y-73589D03*
X19188Y-73592D03*
X17688Y-73592D03*
X11059Y-73607D03*
X9559Y-73607D03*
X23488Y-74182D03*
X21988Y-74182D03*
X26537Y-74201D03*
X25038Y-74201D03*
X65190Y-74227D03*
X63689Y-74227D03*
X68223Y-74237D03*
X66723Y-74237D03*
X43757Y-75045D03*
X42257Y-75045D03*
X7866Y-75410D03*
X6366Y-75410D03*
X11075Y-75443D03*
X9575Y-75443D03*
X23488Y-75593D03*
X21988Y-75593D03*
X68223Y-75609D03*
X66723Y-75609D03*
X23488Y-77004D03*
X21988Y-77004D03*
X11131Y-77196D03*
X9631Y-77196D03*
X7860Y-77203D03*
X6360Y-77203D03*
X68273Y-76931D03*
X66773Y-76931D03*
X19103Y-77845D03*
X17603Y-77845D03*
X23488Y-78345D03*
X21988Y-78345D03*
X7866Y-78811D03*
X6367Y-78811D03*
X11131Y-78859D03*
X9631Y-78859D03*
X19120Y-79425D03*
X17620Y-79425D03*
X16015Y-79457D03*
X14516Y-79457D03*
X68273Y-78304D03*
X66773Y-78304D03*
X23488Y-79733D03*
X21988Y-79733D03*
X9632Y-80338D03*
X8132Y-80338D03*
X65241Y-79676D03*
X63741Y-79676D03*
X68223Y-79726D03*
X66723Y-79726D03*
X9632Y-81801D03*
X8132Y-81801D03*
X23488Y-81243D03*
X21988Y-81243D03*
X23488Y-82709D03*
X21988Y-82709D03*
X9632Y-83264D03*
X8132Y-83264D03*
X61000Y-83100D03*
X59500Y-83100D03*
X23488Y-84219D03*
X21988Y-84219D03*
X9632Y-84727D03*
X8132Y-84727D03*
X84150Y-83532D03*
X82650Y-83532D03*
X23488Y-85730D03*
X21988Y-85730D03*
X9632Y-86190D03*
X8132Y-86190D03*
X43800Y-85599D03*
X42300Y-85599D03*
X23488Y-87241D03*
X21988Y-87241D03*
X-4182Y-87364D03*
X-5681Y-87364D03*
X4579Y-87614D03*
X3079Y-87614D03*
X9632Y-87653D03*
X8132Y-87653D03*
X-4182Y-88798D03*
X-5681Y-88798D03*
X9582Y-89115D03*
X8082Y-89115D03*
X29400Y-88700D03*
X27900Y-88700D03*
X26399Y-88700D03*
X24900Y-88700D03*
X72145Y-87568D03*
X70644Y-87568D03*
X86923Y-88399D03*
X85423Y-88399D03*
X70500Y-89200D03*
X69000Y-89200D03*
X9632Y-90578D03*
X8132Y-90578D03*
X86933Y-89608D03*
X85433Y-89608D03*
X9632Y-92041D03*
X8132Y-92041D03*
X-4182Y-92527D03*
X-5681Y-92527D03*
X17878Y-109493D03*
X16377Y-109493D03*
X17878Y-111040D03*
X16377Y-111040D03*
X17878Y-112586D03*
X16377Y-112586D03*
X28574Y-112249D03*
X27074Y-112249D03*
X21938Y-113735D03*
X20438Y-113735D03*
X17828Y-114182D03*
X16327Y-114182D03*
X25158Y-113764D03*
X23658Y-113764D03*
X28601Y-113826D03*
X27100Y-113826D03*
X28639Y-115498D03*
X27139Y-115498D03*
X4679Y-115606D03*
X3179Y-115606D03*
X1452Y-115606D03*
X-48Y-115606D03*
X17828Y-115679D03*
X16327Y-115679D03*
X11000Y-117399D03*
X9500Y-117399D03*
X7839Y-117399D03*
X6339Y-117399D03*
X4679Y-117399D03*
X3179Y-117399D03*
X1518Y-117399D03*
X18Y-117399D03*
X84782Y-114806D03*
X83282Y-114806D03*
X68944Y-115035D03*
X67444Y-115035D03*
X84782Y-116163D03*
X83282Y-116163D03*
X68939Y-116305D03*
X67439Y-116305D03*
X84782Y-117520D03*
X83282Y-117520D03*
X7839Y-119034D03*
X6339Y-119034D03*
X4679Y-119034D03*
X3179Y-119034D03*
X1518Y-119034D03*
X18Y-119034D03*
X11000Y-119041D03*
X9500Y-119041D03*
X84782Y-118877D03*
X83282Y-118877D03*
X47394Y-119178D03*
X45894Y-119178D03*
X7839Y-120699D03*
X6339Y-120699D03*
X10950Y-120733D03*
X9450Y-120733D03*
X64694Y-119350D03*
X63194Y-119350D03*
X84782Y-120234D03*
X83282Y-120234D03*
X7839Y-122349D03*
X6339Y-122349D03*
X10950Y-122375D03*
X9450Y-122375D03*
X67944Y-120850D03*
X66444Y-120850D03*
X84782Y-121592D03*
X83282Y-121592D03*
X65000Y-122749D03*
X63500Y-122749D03*
X7839Y-123999D03*
X6339Y-123999D03*
X10950Y-124016D03*
X9450Y-124016D03*
X84782Y-122949D03*
X83282Y-122949D03*
X17073Y-125563D03*
X15574Y-125563D03*
X13990Y-125582D03*
X12489Y-125582D03*
X7839Y-125649D03*
X6339Y-125649D03*
X10950Y-125658D03*
X9450Y-125658D03*
X68273Y-123982D03*
X66773Y-123982D03*
X84782Y-124306D03*
X83282Y-124306D03*
X68223Y-125645D03*
X66723Y-125645D03*
X26619Y-126354D03*
X25119Y-126354D03*
X44586Y-126940D03*
X43086Y-126940D03*
X16900Y-127300D03*
X15400Y-127300D03*
X13900Y-127300D03*
X12400Y-127300D03*
X10950Y-127300D03*
X9450Y-127300D03*
X7839Y-127300D03*
X6339Y-127300D03*
X26548Y-127857D03*
X25047Y-127857D03*
X23516Y-127857D03*
X22016Y-127857D03*
X68273Y-128114D03*
X66773Y-128114D03*
X43736Y-128876D03*
X42236Y-128876D03*
X7850Y-128889D03*
X6350Y-128889D03*
X19188Y-128892D03*
X17688Y-128892D03*
X11059Y-128907D03*
X9559Y-128907D03*
X23488Y-129482D03*
X21988Y-129482D03*
X26537Y-129501D03*
X25038Y-129501D03*
X65190Y-129526D03*
X63689Y-129526D03*
X68223Y-129537D03*
X66723Y-129537D03*
X43757Y-130345D03*
X42257Y-130345D03*
X7866Y-130710D03*
X6366Y-130710D03*
X11075Y-130743D03*
X9575Y-130743D03*
X23488Y-130893D03*
X21988Y-130893D03*
X68223Y-130909D03*
X66723Y-130909D03*
X23488Y-132304D03*
X21988Y-132304D03*
X11131Y-132496D03*
X9631Y-132496D03*
X7860Y-132503D03*
X6360Y-132503D03*
X68273Y-132232D03*
X66773Y-132232D03*
X19103Y-133145D03*
X17603Y-133145D03*
X23488Y-133646D03*
X21988Y-133646D03*
X7866Y-134111D03*
X6367Y-134111D03*
X11131Y-134159D03*
X9631Y-134159D03*
X19120Y-134726D03*
X17620Y-134726D03*
X16015Y-134757D03*
X14516Y-134757D03*
X68273Y-133604D03*
X66773Y-133604D03*
X23488Y-135033D03*
X21988Y-135033D03*
X9632Y-135638D03*
X8132Y-135638D03*
X65241Y-134977D03*
X63741Y-134977D03*
X68223Y-135027D03*
X66723Y-135027D03*
X9632Y-137101D03*
X8132Y-137101D03*
X23488Y-136543D03*
X21988Y-136543D03*
X23488Y-138009D03*
X21988Y-138009D03*
X9632Y-138564D03*
X8132Y-138564D03*
X61000Y-138399D03*
X59500Y-138399D03*
X23488Y-139520D03*
X21988Y-139520D03*
X9632Y-140027D03*
X8132Y-140027D03*
X84150Y-138832D03*
X82650Y-138832D03*
X23488Y-141030D03*
X21988Y-141030D03*
X9632Y-141490D03*
X8132Y-141490D03*
X43800Y-140900D03*
X42300Y-140900D03*
X23488Y-142541D03*
X21988Y-142541D03*
X-4182Y-142664D03*
X-5681Y-142664D03*
X4579Y-142914D03*
X3079Y-142914D03*
X9632Y-142952D03*
X8132Y-142952D03*
X-4182Y-144098D03*
X-5681Y-144098D03*
X9582Y-144415D03*
X8082Y-144415D03*
X29400Y-144000D03*
X27900Y-144000D03*
X26399Y-144000D03*
X24900Y-144000D03*
X72145Y-142868D03*
X70644Y-142868D03*
X86923Y-143699D03*
X85423Y-143699D03*
X70500Y-144500D03*
X69000Y-144500D03*
X9632Y-145878D03*
X8132Y-145878D03*
X86933Y-144908D03*
X85433Y-144908D03*
X9632Y-147341D03*
X8132Y-147341D03*
X-4182Y-147826D03*
X-5681Y-147826D03*
X17878Y-164793D03*
X16377Y-164793D03*
X17878Y-166339D03*
X16377Y-166339D03*
X17878Y-167886D03*
X16377Y-167886D03*
X28574Y-167550D03*
X27074Y-167550D03*
X21938Y-169035D03*
X20438Y-169035D03*
X17828Y-169482D03*
X16327Y-169482D03*
X25158Y-169064D03*
X23658Y-169064D03*
X28601Y-169126D03*
X27100Y-169126D03*
X28639Y-170798D03*
X27139Y-170798D03*
X4679Y-170906D03*
X3179Y-170906D03*
X1452Y-170906D03*
X-48Y-170906D03*
X17828Y-170979D03*
X16327Y-170979D03*
X11000Y-172700D03*
X9500Y-172700D03*
X7839Y-172700D03*
X6339Y-172700D03*
X4679Y-172700D03*
X3179Y-172700D03*
X1518Y-172700D03*
X18Y-172700D03*
X84782Y-170106D03*
X83282Y-170106D03*
X68944Y-170335D03*
X67444Y-170335D03*
X84782Y-171463D03*
X83282Y-171463D03*
X68939Y-171605D03*
X67439Y-171605D03*
X84782Y-172820D03*
X83282Y-172820D03*
X7839Y-174334D03*
X6339Y-174334D03*
X4679Y-174334D03*
X3179Y-174334D03*
X1518Y-174334D03*
X18Y-174334D03*
X11000Y-174341D03*
X9500Y-174341D03*
X84782Y-174177D03*
X83282Y-174177D03*
X47394Y-174478D03*
X45894Y-174478D03*
X7839Y-176000D03*
X6339Y-176000D03*
X10950Y-176033D03*
X9450Y-176033D03*
X64694Y-174650D03*
X63194Y-174650D03*
X84782Y-175534D03*
X83282Y-175534D03*
X7839Y-177650D03*
X6339Y-177650D03*
X10950Y-177674D03*
X9450Y-177674D03*
X67944Y-176150D03*
X66444Y-176150D03*
X84782Y-176891D03*
X83282Y-176891D03*
X65000Y-178050D03*
X63500Y-178050D03*
X7839Y-179300D03*
X6339Y-179300D03*
X10950Y-179316D03*
X9450Y-179316D03*
X84782Y-178248D03*
X83282Y-178248D03*
X17073Y-180863D03*
X15574Y-180863D03*
X13990Y-180882D03*
X12489Y-180882D03*
X7839Y-180950D03*
X6339Y-180950D03*
X10950Y-180958D03*
X9450Y-180958D03*
X68273Y-179282D03*
X66773Y-179282D03*
X84782Y-179606D03*
X83282Y-179606D03*
X68223Y-180944D03*
X66723Y-180944D03*
X26619Y-181654D03*
X25119Y-181654D03*
X44586Y-182241D03*
X43086Y-182241D03*
X16900Y-182600D03*
X15400Y-182600D03*
X13900Y-182600D03*
X12400Y-182600D03*
X10950Y-182600D03*
X9450Y-182600D03*
X7839Y-182600D03*
X6339Y-182600D03*
X26548Y-183157D03*
X25047Y-183157D03*
X23516Y-183157D03*
X22016Y-183157D03*
X68273Y-183414D03*
X66773Y-183414D03*
X43736Y-184177D03*
X42236Y-184177D03*
X7850Y-184189D03*
X6350Y-184189D03*
X19188Y-184192D03*
X17688Y-184192D03*
X11059Y-184207D03*
X9559Y-184207D03*
X23488Y-184782D03*
X21988Y-184782D03*
X26537Y-184801D03*
X25038Y-184801D03*
X65190Y-184827D03*
X63689Y-184827D03*
X68223Y-184836D03*
X66723Y-184836D03*
X43757Y-185645D03*
X42257Y-185645D03*
X7866Y-186010D03*
X6366Y-186010D03*
X11075Y-186042D03*
X9575Y-186042D03*
X23488Y-186193D03*
X21988Y-186193D03*
X68223Y-186209D03*
X66723Y-186209D03*
X23488Y-187604D03*
X21988Y-187604D03*
X11131Y-187796D03*
X9631Y-187796D03*
X7860Y-187803D03*
X6360Y-187803D03*
X68273Y-187531D03*
X66773Y-187531D03*
X19103Y-188445D03*
X17603Y-188445D03*
X23488Y-188945D03*
X21988Y-188945D03*
X7866Y-189411D03*
X6367Y-189411D03*
X11131Y-189459D03*
X9631Y-189459D03*
X19120Y-190025D03*
X17620Y-190025D03*
X16015Y-190057D03*
X14516Y-190057D03*
X68273Y-188904D03*
X66773Y-188904D03*
X23488Y-190333D03*
X21988Y-190333D03*
X9632Y-190938D03*
X8132Y-190938D03*
X65241Y-190276D03*
X63741Y-190276D03*
X68223Y-190326D03*
X66723Y-190326D03*
X9632Y-192401D03*
X8132Y-192401D03*
X23488Y-191843D03*
X21988Y-191843D03*
X23488Y-193309D03*
X21988Y-193309D03*
X9632Y-193864D03*
X8132Y-193864D03*
X61000Y-193700D03*
X59500Y-193700D03*
X23488Y-194819D03*
X21988Y-194819D03*
X9632Y-195327D03*
X8132Y-195327D03*
X84150Y-194132D03*
X82650Y-194132D03*
X23488Y-196330D03*
X21988Y-196330D03*
X9632Y-196789D03*
X8132Y-196789D03*
X43800Y-196199D03*
X42300Y-196199D03*
X23488Y-197841D03*
X21988Y-197841D03*
X-4182Y-197964D03*
X-5681Y-197964D03*
X4579Y-198214D03*
X3079Y-198214D03*
X9632Y-198253D03*
X8132Y-198253D03*
X-4182Y-199398D03*
X-5681Y-199398D03*
X9582Y-199716D03*
X8082Y-199716D03*
X29400Y-199300D03*
X27900Y-199300D03*
X26399Y-199300D03*
X24900Y-199300D03*
X72145Y-198168D03*
X70644Y-198168D03*
X86923Y-198999D03*
X85423Y-198999D03*
X70500Y-199800D03*
X69000Y-199800D03*
X9632Y-201178D03*
X8132Y-201178D03*
X86933Y-200208D03*
X85433Y-200208D03*
X9632Y-202641D03*
X8132Y-202641D03*
X-4182Y-203127D03*
X-5681Y-203127D03*
G54D72*
X9902Y44D03*
X8102Y44D03*
X6302Y44D03*
X4502Y44D03*
X42750Y-150D03*
X41141Y-150D03*
X39532Y-150D03*
X37923Y-150D03*
X9902Y-1456D03*
X8102Y-1456D03*
X6302Y-1456D03*
X4502Y-1456D03*
X42750Y-1649D03*
X41141Y-1649D03*
X39532Y-1649D03*
X37923Y-1649D03*
X51254Y-1403D03*
X58346Y-1553D03*
X56930Y-1553D03*
X55513Y-1553D03*
X54096Y-1553D03*
X35000Y-2900D03*
X33528Y-2919D03*
X51254Y-2903D03*
X58346Y-3053D03*
X56930Y-3053D03*
X55513Y-3053D03*
X54096Y-3053D03*
X44437Y-4229D03*
X35000Y-4399D03*
X33528Y-4420D03*
X39549Y-4873D03*
X37991Y-4873D03*
X44437Y-5729D03*
X28719Y-6304D03*
X39549Y-6373D03*
X37991Y-6373D03*
X54674Y-6975D03*
X28719Y-7804D03*
X54674Y-8474D03*
X28719Y-9391D03*
X28719Y-10891D03*
X16424Y-11342D03*
X37607Y-11493D03*
X36257Y-11493D03*
X34907Y-11493D03*
X33558Y-11493D03*
X16424Y-12842D03*
X37607Y-12993D03*
X36257Y-12993D03*
X34907Y-12993D03*
X33558Y-12993D03*
X28719Y-15620D03*
X28719Y-17120D03*
X3350Y-22131D03*
X29000Y-21900D03*
X3350Y-23631D03*
X29000Y-23399D03*
X44320Y-24110D03*
X44320Y-25610D03*
X12343Y-27027D03*
X-12724Y-28627D03*
X-14224Y-28627D03*
X-11121Y-28677D03*
X12343Y-28527D03*
X-12724Y-30126D03*
X-14224Y-30126D03*
X-11121Y-30176D03*
X4704Y-29240D03*
X1418Y-29276D03*
X-969Y-29276D03*
X3073Y-29281D03*
X51601Y-27950D03*
X54095Y-27955D03*
X52849Y-27955D03*
X4704Y-30740D03*
X1418Y-30776D03*
X-969Y-30776D03*
X3073Y-30781D03*
X19450Y-31049D03*
X51601Y-29449D03*
X52849Y-29455D03*
X54095Y-29456D03*
X19450Y-32550D03*
X51799Y-31939D03*
X63100Y-31201D03*
X63100Y-32701D03*
X51799Y-33439D03*
X9902Y-55256D03*
X8102Y-55256D03*
X6302Y-55256D03*
X4502Y-55256D03*
X42750Y-55449D03*
X41141Y-55449D03*
X39532Y-55449D03*
X37923Y-55449D03*
X9902Y-56756D03*
X8102Y-56756D03*
X6302Y-56756D03*
X4502Y-56756D03*
X42750Y-56950D03*
X41141Y-56950D03*
X39532Y-56950D03*
X37923Y-56950D03*
X51254Y-56703D03*
X58346Y-56853D03*
X56930Y-56853D03*
X55513Y-56853D03*
X54096Y-56853D03*
X35000Y-58199D03*
X33528Y-58220D03*
X51254Y-58203D03*
X58346Y-58353D03*
X56930Y-58353D03*
X55513Y-58353D03*
X54096Y-58353D03*
X44437Y-59529D03*
X35000Y-59700D03*
X33528Y-59719D03*
X39549Y-60173D03*
X37991Y-60173D03*
X44437Y-61029D03*
X28719Y-61604D03*
X39549Y-61673D03*
X37991Y-61673D03*
X54674Y-62275D03*
X28719Y-63104D03*
X54674Y-63775D03*
X28719Y-64691D03*
X28719Y-66191D03*
X16424Y-66642D03*
X37607Y-66793D03*
X36257Y-66793D03*
X34907Y-66793D03*
X33558Y-66793D03*
X16424Y-68142D03*
X37607Y-68293D03*
X36257Y-68293D03*
X34907Y-68293D03*
X33558Y-68293D03*
X28719Y-70920D03*
X28719Y-72420D03*
X3350Y-77431D03*
X29000Y-77199D03*
X3350Y-78931D03*
X29000Y-78700D03*
X44320Y-79410D03*
X44320Y-80910D03*
X12343Y-82327D03*
X-12724Y-83926D03*
X-14224Y-83926D03*
X-11121Y-83976D03*
X12343Y-83827D03*
X-12724Y-85426D03*
X-14224Y-85426D03*
X-11121Y-85477D03*
X4704Y-84540D03*
X1418Y-84576D03*
X-969Y-84576D03*
X3073Y-84581D03*
X51601Y-83249D03*
X52849Y-83255D03*
X54095Y-83256D03*
X4704Y-86040D03*
X1418Y-86076D03*
X-969Y-86076D03*
X3073Y-86081D03*
X19450Y-86350D03*
X51601Y-84750D03*
X54095Y-84755D03*
X52849Y-84755D03*
X19450Y-87849D03*
X51799Y-87239D03*
X63100Y-86501D03*
X63100Y-88001D03*
X51799Y-88739D03*
X9902Y-110556D03*
X8102Y-110556D03*
X6302Y-110556D03*
X4502Y-110556D03*
X42750Y-110750D03*
X41141Y-110750D03*
X39532Y-110750D03*
X37923Y-110750D03*
X9902Y-112056D03*
X8102Y-112056D03*
X6302Y-112056D03*
X4502Y-112056D03*
X42750Y-112250D03*
X41141Y-112250D03*
X39532Y-112250D03*
X37923Y-112250D03*
X51254Y-112003D03*
X58346Y-112153D03*
X56930Y-112153D03*
X55513Y-112153D03*
X54096Y-112153D03*
X35000Y-113500D03*
X33528Y-113519D03*
X51254Y-113503D03*
X58346Y-113653D03*
X56930Y-113653D03*
X55513Y-113653D03*
X54096Y-113653D03*
X44437Y-114829D03*
X35000Y-114999D03*
X33528Y-115020D03*
X39549Y-115473D03*
X37991Y-115473D03*
X44437Y-116329D03*
X28719Y-116904D03*
X39549Y-116972D03*
X37991Y-116972D03*
X54674Y-117574D03*
X28719Y-118404D03*
X54674Y-119075D03*
X28719Y-119991D03*
X28719Y-121491D03*
X16424Y-121942D03*
X37607Y-122093D03*
X36257Y-122093D03*
X34907Y-122093D03*
X33558Y-122093D03*
X16424Y-123442D03*
X37607Y-123593D03*
X36257Y-123593D03*
X34907Y-123593D03*
X33558Y-123593D03*
X28719Y-126220D03*
X28719Y-127720D03*
X3350Y-132731D03*
X29000Y-132499D03*
X3350Y-134231D03*
X29000Y-133999D03*
X44320Y-134710D03*
X44320Y-136210D03*
X12343Y-137627D03*
X-12724Y-139226D03*
X-14224Y-139226D03*
X-11121Y-139276D03*
X12343Y-139127D03*
X-12724Y-140727D03*
X-14224Y-140727D03*
X-11121Y-140776D03*
X4704Y-139840D03*
X1418Y-139876D03*
X-969Y-139876D03*
X3073Y-139881D03*
X51601Y-138550D03*
X54095Y-138555D03*
X52849Y-138555D03*
X4704Y-141340D03*
X1418Y-141376D03*
X-969Y-141376D03*
X3073Y-141381D03*
X19450Y-141650D03*
X51601Y-140049D03*
X54095Y-140055D03*
X52849Y-140055D03*
X19450Y-143149D03*
X51799Y-142539D03*
X63100Y-141801D03*
X63100Y-143301D03*
X51799Y-144039D03*
X9902Y-165856D03*
X8102Y-165856D03*
X6302Y-165856D03*
X4502Y-165856D03*
X42750Y-166049D03*
X41141Y-166049D03*
X39532Y-166049D03*
X37923Y-166050D03*
X9902Y-167356D03*
X8102Y-167356D03*
X6302Y-167356D03*
X4502Y-167356D03*
X42750Y-167549D03*
X41141Y-167549D03*
X39532Y-167549D03*
X37923Y-167549D03*
X51254Y-167303D03*
X58346Y-167453D03*
X56930Y-167453D03*
X55513Y-167453D03*
X54096Y-167453D03*
X35000Y-168799D03*
X33528Y-168819D03*
X51254Y-168803D03*
X58346Y-168953D03*
X56930Y-168953D03*
X55513Y-168953D03*
X54096Y-168953D03*
X44437Y-170129D03*
X35000Y-170300D03*
X33528Y-170319D03*
X39549Y-170772D03*
X37991Y-170772D03*
X44437Y-171629D03*
X28719Y-172204D03*
X39549Y-172273D03*
X37991Y-172273D03*
X54674Y-172875D03*
X28719Y-173704D03*
X54674Y-174374D03*
X28719Y-175291D03*
X28719Y-176791D03*
X16424Y-177242D03*
X37607Y-177393D03*
X36257Y-177393D03*
X34907Y-177393D03*
X33558Y-177393D03*
X16424Y-178742D03*
X37607Y-178893D03*
X36257Y-178893D03*
X34907Y-178893D03*
X33558Y-178893D03*
X28719Y-181520D03*
X28719Y-183020D03*
X3350Y-188031D03*
X29000Y-187800D03*
X3350Y-189531D03*
X29000Y-189299D03*
X44320Y-190010D03*
X44320Y-191510D03*
X12343Y-192927D03*
X-12724Y-194527D03*
X-14224Y-194527D03*
X-11121Y-194576D03*
X12343Y-194427D03*
X-12724Y-196026D03*
X-14224Y-196026D03*
X-11121Y-196076D03*
X4704Y-195140D03*
X1418Y-195176D03*
X-969Y-195176D03*
X3073Y-195181D03*
X51601Y-193849D03*
X54095Y-193855D03*
X52849Y-193855D03*
X4704Y-196640D03*
X1418Y-196676D03*
X-969Y-196676D03*
X3073Y-196681D03*
X19450Y-196949D03*
X51601Y-195350D03*
X52849Y-195355D03*
X54095Y-195356D03*
X19450Y-198450D03*
X51799Y-197839D03*
X63100Y-197101D03*
X63100Y-198601D03*
X51799Y-199339D03*
G54D73*
X1945Y0D03*
X0Y0D03*
X1945Y-1400D03*
X0Y-1400D03*
X6440Y-37341D03*
X4969Y-37341D03*
X3464Y-37341D03*
X6440Y-38741D03*
X4969Y-38741D03*
X3464Y-38741D03*
X1945Y-55300D03*
X0Y-55300D03*
X1945Y-56700D03*
X0Y-56700D03*
X6440Y-92641D03*
X4969Y-92641D03*
X3464Y-92641D03*
X6440Y-94042D03*
X4969Y-94042D03*
X3464Y-94042D03*
X1945Y-110600D03*
X0Y-110600D03*
X1945Y-112000D03*
X0Y-112000D03*
X6440Y-147941D03*
X4969Y-147941D03*
X3464Y-147941D03*
X6440Y-149341D03*
X4969Y-149341D03*
X3464Y-149341D03*
X1945Y-165900D03*
X0Y-165900D03*
X1945Y-167300D03*
X0Y-167300D03*
X6440Y-203241D03*
X4969Y-203241D03*
X3464Y-203241D03*
X6440Y-204641D03*
X4969Y-204641D03*
X3464Y-204641D03*
G54D74*
X50025Y-1232D03*
X49375Y-1232D03*
X48725Y-1232D03*
X48075Y-1232D03*
X47425Y-1232D03*
X46775Y-1232D03*
X46125Y-1232D03*
X45475Y-1232D03*
X50025Y-7067D03*
X49375Y-7067D03*
X48725Y-7067D03*
X48075Y-7067D03*
X47425Y-7067D03*
X46775Y-7067D03*
X46125Y-7067D03*
X45475Y-7067D03*
X50025Y-56532D03*
X49375Y-56532D03*
X48725Y-56532D03*
X48075Y-56532D03*
X47425Y-56532D03*
X46775Y-56532D03*
X46125Y-56532D03*
X45475Y-56532D03*
X50025Y-62367D03*
X49375Y-62367D03*
X48725Y-62367D03*
X48075Y-62367D03*
X47425Y-62367D03*
X46775Y-62367D03*
X46125Y-62367D03*
X45475Y-62367D03*
X50025Y-111832D03*
X49375Y-111832D03*
X48725Y-111832D03*
X48075Y-111832D03*
X47425Y-111832D03*
X46775Y-111832D03*
X46125Y-111832D03*
X45475Y-111832D03*
X50025Y-117667D03*
X49375Y-117667D03*
X48725Y-117667D03*
X48075Y-117667D03*
X47425Y-117667D03*
X46775Y-117667D03*
X46125Y-117667D03*
X45475Y-117667D03*
X50025Y-167132D03*
X49375Y-167132D03*
X48725Y-167132D03*
X48075Y-167132D03*
X47425Y-167132D03*
X46775Y-167132D03*
X46125Y-167132D03*
X45475Y-167132D03*
X50025Y-172967D03*
X49375Y-172967D03*
X48725Y-172967D03*
X48075Y-172967D03*
X47425Y-172967D03*
X46775Y-172967D03*
X46125Y-172967D03*
X45475Y-172967D03*
G54D75*
X34959Y-1399D03*
X34039Y-1399D03*
X26674Y-26773D03*
X25754Y-26773D03*
X26674Y-28406D03*
X25754Y-28406D03*
X26674Y-30088D03*
X25754Y-30088D03*
X54209Y-31299D03*
X53289Y-31299D03*
X26674Y-31686D03*
X25754Y-31686D03*
X64099Y-34742D03*
X63179Y-34742D03*
X34959Y-56699D03*
X34039Y-56699D03*
X26674Y-82073D03*
X25754Y-82073D03*
X26674Y-83706D03*
X25754Y-83706D03*
X26674Y-85388D03*
X25754Y-85388D03*
X54209Y-86599D03*
X53289Y-86599D03*
X26674Y-86986D03*
X25754Y-86986D03*
X64099Y-90043D03*
X63179Y-90043D03*
X34959Y-111999D03*
X34039Y-111999D03*
X26674Y-137373D03*
X25754Y-137373D03*
X26674Y-139006D03*
X25754Y-139006D03*
X26674Y-140688D03*
X25754Y-140688D03*
X54209Y-141899D03*
X53289Y-141899D03*
X26674Y-142285D03*
X25754Y-142285D03*
X64099Y-145342D03*
X63179Y-145342D03*
X34959Y-167299D03*
X34039Y-167299D03*
X26674Y-192673D03*
X25754Y-192673D03*
X26674Y-194306D03*
X25754Y-194306D03*
X26674Y-195988D03*
X25754Y-195988D03*
X54209Y-197199D03*
X53289Y-197199D03*
X26674Y-197586D03*
X25754Y-197586D03*
X64099Y-200642D03*
X63179Y-200642D03*
G54D76*
X69609Y-2875D03*
X67379Y-2875D03*
X69594Y-7103D03*
X67364Y-7103D03*
X69594Y-8728D03*
X67364Y-8728D03*
X23764Y-33399D03*
X21535Y-33399D03*
X69609Y-58175D03*
X67379Y-58175D03*
X69594Y-62403D03*
X67364Y-62403D03*
X69594Y-64028D03*
X67364Y-64028D03*
X23764Y-88700D03*
X21535Y-88700D03*
X69609Y-113475D03*
X67379Y-113475D03*
X69594Y-117703D03*
X67364Y-117703D03*
X69594Y-119328D03*
X67364Y-119328D03*
X23764Y-143999D03*
X21535Y-143999D03*
X69609Y-168775D03*
X67379Y-168775D03*
X69594Y-173003D03*
X67364Y-173003D03*
X69594Y-174628D03*
X67364Y-174628D03*
X23764Y-199299D03*
X21535Y-199299D03*
G54D77*
X65578Y-3165D03*
X60128Y-3165D03*
X65578Y-4435D03*
X60128Y-4435D03*
X65578Y-5705D03*
X60128Y-5705D03*
X65578Y-6975D03*
X60128Y-6975D03*
X65578Y-58465D03*
X60128Y-58465D03*
X65578Y-59735D03*
X60128Y-59735D03*
X65578Y-61005D03*
X60128Y-61005D03*
X65578Y-62275D03*
X60128Y-62275D03*
X65578Y-113765D03*
X60128Y-113765D03*
X65578Y-115035D03*
X60128Y-115035D03*
X65578Y-116305D03*
X60128Y-116305D03*
X65578Y-117575D03*
X60128Y-117575D03*
X65578Y-169065D03*
X60128Y-169065D03*
X65578Y-170335D03*
X60128Y-170335D03*
X65578Y-171605D03*
X60128Y-171605D03*
X65578Y-172875D03*
X60128Y-172875D03*
G54D79*
X24981Y-5942D03*
X24481Y-5942D03*
X23981Y-5942D03*
X23481Y-5942D03*
X22981Y-5942D03*
X22481Y-5942D03*
X21981Y-5942D03*
X21481Y-5942D03*
X20981Y-5942D03*
X20481Y-5942D03*
X19981Y-5942D03*
X19481Y-5942D03*
X24981Y-13992D03*
X24481Y-13992D03*
X23981Y-13992D03*
X23481Y-13992D03*
X22981Y-13992D03*
X22481Y-13992D03*
X21981Y-13992D03*
X21481Y-13992D03*
X20981Y-13992D03*
X20481Y-13992D03*
X19981Y-13992D03*
X19481Y-13992D03*
X24981Y-61242D03*
X24481Y-61242D03*
X23981Y-61242D03*
X23481Y-61242D03*
X22981Y-61242D03*
X22481Y-61242D03*
X21981Y-61242D03*
X21481Y-61242D03*
X20981Y-61242D03*
X20481Y-61242D03*
X19981Y-61242D03*
X19481Y-61242D03*
X24981Y-69292D03*
X24481Y-69292D03*
X23981Y-69292D03*
X23481Y-69292D03*
X22981Y-69292D03*
X22481Y-69292D03*
X21981Y-69292D03*
X21481Y-69292D03*
X20981Y-69292D03*
X20481Y-69292D03*
X19981Y-69292D03*
X19481Y-69292D03*
X24981Y-116542D03*
X24481Y-116542D03*
X23981Y-116542D03*
X23481Y-116542D03*
X22981Y-116542D03*
X22481Y-116542D03*
X21981Y-116542D03*
X21481Y-116542D03*
X20981Y-116542D03*
X20481Y-116542D03*
X19981Y-116542D03*
X19481Y-116542D03*
X24981Y-124592D03*
X24481Y-124592D03*
X23981Y-124592D03*
X23481Y-124592D03*
X22981Y-124592D03*
X22481Y-124592D03*
X21981Y-124592D03*
X21481Y-124592D03*
X20981Y-124592D03*
X20481Y-124592D03*
X19981Y-124592D03*
X19481Y-124592D03*
X24981Y-171842D03*
X24481Y-171842D03*
X23981Y-171842D03*
X23481Y-171842D03*
X22981Y-171842D03*
X22481Y-171842D03*
X21981Y-171842D03*
X21481Y-171842D03*
X20981Y-171842D03*
X20481Y-171842D03*
X19981Y-171842D03*
X19481Y-171842D03*
X24981Y-179892D03*
X24481Y-179892D03*
X23981Y-179892D03*
X23481Y-179892D03*
X22981Y-179892D03*
X22481Y-179892D03*
X21981Y-179892D03*
X21481Y-179892D03*
X20981Y-179892D03*
X20481Y-179892D03*
X19981Y-179892D03*
X19481Y-179892D03*
G54D84*
X26256Y-7217D03*
X18206Y-7217D03*
X26256Y-7717D03*
X18206Y-7717D03*
X26256Y-8217D03*
X18206Y-8217D03*
X26256Y-8717D03*
X18206Y-8717D03*
X26256Y-9217D03*
X18206Y-9217D03*
X26256Y-9717D03*
X18206Y-9717D03*
X26256Y-10217D03*
X18206Y-10217D03*
X26256Y-10717D03*
X18206Y-10717D03*
X26256Y-11217D03*
X18206Y-11217D03*
X26256Y-11717D03*
X18206Y-11717D03*
X26256Y-12217D03*
X18206Y-12217D03*
X26256Y-12717D03*
X18206Y-12717D03*
X26256Y-62517D03*
X18206Y-62517D03*
X26256Y-63017D03*
X18206Y-63017D03*
X26256Y-63517D03*
X18206Y-63517D03*
X26256Y-64017D03*
X18206Y-64017D03*
X26256Y-64517D03*
X18206Y-64517D03*
X26256Y-65017D03*
X18206Y-65017D03*
X26256Y-65517D03*
X18206Y-65517D03*
X26256Y-66017D03*
X18206Y-66017D03*
X26256Y-66517D03*
X18206Y-66517D03*
X26256Y-67017D03*
X18206Y-67017D03*
X26256Y-67517D03*
X18206Y-67517D03*
X26256Y-68017D03*
X18206Y-68017D03*
X26256Y-117817D03*
X18206Y-117817D03*
X26256Y-118317D03*
X18206Y-118317D03*
X26256Y-118817D03*
X18206Y-118817D03*
X26256Y-119317D03*
X18206Y-119317D03*
X26256Y-119817D03*
X18206Y-119817D03*
X26256Y-120317D03*
X18206Y-120317D03*
X26256Y-120817D03*
X18206Y-120817D03*
X26256Y-121317D03*
X18206Y-121317D03*
X26256Y-121817D03*
X18206Y-121817D03*
X26256Y-122317D03*
X18206Y-122317D03*
X26256Y-122817D03*
X18206Y-122817D03*
X26256Y-123317D03*
X18206Y-123317D03*
X26256Y-173117D03*
X18206Y-173117D03*
X26256Y-173617D03*
X18206Y-173617D03*
X26256Y-174117D03*
X18206Y-174117D03*
X26256Y-174617D03*
X18206Y-174617D03*
X26256Y-175117D03*
X18206Y-175117D03*
X26256Y-175617D03*
X18206Y-175617D03*
X26256Y-176117D03*
X18206Y-176117D03*
X26256Y-176617D03*
X18206Y-176617D03*
X26256Y-177117D03*
X18206Y-177117D03*
X26256Y-177617D03*
X18206Y-177617D03*
X26256Y-178117D03*
X18206Y-178117D03*
X26256Y-178617D03*
X18206Y-178617D03*
G54D85*
X35695Y-7813D03*
X40333Y-9757D03*
X24954Y-20189D03*
X24954Y-22109D03*
X40333Y-63137D03*
X27044Y-76449D03*
X40333Y-118437D03*
X24954Y-132709D03*
X27044Y-187049D03*
X24954Y-188009D03*
G54D88*
X40333Y-7837D03*
X38243Y-8797D03*
X38243Y-64097D03*
X40333Y-65057D03*
X24954Y-75489D03*
X24954Y-130789D03*
X40333Y-173737D03*
X38243Y-174697D03*
X24954Y-186089D03*
G54D89*
X33605Y-8772D03*
X33605Y-64072D03*
X35695Y-120332D03*
G54D90*
X4967Y-10139D03*
X3391Y-10139D03*
X4967Y-11756D03*
X3391Y-11756D03*
X4967Y-13373D03*
X3391Y-13373D03*
X4967Y-14990D03*
X3391Y-14990D03*
X4967Y-16607D03*
X3391Y-16607D03*
X84287Y-21649D03*
X82711Y-21649D03*
X84287Y-23649D03*
X82711Y-23649D03*
X84287Y-25399D03*
X82711Y-25399D03*
X86971Y-35649D03*
X85395Y-35649D03*
X4967Y-65439D03*
X3391Y-65439D03*
X4967Y-67056D03*
X3391Y-67056D03*
X4967Y-68673D03*
X3391Y-68673D03*
X4967Y-70290D03*
X3391Y-70290D03*
X4967Y-71907D03*
X3391Y-71907D03*
X84287Y-76949D03*
X82711Y-76949D03*
X84287Y-78949D03*
X82711Y-78949D03*
X84287Y-80699D03*
X82711Y-80699D03*
X86971Y-90949D03*
X85395Y-90949D03*
X4967Y-120739D03*
X3391Y-120739D03*
X4967Y-122356D03*
X3391Y-122356D03*
X4967Y-123973D03*
X3391Y-123973D03*
X4967Y-125590D03*
X3391Y-125590D03*
X4967Y-127207D03*
X3391Y-127207D03*
X84287Y-132249D03*
X82711Y-132249D03*
X84287Y-134249D03*
X82711Y-134249D03*
X84287Y-135999D03*
X82711Y-135999D03*
X86971Y-146249D03*
X85395Y-146249D03*
X4967Y-176039D03*
X3391Y-176039D03*
X4967Y-177656D03*
X3391Y-177656D03*
X4967Y-179273D03*
X3391Y-179273D03*
X4967Y-180890D03*
X3391Y-180890D03*
X4967Y-182507D03*
X3391Y-182507D03*
X84287Y-187549D03*
X82711Y-187549D03*
X84287Y-189549D03*
X82711Y-189549D03*
X84287Y-191299D03*
X82711Y-191299D03*
X86971Y-201549D03*
X85395Y-201549D03*
G54D93*
X35696Y-9732D03*
G54D95*
X60284Y-10438D03*
X59884Y-10438D03*
X59484Y-10438D03*
X59085Y-10438D03*
X58685Y-10438D03*
X58284Y-10438D03*
X57884Y-10438D03*
X57485Y-10438D03*
X57085Y-10438D03*
X56685Y-10438D03*
X56284Y-10438D03*
X55884Y-10438D03*
X55484Y-10438D03*
X55085Y-10438D03*
X54685Y-10438D03*
X54284Y-10438D03*
X53884Y-10438D03*
X53485Y-10438D03*
X53085Y-10438D03*
X52685Y-10438D03*
X52284Y-10438D03*
X51884Y-10438D03*
X51484Y-10438D03*
X51085Y-10438D03*
X50685Y-10438D03*
X50284Y-10438D03*
X49884Y-10438D03*
X49484Y-10438D03*
X49085Y-10438D03*
X48685Y-10438D03*
X48284Y-10438D03*
X47884Y-10438D03*
X60284Y-25914D03*
X59884Y-25914D03*
X59484Y-25914D03*
X59085Y-25914D03*
X58685Y-25914D03*
X58284Y-25914D03*
X57884Y-25914D03*
X57485Y-25914D03*
X57085Y-25914D03*
X56685Y-25914D03*
X56284Y-25914D03*
X55884Y-25914D03*
X55484Y-25914D03*
X55085Y-25914D03*
X54685Y-25914D03*
X54284Y-25914D03*
X53884Y-25914D03*
X53485Y-25914D03*
X53085Y-25914D03*
X52685Y-25914D03*
X52284Y-25914D03*
X51884Y-25914D03*
X51484Y-25914D03*
X51085Y-25914D03*
X50685Y-25914D03*
X50284Y-25914D03*
X49884Y-25914D03*
X49484Y-25914D03*
X49085Y-25914D03*
X48685Y-25914D03*
X48284Y-25914D03*
X47884Y-25914D03*
X60284Y-65737D03*
X59884Y-65737D03*
X59484Y-65737D03*
X59085Y-65737D03*
X58685Y-65737D03*
X58284Y-65737D03*
X57884Y-65737D03*
X57485Y-65737D03*
X57085Y-65737D03*
X56685Y-65737D03*
X56284Y-65737D03*
X55884Y-65737D03*
X55484Y-65737D03*
X55085Y-65737D03*
X54685Y-65737D03*
X54284Y-65737D03*
X53884Y-65737D03*
X53485Y-65737D03*
X53085Y-65737D03*
X52685Y-65737D03*
X52284Y-65737D03*
X51884Y-65737D03*
X51484Y-65737D03*
X51085Y-65737D03*
X50685Y-65737D03*
X50284Y-65737D03*
X49884Y-65737D03*
X49484Y-65737D03*
X49085Y-65737D03*
X48685Y-65737D03*
X48284Y-65737D03*
X47884Y-65737D03*
X60284Y-81213D03*
X59884Y-81213D03*
X59484Y-81213D03*
X59085Y-81213D03*
X58685Y-81213D03*
X58284Y-81213D03*
X57884Y-81213D03*
X57485Y-81213D03*
X57085Y-81213D03*
X56685Y-81213D03*
X56284Y-81213D03*
X55884Y-81213D03*
X55484Y-81213D03*
X55085Y-81213D03*
X54685Y-81213D03*
X54284Y-81213D03*
X53884Y-81213D03*
X53485Y-81213D03*
X53085Y-81213D03*
X52685Y-81213D03*
X52284Y-81213D03*
X51884Y-81213D03*
X51484Y-81213D03*
X51085Y-81213D03*
X50685Y-81213D03*
X50284Y-81213D03*
X49884Y-81213D03*
X49484Y-81213D03*
X49085Y-81213D03*
X48685Y-81213D03*
X48284Y-81213D03*
X47884Y-81213D03*
X60284Y-121038D03*
X59884Y-121038D03*
X59484Y-121038D03*
X59085Y-121038D03*
X58685Y-121038D03*
X58284Y-121038D03*
X57884Y-121038D03*
X57485Y-121038D03*
X57085Y-121038D03*
X56685Y-121038D03*
X56284Y-121038D03*
X55884Y-121038D03*
X55484Y-121038D03*
X55085Y-121038D03*
X54685Y-121038D03*
X54284Y-121038D03*
X53884Y-121038D03*
X53485Y-121038D03*
X53085Y-121038D03*
X52685Y-121038D03*
X52284Y-121038D03*
X51884Y-121038D03*
X51484Y-121038D03*
X51085Y-121038D03*
X50685Y-121038D03*
X50284Y-121038D03*
X49884Y-121038D03*
X49484Y-121038D03*
X49085Y-121038D03*
X48685Y-121038D03*
X48284Y-121038D03*
X47884Y-121038D03*
X60284Y-136514D03*
X59884Y-136514D03*
X59484Y-136514D03*
X59085Y-136514D03*
X58685Y-136514D03*
X58284Y-136514D03*
X57884Y-136514D03*
X57485Y-136514D03*
X57085Y-136514D03*
X56685Y-136514D03*
X56284Y-136514D03*
X55884Y-136514D03*
X55484Y-136514D03*
X55085Y-136514D03*
X54685Y-136514D03*
X54284Y-136514D03*
X53884Y-136514D03*
X53485Y-136514D03*
X53085Y-136514D03*
X52685Y-136514D03*
X52284Y-136514D03*
X51884Y-136514D03*
X51484Y-136514D03*
X51085Y-136514D03*
X50685Y-136514D03*
X50284Y-136514D03*
X49884Y-136514D03*
X49484Y-136514D03*
X49085Y-136514D03*
X48685Y-136514D03*
X48284Y-136514D03*
X47884Y-136514D03*
X60284Y-176337D03*
X59884Y-176337D03*
X59484Y-176337D03*
X59085Y-176337D03*
X58685Y-176337D03*
X58284Y-176337D03*
X57884Y-176337D03*
X57485Y-176337D03*
X57085Y-176337D03*
X56685Y-176337D03*
X56284Y-176337D03*
X55884Y-176337D03*
X55484Y-176337D03*
X55085Y-176337D03*
X54685Y-176337D03*
X54284Y-176337D03*
X53884Y-176337D03*
X53485Y-176337D03*
X53085Y-176337D03*
X52685Y-176337D03*
X52284Y-176337D03*
X51884Y-176337D03*
X51484Y-176337D03*
X51085Y-176337D03*
X50685Y-176337D03*
X50284Y-176337D03*
X49884Y-176337D03*
X49484Y-176337D03*
X49085Y-176337D03*
X48685Y-176337D03*
X48284Y-176337D03*
X47884Y-176337D03*
X60284Y-191813D03*
X59884Y-191813D03*
X59484Y-191813D03*
X59085Y-191813D03*
X58685Y-191813D03*
X58284Y-191813D03*
X57884Y-191813D03*
X57485Y-191813D03*
X57085Y-191813D03*
X56685Y-191813D03*
X56284Y-191813D03*
X55884Y-191813D03*
X55484Y-191813D03*
X55085Y-191813D03*
X54685Y-191813D03*
X54284Y-191813D03*
X53884Y-191813D03*
X53485Y-191813D03*
X53085Y-191813D03*
X52685Y-191813D03*
X52284Y-191813D03*
X51884Y-191813D03*
X51484Y-191813D03*
X51085Y-191813D03*
X50685Y-191813D03*
X50284Y-191813D03*
X49884Y-191813D03*
X49484Y-191813D03*
X49085Y-191813D03*
X48685Y-191813D03*
X48284Y-191813D03*
X47884Y-191813D03*
G54D98*
X64769Y-10250D03*
X62619Y-10250D03*
X64769Y-65550D03*
X62619Y-65550D03*
X64769Y-120850D03*
X62619Y-120850D03*
X64769Y-176150D03*
X62619Y-176150D03*
G54D99*
X61821Y-11976D03*
X46345Y-11976D03*
X61821Y-12376D03*
X46345Y-12376D03*
X61821Y-12776D03*
X46345Y-12776D03*
X61821Y-13176D03*
X46345Y-13176D03*
X61821Y-13576D03*
X46345Y-13576D03*
X61821Y-13977D03*
X46345Y-13977D03*
X61821Y-14376D03*
X46345Y-14376D03*
X61821Y-14777D03*
X46345Y-14777D03*
X61821Y-15176D03*
X46345Y-15176D03*
X61821Y-15576D03*
X46345Y-15576D03*
X61821Y-15976D03*
X46345Y-15976D03*
X61821Y-16376D03*
X46345Y-16376D03*
X61821Y-16776D03*
X46345Y-16776D03*
X61821Y-17176D03*
X46345Y-17176D03*
X61821Y-17576D03*
X46345Y-17576D03*
X61821Y-17976D03*
X46345Y-17976D03*
X61821Y-18377D03*
X46345Y-18377D03*
X61821Y-18776D03*
X46345Y-18776D03*
X61821Y-19177D03*
X46345Y-19177D03*
X61821Y-19576D03*
X46345Y-19576D03*
X61821Y-19976D03*
X46345Y-19976D03*
X61821Y-20376D03*
X46345Y-20376D03*
X61821Y-20776D03*
X46345Y-20776D03*
X61821Y-21176D03*
X46345Y-21176D03*
X61821Y-21576D03*
X46345Y-21576D03*
X61821Y-21976D03*
X46345Y-21976D03*
X61821Y-22376D03*
X46345Y-22376D03*
X61821Y-22777D03*
X46345Y-22777D03*
X61821Y-23176D03*
X46345Y-23176D03*
X61821Y-23577D03*
X46345Y-23577D03*
X61821Y-23976D03*
X46345Y-23976D03*
X61821Y-24376D03*
X46345Y-24376D03*
X61821Y-67276D03*
X46345Y-67276D03*
X61821Y-67677D03*
X46345Y-67677D03*
X61821Y-68076D03*
X46345Y-68076D03*
X61821Y-68477D03*
X46345Y-68477D03*
X61821Y-68876D03*
X46345Y-68876D03*
X61821Y-69277D03*
X46345Y-69277D03*
X61821Y-69676D03*
X46345Y-69676D03*
X61821Y-70076D03*
X46345Y-70076D03*
X61821Y-70476D03*
X46345Y-70476D03*
X61821Y-70876D03*
X46345Y-70876D03*
X61821Y-71276D03*
X46345Y-71276D03*
X61821Y-71676D03*
X46345Y-71676D03*
X61821Y-72077D03*
X46345Y-72077D03*
X61821Y-72476D03*
X46345Y-72476D03*
X61821Y-72877D03*
X46345Y-72877D03*
X61821Y-73276D03*
X46345Y-73276D03*
X61821Y-73677D03*
X46345Y-73677D03*
X61821Y-74076D03*
X46345Y-74076D03*
X61821Y-74476D03*
X46345Y-74476D03*
X61821Y-74876D03*
X46345Y-74876D03*
X61821Y-75276D03*
X46345Y-75276D03*
X61821Y-75676D03*
X46345Y-75676D03*
X61821Y-76076D03*
X46345Y-76076D03*
X61821Y-76477D03*
X46345Y-76477D03*
X61821Y-76876D03*
X46345Y-76876D03*
X61821Y-77277D03*
X46345Y-77277D03*
X61821Y-77676D03*
X46345Y-77676D03*
X61821Y-78077D03*
X46345Y-78077D03*
X61821Y-78476D03*
X46345Y-78476D03*
X61821Y-78876D03*
X46345Y-78876D03*
X61821Y-79276D03*
X46345Y-79276D03*
X61821Y-79676D03*
X46345Y-79676D03*
X61821Y-122576D03*
X46345Y-122576D03*
X61821Y-122976D03*
X46345Y-122976D03*
X61821Y-123376D03*
X46345Y-123376D03*
X61821Y-123776D03*
X46345Y-123776D03*
X61821Y-124176D03*
X46345Y-124176D03*
X61821Y-124576D03*
X46345Y-124576D03*
X61821Y-124976D03*
X46345Y-124976D03*
X61821Y-125376D03*
X46345Y-125376D03*
X61821Y-125776D03*
X46345Y-125776D03*
X61821Y-126176D03*
X46346Y-126176D03*
X61821Y-126576D03*
X46345Y-126576D03*
X61821Y-126976D03*
X46345Y-126976D03*
X61821Y-127376D03*
X46345Y-127376D03*
X61821Y-127776D03*
X46345Y-127776D03*
X61821Y-128176D03*
X46345Y-128176D03*
X61821Y-128576D03*
X46345Y-128576D03*
X61821Y-128976D03*
X46345Y-128976D03*
X61821Y-129376D03*
X46345Y-129376D03*
X61821Y-129776D03*
X46345Y-129776D03*
X61821Y-130176D03*
X46345Y-130176D03*
X61821Y-130576D03*
X46345Y-130576D03*
X61821Y-130976D03*
X46345Y-130976D03*
X61821Y-131376D03*
X46345Y-131376D03*
X61821Y-131776D03*
X46345Y-131776D03*
X61821Y-132176D03*
X46345Y-132176D03*
X61821Y-132576D03*
X46345Y-132576D03*
X61821Y-132976D03*
X46345Y-132976D03*
X61821Y-133376D03*
X46345Y-133376D03*
X61821Y-133776D03*
X46345Y-133776D03*
X61821Y-134176D03*
X46345Y-134176D03*
X61821Y-134576D03*
X46345Y-134576D03*
X61821Y-134976D03*
X46345Y-134976D03*
X61821Y-177876D03*
X46345Y-177876D03*
X61821Y-178276D03*
X46345Y-178276D03*
X61821Y-178676D03*
X46345Y-178676D03*
X61821Y-179076D03*
X46345Y-179076D03*
X61821Y-179476D03*
X46345Y-179476D03*
X61821Y-179876D03*
X46345Y-179876D03*
X61821Y-180276D03*
X46345Y-180276D03*
X61821Y-180676D03*
X46345Y-180676D03*
X61821Y-181076D03*
X46345Y-181076D03*
X61821Y-181476D03*
X46345Y-181476D03*
X61821Y-181876D03*
X46345Y-181876D03*
X61821Y-182276D03*
X46345Y-182276D03*
X61821Y-182676D03*
X46345Y-182676D03*
X61821Y-183076D03*
X46345Y-183076D03*
X61821Y-183476D03*
X46345Y-183476D03*
X61821Y-183876D03*
X46345Y-183876D03*
X61821Y-184276D03*
X46345Y-184276D03*
X61821Y-184676D03*
X46345Y-184676D03*
X61821Y-185076D03*
X46345Y-185076D03*
X61821Y-185476D03*
X46345Y-185476D03*
X61821Y-185876D03*
X46345Y-185876D03*
X61821Y-186276D03*
X46345Y-186276D03*
X61821Y-186676D03*
X46345Y-186676D03*
X61821Y-187076D03*
X46345Y-187076D03*
X61821Y-187476D03*
X46345Y-187476D03*
X61821Y-187876D03*
X46345Y-187876D03*
X61821Y-188276D03*
X46345Y-188276D03*
X61821Y-188676D03*
X46345Y-188676D03*
X61821Y-189076D03*
X46345Y-189076D03*
X61821Y-189476D03*
X46345Y-189476D03*
X61821Y-189876D03*
X46345Y-189876D03*
X61821Y-190276D03*
X46345Y-190276D03*
G54D106*
X14681Y-18391D03*
X14181Y-18391D03*
G54D107*
X13681Y-18391D03*
X13181Y-18391D03*
X15681Y-18391D03*
X15181Y-18391D03*
X15681Y-22142D03*
X15181Y-22142D03*
X14681Y-22142D03*
X14181Y-22142D03*
X13681Y-22142D03*
X13181Y-22142D03*
X15681Y-73691D03*
X15181Y-73691D03*
X14681Y-73691D03*
X14181Y-73691D03*
X13681Y-73691D03*
X13181Y-73691D03*
X15681Y-77442D03*
X15181Y-77442D03*
X14681Y-77442D03*
X14181Y-77442D03*
X13681Y-77442D03*
X13181Y-77442D03*
X15681Y-128991D03*
X15181Y-128991D03*
X14681Y-128991D03*
X14181Y-128991D03*
X13681Y-128991D03*
X13181Y-128991D03*
X15681Y-132742D03*
X15181Y-132742D03*
X14681Y-132742D03*
X14181Y-132742D03*
X13681Y-132742D03*
X13181Y-132742D03*
X15681Y-184291D03*
X15181Y-184291D03*
X14681Y-184291D03*
X14181Y-184291D03*
X13681Y-184291D03*
X13181Y-184291D03*
X15681Y-188042D03*
X15181Y-188042D03*
X14681Y-188042D03*
X14181Y-188042D03*
X13681Y-188042D03*
X13181Y-188042D03*
G54D108*
X16306Y-19016D03*
X12555Y-19017D03*
X16306Y-19517D03*
X12555Y-19517D03*
X12555Y-20017D03*
X16306Y-20017D03*
X12555Y-20518D03*
X12555Y-21017D03*
X16306Y-20518D03*
X16306Y-21017D03*
X16305Y-21516D03*
X12555Y-21516D03*
X16306Y-74317D03*
X12555Y-74317D03*
X12555Y-74816D03*
X16306Y-74817D03*
X12555Y-75317D03*
X16306Y-75317D03*
X12555Y-75817D03*
X12555Y-76317D03*
X16306Y-75817D03*
X16306Y-76317D03*
X16305Y-76817D03*
X12555Y-76818D03*
X12555Y-129616D03*
X16306Y-129617D03*
X16306Y-130117D03*
X12555Y-130117D03*
X12555Y-130617D03*
X16306Y-130616D03*
X12555Y-131117D03*
X12555Y-131617D03*
X16306Y-131117D03*
X16306Y-131617D03*
X16305Y-132116D03*
X12555Y-132117D03*
X16306Y-184916D03*
X12555Y-184917D03*
X16306Y-185417D03*
X12555Y-185417D03*
X12555Y-185917D03*
X16306Y-185917D03*
X12555Y-186417D03*
X12555Y-186917D03*
X16306Y-186417D03*
X16306Y-186917D03*
X16305Y-187416D03*
X12555Y-187417D03*
G54D109*
X14904Y-19792D03*
X13957Y-19792D03*
X14904Y-20739D03*
X13957Y-20739D03*
X14904Y-75093D03*
X13957Y-75093D03*
X14904Y-76039D03*
X13957Y-76039D03*
X14904Y-130393D03*
X13957Y-130393D03*
X14904Y-131339D03*
X13957Y-131339D03*
X14904Y-185692D03*
X13957Y-185692D03*
X14904Y-186639D03*
X13957Y-186639D03*
G54D111*
X-1032Y-20724D03*
X-1032Y-76024D03*
X-1032Y-131324D03*
X-1032Y-186624D03*
G54D115*
X36415Y-20369D03*
X32350Y-20369D03*
X36415Y-21639D03*
X32350Y-21639D03*
X36415Y-22909D03*
X32350Y-22909D03*
X36415Y-24179D03*
X32350Y-24179D03*
X36415Y-25449D03*
X32350Y-25449D03*
X36415Y-26719D03*
X32350Y-26719D03*
X36415Y-27989D03*
X32350Y-27989D03*
X36415Y-29259D03*
X32350Y-29259D03*
X36415Y-30529D03*
X32350Y-30529D03*
X36415Y-31799D03*
X32350Y-31799D03*
X36415Y-75669D03*
X32350Y-75669D03*
X36415Y-76939D03*
X32350Y-76939D03*
X36415Y-78209D03*
X32350Y-78209D03*
X36415Y-79479D03*
X32350Y-79479D03*
X36415Y-80749D03*
X32350Y-80749D03*
X36415Y-82019D03*
X32350Y-82019D03*
X36415Y-83289D03*
X32350Y-83289D03*
X36415Y-84559D03*
X32350Y-84559D03*
X36415Y-85829D03*
X32350Y-85829D03*
X36415Y-87099D03*
X32350Y-87099D03*
X36415Y-130969D03*
X32350Y-130969D03*
X36415Y-132239D03*
X32350Y-132239D03*
X36415Y-133509D03*
X32350Y-133509D03*
X36415Y-134779D03*
X32350Y-134779D03*
X36415Y-136049D03*
X32350Y-136049D03*
X36415Y-137319D03*
X32350Y-137319D03*
X36415Y-138589D03*
X32350Y-138589D03*
X36415Y-139859D03*
X32350Y-139859D03*
X36415Y-141129D03*
X32350Y-141129D03*
X36415Y-142399D03*
X32350Y-142399D03*
X36415Y-186269D03*
X32350Y-186269D03*
X36415Y-187539D03*
X32350Y-187539D03*
X36415Y-188809D03*
X32350Y-188809D03*
X36415Y-190079D03*
X32350Y-190079D03*
X36415Y-191349D03*
X32350Y-191349D03*
X36415Y-192619D03*
X32350Y-192619D03*
X36415Y-193889D03*
X32350Y-193889D03*
X36415Y-195159D03*
X32350Y-195159D03*
X36415Y-196429D03*
X32350Y-196429D03*
X36415Y-197699D03*
X32350Y-197699D03*
G54D117*
X94012Y-21400D03*
X94012Y-26900D03*
X94012Y-76700D03*
X94012Y-82200D03*
X94012Y-131999D03*
X94012Y-137500D03*
X94012Y-187300D03*
X94012Y-192800D03*
G54D118*
X27044Y-21149D03*
X35695Y-63112D03*
X35695Y-65032D03*
X33605Y-119372D03*
X35695Y-173712D03*
G54D126*
X95762Y-23149D03*
X95762Y-23649D03*
X95762Y-24149D03*
X95762Y-24649D03*
X95762Y-25149D03*
X95762Y-78449D03*
X95762Y-78949D03*
X95762Y-79449D03*
X95762Y-79949D03*
X95762Y-80449D03*
X95762Y-133749D03*
X95762Y-134249D03*
X95762Y-134749D03*
X95762Y-135249D03*
X95762Y-135749D03*
X95762Y-189049D03*
X95762Y-189549D03*
X95762Y-190049D03*
X95762Y-190549D03*
X95762Y-191049D03*
G54D137*
X1268Y-27074D03*
X-1032Y-27074D03*
X-3332Y-27074D03*
X1268Y-82374D03*
X-1032Y-82374D03*
X-3332Y-82374D03*
X1268Y-137674D03*
X-1032Y-137674D03*
X-3332Y-137674D03*
X1268Y-192974D03*
X-1032Y-192974D03*
X-3332Y-192974D03*
G54D140*
X-6832Y-29300D03*
X-8732Y-29300D03*
X-6832Y-84599D03*
X-8732Y-84599D03*
X-6832Y-139900D03*
X-8732Y-139900D03*
X-6832Y-195199D03*
X-8732Y-195199D03*
G54D143*
X68697Y-26506D03*
X67427Y-26506D03*
X66157Y-26506D03*
X64887Y-26506D03*
X68697Y-31906D03*
X67427Y-31906D03*
X66157Y-31906D03*
X64887Y-31906D03*
X68697Y-81806D03*
X67427Y-81806D03*
X66157Y-81806D03*
X64887Y-81806D03*
X68697Y-87206D03*
X67427Y-87206D03*
X66157Y-87206D03*
X64887Y-87206D03*
X68697Y-137106D03*
X67427Y-137106D03*
X66157Y-137106D03*
X64887Y-137106D03*
X68697Y-142506D03*
X67427Y-142506D03*
X66157Y-142506D03*
X64887Y-142506D03*
X68697Y-192406D03*
X67427Y-192406D03*
X66157Y-192406D03*
X64887Y-192406D03*
X68697Y-197806D03*
X67427Y-197806D03*
X66157Y-197806D03*
X64887Y-197806D03*
G54D146*
X56500Y-28700D03*
X56500Y-30600D03*
X56500Y-84000D03*
X56500Y-85899D03*
X56500Y-139300D03*
X56500Y-141200D03*
X56500Y-194599D03*
X56500Y-196499D03*
G54D149*
X17505Y-29695D03*
X12555Y-29695D03*
X17505Y-30965D03*
X12555Y-30965D03*
X17505Y-32235D03*
X12555Y-32235D03*
X17505Y-33505D03*
X12555Y-33505D03*
X17505Y-84994D03*
X12555Y-84994D03*
X17505Y-86264D03*
X12555Y-86264D03*
X17505Y-87534D03*
X12555Y-87534D03*
X17505Y-88804D03*
X12555Y-88804D03*
X17505Y-140294D03*
X12555Y-140294D03*
X17505Y-141564D03*
X12555Y-141564D03*
X17505Y-142834D03*
X12555Y-142834D03*
X17505Y-144104D03*
X12555Y-144104D03*
X17505Y-195594D03*
X12555Y-195594D03*
X17505Y-196864D03*
X12555Y-196864D03*
X17505Y-198134D03*
X12555Y-198134D03*
X17505Y-199404D03*
X12555Y-199404D03*
G54D152*
X-9750Y-32970D03*
X-10250Y-32970D03*
X-10750Y-32970D03*
X-11250Y-32970D03*
X-11750Y-32970D03*
X-12250Y-32970D03*
X-12750Y-32970D03*
X-13250Y-32970D03*
X-13750Y-32970D03*
X-14250Y-32970D03*
X-14750Y-32970D03*
X-15250Y-32970D03*
X-9750Y-88270D03*
X-10250Y-88270D03*
X-10750Y-88270D03*
X-11250Y-88270D03*
X-11750Y-88270D03*
X-12250Y-88270D03*
X-12750Y-88270D03*
X-13250Y-88270D03*
X-13750Y-88270D03*
X-14250Y-88270D03*
X-14750Y-88270D03*
X-15250Y-88270D03*
X-9750Y-143569D03*
X-10250Y-143569D03*
X-10750Y-143569D03*
X-11250Y-143569D03*
X-11750Y-143569D03*
X-12250Y-143569D03*
X-12750Y-143569D03*
X-13250Y-143569D03*
X-13750Y-143569D03*
X-14250Y-143569D03*
X-14750Y-143569D03*
X-15250Y-143569D03*
X-9750Y-198869D03*
X-10250Y-198869D03*
X-10750Y-198869D03*
X-11250Y-198869D03*
X-11750Y-198869D03*
X-12250Y-198869D03*
X-12750Y-198869D03*
X-13250Y-198869D03*
X-13750Y-198869D03*
X-14250Y-198869D03*
X-14750Y-198869D03*
X-15250Y-198869D03*
G54D155*
X49833Y-32095D03*
X42663Y-32095D03*
X49833Y-33365D03*
X42663Y-33365D03*
X49833Y-34635D03*
X42663Y-34635D03*
X49833Y-35905D03*
X42663Y-35905D03*
X49833Y-87395D03*
X42663Y-87395D03*
X49833Y-88665D03*
X42663Y-88665D03*
X49833Y-89935D03*
X42663Y-89935D03*
X49833Y-91205D03*
X42663Y-91205D03*
X49833Y-142695D03*
X42663Y-142695D03*
X49833Y-143965D03*
X42663Y-143965D03*
X49833Y-145235D03*
X42663Y-145235D03*
X49833Y-146505D03*
X42663Y-146505D03*
X49833Y-197995D03*
X42663Y-197995D03*
X49833Y-199265D03*
X42663Y-199265D03*
X49833Y-200535D03*
X42663Y-200535D03*
X49833Y-201805D03*
X42663Y-201805D03*
G54D156*
X2968Y-33696D03*
X1069Y-33695D03*
X2019Y-33696D03*
X2968Y-35797D03*
X2968Y-88996D03*
X1069Y-88996D03*
X2019Y-88996D03*
X2968Y-91096D03*
X2968Y-144296D03*
X1069Y-144296D03*
X2968Y-146397D03*
X2019Y-146397D03*
X2968Y-199596D03*
X1069Y-199596D03*
X2968Y-201697D03*
G54D160*
X-16770Y-35354D03*
X-8230Y-35354D03*
X-8230Y-40084D03*
X-16770Y-40084D03*
X-16770Y-90653D03*
X-8230Y-90653D03*
X-8230Y-95383D03*
X-16770Y-95383D03*
X-16770Y-145954D03*
X-8230Y-145954D03*
X-8230Y-150684D03*
X-16770Y-150684D03*
X-16770Y-201253D03*
X-8230Y-201253D03*
X-8230Y-205983D03*
X-16770Y-205983D03*
G54D161*
X67750Y-34149D03*
X66450Y-34149D03*
X67100Y-36399D03*
X67750Y-89450D03*
X66450Y-89450D03*
X67100Y-91700D03*
X67750Y-144749D03*
X66450Y-144749D03*
X67100Y-146999D03*
X67750Y-200050D03*
X66450Y-200050D03*
X67100Y-202299D03*
G54D164*
X-2032Y-35369D03*
X-5331Y-35369D03*
X-2032Y-90670D03*
X-5331Y-90670D03*
X-2032Y-145969D03*
X-5331Y-145969D03*
X-2032Y-201270D03*
X-5331Y-201270D03*
G54D165*
X1069Y-35796D03*
X1069Y-91097D03*
X1069Y-146396D03*
X1069Y-201696D03*
G54D166*
X2018Y-35797D03*
X2018Y-91096D03*
X2018Y-144296D03*
X2018Y-199596D03*
X2018Y-201697D03*
G54D206*
X24954Y-77409D03*
G54D244*
X35695Y-118412D03*
X33605Y-174672D03*
G54D251*
X38243Y-119397D03*
X40333Y-175657D03*
G54D253*
X40333Y-120357D03*
G54D269*
X27044Y-131749D03*
G54D318*
X35695Y-175632D03*
M02*
