G04*
G04 #@! TF.GenerationSoftware,Altium Limited,Altium Designer,23.1.1 (15)*
G04*
G04 Layer_Color=16711935*
%FSLAX25Y25*%
%MOIN*%
G70*
G04*
G04 #@! TF.SameCoordinates,62433247-A29E-43A8-B4B8-56B850690A23*
G04*
G04*
G04 #@! TF.FilePolarity,Negative*
G04*
G01*
G75*
G04:AMPARAMS|DCode=140|XSize=59.06mil|YSize=86.61mil|CornerRadius=6.5mil|HoleSize=0mil|Usage=FLASHONLY|Rotation=90.000|XOffset=0mil|YOffset=0mil|HoleType=Round|Shape=RoundedRectangle|*
%AMROUNDEDRECTD140*
21,1,0.05906,0.07362,0,0,90.0*
21,1,0.04606,0.08661,0,0,90.0*
1,1,0.01299,0.03681,0.02303*
1,1,0.01299,0.03681,-0.02303*
1,1,0.01299,-0.03681,-0.02303*
1,1,0.01299,-0.03681,0.02303*
%
%ADD140ROUNDEDRECTD140*%
G04:AMPARAMS|DCode=141|XSize=63.87mil|YSize=63.87mil|CornerRadius=0mil|HoleSize=0mil|Usage=FLASHONLY|Rotation=90.000|XOffset=0mil|YOffset=0mil|HoleType=Round|Shape=Octagon|*
%AMOCTAGOND141*
4,1,8,0.01597,0.03194,-0.01597,0.03194,-0.03194,0.01597,-0.03194,-0.01597,-0.01597,-0.03194,0.01597,-0.03194,0.03194,-0.01597,0.03194,0.01597,0.01597,0.03194,0.0*
%
%ADD141OCTAGOND141*%

G04:AMPARAMS|DCode=142|XSize=73.87mil|YSize=73.87mil|CornerRadius=0mil|HoleSize=0mil|Usage=FLASHONLY|Rotation=270.000|XOffset=0mil|YOffset=0mil|HoleType=Round|Shape=Octagon|*
%AMOCTAGOND142*
4,1,8,-0.01847,-0.03694,0.01847,-0.03694,0.03694,-0.01847,0.03694,0.01847,0.01847,0.03694,-0.01847,0.03694,-0.03694,0.01847,-0.03694,-0.01847,-0.01847,-0.03694,0.0*
%
%ADD142OCTAGOND142*%

%ADD143C,0.07677*%
%ADD144O,0.04724X0.07087*%
%ADD145C,0.03347*%
%ADD146C,0.06693*%
%ADD147C,0.05472*%
%ADD148C,0.13385*%
%ADD149R,0.14173X0.02362*%
%ADD150R,0.06693X0.06693*%
D140*
X91142Y75787D02*
D03*
X58268D02*
D03*
Y58071D02*
D03*
X91142D02*
D03*
X484857Y35455D02*
D03*
X451983D02*
D03*
Y53171D02*
D03*
X484857D02*
D03*
X118965Y144360D02*
D03*
X86090D02*
D03*
Y126643D02*
D03*
X118965D02*
D03*
X91405Y116801D02*
D03*
X58531D02*
D03*
Y99084D02*
D03*
X91405D02*
D03*
Y171919D02*
D03*
X58531D02*
D03*
Y154202D02*
D03*
X91405D02*
D03*
X63846Y144360D02*
D03*
X30972D02*
D03*
Y126643D02*
D03*
X63846D02*
D03*
X91142Y293504D02*
D03*
X58268D02*
D03*
Y275787D02*
D03*
X91142D02*
D03*
X484857Y253171D02*
D03*
X451983D02*
D03*
Y270888D02*
D03*
X484857D02*
D03*
X118965Y362076D02*
D03*
X86090D02*
D03*
Y344360D02*
D03*
X118965D02*
D03*
X91405Y334517D02*
D03*
X58531D02*
D03*
Y316801D02*
D03*
X91405D02*
D03*
Y389635D02*
D03*
X58531D02*
D03*
Y371919D02*
D03*
X91405D02*
D03*
X63846Y362076D02*
D03*
X30972D02*
D03*
Y344360D02*
D03*
X63846D02*
D03*
X91142Y511220D02*
D03*
X58268D02*
D03*
Y493504D02*
D03*
X91142D02*
D03*
X484857Y470888D02*
D03*
X451983D02*
D03*
Y488604D02*
D03*
X484857D02*
D03*
X118965Y579793D02*
D03*
X86090D02*
D03*
Y562076D02*
D03*
X118965D02*
D03*
X91405Y552234D02*
D03*
X58531D02*
D03*
Y534517D02*
D03*
X91405D02*
D03*
Y607352D02*
D03*
X58531D02*
D03*
Y589635D02*
D03*
X91405D02*
D03*
X63846Y579793D02*
D03*
X30972D02*
D03*
Y562076D02*
D03*
X63846D02*
D03*
X91142Y728937D02*
D03*
X58268D02*
D03*
Y711220D02*
D03*
X91142D02*
D03*
X484857Y688604D02*
D03*
X451983D02*
D03*
Y706321D02*
D03*
X484857D02*
D03*
X118965Y797509D02*
D03*
X86090D02*
D03*
Y779793D02*
D03*
X118965D02*
D03*
X91405Y769950D02*
D03*
X58531D02*
D03*
Y752234D02*
D03*
X91405D02*
D03*
Y825068D02*
D03*
X58531D02*
D03*
Y807352D02*
D03*
X91405D02*
D03*
X63846Y797509D02*
D03*
X30972D02*
D03*
Y779793D02*
D03*
X63846D02*
D03*
D141*
X383645Y10054D02*
D03*
X373645D02*
D03*
X363645D02*
D03*
X353645D02*
D03*
X343645D02*
D03*
X333645D02*
D03*
X323645D02*
D03*
X313645D02*
D03*
X293732D02*
D03*
X283732D02*
D03*
X273732D02*
D03*
X263732D02*
D03*
X253732D02*
D03*
X243732D02*
D03*
X233732D02*
D03*
X223732D02*
D03*
X203836D02*
D03*
X193836D02*
D03*
X183836D02*
D03*
X173836D02*
D03*
X163836D02*
D03*
X153836D02*
D03*
X143836D02*
D03*
X133836D02*
D03*
X293667Y200000D02*
D03*
X303667D02*
D03*
X313667D02*
D03*
X323667D02*
D03*
X333667D02*
D03*
X343667D02*
D03*
X353667D02*
D03*
X363667D02*
D03*
X203803D02*
D03*
X213804D02*
D03*
X223803D02*
D03*
X233804D02*
D03*
X243804D02*
D03*
X253803D02*
D03*
X263804D02*
D03*
X273803D02*
D03*
X187852Y200079D02*
D03*
X177852D02*
D03*
X167852D02*
D03*
X157852D02*
D03*
X147852D02*
D03*
X137852D02*
D03*
X127852D02*
D03*
X117852D02*
D03*
X107852D02*
D03*
X97852D02*
D03*
X383645Y227771D02*
D03*
X373645D02*
D03*
X363645D02*
D03*
X353645D02*
D03*
X343645D02*
D03*
X333645D02*
D03*
X323645D02*
D03*
X313645D02*
D03*
X293732D02*
D03*
X283732D02*
D03*
X273732D02*
D03*
X263732D02*
D03*
X253732D02*
D03*
X243732D02*
D03*
X233732D02*
D03*
X223732D02*
D03*
X203836D02*
D03*
X193836D02*
D03*
X183836D02*
D03*
X173836D02*
D03*
X163836D02*
D03*
X153836D02*
D03*
X143836D02*
D03*
X133836D02*
D03*
X293667Y417716D02*
D03*
X303667D02*
D03*
X313667D02*
D03*
X323667D02*
D03*
X333667D02*
D03*
X343667D02*
D03*
X353667D02*
D03*
X363667D02*
D03*
X203803D02*
D03*
X213804D02*
D03*
X223803D02*
D03*
X233804D02*
D03*
X243804D02*
D03*
X253803D02*
D03*
X263804D02*
D03*
X273803D02*
D03*
X187852Y417795D02*
D03*
X177852D02*
D03*
X167852D02*
D03*
X157852D02*
D03*
X147852D02*
D03*
X137852D02*
D03*
X127852D02*
D03*
X117852D02*
D03*
X107852D02*
D03*
X97852D02*
D03*
X383645Y445487D02*
D03*
X373645D02*
D03*
X363645D02*
D03*
X353645D02*
D03*
X343645D02*
D03*
X333645D02*
D03*
X323645D02*
D03*
X313645D02*
D03*
X293732D02*
D03*
X283732D02*
D03*
X273732D02*
D03*
X263732D02*
D03*
X253732D02*
D03*
X243732D02*
D03*
X233732D02*
D03*
X223732D02*
D03*
X203836D02*
D03*
X193836D02*
D03*
X183836D02*
D03*
X173836D02*
D03*
X163836D02*
D03*
X153836D02*
D03*
X143836D02*
D03*
X133836D02*
D03*
X293667Y635433D02*
D03*
X303667D02*
D03*
X313667D02*
D03*
X323667D02*
D03*
X333667D02*
D03*
X343667D02*
D03*
X353667D02*
D03*
X363667D02*
D03*
X203803D02*
D03*
X213804D02*
D03*
X223803D02*
D03*
X233804D02*
D03*
X243804D02*
D03*
X253803D02*
D03*
X263804D02*
D03*
X273803D02*
D03*
X187852Y635512D02*
D03*
X177852D02*
D03*
X167852D02*
D03*
X157852D02*
D03*
X147852D02*
D03*
X137852D02*
D03*
X127852D02*
D03*
X117852D02*
D03*
X107852D02*
D03*
X97852D02*
D03*
X383645Y663204D02*
D03*
X373645D02*
D03*
X363645D02*
D03*
X353645D02*
D03*
X343645D02*
D03*
X333645D02*
D03*
X323645D02*
D03*
X313645D02*
D03*
X293732D02*
D03*
X283732D02*
D03*
X273732D02*
D03*
X263732D02*
D03*
X253732D02*
D03*
X243732D02*
D03*
X233732D02*
D03*
X223732D02*
D03*
X203836D02*
D03*
X193836D02*
D03*
X183836D02*
D03*
X173836D02*
D03*
X163836D02*
D03*
X153836D02*
D03*
X143836D02*
D03*
X133836D02*
D03*
X293667Y853150D02*
D03*
X303667D02*
D03*
X313667D02*
D03*
X323667D02*
D03*
X333667D02*
D03*
X343667D02*
D03*
X353667D02*
D03*
X363667D02*
D03*
X203803D02*
D03*
X213804D02*
D03*
X223803D02*
D03*
X233804D02*
D03*
X243804D02*
D03*
X253803D02*
D03*
X263804D02*
D03*
X273803D02*
D03*
X187852Y853228D02*
D03*
X177852D02*
D03*
X167852D02*
D03*
X157852D02*
D03*
X147852D02*
D03*
X137852D02*
D03*
X127852D02*
D03*
X117852D02*
D03*
X107852D02*
D03*
X97852D02*
D03*
D142*
X403512Y30049D02*
D03*
X393512D02*
D03*
X403512Y40049D02*
D03*
X393512D02*
D03*
X403512Y50050D02*
D03*
X393512D02*
D03*
X403512Y60049D02*
D03*
X393512D02*
D03*
X403512Y70050D02*
D03*
X393512D02*
D03*
X403512Y80050D02*
D03*
X393512D02*
D03*
X403512Y90049D02*
D03*
X393512D02*
D03*
X403512Y100049D02*
D03*
X393512D02*
D03*
X403512Y110049D02*
D03*
X393512D02*
D03*
X403512Y120050D02*
D03*
X393512D02*
D03*
X403512Y130050D02*
D03*
X393512D02*
D03*
X403512Y140050D02*
D03*
X393512D02*
D03*
X403512Y150049D02*
D03*
X393512D02*
D03*
X403512Y160049D02*
D03*
X393512D02*
D03*
X403512Y170050D02*
D03*
X393512D02*
D03*
X403512Y180050D02*
D03*
X393512D02*
D03*
X403512Y190050D02*
D03*
X393512D02*
D03*
X403512Y200049D02*
D03*
X393512D02*
D03*
X403512Y247766D02*
D03*
X393512D02*
D03*
X403512Y257766D02*
D03*
X393512D02*
D03*
X403512Y267766D02*
D03*
X393512D02*
D03*
X403512Y277766D02*
D03*
X393512D02*
D03*
X403512Y287766D02*
D03*
X393512D02*
D03*
X403512Y297766D02*
D03*
X393512D02*
D03*
X403512Y307766D02*
D03*
X393512D02*
D03*
X403512Y317766D02*
D03*
X393512D02*
D03*
X403512Y327766D02*
D03*
X393512D02*
D03*
X403512Y337766D02*
D03*
X393512D02*
D03*
X403512Y347766D02*
D03*
X393512D02*
D03*
X403512Y357766D02*
D03*
X393512D02*
D03*
X403512Y367766D02*
D03*
X393512D02*
D03*
X403512Y377766D02*
D03*
X393512D02*
D03*
X403512Y387766D02*
D03*
X393512D02*
D03*
X403512Y397766D02*
D03*
X393512D02*
D03*
X403512Y407766D02*
D03*
X393512D02*
D03*
X403512Y417766D02*
D03*
X393512D02*
D03*
X403512Y465483D02*
D03*
X393512D02*
D03*
X403512Y475483D02*
D03*
X393512D02*
D03*
X403512Y485483D02*
D03*
X393512D02*
D03*
X403512Y495483D02*
D03*
X393512D02*
D03*
X403512Y505483D02*
D03*
X393512D02*
D03*
X403512Y515483D02*
D03*
X393512D02*
D03*
X403512Y525483D02*
D03*
X393512D02*
D03*
X403512Y535483D02*
D03*
X393512D02*
D03*
X403512Y545483D02*
D03*
X393512D02*
D03*
X403512Y555483D02*
D03*
X393512D02*
D03*
X403512Y565483D02*
D03*
X393512D02*
D03*
X403512Y575483D02*
D03*
X393512D02*
D03*
X403512Y585483D02*
D03*
X393512D02*
D03*
X403512Y595483D02*
D03*
X393512D02*
D03*
X403512Y605483D02*
D03*
X393512D02*
D03*
X403512Y615483D02*
D03*
X393512D02*
D03*
X403512Y625483D02*
D03*
X393512D02*
D03*
X403512Y635483D02*
D03*
X393512D02*
D03*
X403512Y683199D02*
D03*
X393512D02*
D03*
X403512Y693199D02*
D03*
X393512D02*
D03*
X403512Y703199D02*
D03*
X393512D02*
D03*
X403512Y713199D02*
D03*
X393512D02*
D03*
X403512Y723199D02*
D03*
X393512D02*
D03*
X403512Y733199D02*
D03*
X393512D02*
D03*
X403512Y743199D02*
D03*
X393512D02*
D03*
X403512Y753199D02*
D03*
X393512D02*
D03*
X403512Y763199D02*
D03*
X393512D02*
D03*
X403512Y773199D02*
D03*
X393512D02*
D03*
X403512Y783199D02*
D03*
X393512D02*
D03*
X403512Y793199D02*
D03*
X393512D02*
D03*
X403512Y803199D02*
D03*
X393512D02*
D03*
X403512Y813199D02*
D03*
X393512D02*
D03*
X403512Y823199D02*
D03*
X393512D02*
D03*
X403512Y833199D02*
D03*
X393512D02*
D03*
X403512Y843199D02*
D03*
X393512D02*
D03*
X403512Y853199D02*
D03*
X393512D02*
D03*
D143*
X177559Y33858D02*
D03*
X147559D02*
D03*
X157559D02*
D03*
X167559D02*
D03*
X187559D02*
D03*
X197559D02*
D03*
X177559Y251575D02*
D03*
X147559D02*
D03*
X157559D02*
D03*
X167559D02*
D03*
X187559D02*
D03*
X197559D02*
D03*
X177559Y469291D02*
D03*
X147559D02*
D03*
X157559D02*
D03*
X167559D02*
D03*
X187559D02*
D03*
X197559D02*
D03*
X177559Y687008D02*
D03*
X147559D02*
D03*
X157559D02*
D03*
X167559D02*
D03*
X187559D02*
D03*
X197559D02*
D03*
D144*
X29449Y16929D02*
D03*
X63071D02*
D03*
X29449Y35551D02*
D03*
X63071D02*
D03*
X29449Y234646D02*
D03*
X63071D02*
D03*
X29449Y253268D02*
D03*
X63071D02*
D03*
X29449Y452362D02*
D03*
X63071D02*
D03*
X29449Y470984D02*
D03*
X63071D02*
D03*
X29449Y670079D02*
D03*
X63071D02*
D03*
X29449Y688701D02*
D03*
X63071D02*
D03*
D145*
X55709Y37323D02*
D03*
X36811D02*
D03*
X52559D02*
D03*
X39961D02*
D03*
X49409D02*
D03*
X43110D02*
D03*
X57284Y40079D02*
D03*
X35236D02*
D03*
X54134D02*
D03*
X38386D02*
D03*
X50984D02*
D03*
X41535D02*
D03*
X47835D02*
D03*
X44685D02*
D03*
X55709Y255039D02*
D03*
X36811D02*
D03*
X52559D02*
D03*
X39961D02*
D03*
X49409D02*
D03*
X43110D02*
D03*
X57284Y257795D02*
D03*
X35236D02*
D03*
X54134D02*
D03*
X38386D02*
D03*
X50984D02*
D03*
X41535D02*
D03*
X47835D02*
D03*
X44685D02*
D03*
X55709Y472756D02*
D03*
X36811D02*
D03*
X52559D02*
D03*
X39961D02*
D03*
X49409D02*
D03*
X43110D02*
D03*
X57284Y475512D02*
D03*
X35236D02*
D03*
X54134D02*
D03*
X38386D02*
D03*
X50984D02*
D03*
X41535D02*
D03*
X47835D02*
D03*
X44685D02*
D03*
X55709Y690472D02*
D03*
X36811D02*
D03*
X52559D02*
D03*
X39961D02*
D03*
X49409D02*
D03*
X43110D02*
D03*
X57284Y693228D02*
D03*
X35236D02*
D03*
X54134D02*
D03*
X38386D02*
D03*
X50984D02*
D03*
X41535D02*
D03*
X47835D02*
D03*
X44685D02*
D03*
D146*
X147432Y136063D02*
D03*
Y156063D02*
D03*
X148819Y146063D02*
D03*
Y166063D02*
D03*
X147432Y176063D02*
D03*
X148819Y126063D02*
D03*
X439370Y97166D02*
D03*
X511102Y161575D02*
D03*
X147432Y353779D02*
D03*
Y373779D02*
D03*
X148819Y363779D02*
D03*
Y383779D02*
D03*
X147432Y393779D02*
D03*
X148819Y343779D02*
D03*
X439370Y314882D02*
D03*
X511102Y379292D02*
D03*
X147432Y571496D02*
D03*
Y591496D02*
D03*
X148819Y581496D02*
D03*
Y601496D02*
D03*
X147432Y611496D02*
D03*
X148819Y561496D02*
D03*
X439370Y532599D02*
D03*
X511102Y597008D02*
D03*
X147432Y789213D02*
D03*
Y809212D02*
D03*
X148819Y799213D02*
D03*
Y819213D02*
D03*
X147432Y829212D02*
D03*
X148819Y779213D02*
D03*
X439370Y750316D02*
D03*
X511102Y814725D02*
D03*
D147*
X230837Y29016D02*
D03*
Y115197D02*
D03*
Y246732D02*
D03*
Y332913D02*
D03*
Y464449D02*
D03*
Y550630D02*
D03*
Y682165D02*
D03*
Y768346D02*
D03*
D148*
X78622Y10000D02*
D03*
X472559Y9605D02*
D03*
X467559Y199605D02*
D03*
X83622Y200000D02*
D03*
X378622D02*
D03*
X403622Y10000D02*
D03*
X78622Y227716D02*
D03*
X472559Y227321D02*
D03*
X467559Y417321D02*
D03*
X83622Y417716D02*
D03*
X378622D02*
D03*
X403622Y227716D02*
D03*
X78622Y445433D02*
D03*
X472559Y445038D02*
D03*
X467559Y635038D02*
D03*
X83622Y635433D02*
D03*
X378622D02*
D03*
X403622Y445433D02*
D03*
X78622Y663149D02*
D03*
X472559Y662754D02*
D03*
X467559Y852754D02*
D03*
X83622Y853150D02*
D03*
X378622D02*
D03*
X403622Y663149D02*
D03*
D149*
X216622Y168595D02*
D03*
Y165446D02*
D03*
Y162296D02*
D03*
Y159146D02*
D03*
Y155996D02*
D03*
Y152847D02*
D03*
Y149697D02*
D03*
Y146548D02*
D03*
Y143398D02*
D03*
Y140248D02*
D03*
Y137099D02*
D03*
Y133949D02*
D03*
Y130800D02*
D03*
Y127650D02*
D03*
Y124500D02*
D03*
Y121351D02*
D03*
Y118201D02*
D03*
Y102453D02*
D03*
Y99304D02*
D03*
Y96154D02*
D03*
Y93004D02*
D03*
Y89855D02*
D03*
Y86705D02*
D03*
Y83556D02*
D03*
Y80406D02*
D03*
Y77257D02*
D03*
Y74107D02*
D03*
Y70957D02*
D03*
Y67808D02*
D03*
Y64658D02*
D03*
Y61508D02*
D03*
Y58359D02*
D03*
Y55209D02*
D03*
Y115052D02*
D03*
Y111902D02*
D03*
Y108752D02*
D03*
Y105603D02*
D03*
Y386312D02*
D03*
Y383162D02*
D03*
Y380013D02*
D03*
Y376862D02*
D03*
Y373713D02*
D03*
Y370563D02*
D03*
Y367414D02*
D03*
Y364265D02*
D03*
Y361114D02*
D03*
Y357965D02*
D03*
Y354815D02*
D03*
Y351666D02*
D03*
Y348516D02*
D03*
Y345367D02*
D03*
Y342216D02*
D03*
Y339067D02*
D03*
Y335918D02*
D03*
Y320170D02*
D03*
Y317021D02*
D03*
Y313870D02*
D03*
Y310721D02*
D03*
Y307571D02*
D03*
Y304422D02*
D03*
Y301272D02*
D03*
Y298123D02*
D03*
Y294973D02*
D03*
Y291823D02*
D03*
Y288673D02*
D03*
Y285524D02*
D03*
Y282375D02*
D03*
Y279224D02*
D03*
Y276075D02*
D03*
Y272926D02*
D03*
Y332769D02*
D03*
Y329618D02*
D03*
Y326469D02*
D03*
Y323319D02*
D03*
Y604028D02*
D03*
Y600879D02*
D03*
Y597729D02*
D03*
Y594579D02*
D03*
Y591429D02*
D03*
Y588280D02*
D03*
Y585130D02*
D03*
Y581981D02*
D03*
Y578831D02*
D03*
Y575681D02*
D03*
Y572532D02*
D03*
Y569382D02*
D03*
Y566233D02*
D03*
Y563084D02*
D03*
Y559933D02*
D03*
Y556784D02*
D03*
Y553634D02*
D03*
Y537886D02*
D03*
Y534737D02*
D03*
Y531587D02*
D03*
Y528437D02*
D03*
Y525288D02*
D03*
Y522138D02*
D03*
Y518989D02*
D03*
Y515839D02*
D03*
Y512690D02*
D03*
Y509540D02*
D03*
Y506390D02*
D03*
Y503241D02*
D03*
Y500091D02*
D03*
Y496941D02*
D03*
Y493792D02*
D03*
Y490642D02*
D03*
Y550485D02*
D03*
Y547335D02*
D03*
Y544185D02*
D03*
Y541036D02*
D03*
Y821745D02*
D03*
Y818595D02*
D03*
Y815446D02*
D03*
Y812295D02*
D03*
Y809146D02*
D03*
Y805996D02*
D03*
Y802847D02*
D03*
Y799698D02*
D03*
Y796547D02*
D03*
Y793398D02*
D03*
Y790248D02*
D03*
Y787099D02*
D03*
Y783950D02*
D03*
Y780800D02*
D03*
Y777650D02*
D03*
Y774500D02*
D03*
Y771351D02*
D03*
Y755603D02*
D03*
Y752454D02*
D03*
Y749303D02*
D03*
Y746154D02*
D03*
Y743004D02*
D03*
Y739855D02*
D03*
Y736705D02*
D03*
Y733556D02*
D03*
Y730407D02*
D03*
Y727256D02*
D03*
Y724107D02*
D03*
Y720957D02*
D03*
Y717808D02*
D03*
Y714658D02*
D03*
Y711508D02*
D03*
Y708359D02*
D03*
Y768202D02*
D03*
Y765051D02*
D03*
Y761902D02*
D03*
Y758752D02*
D03*
D150*
X485609Y184448D02*
D03*
Y198228D02*
D03*
X519006Y184645D02*
D03*
Y198425D02*
D03*
X507874Y184448D02*
D03*
Y198228D02*
D03*
X496741Y184448D02*
D03*
Y198228D02*
D03*
X65967Y184842D02*
D03*
Y198622D02*
D03*
X54835Y184645D02*
D03*
Y198425D02*
D03*
X43702Y184645D02*
D03*
Y198425D02*
D03*
X32570Y184645D02*
D03*
Y198425D02*
D03*
X485609Y402165D02*
D03*
Y415944D02*
D03*
X519006Y402362D02*
D03*
Y416141D02*
D03*
X507874Y402165D02*
D03*
Y415944D02*
D03*
X496741Y402165D02*
D03*
Y415944D02*
D03*
X65967Y402559D02*
D03*
Y416338D02*
D03*
X54835Y402362D02*
D03*
Y416141D02*
D03*
X43702Y402362D02*
D03*
Y416141D02*
D03*
X32570Y402362D02*
D03*
Y416141D02*
D03*
X485609Y619881D02*
D03*
Y633661D02*
D03*
X519006Y620078D02*
D03*
Y633858D02*
D03*
X507874Y619881D02*
D03*
Y633661D02*
D03*
X496741Y619881D02*
D03*
Y633661D02*
D03*
X65967Y620275D02*
D03*
Y634055D02*
D03*
X54835Y620078D02*
D03*
Y633858D02*
D03*
X43702Y620078D02*
D03*
Y633858D02*
D03*
X32570Y620078D02*
D03*
Y633858D02*
D03*
X485609Y837598D02*
D03*
Y851377D02*
D03*
X519006Y837795D02*
D03*
Y851574D02*
D03*
X507874Y837598D02*
D03*
Y851377D02*
D03*
X496741Y837598D02*
D03*
Y851377D02*
D03*
X65967Y837992D02*
D03*
Y851771D02*
D03*
X54835Y837795D02*
D03*
Y851574D02*
D03*
X43702Y837795D02*
D03*
Y851574D02*
D03*
X32570Y837795D02*
D03*
Y851574D02*
D03*
M02*
