  0
SECTION
  2
HEADER
  9
$EXTMIN
 10
1.038000
 20
-0.004000
  9
$EXTMAX
 10
3.909000
 20
2.102000
  9
$LIMMIN
 10
1.038000
 20
-0.004000
  9
$LIMMAX
 10
3.909000
 20
2.102000
  9
$FILLMODE
 70
  1
  0
ENDSEC
  0
SECTION
  2
TABLES
  0
TABLE
  2
LTYPE
 70
  1
  0
LTYPE
  2
CONTINUOUS
 70
 64
  3
Solid line
 72
 65
 73
  0
 40
0.0
  0
ENDTAB
  0
TABLE
  2
LAYER
 70
 1
  0
LAYER
  2
0
 70
  0
 62
7
  6
CONTINUOUS
  0
LAYER
  2
gm9
 70
  0
 62
6
  6
CONTINUOUS
  0
ENDTAB
  0
TABLE
  2
STYLE
 70
  1
  0
STYLE
  2
STANDARD
 70
  0
 40
0.0
 41
1.0
 50
0.0
 71
  0
 42
0.2
  3
txt
  4

  0
ENDTAB
  0
ENDSEC
  0
SECTION
  2
BLOCKS
  0
BLOCK
  8
0
  2
D10
 70
64
 10
0.0
 20
0.0
  3
D10
  0
CIRCLE
  8
0
 10
0.000000
 20
0.000000
 40
0.003935
 0
ENDBLK
  8
0
  0
ENDSEC
  0
SECTION
  2
ENTITIES
  0
POLYLINE
  8
gm9
 62
6
 40
0.000000
 41
0.000000
 66
  1
  0
VERTEX
  8
gm9
 10
3.435380
 20
1.971490
  0
VERTEX
  8
gm9
 10
3.435380
 20
1.971490
  0
VERTEX
  8
gm9
 10
3.435380
 20
1.971490
 42
0.787021
  0
VERTEX
  8
gm9
 10
3.664980
 20
1.972990
  0
VERTEX
  8
gm9
 10
3.664980
 20
1.972990
  0
SEQEND
  8
gm9
  0
POLYLINE
  8
gm9
 62
6
 40
0.000000
 41
0.000000
 66
  1
  0
VERTEX
  8
gm9
 10
3.427790
 20
0.100540
  0
VERTEX
  8
gm9
 10
3.427790
 20
0.100540
  0
VERTEX
  8
gm9
 10
3.427790
 20
0.100540
 42
1.000000
  0
VERTEX
  8
gm9
 10
3.372670
 20
0.100540
  0
VERTEX
  8
gm9
 10
3.372670
 20
0.100540
  0
VERTEX
  8
gm9
 10
3.372670
 20
0.100540
 42
1.000000
  0
VERTEX
  8
gm9
 10
3.427790
 20
0.100540
  0
VERTEX
  8
gm9
 10
3.427790
 20
0.100540
  0
SEQEND
  8
gm9
  0
POLYLINE
  8
gm9
 62
6
 40
0.000000
 41
0.000000
 66
  1
  0
VERTEX
  8
gm9
 10
3.127790
 20
0.100540
  0
VERTEX
  8
gm9
 10
3.127790
 20
0.100540
  0
VERTEX
  8
gm9
 10
3.127790
 20
0.100540
 42
1.000000
  0
VERTEX
  8
gm9
 10
3.072670
 20
0.100540
  0
VERTEX
  8
gm9
 10
3.072670
 20
0.100540
  0
VERTEX
  8
gm9
 10
3.072670
 20
0.100540
 42
1.000000
  0
VERTEX
  8
gm9
 10
3.127790
 20
0.100540
  0
VERTEX
  8
gm9
 10
3.127790
 20
0.100540
  0
SEQEND
  8
gm9
  0
POLYLINE
  8
gm9
 62
6
 40
0.000000
 41
0.000000
 66
  1
  0
VERTEX
  8
gm9
 10
3.627790
 20
0.100540
  0
VERTEX
  8
gm9
 10
3.627790
 20
0.100540
  0
VERTEX
  8
gm9
 10
3.627790
 20
0.100540
 42
1.000000
  0
VERTEX
  8
gm9
 10
3.572670
 20
0.100540
  0
VERTEX
  8
gm9
 10
3.572670
 20
0.100540
  0
VERTEX
  8
gm9
 10
3.572670
 20
0.100540
 42
1.000000
  0
VERTEX
  8
gm9
 10
3.627790
 20
0.100540
  0
VERTEX
  8
gm9
 10
3.627790
 20
0.100540
  0
SEQEND
  8
gm9
  0
POLYLINE
  8
gm9
 62
6
 40
0.000000
 41
0.000000
 66
  1
  0
VERTEX
  8
gm9
 10
3.527790
 20
0.100540
  0
VERTEX
  8
gm9
 10
3.527790
 20
0.100540
  0
VERTEX
  8
gm9
 10
3.527790
 20
0.100540
 42
1.000000
  0
VERTEX
  8
gm9
 10
3.472670
 20
0.100540
  0
VERTEX
  8
gm9
 10
3.472670
 20
0.100540
  0
VERTEX
  8
gm9
 10
3.472670
 20
0.100540
 42
1.000000
  0
VERTEX
  8
gm9
 10
3.527790
 20
0.100540
  0
VERTEX
  8
gm9
 10
3.527790
 20
0.100540
  0
SEQEND
  8
gm9
  0
POLYLINE
  8
gm9
 62
6
 40
0.000000
 41
0.000000
 66
  1
  0
VERTEX
  8
gm9
 10
2.129370
 20
2.000000
  0
VERTEX
  8
gm9
 10
2.129370
 20
2.000000
  0
VERTEX
  8
gm9
 10
2.129370
 20
2.000000
 42
1.000000
  0
VERTEX
  8
gm9
 10
2.074250
 20
2.000000
  0
VERTEX
  8
gm9
 10
2.074250
 20
2.000000
  0
VERTEX
  8
gm9
 10
2.074250
 20
2.000000
 42
1.000000
  0
VERTEX
  8
gm9
 10
2.129370
 20
2.000000
  0
VERTEX
  8
gm9
 10
2.129370
 20
2.000000
  0
SEQEND
  8
gm9
  0
POLYLINE
  8
gm9
 62
6
 40
0.000000
 41
0.000000
 66
  1
  0
VERTEX
  8
gm9
 10
2.029370
 20
2.000000
  0
VERTEX
  8
gm9
 10
2.029370
 20
2.000000
  0
VERTEX
  8
gm9
 10
2.029370
 20
2.000000
 42
1.000000
  0
VERTEX
  8
gm9
 10
1.974250
 20
2.000000
  0
VERTEX
  8
gm9
 10
1.974250
 20
2.000000
  0
VERTEX
  8
gm9
 10
1.974250
 20
2.000000
 42
1.000000
  0
VERTEX
  8
gm9
 10
2.029370
 20
2.000000
  0
VERTEX
  8
gm9
 10
2.029370
 20
2.000000
  0
SEQEND
  8
gm9
  0
POLYLINE
  8
gm9
 62
6
 40
0.000000
 41
0.000000
 66
  1
  0
VERTEX
  8
gm9
 10
1.269850
 20
2.000790
  0
VERTEX
  8
gm9
 10
1.269850
 20
2.000790
  0
VERTEX
  8
gm9
 10
1.269850
 20
2.000790
 42
1.000000
  0
VERTEX
  8
gm9
 10
1.214730
 20
2.000790
  0
VERTEX
  8
gm9
 10
1.214730
 20
2.000790
  0
VERTEX
  8
gm9
 10
1.214730
 20
2.000790
 42
1.000000
  0
VERTEX
  8
gm9
 10
1.269850
 20
2.000790
  0
VERTEX
  8
gm9
 10
1.269850
 20
2.000790
  0
SEQEND
  8
gm9
  0
POLYLINE
  8
gm9
 62
6
 40
0.000000
 41
0.000000
 66
  1
  0
VERTEX
  8
gm9
 10
1.369850
 20
2.000790
  0
VERTEX
  8
gm9
 10
1.369850
 20
2.000790
  0
VERTEX
  8
gm9
 10
1.369850
 20
2.000790
 42
1.000000
  0
VERTEX
  8
gm9
 10
1.314730
 20
2.000790
  0
VERTEX
  8
gm9
 10
1.314730
 20
2.000790
  0
VERTEX
  8
gm9
 10
1.314730
 20
2.000790
 42
1.000000
  0
VERTEX
  8
gm9
 10
1.369850
 20
2.000790
  0
VERTEX
  8
gm9
 10
1.369850
 20
2.000790
  0
SEQEND
  8
gm9
  0
POLYLINE
  8
gm9
 62
6
 40
0.000000
 41
0.000000
 66
  1
  0
VERTEX
  8
gm9
 10
1.469850
 20
2.000790
  0
VERTEX
  8
gm9
 10
1.469850
 20
2.000790
  0
VERTEX
  8
gm9
 10
1.469850
 20
2.000790
 42
1.000000
  0
VERTEX
  8
gm9
 10
1.414730
 20
2.000790
  0
VERTEX
  8
gm9
 10
1.414730
 20
2.000790
  0
VERTEX
  8
gm9
 10
1.414730
 20
2.000790
 42
1.000000
  0
VERTEX
  8
gm9
 10
1.469850
 20
2.000790
  0
VERTEX
  8
gm9
 10
1.469850
 20
2.000790
  0
SEQEND
  8
gm9
  0
POLYLINE
  8
gm9
 62
6
 40
0.000000
 41
0.000000
 66
  1
  0
VERTEX
  8
gm9
 10
1.929370
 20
2.000000
  0
VERTEX
  8
gm9
 10
1.929370
 20
2.000000
  0
VERTEX
  8
gm9
 10
1.929370
 20
2.000000
 42
1.000000
  0
VERTEX
  8
gm9
 10
1.874250
 20
2.000000
  0
VERTEX
  8
gm9
 10
1.874250
 20
2.000000
  0
VERTEX
  8
gm9
 10
1.874250
 20
2.000000
 42
1.000000
  0
VERTEX
  8
gm9
 10
1.929370
 20
2.000000
  0
VERTEX
  8
gm9
 10
1.929370
 20
2.000000
  0
SEQEND
  8
gm9
  0
POLYLINE
  8
gm9
 62
6
 40
0.000000
 41
0.000000
 66
  1
  0
VERTEX
  8
gm9
 10
1.569850
 20
2.000790
  0
VERTEX
  8
gm9
 10
1.569850
 20
2.000790
  0
VERTEX
  8
gm9
 10
1.569850
 20
2.000790
 42
1.000000
  0
VERTEX
  8
gm9
 10
1.514730
 20
2.000790
  0
VERTEX
  8
gm9
 10
1.514730
 20
2.000790
  0
VERTEX
  8
gm9
 10
1.514730
 20
2.000790
 42
1.000000
  0
VERTEX
  8
gm9
 10
1.569850
 20
2.000790
  0
VERTEX
  8
gm9
 10
1.569850
 20
2.000790
  0
SEQEND
  8
gm9
  0
POLYLINE
  8
gm9
 62
6
 40
0.000000
 41
0.000000
 66
  1
  0
VERTEX
  8
gm9
 10
1.669850
 20
2.000790
  0
VERTEX
  8
gm9
 10
1.669850
 20
2.000790
  0
VERTEX
  8
gm9
 10
1.669850
 20
2.000790
 42
1.000000
  0
VERTEX
  8
gm9
 10
1.614730
 20
2.000790
  0
VERTEX
  8
gm9
 10
1.614730
 20
2.000790
  0
VERTEX
  8
gm9
 10
1.614730
 20
2.000790
 42
1.000000
  0
VERTEX
  8
gm9
 10
1.669850
 20
2.000790
  0
VERTEX
  8
gm9
 10
1.669850
 20
2.000790
  0
SEQEND
  8
gm9
  0
POLYLINE
  8
gm9
 62
6
 40
0.000000
 41
0.000000
 66
  1
  0
VERTEX
  8
gm9
 10
1.829370
 20
2.000000
  0
VERTEX
  8
gm9
 10
1.829370
 20
2.000000
  0
VERTEX
  8
gm9
 10
1.829370
 20
2.000000
 42
1.000000
  0
VERTEX
  8
gm9
 10
1.774250
 20
2.000000
  0
VERTEX
  8
gm9
 10
1.774250
 20
2.000000
  0
VERTEX
  8
gm9
 10
1.774250
 20
2.000000
 42
1.000000
  0
VERTEX
  8
gm9
 10
1.829370
 20
2.000000
  0
VERTEX
  8
gm9
 10
1.829370
 20
2.000000
  0
SEQEND
  8
gm9
  0
POLYLINE
  8
gm9
 62
6
 40
0.000000
 41
0.000000
 66
  1
  0
VERTEX
  8
gm9
 10
3.698900
 20
1.972940
  0
VERTEX
  8
gm9
 10
3.698900
 20
1.972940
  0
VERTEX
  8
gm9
 10
3.698900
 20
1.972940
 42
1.000000
  0
VERTEX
  8
gm9
 10
3.698900
 20
2.028060
  0
VERTEX
  8
gm9
 10
3.698900
 20
2.028060
  0
SEQEND
  8
gm9
  0
POLYLINE
  8
gm9
 62
6
 40
0.000000
 41
0.000000
 66
  1
  0
VERTEX
  8
gm9
 10
2.529370
 20
2.000000
  0
VERTEX
  8
gm9
 10
2.529370
 20
2.000000
  0
VERTEX
  8
gm9
 10
2.529370
 20
2.000000
 42
1.000000
  0
VERTEX
  8
gm9
 10
2.474250
 20
2.000000
  0
VERTEX
  8
gm9
 10
2.474250
 20
2.000000
  0
VERTEX
  8
gm9
 10
2.474250
 20
2.000000
 42
1.000000
  0
VERTEX
  8
gm9
 10
2.529370
 20
2.000000
  0
VERTEX
  8
gm9
 10
2.529370
 20
2.000000
  0
SEQEND
  8
gm9
  0
POLYLINE
  8
gm9
 62
6
 40
0.000000
 41
0.000000
 66
  1
  0
VERTEX
  8
gm9
 10
2.928010
 20
2.000000
  0
VERTEX
  8
gm9
 10
2.928010
 20
2.000000
  0
VERTEX
  8
gm9
 10
2.928010
 20
2.000000
 42
1.000000
  0
VERTEX
  8
gm9
 10
2.872890
 20
2.000000
  0
VERTEX
  8
gm9
 10
2.872890
 20
2.000000
  0
VERTEX
  8
gm9
 10
2.872890
 20
2.000000
 42
1.000000
  0
VERTEX
  8
gm9
 10
2.928010
 20
2.000000
  0
VERTEX
  8
gm9
 10
2.928010
 20
2.000000
  0
SEQEND
  8
gm9
  0
POLYLINE
  8
gm9
 62
6
 40
0.000000
 41
0.000000
 66
  1
  0
VERTEX
  8
gm9
 10
2.229370
 20
2.000000
  0
VERTEX
  8
gm9
 10
2.229370
 20
2.000000
  0
VERTEX
  8
gm9
 10
2.229370
 20
2.000000
 42
1.000000
  0
VERTEX
  8
gm9
 10
2.174250
 20
2.000000
  0
VERTEX
  8
gm9
 10
2.174250
 20
2.000000
  0
VERTEX
  8
gm9
 10
2.174250
 20
2.000000
 42
1.000000
  0
VERTEX
  8
gm9
 10
2.229370
 20
2.000000
  0
VERTEX
  8
gm9
 10
2.229370
 20
2.000000
  0
SEQEND
  8
gm9
  0
POLYLINE
  8
gm9
 62
6
 40
0.000000
 41
0.000000
 66
  1
  0
VERTEX
  8
gm9
 10
2.828010
 20
2.000000
  0
VERTEX
  8
gm9
 10
2.828010
 20
2.000000
  0
VERTEX
  8
gm9
 10
2.828010
 20
2.000000
 42
1.000000
  0
VERTEX
  8
gm9
 10
2.772890
 20
2.000000
  0
VERTEX
  8
gm9
 10
2.772890
 20
2.000000
  0
VERTEX
  8
gm9
 10
2.772890
 20
2.000000
 42
1.000000
  0
VERTEX
  8
gm9
 10
2.828010
 20
2.000000
  0
VERTEX
  8
gm9
 10
2.828010
 20
2.000000
  0
SEQEND
  8
gm9
  0
POLYLINE
  8
gm9
 62
6
 40
0.000000
 41
0.000000
 66
  1
  0
VERTEX
  8
gm9
 10
2.329370
 20
2.000000
  0
VERTEX
  8
gm9
 10
2.329370
 20
2.000000
  0
VERTEX
  8
gm9
 10
2.329370
 20
2.000000
 42
1.000000
  0
VERTEX
  8
gm9
 10
2.274250
 20
2.000000
  0
VERTEX
  8
gm9
 10
2.274250
 20
2.000000
  0
VERTEX
  8
gm9
 10
2.274250
 20
2.000000
 42
1.000000
  0
VERTEX
  8
gm9
 10
2.329370
 20
2.000000
  0
VERTEX
  8
gm9
 10
2.329370
 20
2.000000
  0
SEQEND
  8
gm9
  0
POLYLINE
  8
gm9
 62
6
 40
0.000000
 41
0.000000
 66
  1
  0
VERTEX
  8
gm9
 10
2.728010
 20
2.000000
  0
VERTEX
  8
gm9
 10
2.728010
 20
2.000000
  0
VERTEX
  8
gm9
 10
2.728010
 20
2.000000
 42
1.000000
  0
VERTEX
  8
gm9
 10
2.672890
 20
2.000000
  0
VERTEX
  8
gm9
 10
2.672890
 20
2.000000
  0
VERTEX
  8
gm9
 10
2.672890
 20
2.000000
 42
1.000000
  0
VERTEX
  8
gm9
 10
2.728010
 20
2.000000
  0
VERTEX
  8
gm9
 10
2.728010
 20
2.000000
  0
SEQEND
  8
gm9
  0
POLYLINE
  8
gm9
 62
6
 40
0.000000
 41
0.000000
 66
  1
  0
VERTEX
  8
gm9
 10
2.429370
 20
2.000000
  0
VERTEX
  8
gm9
 10
2.429370
 20
2.000000
  0
VERTEX
  8
gm9
 10
2.429370
 20
2.000000
 42
1.000000
  0
VERTEX
  8
gm9
 10
2.374250
 20
2.000000
  0
VERTEX
  8
gm9
 10
2.374250
 20
2.000000
  0
VERTEX
  8
gm9
 10
2.374250
 20
2.000000
 42
1.000000
  0
VERTEX
  8
gm9
 10
2.429370
 20
2.000000
  0
VERTEX
  8
gm9
 10
2.429370
 20
2.000000
  0
SEQEND
  8
gm9
  0
POLYLINE
  8
gm9
 62
6
 40
0.000000
 41
0.000000
 66
  1
  0
VERTEX
  8
gm9
 10
3.028010
 20
2.000000
  0
VERTEX
  8
gm9
 10
3.028010
 20
2.000000
  0
VERTEX
  8
gm9
 10
3.028010
 20
2.000000
 42
1.000000
  0
VERTEX
  8
gm9
 10
2.972890
 20
2.000000
  0
VERTEX
  8
gm9
 10
2.972890
 20
2.000000
  0
VERTEX
  8
gm9
 10
2.972890
 20
2.000000
 42
1.000000
  0
VERTEX
  8
gm9
 10
3.028010
 20
2.000000
  0
VERTEX
  8
gm9
 10
3.028010
 20
2.000000
  0
SEQEND
  8
gm9
  0
POLYLINE
  8
gm9
 62
6
 40
0.000000
 41
0.000000
 66
  1
  0
VERTEX
  8
gm9
 10
3.128010
 20
2.000000
  0
VERTEX
  8
gm9
 10
3.128010
 20
2.000000
  0
VERTEX
  8
gm9
 10
3.128010
 20
2.000000
 42
1.000000
  0
VERTEX
  8
gm9
 10
3.072890
 20
2.000000
  0
VERTEX
  8
gm9
 10
3.072890
 20
2.000000
  0
VERTEX
  8
gm9
 10
3.072890
 20
2.000000
 42
1.000000
  0
VERTEX
  8
gm9
 10
3.128010
 20
2.000000
  0
VERTEX
  8
gm9
 10
3.128010
 20
2.000000
  0
SEQEND
  8
gm9
  0
POLYLINE
  8
gm9
 62
6
 40
0.000000
 41
0.000000
 66
  1
  0
VERTEX
  8
gm9
 10
3.228010
 20
2.000000
  0
VERTEX
  8
gm9
 10
3.228010
 20
2.000000
  0
VERTEX
  8
gm9
 10
3.228010
 20
2.000000
 42
1.000000
  0
VERTEX
  8
gm9
 10
3.172890
 20
2.000000
  0
VERTEX
  8
gm9
 10
3.172890
 20
2.000000
  0
VERTEX
  8
gm9
 10
3.172890
 20
2.000000
 42
1.000000
  0
VERTEX
  8
gm9
 10
3.228010
 20
2.000000
  0
VERTEX
  8
gm9
 10
3.228010
 20
2.000000
  0
SEQEND
  8
gm9
  0
POLYLINE
  8
gm9
 62
6
 40
0.000000
 41
0.000000
 66
  1
  0
VERTEX
  8
gm9
 10
3.328010
 20
2.000000
  0
VERTEX
  8
gm9
 10
3.328010
 20
2.000000
  0
VERTEX
  8
gm9
 10
3.328010
 20
2.000000
 42
1.000000
  0
VERTEX
  8
gm9
 10
3.272890
 20
2.000000
  0
VERTEX
  8
gm9
 10
3.272890
 20
2.000000
  0
VERTEX
  8
gm9
 10
3.272890
 20
2.000000
 42
1.000000
  0
VERTEX
  8
gm9
 10
3.328010
 20
2.000000
  0
VERTEX
  8
gm9
 10
3.328010
 20
2.000000
  0
SEQEND
  8
gm9
  0
POLYLINE
  8
gm9
 62
6
 40
0.000000
 41
0.000000
 66
  1
  0
VERTEX
  8
gm9
 10
3.400450
 20
2.027560
  0
VERTEX
  8
gm9
 10
3.400450
 20
2.027560
  0
VERTEX
  8
gm9
 10
3.400450
 20
2.027560
 42
1.000000
  0
VERTEX
  8
gm9
 10
3.400450
 20
1.972440
  0
VERTEX
  8
gm9
 10
3.400450
 20
1.972440
  0
SEQEND
  8
gm9
  0
POLYLINE
  8
gm9
 62
6
 40
0.000000
 41
0.000000
 66
  1
  0
VERTEX
  8
gm9
 10
3.726460
 20
0.700500
  0
VERTEX
  8
gm9
 10
3.726460
 20
0.700500
  0
VERTEX
  8
gm9
 10
3.726460
 20
0.700500
 42
1.000000
  0
VERTEX
  8
gm9
 10
3.671340
 20
0.700500
  0
VERTEX
  8
gm9
 10
3.671340
 20
0.700500
  0
VERTEX
  8
gm9
 10
3.671340
 20
0.700500
 42
1.000000
  0
VERTEX
  8
gm9
 10
3.726460
 20
0.700500
  0
VERTEX
  8
gm9
 10
3.726460
 20
0.700500
  0
SEQEND
  8
gm9
  0
POLYLINE
  8
gm9
 62
6
 40
0.000000
 41
0.000000
 66
  1
  0
VERTEX
  8
gm9
 10
3.826460
 20
0.700500
  0
VERTEX
  8
gm9
 10
3.826460
 20
0.700500
  0
VERTEX
  8
gm9
 10
3.826460
 20
0.700500
 42
1.000000
  0
VERTEX
  8
gm9
 10
3.771340
 20
0.700500
  0
VERTEX
  8
gm9
 10
3.771340
 20
0.700500
  0
VERTEX
  8
gm9
 10
3.771340
 20
0.700500
 42
1.000000
  0
VERTEX
  8
gm9
 10
3.826460
 20
0.700500
  0
VERTEX
  8
gm9
 10
3.826460
 20
0.700500
  0
SEQEND
  8
gm9
  0
POLYLINE
  8
gm9
 62
6
 40
0.000000
 41
0.000000
 66
  1
  0
VERTEX
  8
gm9
 10
3.726460
 20
0.600500
  0
VERTEX
  8
gm9
 10
3.726460
 20
0.600500
  0
VERTEX
  8
gm9
 10
3.726460
 20
0.600500
 42
1.000000
  0
VERTEX
  8
gm9
 10
3.671340
 20
0.600500
  0
VERTEX
  8
gm9
 10
3.671340
 20
0.600500
  0
VERTEX
  8
gm9
 10
3.671340
 20
0.600500
 42
1.000000
  0
VERTEX
  8
gm9
 10
3.726460
 20
0.600500
  0
VERTEX
  8
gm9
 10
3.726460
 20
0.600500
  0
SEQEND
  8
gm9
  0
POLYLINE
  8
gm9
 62
6
 40
0.000000
 41
0.000000
 66
  1
  0
VERTEX
  8
gm9
 10
3.826460
 20
0.600500
  0
VERTEX
  8
gm9
 10
3.826460
 20
0.600500
  0
VERTEX
  8
gm9
 10
3.826460
 20
0.600500
 42
1.000000
  0
VERTEX
  8
gm9
 10
3.771340
 20
0.600500
  0
VERTEX
  8
gm9
 10
3.771340
 20
0.600500
  0
VERTEX
  8
gm9
 10
3.771340
 20
0.600500
 42
1.000000
  0
VERTEX
  8
gm9
 10
3.826460
 20
0.600500
  0
VERTEX
  8
gm9
 10
3.826460
 20
0.600500
  0
SEQEND
  8
gm9
  0
POLYLINE
  8
gm9
 62
6
 40
0.000000
 41
0.000000
 66
  1
  0
VERTEX
  8
gm9
 10
3.826460
 20
0.500500
  0
VERTEX
  8
gm9
 10
3.826460
 20
0.500500
  0
VERTEX
  8
gm9
 10
3.826460
 20
0.500500
 42
1.000000
  0
VERTEX
  8
gm9
 10
3.771340
 20
0.500500
  0
VERTEX
  8
gm9
 10
3.771340
 20
0.500500
  0
VERTEX
  8
gm9
 10
3.771340
 20
0.500500
 42
1.000000
  0
VERTEX
  8
gm9
 10
3.826460
 20
0.500500
  0
VERTEX
  8
gm9
 10
3.826460
 20
0.500500
  0
SEQEND
  8
gm9
  0
POLYLINE
  8
gm9
 62
6
 40
0.000000
 41
0.000000
 66
  1
  0
VERTEX
  8
gm9
 10
3.726460
 20
0.500500
  0
VERTEX
  8
gm9
 10
3.726460
 20
0.500500
  0
VERTEX
  8
gm9
 10
3.726460
 20
0.500500
 42
1.000000
  0
VERTEX
  8
gm9
 10
3.671340
 20
0.500500
  0
VERTEX
  8
gm9
 10
3.671340
 20
0.500500
  0
VERTEX
  8
gm9
 10
3.671340
 20
0.500500
 42
1.000000
  0
VERTEX
  8
gm9
 10
3.726460
 20
0.500500
  0
VERTEX
  8
gm9
 10
3.726460
 20
0.500500
  0
SEQEND
  8
gm9
  0
POLYLINE
  8
gm9
 62
6
 40
0.000000
 41
0.000000
 66
  1
  0
VERTEX
  8
gm9
 10
3.826460
 20
0.400500
  0
VERTEX
  8
gm9
 10
3.826460
 20
0.400500
  0
VERTEX
  8
gm9
 10
3.826460
 20
0.400500
 42
1.000000
  0
VERTEX
  8
gm9
 10
3.771340
 20
0.400500
  0
VERTEX
  8
gm9
 10
3.771340
 20
0.400500
  0
VERTEX
  8
gm9
 10
3.771340
 20
0.400500
 42
1.000000
  0
VERTEX
  8
gm9
 10
3.826460
 20
0.400500
  0
VERTEX
  8
gm9
 10
3.826460
 20
0.400500
  0
SEQEND
  8
gm9
  0
POLYLINE
  8
gm9
 62
6
 40
0.000000
 41
0.000000
 66
  1
  0
VERTEX
  8
gm9
 10
3.726460
 20
0.300500
  0
VERTEX
  8
gm9
 10
3.726460
 20
0.300500
  0
VERTEX
  8
gm9
 10
3.726460
 20
0.300500
 42
1.000000
  0
VERTEX
  8
gm9
 10
3.671340
 20
0.300500
  0
VERTEX
  8
gm9
 10
3.671340
 20
0.300500
  0
VERTEX
  8
gm9
 10
3.671340
 20
0.300500
 42
1.000000
  0
VERTEX
  8
gm9
 10
3.726460
 20
0.300500
  0
VERTEX
  8
gm9
 10
3.726460
 20
0.300500
  0
SEQEND
  8
gm9
  0
POLYLINE
  8
gm9
 62
6
 40
0.000000
 41
0.000000
 66
  1
  0
VERTEX
  8
gm9
 10
3.826460
 20
0.300500
  0
VERTEX
  8
gm9
 10
3.826460
 20
0.300500
  0
VERTEX
  8
gm9
 10
3.826460
 20
0.300500
 42
1.000000
  0
VERTEX
  8
gm9
 10
3.771340
 20
0.300500
  0
VERTEX
  8
gm9
 10
3.771340
 20
0.300500
  0
VERTEX
  8
gm9
 10
3.771340
 20
0.300500
 42
1.000000
  0
VERTEX
  8
gm9
 10
3.826460
 20
0.300500
  0
VERTEX
  8
gm9
 10
3.826460
 20
0.300500
  0
SEQEND
  8
gm9
  0
POLYLINE
  8
gm9
 62
6
 40
0.000000
 41
0.000000
 66
  1
  0
VERTEX
  8
gm9
 10
3.726460
 20
0.400500
  0
VERTEX
  8
gm9
 10
3.726460
 20
0.400500
  0
VERTEX
  8
gm9
 10
3.726460
 20
0.400500
 42
1.000000
  0
VERTEX
  8
gm9
 10
3.671340
 20
0.400500
  0
VERTEX
  8
gm9
 10
3.671340
 20
0.400500
  0
VERTEX
  8
gm9
 10
3.671340
 20
0.400500
 42
1.000000
  0
VERTEX
  8
gm9
 10
3.726460
 20
0.400500
  0
VERTEX
  8
gm9
 10
3.726460
 20
0.400500
  0
SEQEND
  8
gm9
  0
POLYLINE
  8
gm9
 62
6
 40
0.000000
 41
0.000000
 66
  1
  0
VERTEX
  8
gm9
 10
3.726460
 20
0.800500
  0
VERTEX
  8
gm9
 10
3.726460
 20
0.800500
  0
VERTEX
  8
gm9
 10
3.726460
 20
0.800500
 42
1.000000
  0
VERTEX
  8
gm9
 10
3.671340
 20
0.800500
  0
VERTEX
  8
gm9
 10
3.671340
 20
0.800500
  0
VERTEX
  8
gm9
 10
3.671340
 20
0.800500
 42
1.000000
  0
VERTEX
  8
gm9
 10
3.726460
 20
0.800500
  0
VERTEX
  8
gm9
 10
3.726460
 20
0.800500
  0
SEQEND
  8
gm9
  0
POLYLINE
  8
gm9
 62
6
 40
0.000000
 41
0.000000
 66
  1
  0
VERTEX
  8
gm9
 10
3.726460
 20
1.000500
  0
VERTEX
  8
gm9
 10
3.726460
 20
1.000500
  0
VERTEX
  8
gm9
 10
3.726460
 20
1.000500
 42
1.000000
  0
VERTEX
  8
gm9
 10
3.671340
 20
1.000500
  0
VERTEX
  8
gm9
 10
3.671340
 20
1.000500
  0
VERTEX
  8
gm9
 10
3.671340
 20
1.000500
 42
1.000000
  0
VERTEX
  8
gm9
 10
3.726460
 20
1.000500
  0
VERTEX
  8
gm9
 10
3.726460
 20
1.000500
  0
SEQEND
  8
gm9
  0
POLYLINE
  8
gm9
 62
6
 40
0.000000
 41
0.000000
 66
  1
  0
VERTEX
  8
gm9
 10
3.826460
 20
0.800500
  0
VERTEX
  8
gm9
 10
3.826460
 20
0.800500
  0
VERTEX
  8
gm9
 10
3.826460
 20
0.800500
 42
1.000000
  0
VERTEX
  8
gm9
 10
3.771340
 20
0.800500
  0
VERTEX
  8
gm9
 10
3.771340
 20
0.800500
  0
VERTEX
  8
gm9
 10
3.771340
 20
0.800500
 42
1.000000
  0
VERTEX
  8
gm9
 10
3.826460
 20
0.800500
  0
VERTEX
  8
gm9
 10
3.826460
 20
0.800500
  0
SEQEND
  8
gm9
  0
POLYLINE
  8
gm9
 62
6
 40
0.000000
 41
0.000000
 66
  1
  0
VERTEX
  8
gm9
 10
3.826460
 20
0.900500
  0
VERTEX
  8
gm9
 10
3.826460
 20
0.900500
  0
VERTEX
  8
gm9
 10
3.826460
 20
0.900500
 42
1.000000
  0
VERTEX
  8
gm9
 10
3.771340
 20
0.900500
  0
VERTEX
  8
gm9
 10
3.771340
 20
0.900500
  0
VERTEX
  8
gm9
 10
3.771340
 20
0.900500
 42
1.000000
  0
VERTEX
  8
gm9
 10
3.826460
 20
0.900500
  0
VERTEX
  8
gm9
 10
3.826460
 20
0.900500
  0
SEQEND
  8
gm9
  0
POLYLINE
  8
gm9
 62
6
 40
0.000000
 41
0.000000
 66
  1
  0
VERTEX
  8
gm9
 10
3.826460
 20
1.000500
  0
VERTEX
  8
gm9
 10
3.826460
 20
1.000500
  0
VERTEX
  8
gm9
 10
3.826460
 20
1.000500
 42
1.000000
  0
VERTEX
  8
gm9
 10
3.771340
 20
1.000500
  0
VERTEX
  8
gm9
 10
3.771340
 20
1.000500
  0
VERTEX
  8
gm9
 10
3.771340
 20
1.000500
 42
1.000000
  0
VERTEX
  8
gm9
 10
3.826460
 20
1.000500
  0
VERTEX
  8
gm9
 10
3.826460
 20
1.000500
  0
SEQEND
  8
gm9
  0
POLYLINE
  8
gm9
 62
6
 40
0.000000
 41
0.000000
 66
  1
  0
VERTEX
  8
gm9
 10
3.826460
 20
1.100500
  0
VERTEX
  8
gm9
 10
3.826460
 20
1.100500
  0
VERTEX
  8
gm9
 10
3.826460
 20
1.100500
 42
1.000000
  0
VERTEX
  8
gm9
 10
3.771340
 20
1.100500
  0
VERTEX
  8
gm9
 10
3.771340
 20
1.100500
  0
VERTEX
  8
gm9
 10
3.771340
 20
1.100500
 42
1.000000
  0
VERTEX
  8
gm9
 10
3.826460
 20
1.100500
  0
VERTEX
  8
gm9
 10
3.826460
 20
1.100500
  0
SEQEND
  8
gm9
  0
POLYLINE
  8
gm9
 62
6
 40
0.000000
 41
0.000000
 66
  1
  0
VERTEX
  8
gm9
 10
3.826460
 20
1.300500
  0
VERTEX
  8
gm9
 10
3.826460
 20
1.300500
  0
VERTEX
  8
gm9
 10
3.826460
 20
1.300500
 42
1.000000
  0
VERTEX
  8
gm9
 10
3.771340
 20
1.300500
  0
VERTEX
  8
gm9
 10
3.771340
 20
1.300500
  0
VERTEX
  8
gm9
 10
3.771340
 20
1.300500
 42
1.000000
  0
VERTEX
  8
gm9
 10
3.826460
 20
1.300500
  0
VERTEX
  8
gm9
 10
3.826460
 20
1.300500
  0
SEQEND
  8
gm9
  0
POLYLINE
  8
gm9
 62
6
 40
0.000000
 41
0.000000
 66
  1
  0
VERTEX
  8
gm9
 10
3.826460
 20
1.400500
  0
VERTEX
  8
gm9
 10
3.826460
 20
1.400500
  0
VERTEX
  8
gm9
 10
3.826460
 20
1.400500
 42
1.000000
  0
VERTEX
  8
gm9
 10
3.771340
 20
1.400500
  0
VERTEX
  8
gm9
 10
3.771340
 20
1.400500
  0
VERTEX
  8
gm9
 10
3.771340
 20
1.400500
 42
1.000000
  0
VERTEX
  8
gm9
 10
3.826460
 20
1.400500
  0
VERTEX
  8
gm9
 10
3.826460
 20
1.400500
  0
SEQEND
  8
gm9
  0
POLYLINE
  8
gm9
 62
6
 40
0.000000
 41
0.000000
 66
  1
  0
VERTEX
  8
gm9
 10
3.826460
 20
1.500500
  0
VERTEX
  8
gm9
 10
3.826460
 20
1.500500
  0
VERTEX
  8
gm9
 10
3.826460
 20
1.500500
 42
1.000000
  0
VERTEX
  8
gm9
 10
3.771340
 20
1.500500
  0
VERTEX
  8
gm9
 10
3.771340
 20
1.500500
  0
VERTEX
  8
gm9
 10
3.771340
 20
1.500500
 42
1.000000
  0
VERTEX
  8
gm9
 10
3.826460
 20
1.500500
  0
VERTEX
  8
gm9
 10
3.826460
 20
1.500500
  0
SEQEND
  8
gm9
  0
POLYLINE
  8
gm9
 62
6
 40
0.000000
 41
0.000000
 66
  1
  0
VERTEX
  8
gm9
 10
3.826460
 20
1.600500
  0
VERTEX
  8
gm9
 10
3.826460
 20
1.600500
  0
VERTEX
  8
gm9
 10
3.826460
 20
1.600500
 42
1.000000
  0
VERTEX
  8
gm9
 10
3.771340
 20
1.600500
  0
VERTEX
  8
gm9
 10
3.771340
 20
1.600500
  0
VERTEX
  8
gm9
 10
3.771340
 20
1.600500
 42
1.000000
  0
VERTEX
  8
gm9
 10
3.826460
 20
1.600500
  0
VERTEX
  8
gm9
 10
3.826460
 20
1.600500
  0
SEQEND
  8
gm9
  0
POLYLINE
  8
gm9
 62
6
 40
0.000000
 41
0.000000
 66
  1
  0
VERTEX
  8
gm9
 10
3.826460
 20
1.200500
  0
VERTEX
  8
gm9
 10
3.826460
 20
1.200500
  0
VERTEX
  8
gm9
 10
3.826460
 20
1.200500
 42
1.000000
  0
VERTEX
  8
gm9
 10
3.771340
 20
1.200500
  0
VERTEX
  8
gm9
 10
3.771340
 20
1.200500
  0
VERTEX
  8
gm9
 10
3.771340
 20
1.200500
 42
1.000000
  0
VERTEX
  8
gm9
 10
3.826460
 20
1.200500
  0
VERTEX
  8
gm9
 10
3.826460
 20
1.200500
  0
SEQEND
  8
gm9
  0
POLYLINE
  8
gm9
 62
6
 40
0.000000
 41
0.000000
 66
  1
  0
VERTEX
  8
gm9
 10
3.726460
 20
0.900500
  0
VERTEX
  8
gm9
 10
3.726460
 20
0.900500
  0
VERTEX
  8
gm9
 10
3.726460
 20
0.900500
 42
1.000000
  0
VERTEX
  8
gm9
 10
3.671340
 20
0.900500
  0
VERTEX
  8
gm9
 10
3.671340
 20
0.900500
  0
VERTEX
  8
gm9
 10
3.671340
 20
0.900500
 42
1.000000
  0
VERTEX
  8
gm9
 10
3.726460
 20
0.900500
  0
VERTEX
  8
gm9
 10
3.726460
 20
0.900500
  0
SEQEND
  8
gm9
  0
POLYLINE
  8
gm9
 62
6
 40
0.000000
 41
0.000000
 66
  1
  0
VERTEX
  8
gm9
 10
3.826460
 20
1.800500
  0
VERTEX
  8
gm9
 10
3.826460
 20
1.800500
  0
VERTEX
  8
gm9
 10
3.826460
 20
1.800500
 42
1.000000
  0
VERTEX
  8
gm9
 10
3.771340
 20
1.800500
  0
VERTEX
  8
gm9
 10
3.771340
 20
1.800500
  0
VERTEX
  8
gm9
 10
3.771340
 20
1.800500
 42
1.000000
  0
VERTEX
  8
gm9
 10
3.826460
 20
1.800500
  0
VERTEX
  8
gm9
 10
3.826460
 20
1.800500
  0
SEQEND
  8
gm9
  0
POLYLINE
  8
gm9
 62
6
 40
0.000000
 41
0.000000
 66
  1
  0
VERTEX
  8
gm9
 10
3.826460
 20
1.700500
  0
VERTEX
  8
gm9
 10
3.826460
 20
1.700500
  0
VERTEX
  8
gm9
 10
3.826460
 20
1.700500
 42
1.000000
  0
VERTEX
  8
gm9
 10
3.771340
 20
1.700500
  0
VERTEX
  8
gm9
 10
3.771340
 20
1.700500
  0
VERTEX
  8
gm9
 10
3.771340
 20
1.700500
 42
1.000000
  0
VERTEX
  8
gm9
 10
3.826460
 20
1.700500
  0
VERTEX
  8
gm9
 10
3.826460
 20
1.700500
  0
SEQEND
  8
gm9
  0
POLYLINE
  8
gm9
 62
6
 40
0.000000
 41
0.000000
 66
  1
  0
VERTEX
  8
gm9
 10
3.826460
 20
1.900500
  0
VERTEX
  8
gm9
 10
3.826460
 20
1.900500
  0
VERTEX
  8
gm9
 10
3.826460
 20
1.900500
 42
1.000000
  0
VERTEX
  8
gm9
 10
3.771340
 20
1.900500
  0
VERTEX
  8
gm9
 10
3.771340
 20
1.900500
  0
VERTEX
  8
gm9
 10
3.771340
 20
1.900500
 42
1.000000
  0
VERTEX
  8
gm9
 10
3.826460
 20
1.900500
  0
VERTEX
  8
gm9
 10
3.826460
 20
1.900500
  0
SEQEND
  8
gm9
  0
POLYLINE
  8
gm9
 62
6
 40
0.000000
 41
0.000000
 66
  1
  0
VERTEX
  8
gm9
 10
3.826460
 20
2.000500
  0
VERTEX
  8
gm9
 10
3.826460
 20
2.000500
  0
VERTEX
  8
gm9
 10
3.826460
 20
2.000500
 42
1.000000
  0
VERTEX
  8
gm9
 10
3.771340
 20
2.000500
  0
VERTEX
  8
gm9
 10
3.771340
 20
2.000500
  0
VERTEX
  8
gm9
 10
3.771340
 20
2.000500
 42
1.000000
  0
VERTEX
  8
gm9
 10
3.826460
 20
2.000500
  0
VERTEX
  8
gm9
 10
3.826460
 20
2.000500
  0
SEQEND
  8
gm9
  0
POLYLINE
  8
gm9
 62
6
 40
0.000000
 41
0.000000
 66
  1
  0
VERTEX
  8
gm9
 10
1.129700
 20
0.100540
  0
VERTEX
  8
gm9
 10
1.129700
 20
0.100540
  0
VERTEX
  8
gm9
 10
1.129700
 20
0.100540
 42
1.000000
  0
VERTEX
  8
gm9
 10
1.074580
 20
0.100540
  0
VERTEX
  8
gm9
 10
1.074580
 20
0.100540
  0
VERTEX
  8
gm9
 10
1.074580
 20
0.100540
 42
1.000000
  0
VERTEX
  8
gm9
 10
1.129700
 20
0.100540
  0
VERTEX
  8
gm9
 10
1.129700
 20
0.100540
  0
SEQEND
  8
gm9
  0
POLYLINE
  8
gm9
 62
6
 40
0.000000
 41
0.000000
 66
  1
  0
VERTEX
  8
gm9
 10
2.628660
 20
0.100540
  0
VERTEX
  8
gm9
 10
2.628660
 20
0.100540
  0
VERTEX
  8
gm9
 10
2.628660
 20
0.100540
 42
1.000000
  0
VERTEX
  8
gm9
 10
2.573540
 20
0.100540
  0
VERTEX
  8
gm9
 10
2.573540
 20
0.100540
  0
VERTEX
  8
gm9
 10
2.573540
 20
0.100540
 42
1.000000
  0
VERTEX
  8
gm9
 10
2.628660
 20
0.100540
  0
VERTEX
  8
gm9
 10
2.628660
 20
0.100540
  0
SEQEND
  8
gm9
  0
POLYLINE
  8
gm9
 62
6
 40
0.000000
 41
0.000000
 66
  1
  0
VERTEX
  8
gm9
 10
2.728660
 20
0.100540
  0
VERTEX
  8
gm9
 10
2.728660
 20
0.100540
  0
VERTEX
  8
gm9
 10
2.728660
 20
0.100540
 42
1.000000
  0
VERTEX
  8
gm9
 10
2.673540
 20
0.100540
  0
VERTEX
  8
gm9
 10
2.673540
 20
0.100540
  0
VERTEX
  8
gm9
 10
2.673540
 20
0.100540
 42
1.000000
  0
VERTEX
  8
gm9
 10
2.728660
 20
0.100540
  0
VERTEX
  8
gm9
 10
2.728660
 20
0.100540
  0
SEQEND
  8
gm9
  0
POLYLINE
  8
gm9
 62
6
 40
0.000000
 41
0.000000
 66
  1
  0
VERTEX
  8
gm9
 10
2.228660
 20
0.100540
  0
VERTEX
  8
gm9
 10
2.228660
 20
0.100540
  0
VERTEX
  8
gm9
 10
2.228660
 20
0.100540
 42
1.000000
  0
VERTEX
  8
gm9
 10
2.173540
 20
0.100540
  0
VERTEX
  8
gm9
 10
2.173540
 20
0.100540
  0
VERTEX
  8
gm9
 10
2.173540
 20
0.100540
 42
1.000000
  0
VERTEX
  8
gm9
 10
2.228660
 20
0.100540
  0
VERTEX
  8
gm9
 10
2.228660
 20
0.100540
  0
SEQEND
  8
gm9
  0
POLYLINE
  8
gm9
 62
6
 40
0.000000
 41
0.000000
 66
  1
  0
VERTEX
  8
gm9
 10
2.328660
 20
0.100540
  0
VERTEX
  8
gm9
 10
2.328660
 20
0.100540
  0
VERTEX
  8
gm9
 10
2.328660
 20
0.100540
 42
1.000000
  0
VERTEX
  8
gm9
 10
2.273540
 20
0.100540
  0
VERTEX
  8
gm9
 10
2.273540
 20
0.100540
  0
VERTEX
  8
gm9
 10
2.273540
 20
0.100540
 42
1.000000
  0
VERTEX
  8
gm9
 10
2.328660
 20
0.100540
  0
VERTEX
  8
gm9
 10
2.328660
 20
0.100540
  0
SEQEND
  8
gm9
  0
POLYLINE
  8
gm9
 62
6
 40
0.000000
 41
0.000000
 66
  1
  0
VERTEX
  8
gm9
 10
2.428660
 20
0.100540
  0
VERTEX
  8
gm9
 10
2.428660
 20
0.100540
  0
VERTEX
  8
gm9
 10
2.428660
 20
0.100540
 42
1.000000
  0
VERTEX
  8
gm9
 10
2.373540
 20
0.100540
  0
VERTEX
  8
gm9
 10
2.373540
 20
0.100540
  0
VERTEX
  8
gm9
 10
2.373540
 20
0.100540
 42
1.000000
  0
VERTEX
  8
gm9
 10
2.428660
 20
0.100540
  0
VERTEX
  8
gm9
 10
2.428660
 20
0.100540
  0
SEQEND
  8
gm9
  0
POLYLINE
  8
gm9
 62
6
 40
0.000000
 41
0.000000
 66
  1
  0
VERTEX
  8
gm9
 10
1.229700
 20
0.100540
  0
VERTEX
  8
gm9
 10
1.229700
 20
0.100540
  0
VERTEX
  8
gm9
 10
1.229700
 20
0.100540
 42
1.000000
  0
VERTEX
  8
gm9
 10
1.174580
 20
0.100540
  0
VERTEX
  8
gm9
 10
1.174580
 20
0.100540
  0
VERTEX
  8
gm9
 10
1.174580
 20
0.100540
 42
1.000000
  0
VERTEX
  8
gm9
 10
1.229700
 20
0.100540
  0
VERTEX
  8
gm9
 10
1.229700
 20
0.100540
  0
SEQEND
  8
gm9
  0
POLYLINE
  8
gm9
 62
6
 40
0.000000
 41
0.000000
 66
  1
  0
VERTEX
  8
gm9
 10
3.027790
 20
0.100540
  0
VERTEX
  8
gm9
 10
3.027790
 20
0.100540
  0
VERTEX
  8
gm9
 10
3.027790
 20
0.100540
 42
1.000000
  0
VERTEX
  8
gm9
 10
2.972670
 20
0.100540
  0
VERTEX
  8
gm9
 10
2.972670
 20
0.100540
  0
VERTEX
  8
gm9
 10
2.972670
 20
0.100540
 42
1.000000
  0
VERTEX
  8
gm9
 10
3.027790
 20
0.100540
  0
VERTEX
  8
gm9
 10
3.027790
 20
0.100540
  0
SEQEND
  8
gm9
  0
POLYLINE
  8
gm9
 62
6
 40
0.000000
 41
0.000000
 66
  1
  0
VERTEX
  8
gm9
 10
3.227790
 20
0.100540
  0
VERTEX
  8
gm9
 10
3.227790
 20
0.100540
  0
VERTEX
  8
gm9
 10
3.227790
 20
0.100540
 42
1.000000
  0
VERTEX
  8
gm9
 10
3.172670
 20
0.100540
  0
VERTEX
  8
gm9
 10
3.172670
 20
0.100540
  0
VERTEX
  8
gm9
 10
3.172670
 20
0.100540
 42
1.000000
  0
VERTEX
  8
gm9
 10
3.227790
 20
0.100540
  0
VERTEX
  8
gm9
 10
3.227790
 20
0.100540
  0
SEQEND
  8
gm9
  0
POLYLINE
  8
gm9
 62
6
 40
0.000000
 41
0.000000
 66
  1
  0
VERTEX
  8
gm9
 10
3.327790
 20
0.100540
  0
VERTEX
  8
gm9
 10
3.327790
 20
0.100540
  0
VERTEX
  8
gm9
 10
3.327790
 20
0.100540
 42
1.000000
  0
VERTEX
  8
gm9
 10
3.272670
 20
0.100540
  0
VERTEX
  8
gm9
 10
3.272670
 20
0.100540
  0
VERTEX
  8
gm9
 10
3.272670
 20
0.100540
 42
1.000000
  0
VERTEX
  8
gm9
 10
3.327790
 20
0.100540
  0
VERTEX
  8
gm9
 10
3.327790
 20
0.100540
  0
SEQEND
  8
gm9
  0
POLYLINE
  8
gm9
 62
6
 40
0.000000
 41
0.000000
 66
  1
  0
VERTEX
  8
gm9
 10
3.726460
 20
1.700500
  0
VERTEX
  8
gm9
 10
3.726460
 20
1.700500
  0
VERTEX
  8
gm9
 10
3.726460
 20
1.700500
 42
1.000000
  0
VERTEX
  8
gm9
 10
3.671340
 20
1.700500
  0
VERTEX
  8
gm9
 10
3.671340
 20
1.700500
  0
VERTEX
  8
gm9
 10
3.671340
 20
1.700500
 42
1.000000
  0
VERTEX
  8
gm9
 10
3.726460
 20
1.700500
  0
VERTEX
  8
gm9
 10
3.726460
 20
1.700500
  0
SEQEND
  8
gm9
  0
POLYLINE
  8
gm9
 62
6
 40
0.000000
 41
0.000000
 66
  1
  0
VERTEX
  8
gm9
 10
3.726460
 20
1.900500
  0
VERTEX
  8
gm9
 10
3.726460
 20
1.900500
  0
VERTEX
  8
gm9
 10
3.726460
 20
1.900500
 42
1.000000
  0
VERTEX
  8
gm9
 10
3.671340
 20
1.900500
  0
VERTEX
  8
gm9
 10
3.671340
 20
1.900500
  0
VERTEX
  8
gm9
 10
3.671340
 20
1.900500
 42
1.000000
  0
VERTEX
  8
gm9
 10
3.726460
 20
1.900500
  0
VERTEX
  8
gm9
 10
3.726460
 20
1.900500
  0
SEQEND
  8
gm9
  0
POLYLINE
  8
gm9
 62
6
 40
0.000000
 41
0.000000
 66
  1
  0
VERTEX
  8
gm9
 10
3.726460
 20
1.100500
  0
VERTEX
  8
gm9
 10
3.726460
 20
1.100500
  0
VERTEX
  8
gm9
 10
3.726460
 20
1.100500
 42
1.000000
  0
VERTEX
  8
gm9
 10
3.671340
 20
1.100500
  0
VERTEX
  8
gm9
 10
3.671340
 20
1.100500
  0
VERTEX
  8
gm9
 10
3.671340
 20
1.100500
 42
1.000000
  0
VERTEX
  8
gm9
 10
3.726460
 20
1.100500
  0
VERTEX
  8
gm9
 10
3.726460
 20
1.100500
  0
SEQEND
  8
gm9
  0
POLYLINE
  8
gm9
 62
6
 40
0.000000
 41
0.000000
 66
  1
  0
VERTEX
  8
gm9
 10
3.726460
 20
1.300500
  0
VERTEX
  8
gm9
 10
3.726460
 20
1.300500
  0
VERTEX
  8
gm9
 10
3.726460
 20
1.300500
 42
1.000000
  0
VERTEX
  8
gm9
 10
3.671340
 20
1.300500
  0
VERTEX
  8
gm9
 10
3.671340
 20
1.300500
  0
VERTEX
  8
gm9
 10
3.671340
 20
1.300500
 42
1.000000
  0
VERTEX
  8
gm9
 10
3.726460
 20
1.300500
  0
VERTEX
  8
gm9
 10
3.726460
 20
1.300500
  0
SEQEND
  8
gm9
  0
POLYLINE
  8
gm9
 62
6
 40
0.000000
 41
0.000000
 66
  1
  0
VERTEX
  8
gm9
 10
3.726460
 20
1.400500
  0
VERTEX
  8
gm9
 10
3.726460
 20
1.400500
  0
VERTEX
  8
gm9
 10
3.726460
 20
1.400500
 42
1.000000
  0
VERTEX
  8
gm9
 10
3.671340
 20
1.400500
  0
VERTEX
  8
gm9
 10
3.671340
 20
1.400500
  0
VERTEX
  8
gm9
 10
3.671340
 20
1.400500
 42
1.000000
  0
VERTEX
  8
gm9
 10
3.726460
 20
1.400500
  0
VERTEX
  8
gm9
 10
3.726460
 20
1.400500
  0
SEQEND
  8
gm9
  0
POLYLINE
  8
gm9
 62
6
 40
0.000000
 41
0.000000
 66
  1
  0
VERTEX
  8
gm9
 10
3.726460
 20
1.500500
  0
VERTEX
  8
gm9
 10
3.726460
 20
1.500500
  0
VERTEX
  8
gm9
 10
3.726460
 20
1.500500
 42
1.000000
  0
VERTEX
  8
gm9
 10
3.671340
 20
1.500500
  0
VERTEX
  8
gm9
 10
3.671340
 20
1.500500
  0
VERTEX
  8
gm9
 10
3.671340
 20
1.500500
 42
1.000000
  0
VERTEX
  8
gm9
 10
3.726460
 20
1.500500
  0
VERTEX
  8
gm9
 10
3.726460
 20
1.500500
  0
SEQEND
  8
gm9
  0
POLYLINE
  8
gm9
 62
6
 40
0.000000
 41
0.000000
 66
  1
  0
VERTEX
  8
gm9
 10
3.726460
 20
1.600500
  0
VERTEX
  8
gm9
 10
3.726460
 20
1.600500
  0
VERTEX
  8
gm9
 10
3.726460
 20
1.600500
 42
1.000000
  0
VERTEX
  8
gm9
 10
3.671340
 20
1.600500
  0
VERTEX
  8
gm9
 10
3.671340
 20
1.600500
  0
VERTEX
  8
gm9
 10
3.671340
 20
1.600500
 42
1.000000
  0
VERTEX
  8
gm9
 10
3.726460
 20
1.600500
  0
VERTEX
  8
gm9
 10
3.726460
 20
1.600500
  0
SEQEND
  8
gm9
  0
POLYLINE
  8
gm9
 62
6
 40
0.000000
 41
0.000000
 66
  1
  0
VERTEX
  8
gm9
 10
3.726460
 20
1.200500
  0
VERTEX
  8
gm9
 10
3.726460
 20
1.200500
  0
VERTEX
  8
gm9
 10
3.726460
 20
1.200500
 42
1.000000
  0
VERTEX
  8
gm9
 10
3.671340
 20
1.200500
  0
VERTEX
  8
gm9
 10
3.671340
 20
1.200500
  0
VERTEX
  8
gm9
 10
3.671340
 20
1.200500
 42
1.000000
  0
VERTEX
  8
gm9
 10
3.726460
 20
1.200500
  0
VERTEX
  8
gm9
 10
3.726460
 20
1.200500
  0
SEQEND
  8
gm9
  0
POLYLINE
  8
gm9
 62
6
 40
0.000000
 41
0.000000
 66
  1
  0
VERTEX
  8
gm9
 10
3.726460
 20
1.800500
  0
VERTEX
  8
gm9
 10
3.726460
 20
1.800500
  0
VERTEX
  8
gm9
 10
3.726460
 20
1.800500
 42
1.000000
  0
VERTEX
  8
gm9
 10
3.671340
 20
1.800500
  0
VERTEX
  8
gm9
 10
3.671340
 20
1.800500
  0
VERTEX
  8
gm9
 10
3.671340
 20
1.800500
 42
1.000000
  0
VERTEX
  8
gm9
 10
3.726460
 20
1.800500
  0
VERTEX
  8
gm9
 10
3.726460
 20
1.800500
  0
SEQEND
  8
gm9
  0
POLYLINE
  8
gm9
 62
6
 40
0.000000
 41
0.000000
 66
  1
  0
VERTEX
  8
gm9
 10
1.169850
 20
2.000790
  0
VERTEX
  8
gm9
 10
1.169850
 20
2.000790
  0
VERTEX
  8
gm9
 10
1.169850
 20
2.000790
 42
1.000000
  0
VERTEX
  8
gm9
 10
1.114730
 20
2.000790
  0
VERTEX
  8
gm9
 10
1.114730
 20
2.000790
  0
VERTEX
  8
gm9
 10
1.114730
 20
2.000790
 42
1.000000
  0
VERTEX
  8
gm9
 10
1.169850
 20
2.000790
  0
VERTEX
  8
gm9
 10
1.169850
 20
2.000790
  0
SEQEND
  8
gm9
  0
POLYLINE
  8
gm9
 62
6
 40
0.000000
 41
0.000000
 66
  1
  0
VERTEX
  8
gm9
 10
1.042050
 20
1.973230
  0
VERTEX
  8
gm9
 10
1.042050
 20
1.973230
  0
VERTEX
  8
gm9
 10
1.042050
 20
1.973230
 42
1.014359
  0
VERTEX
  8
gm9
 10
1.041750
 20
2.028340
  0
VERTEX
  8
gm9
 10
1.041750
 20
2.028340
  0
SEQEND
  8
gm9
  0
POLYLINE
  8
gm9
 62
6
 40
0.000000
 41
0.000000
 66
  1
  0
VERTEX
  8
gm9
 10
1.329700
 20
0.100540
  0
VERTEX
  8
gm9
 10
1.329700
 20
0.100540
  0
VERTEX
  8
gm9
 10
1.329700
 20
0.100540
 42
1.000000
  0
VERTEX
  8
gm9
 10
1.274580
 20
0.100540
  0
VERTEX
  8
gm9
 10
1.274580
 20
0.100540
  0
VERTEX
  8
gm9
 10
1.274580
 20
0.100540
 42
1.000000
  0
VERTEX
  8
gm9
 10
1.329700
 20
0.100540
  0
VERTEX
  8
gm9
 10
1.329700
 20
0.100540
  0
SEQEND
  8
gm9
  0
POLYLINE
  8
gm9
 62
6
 40
0.000000
 41
0.000000
 66
  1
  0
VERTEX
  8
gm9
 10
2.528660
 20
0.100540
  0
VERTEX
  8
gm9
 10
2.528660
 20
0.100540
  0
VERTEX
  8
gm9
 10
2.528660
 20
0.100540
 42
1.000000
  0
VERTEX
  8
gm9
 10
2.473540
 20
0.100540
  0
VERTEX
  8
gm9
 10
2.473540
 20
0.100540
  0
VERTEX
  8
gm9
 10
2.473540
 20
0.100540
 42
1.000000
  0
VERTEX
  8
gm9
 10
2.528660
 20
0.100540
  0
VERTEX
  8
gm9
 10
2.528660
 20
0.100540
  0
SEQEND
  8
gm9
  0
POLYLINE
  8
gm9
 62
6
 40
0.000000
 41
0.000000
 66
  1
  0
VERTEX
  8
gm9
 10
1.729700
 20
0.100540
  0
VERTEX
  8
gm9
 10
1.729700
 20
0.100540
  0
VERTEX
  8
gm9
 10
1.729700
 20
0.100540
 42
1.000000
  0
VERTEX
  8
gm9
 10
1.674580
 20
0.100540
  0
VERTEX
  8
gm9
 10
1.674580
 20
0.100540
  0
VERTEX
  8
gm9
 10
1.674580
 20
0.100540
 42
1.000000
  0
VERTEX
  8
gm9
 10
1.729700
 20
0.100540
  0
VERTEX
  8
gm9
 10
1.729700
 20
0.100540
  0
SEQEND
  8
gm9
  0
POLYLINE
  8
gm9
 62
6
 40
0.000000
 41
0.000000
 66
  1
  0
VERTEX
  8
gm9
 10
1.429700
 20
0.100540
  0
VERTEX
  8
gm9
 10
1.429700
 20
0.100540
  0
VERTEX
  8
gm9
 10
1.429700
 20
0.100540
 42
1.000000
  0
VERTEX
  8
gm9
 10
1.374580
 20
0.100540
  0
VERTEX
  8
gm9
 10
1.374580
 20
0.100540
  0
VERTEX
  8
gm9
 10
1.374580
 20
0.100540
 42
1.000000
  0
VERTEX
  8
gm9
 10
1.429700
 20
0.100540
  0
VERTEX
  8
gm9
 10
1.429700
 20
0.100540
  0
SEQEND
  8
gm9
  0
POLYLINE
  8
gm9
 62
6
 40
0.000000
 41
0.000000
 66
  1
  0
VERTEX
  8
gm9
 10
1.529700
 20
0.100540
  0
VERTEX
  8
gm9
 10
1.529700
 20
0.100540
  0
VERTEX
  8
gm9
 10
1.529700
 20
0.100540
 42
1.000000
  0
VERTEX
  8
gm9
 10
1.474580
 20
0.100540
  0
VERTEX
  8
gm9
 10
1.474580
 20
0.100540
  0
VERTEX
  8
gm9
 10
1.474580
 20
0.100540
 42
1.000000
  0
VERTEX
  8
gm9
 10
1.529700
 20
0.100540
  0
VERTEX
  8
gm9
 10
1.529700
 20
0.100540
  0
SEQEND
  8
gm9
  0
POLYLINE
  8
gm9
 62
6
 40
0.000000
 41
0.000000
 66
  1
  0
VERTEX
  8
gm9
 10
1.629700
 20
0.100540
  0
VERTEX
  8
gm9
 10
1.629700
 20
0.100540
  0
VERTEX
  8
gm9
 10
1.629700
 20
0.100540
 42
1.000000
  0
VERTEX
  8
gm9
 10
1.574580
 20
0.100540
  0
VERTEX
  8
gm9
 10
1.574580
 20
0.100540
  0
VERTEX
  8
gm9
 10
1.574580
 20
0.100540
 42
1.000000
  0
VERTEX
  8
gm9
 10
1.629700
 20
0.100540
  0
VERTEX
  8
gm9
 10
1.629700
 20
0.100540
  0
SEQEND
  8
gm9
  0
POLYLINE
  8
gm9
 62
6
 40
0.000000
 41
0.000000
 66
  1
  0
VERTEX
  8
gm9
 10
1.829700
 20
0.100540
  0
VERTEX
  8
gm9
 10
1.829700
 20
0.100540
  0
VERTEX
  8
gm9
 10
1.829700
 20
0.100540
 42
1.000000
  0
VERTEX
  8
gm9
 10
1.774580
 20
0.100540
  0
VERTEX
  8
gm9
 10
1.774580
 20
0.100540
  0
VERTEX
  8
gm9
 10
1.774580
 20
0.100540
 42
1.000000
  0
VERTEX
  8
gm9
 10
1.829700
 20
0.100540
  0
VERTEX
  8
gm9
 10
1.829700
 20
0.100540
  0
SEQEND
  8
gm9
  0
POLYLINE
  8
gm9
 62
6
 40
0.000000
 41
0.000000
 66
  1
  0
VERTEX
  8
gm9
 10
2.927790
 20
0.100540
  0
VERTEX
  8
gm9
 10
2.927790
 20
0.100540
  0
VERTEX
  8
gm9
 10
2.927790
 20
0.100540
 42
1.000000
  0
VERTEX
  8
gm9
 10
2.872670
 20
0.100540
  0
VERTEX
  8
gm9
 10
2.872670
 20
0.100540
  0
VERTEX
  8
gm9
 10
2.872670
 20
0.100540
 42
1.000000
  0
VERTEX
  8
gm9
 10
2.927790
 20
0.100540
  0
VERTEX
  8
gm9
 10
2.927790
 20
0.100540
  0
SEQEND
  8
gm9
  0
POLYLINE
  8
gm9
 62
6
 40
0.000000
 41
0.000000
 66
  1
  0
VERTEX
  8
gm9
 10
2.128660
 20
0.100540
  0
VERTEX
  8
gm9
 10
2.128660
 20
0.100540
  0
VERTEX
  8
gm9
 10
2.128660
 20
0.100540
 42
1.000000
  0
VERTEX
  8
gm9
 10
2.073540
 20
0.100540
  0
VERTEX
  8
gm9
 10
2.073540
 20
0.100540
  0
VERTEX
  8
gm9
 10
2.073540
 20
0.100540
 42
1.000000
  0
VERTEX
  8
gm9
 10
2.128660
 20
0.100540
  0
VERTEX
  8
gm9
 10
2.128660
 20
0.100540
  0
SEQEND
  8
gm9
  0
POLYLINE
  8
gm9
 62
6
 40
0.000000
 41
0.000000
 66
  1
  0
VERTEX
  8
gm9
 10
2.028660
 20
0.100540
  0
VERTEX
  8
gm9
 10
2.028660
 20
0.100540
  0
VERTEX
  8
gm9
 10
2.028660
 20
0.100540
 42
1.000000
  0
VERTEX
  8
gm9
 10
1.973540
 20
0.100540
  0
VERTEX
  8
gm9
 10
1.973540
 20
0.100540
  0
VERTEX
  8
gm9
 10
1.973540
 20
0.100540
 42
1.000000
  0
VERTEX
  8
gm9
 10
2.028660
 20
0.100540
  0
VERTEX
  8
gm9
 10
2.028660
 20
0.100540
  0
SEQEND
  8
gm9
  0
POLYLINE
  8
gm9
 62
6
 40
0.000000
 41
0.000000
 66
  1
  0
VERTEX
  8
gm9
 10
3.800000
 20
0.218110
  0
VERTEX
  8
gm9
 10
3.800000
 20
0.218110
  0
VERTEX
  8
gm9
 10
3.800000
 20
0.218110
 42
0.414214
  0
VERTEX
  8
gm9
 10
3.681890
 20
0.100000
  0
VERTEX
  8
gm9
 10
3.681890
 20
0.100000
  0
SEQEND
  8
gm9
  0
POLYLINE
  8
gm9
 62
6
 40
0.000000
 41
0.000000
 66
  1
  0
VERTEX
  8
gm9
 10
1.773110
 20
1.849330
  0
VERTEX
  8
gm9
 10
2.201810
 20
1.849330
  0
SEQEND
  8
gm9
  0
POLYLINE
  8
gm9
 62
6
 40
0.000000
 41
0.000000
 66
  1
  0
VERTEX
  8
gm9
 10
1.773110
 20
1.849330
  0
VERTEX
  8
gm9
 10
1.773110
 20
1.947110
  0
SEQEND
  8
gm9
  0
POLYLINE
  8
gm9
 62
6
 40
0.000000
 41
0.000000
 66
  1
  0
VERTEX
  8
gm9
 10
2.201810
 20
0.220280
  0
VERTEX
  8
gm9
 10
2.201810
 20
1.849330
  0
SEQEND
  8
gm9
  0
POLYLINE
  8
gm9
 62
6
 40
0.000000
 41
0.000000
 66
  1
  0
VERTEX
  8
gm9
 10
1.186980
 20
1.947110
  0
VERTEX
  8
gm9
 10
1.186980
 20
0.220280
  0
SEQEND
  8
gm9
  0
POLYLINE
  8
gm9
 62
6
 40
0.000000
 41
0.000000
 66
  1
  0
VERTEX
  8
gm9
 10
1.186980
 20
1.947110
  0
VERTEX
  8
gm9
 10
1.773110
 20
1.947110
  0
SEQEND
  8
gm9
  0
POLYLINE
  8
gm9
 62
6
 40
0.000000
 41
0.000000
 66
  1
  0
VERTEX
  8
gm9
 10
3.668110
 20
2.028060
  0
VERTEX
  8
gm9
 10
3.668110
 20
2.098430
  0
SEQEND
  8
gm9
  0
POLYLINE
  8
gm9
 62
6
 40
0.000000
 41
0.000000
 66
  1
  0
VERTEX
  8
gm9
 10
3.665190
 20
1.972940
  0
VERTEX
  8
gm9
 10
3.665190
 20
1.973890
  0
SEQEND
  8
gm9
  0
POLYLINE
  8
gm9
 62
6
 40
0.000000
 41
0.000000
 66
  1
  0
VERTEX
  8
gm9
 10
3.665190
 20
1.972940
  0
VERTEX
  8
gm9
 10
3.698900
 20
1.972940
  0
SEQEND
  8
gm9
  0
POLYLINE
  8
gm9
 62
6
 40
0.000000
 41
0.000000
 66
  1
  0
VERTEX
  8
gm9
 10
3.668110
 20
2.028060
  0
VERTEX
  8
gm9
 10
3.698900
 20
2.028060
  0
SEQEND
  8
gm9
  0
POLYLINE
  8
gm9
 62
6
 40
0.000000
 41
0.000000
 66
  1
  0
VERTEX
  8
gm9
 10
3.435380
 20
1.971490
  0
VERTEX
  8
gm9
 10
3.435380
 20
1.972440
  0
SEQEND
  8
gm9
  0
POLYLINE
  8
gm9
 62
6
 40
0.000000
 41
0.000000
 66
  1
  0
VERTEX
  8
gm9
 10
3.400450
 20
1.972440
  0
VERTEX
  8
gm9
 10
3.435380
 20
1.972440
  0
SEQEND
  8
gm9
  0
POLYLINE
  8
gm9
 62
6
 40
0.000000
 41
0.000000
 66
  1
  0
VERTEX
  8
gm9
 10
3.400450
 20
2.027560
  0
VERTEX
  8
gm9
 10
3.431890
 20
2.027560
  0
VERTEX
  8
gm9
 10
3.431890
 20
2.098420
  0
SEQEND
  8
gm9
  0
POLYLINE
  8
gm9
 62
6
 40
0.000000
 41
0.000000
 66
  1
  0
VERTEX
  8
gm9
 10
3.905000
 20
0.218110
  0
VERTEX
  8
gm9
 10
3.905000
 20
0.273870
  0
SEQEND
  8
gm9
  0
POLYLINE
  8
gm9
 62
6
 40
0.000000
 41
0.000000
 66
  1
  0
VERTEX
  8
gm9
 10
3.800000
 20
0.218110
  0
VERTEX
  8
gm9
 10
3.905000
 20
0.218110
  0
SEQEND
  8
gm9
  0
POLYLINE
  8
gm9
 62
6
 40
0.000000
 41
0.000000
 66
  1
  0
VERTEX
  8
gm9
 10
3.620090
 20
0.000000
  0
VERTEX
  8
gm9
 10
3.681890
 20
0.000000
  0
VERTEX
  8
gm9
 10
3.681890
 20
0.100000
  0
SEQEND
  8
gm9
  0
POLYLINE
  8
gm9
 62
6
 40
0.000000
 41
0.000000
 66
  1
  0
VERTEX
  8
gm9
 10
1.773110
 20
0.220280
  0
VERTEX
  8
gm9
 10
2.201810
 20
0.220280
  0
SEQEND
  8
gm9
  0
POLYLINE
  8
gm9
 62
6
 40
0.000000
 41
0.000000
 66
  1
  0
VERTEX
  8
gm9
 10
1.186980
 20
0.220280
  0
VERTEX
  8
gm9
 10
1.773110
 20
0.220280
  0
SEQEND
  8
gm9
  0
POLYLINE
  8
gm9
 62
6
 40
0.000000
 41
0.000000
 66
  1
  0
VERTEX
  8
gm9
 10
3.668110
 20
2.098430
  0
VERTEX
  8
gm9
 10
3.905000
 20
2.098430
  0
SEQEND
  8
gm9
  0
POLYLINE
  8
gm9
 62
6
 40
0.000000
 41
0.000000
 66
  1
  0
VERTEX
  8
gm9
 10
3.905000
 20
2.098430
  0
VERTEX
  8
gm9
 10
3.905000
 20
0.218110
  0
SEQEND
  8
gm9
  0
POLYLINE
  8
gm9
 62
6
 40
0.000000
 41
0.000000
 66
  1
  0
VERTEX
  8
gm9
 10
1.041680
 20
2.098420
  0
VERTEX
  8
gm9
 10
3.431890
 20
2.098420
  0
SEQEND
  8
gm9
  0
POLYLINE
  8
gm9
 62
6
 40
0.000000
 41
0.000000
 66
  1
  0
VERTEX
  8
gm9
 10
1.041880
 20
0.000000
  0
VERTEX
  8
gm9
 10
3.681890
 20
0.000000
  0
SEQEND
  8
gm9
  0
POLYLINE
  8
gm9
 62
6
 40
0.000000
 41
0.000000
 66
  1
  0
VERTEX
  8
gm9
 10
1.041880
 20
1.973230
  0
VERTEX
  8
gm9
 10
1.041880
 20
0.000000
  0
SEQEND
  8
gm9
  0
POLYLINE
  8
gm9
 62
6
 40
0.000000
 41
0.000000
 66
  1
  0
VERTEX
  8
gm9
 10
1.041680
 20
2.028340
  0
VERTEX
  8
gm9
 10
1.041680
 20
2.098430
  0
SEQEND
  8
gm9
  0
ENDSEC
  0
EOF
